# Wavefront OBJ exported by MilkShape 3D

mtllib spoon2.mtl

v -0.400764 4.723038 -0.245795
v 2.614640 4.668804 3.775653
v 5.778527 5.473697 7.996588
v 8.090050 7.442800 11.079133
v 8.825340 10.014324 12.060534
v 8.408441 12.032323 11.504566
v 7.548935 12.334996 10.358368
v 6.827919 11.773379 9.395615
v 6.098343 10.063392 8.422021
v 4.365059 8.658316 6.110545
v 2.063530 8.125279 3.041444
v -0.400764 8.169355 -0.245795
v -0.400764 4.673453 4.397538
v -0.400764 5.482995 9.271586
v -0.400764 7.455540 12.831170
v -0.400764 10.028270 13.964358
v -0.400764 12.045581 13.322521
v -0.400764 12.346877 11.998518
v -0.400764 11.784398 10.887016
v -0.400764 10.073206 9.762937
v -0.400764 8.665547 7.094115
v -0.400764 8.128895 3.549708
v -3.416168 4.668804 3.775653
v -6.581481 5.473698 7.996588
v -8.891579 7.442801 11.079133
v -9.628296 10.014324 12.060534
v -9.211394 12.032323 11.504566
v -8.351890 12.334996 10.358368
v -7.629447 11.773379 9.395615
v -6.899871 10.063392 8.422021
v -5.166580 8.658316 6.110545
v -2.866485 8.125279 3.041444
v -5.623466 4.656408 2.075656
v -11.104584 5.448216 4.512897
v -70.498871 8.772985 5.058890
v -72.205032 12.195886 5.604016
v -71.299835 13.795341 3.879732
v -14.171386 12.302114 5.876362
v -12.922107 11.743595 5.320393
v -11.657124 10.036534 4.758355
v -8.655998 8.638689 3.423943
v -4.669731 8.115122 1.651957
v -6.431564 4.639364 -0.245795
v -12.760773 5.413438 -0.245795
v -73.545685 8.707044 -0.313014
v -75.514549 12.124264 -0.312147
v -74.459442 13.726990 -0.324290
v -16.303013 12.257348 -0.246229
v -14.858130 11.702790 -0.246229
v -13.398975 9.999862 -0.245795
v -9.932404 8.611831 -0.245795
v -5.330772 8.101175 -0.245795
v -5.623466 4.622491 -2.567678
v -11.104584 5.378488 -5.004918
v -70.494591 8.645406 -5.756473
v -72.199318 12.057290 -6.300732
v -71.294128 13.663115 -4.810633
v -14.171386 12.212413 -6.368386
v -12.922107 11.662159 -5.812417
v -11.657124 9.963190 -5.250377
v -8.655998 8.584972 -3.915967
v -4.669731 8.087230 -2.143979
v -3.416168 4.609922 -4.267674
v -6.581482 5.353006 -8.488610
v -8.891579 7.276828 -11.571156
v -9.628296 9.834233 -12.552557
v -9.211394 11.860324 -11.996590
v -8.351890 12.179699 -10.850392
v -7.629447 11.632372 -9.887639
v -6.899871 9.936331 -8.914043
v -5.166580 8.565345 -6.602569
v -2.866485 8.077072 -3.533467
v -0.400764 4.605446 -4.889561
v -0.400764 5.343709 -9.763608
v -0.400764 7.264087 -13.323194
v -0.400764 9.820287 -14.456380
v -0.400764 11.846894 -13.814546
v -0.400764 12.167646 -12.490542
v -0.400764 11.621352 -11.379040
v -0.400764 9.926517 -10.254959
v -0.400764 8.558113 -7.586138
v -0.400764 8.073457 -4.041731
v 2.614640 4.609922 -4.267674
v 5.778526 5.353005 -8.488610
v 8.090050 7.276827 -11.571156
v 8.825340 9.834233 -12.552557
v 8.408441 11.860324 -11.996590
v 7.548935 12.179699 -10.850392
v 6.827919 11.632372 -9.887639
v 6.098343 9.936331 -8.914043
v 4.365059 8.565345 -6.602569
v 2.063530 8.077072 -3.533467
v 4.821938 4.622491 -2.567678
v 10.303055 5.378487 -5.004918
v 14.306465 7.311950 -6.784711
v 15.580009 9.872283 -7.351088
v 14.859002 11.896651 -7.030170
v 13.369859 12.212411 -6.368386
v 12.119157 11.662157 -5.812417
v 10.855598 9.963189 -5.250377
v 7.854470 8.584972 -3.915967
v 3.868202 8.087230 -2.143979
v 5.630043 4.639363 -0.245795
v 11.959244 5.413437 -0.246228
v 16.580864 7.359813 -0.246229
v 18.052872 9.924277 -0.246229
v 17.219063 11.946237 -0.246229
v 15.500062 12.257346 -0.246229
v 14.056603 11.702788 -0.245795
v 12.597450 9.999860 -0.246229
v 9.130875 8.611831 -0.245795
v 4.527817 8.101175 -0.245795
v 4.821938 4.656408 2.075656
v 10.303055 5.448215 4.512897
v 14.306465 7.407677 6.292687
v 15.580009 9.976274 6.859065
v 14.859002 11.995994 6.538147
v 13.369859 12.302112 5.876362
v 12.119157 11.743593 5.320393
v 10.855598 10.036533 4.758355
v 7.854470 8.638689 3.423943
v 3.868202 8.115122 1.651957
v -16.382965 9.872285 -6.508895
v -15.107986 7.311951 -5.942519
v -17.383816 7.359815 -0.246229
v -15.107986 7.407677 5.380240
v -16.382965 9.976275 5.946618
v -17.333847 10.902203 4.210192
v -18.022022 11.946239 -0.245795
v -17.333847 10.803033 -5.006219
v -35.055046 10.386900 -4.111553
v -37.330875 10.432869 -0.264009
v -35.057903 10.482110 3.511979
v -36.330025 13.035900 3.918765
v -37.279476 13.951670 2.272976
v -37.966225 14.994156 -0.264009
v -37.276619 13.852844 -3.106300
v -36.327168 12.932598 -4.517904
v -52.356487 10.400846 -4.092472
v -54.632317 10.446816 -0.244928
v -52.359344 10.496056 3.531495
v -53.632896 13.049846 3.938279
v -54.582344 13.965445 2.292057
v -55.267662 15.008103 -0.244494
v -54.578064 13.866792 -3.086784
v -53.628609 12.946372 -4.498389
v -61.114288 14.863309 3.871927
v -62.602001 15.888577 -0.320387
v -61.108578 14.731082 -4.818439
v -60.404701 13.125257 -6.308539
v -58.699966 9.713374 -5.764279
v -61.751064 9.775010 -0.320820
v -58.705681 9.840951 5.051083
v -60.410412 13.264026 5.596209
# 154 vertices

vt 0.625000 0.160156
vt 0.515625 0.191406
vt 0.578125 0.136719
vt 0.625000 0.191406
vt 0.609375 0.167969
vt 0.750000 0.128906
vt 0.640625 0.082031
vt 0.828125 0.105469
vt 0.703125 0.039063
vt 0.859375 0.097656
vt 0.718750 0.027344
vt 0.843750 0.101563
vt 0.703125 0.035156
vt 0.812500 0.109375
vt 0.687500 0.050781
vt 0.781250 0.117188
vt 0.671875 0.062500
vt 0.750000 0.125000
vt 0.656250 0.078125
vt 0.687500 0.144531
vt 0.625000 0.105469
vt 0.562500 0.148438
vt 0.640625 0.191406
vt 0.625000 0.222656
vt 0.734375 0.253906
vt 0.781250 0.191406
vt 0.812500 0.281250
vt 0.875000 0.191406
vt 0.828125 0.285156
vt 0.906250 0.191406
vt 0.890625 0.191406
vt 0.796875 0.273438
vt 0.859375 0.191406
vt 0.765625 0.265625
vt 0.828125 0.191406
vt 0.734375 0.257813
vt 0.796875 0.191406
vt 0.687500 0.242188
vt 0.718750 0.191406
vt 0.609375 0.218750
vt 0.578125 0.246094
vt 0.640625 0.300781
vt 0.656250 0.343750
vt 0.656250 0.835938
vt 0.531250 0.726563
vt 0.671875 0.742188
vt 0.515625 0.820313
vt 0.625000 0.910156
vt 0.671875 0.800781
vt 0.625000 0.808594
vt 0.671875 0.921875
vt 0.671875 0.332031
vt 0.625000 0.367188
vt 0.656250 0.320313
vt 0.640625 0.308594
vt 0.609375 0.277344
vt 0.562500 0.234375
vt 0.515625 0.253906
vt 0.515625 0.320313
vt 0.656250 0.902344
vt 0.515625 0.812500
vt 0.656250 0.785156
vt 0.515625 0.933594
vt 0.515625 0.953125
vt 0.515625 0.941406
vt 0.515625 0.824219
vt 0.515625 0.339844
vt 0.515625 0.355469
vt 0.515625 0.324219
vt 0.515625 0.289063
vt 0.515625 0.242188
vt 0.453125 0.246094
vt 0.390625 0.300781
vt 0.359375 0.785156
vt 0.359375 0.902344
vt 0.343750 0.921875
vt 0.390625 0.910156
vt 0.390625 0.808594
vt 0.375000 0.320313
vt 0.359375 0.332031
vt 0.390625 0.308594
vt 0.421875 0.277344
vt 0.468750 0.234375
vt 0.406250 0.222656
vt 0.296875 0.253906
vt 0.218750 0.281250
vt 0.375000 0.343750
vt 0.343750 0.800781
vt 0.390625 0.367188
vt 0.250000 0.273438
vt 0.265625 0.265625
vt 0.296875 0.257813
vt 0.359375 0.242188
vt 0.421875 0.218750
vt 0.390625 0.191406
vt 0.250000 0.191406
vt 0.156250 0.191406
vt 0.125000 0.191406
vt 0.203125 0.285156
vt 0.140625 0.191406
vt 0.171875 0.191406
vt 0.203125 0.191406
vt 0.234375 0.191406
vt 0.312500 0.191406
vt 0.406250 0.191406
vt 0.406250 0.160156
vt 0.281250 0.128906
vt 0.203125 0.105469
vt 0.171875 0.097656
vt 0.187500 0.101563
vt 0.218750 0.109375
vt 0.250000 0.117188
vt 0.281250 0.125000
vt 0.343750 0.144531
vt 0.421875 0.167969
vt 0.453125 0.136719
vt 0.390625 0.082031
vt 0.328125 0.039063
vt 0.312500 0.027344
vt 0.328125 0.035156
vt 0.343750 0.050781
vt 0.359375 0.062500
vt 0.375000 0.078125
vt 0.421875 0.105469
vt 0.468750 0.148438
vt 0.515625 0.128906
vt 0.515625 0.066406
vt 0.515625 0.015625
vt 0.515625 0.007813
vt 0.515625 0.011719
vt 0.515625 0.027344
vt 0.515625 0.042969
vt 0.515625 0.058594
vt 0.515625 0.093750
vt 0.515625 0.140625
vt 0.359375 0.355469
vt 0.515625 0.367188
vt 0.671875 0.355469
vt 0.515625 0.375000
vt 0.515625 0.566406
vt 0.390625 0.542969
vt 0.640625 0.542969
vt 0.375000 0.386719
vt 0.625000 0.550781
vt 0.531250 0.542969
vt 0.484375 0.394531
vt 0.609375 0.566406
vt 0.656250 0.554688
vt 0.515625 0.574219
vt 0.421875 0.566406
vt 0.375000 0.554688
vt 0.640625 0.550781
vt 0.515625 0.742188
vt 0.406250 0.718750
vt 0.625000 0.718750
vt 0.656250 0.687500
vt 0.546875 0.679688
vt 0.593750 0.742188
vt 0.625000 0.730469
vt 0.515625 0.750000
vt 0.437500 0.742188
vt 0.406250 0.730469
vt 0.562500 0.679688
# 163 texture coordinates

vn 0.026827 -0.997351 0.067610
vn -0.000000 -0.999973 0.007317
vn 0.055015 -0.996784 0.058266
vn 0.000001 0.999973 -0.007323
vn -0.000004 0.997566 -0.069730
vn -0.034414 0.995820 -0.084612
vn 0.103848 -0.965302 0.239598
vn 0.214072 -0.959303 0.184152
vn 0.261422 -0.768330 0.584233
vn 0.534864 -0.729455 0.426399
vn 0.407356 -0.187308 0.893855
vn 0.805521 -0.069930 0.588427
vn 0.329465 0.612724 0.718347
vn 0.537984 0.773200 0.335762
vn 0.001265 0.999992 -0.003823
vn -0.066425 0.993395 -0.093559
vn -0.235115 0.816228 -0.527724
vn -0.471570 0.796966 -0.377448
vn -0.293094 0.698790 -0.652525
vn -0.498102 0.793959 -0.348602
vn -0.139798 0.937214 -0.319511
vn -0.214786 0.965076 -0.149983
vn -0.055493 0.997657 -0.040015
vn 0.000002 -0.994363 0.106034
vn -0.039217 -0.996136 0.078585
vn -0.149405 -0.945864 0.288130
vn 0.000004 -0.923997 0.382400
vn -0.338768 -0.697212 0.631769
vn 0.000006 -0.589051 0.808096
vn -0.451938 -0.005672 0.892031
vn 0.000016 0.071623 0.997432
vn -0.339745 0.670136 0.659918
vn 0.000009 0.852238 0.523154
vn 0.066567 0.993546 -0.091843
vn -0.000004 0.970969 -0.239205
vn 0.277873 0.762876 -0.583787
vn 0.000000 0.684818 -0.728714
vn 0.253646 0.756680 -0.602577
vn 0.000000 0.795677 -0.605721
vn 0.108938 0.953881 -0.279719
vn -0.000002 0.966084 -0.258228
vn 0.025177 0.996545 -0.079148
vn -0.061574 -0.997147 0.043664
vn -0.209845 -0.961615 0.176809
vn -0.346469 -0.775220 0.528198
vn -0.460328 0.267964 0.846341
vn 0.123268 -0.755978 0.642885
vn 0.098108 0.374758 0.921917
vn -0.358206 -0.804204 0.474283
vn -0.210576 0.850160 0.482583
vn 0.038047 0.920536 0.388801
vn -0.065568 0.995640 0.066354
vn -0.305460 0.818230 0.487025
vn 0.493504 0.798693 -0.344302
vn 0.476758 0.792486 -0.380353
vn 0.202438 0.963487 -0.175249
vn 0.049549 0.997349 -0.053294
vn -0.067400 -0.997725 -0.001171
vn -0.260656 -0.964518 0.041997
vn 0.091595 -0.995724 0.012023
vn -0.428993 -0.900718 -0.068348
vn -0.997653 0.068472 0.000537
vn -0.470157 0.877121 0.098035
vn -0.008279 0.999417 0.033110
vn 0.573773 0.818832 0.017299
vn 0.045864 0.997853 -0.046750
vn 0.579445 0.814530 -0.028010
vn 0.242661 0.969856 -0.022247
vn 0.060714 0.998042 -0.015002
vn -0.055089 -0.997523 -0.043742
vn -0.251026 -0.952845 -0.170506
vn 0.187035 -0.745236 -0.640032
vn -0.220390 -0.584027 -0.781243
vn -0.520935 0.223562 -0.823800
vn -0.369402 0.821773 -0.433856
vn 0.062233 0.859471 -0.507383
vn 0.473551 0.800334 0.367715
vn -0.027704 0.999430 -0.019313
vn 0.499886 0.797226 0.338444
vn 0.215283 0.967000 0.136253
vn 0.055558 0.998131 0.025438
vn -0.028011 -0.996972 -0.072545
vn -0.115875 -0.952417 -0.281911
vn -0.302481 -0.692953 -0.654463
vn -0.385016 -0.791358 -0.474884
vn 0.122194 0.369079 -0.921330
vn -0.231779 0.877910 -0.418989
vn -0.067269 0.997124 0.034895
vn -0.337813 0.761418 -0.553285
vn 0.252137 0.766936 0.590116
vn 0.281757 0.762389 0.582560
vn 0.129312 0.958693 0.253348
vn 0.035445 0.997740 0.057087
vn 0.006502 -0.996773 -0.080011
vn 0.011279 -0.948495 -0.316592
vn 0.015525 -0.680694 -0.732403
vn 0.001219 -0.055501 -0.998458
vn -0.446506 -0.066551 -0.892302
vn -0.028096 0.734210 -0.678341
vn -0.024702 0.993763 0.108738
vn -0.013651 0.752029 0.658988
vn 0.013076 0.746348 0.665427
vn 0.011125 0.953942 0.299785
vn 0.005912 0.997429 0.071412
vn 0.039296 -0.997167 -0.064138
vn 0.136103 -0.953736 -0.268074
vn 0.314059 -0.696455 -0.645226
vn 0.416269 -0.052093 -0.907748
vn 0.245450 0.744091 -0.621356
vn -0.067172 0.994641 0.078595
vn -0.279727 0.767731 0.576491
vn -0.255297 0.761621 0.595614
vn -0.109396 0.957446 0.267078
vn -0.025188 0.997586 0.064717
vn 0.061635 -0.997674 -0.029106
vn 0.227293 -0.962993 -0.144850
vn 0.564736 -0.733025 -0.379142
vn 0.809736 -0.055444 -0.584168
vn 0.489301 0.768250 -0.412767
vn -0.092889 0.995373 0.024592
vn -0.495364 0.801827 0.334197
vn -0.478950 0.795696 0.370775
vn -0.203018 0.965728 0.161719
vn -0.049617 0.998017 0.038739
vn 0.067391 -0.997602 0.015744
vn 0.256569 -0.966265 0.022480
vn 0.657730 -0.752518 0.033291
vn 0.997789 -0.066346 0.003822
vn 0.617268 0.784955 -0.053165
vn -0.092831 0.994899 -0.039476
vn -0.573560 0.818653 -0.028910
vn -0.579799 0.814591 0.016560
vn -0.242745 0.970056 0.008166
vn -0.060727 0.998154 0.000361
vn -0.411366 0.138186 -0.900934
vn -0.275834 -0.961205 0.001186
vn -0.397912 0.280733 0.873416
vn -0.077502 0.995777 -0.049211
vn -0.077891 -0.996961 0.001285
vn -0.089581 -0.771797 -0.629528
vn -0.091792 -0.741602 0.664531
vn -0.035331 0.417810 0.907847
vn 0.049977 0.909637 0.412387
vn 0.071086 0.997125 -0.026225
vn 0.059638 0.903271 -0.424906
vn 0.007304 0.413236 -0.910595
vn 0.046323 -0.998921 0.003244
vn 0.100272 -0.761427 -0.640448
vn 0.128800 -0.735825 0.664810
vn 0.126860 0.437545 0.890203
vn 0.084509 0.921233 0.379722
vn 0.077650 0.996288 0.037160
vn 0.105301 0.880916 -0.461409
vn 0.129839 0.458661 -0.879075
# 154 normals

g 
usemtl mat_spoon2_1
s 1
f 2/1/1 1/2/2 113/3/3
f 12/2/4 22/4/5 11/5/6
f 3/6/7 113/3/3 114/7/8
f 3/6/7 2/1/1 113/3/3
f 4/8/9 114/7/8 115/9/10
f 4/8/9 3/6/7 114/7/8
f 5/10/11 115/9/10 116/11/12
f 5/10/11 4/8/9 115/9/10
f 6/12/13 116/11/12 117/13/14
f 6/12/13 5/10/11 116/11/12
f 7/14/15 117/13/14 118/15/16
f 7/14/15 6/12/13 117/13/14
f 8/16/17 118/15/16 119/17/18
f 8/16/17 7/14/15 118/15/16
f 9/18/19 119/17/18 120/19/20
f 9/18/19 8/16/17 119/17/18
f 10/20/21 120/19/20 121/21/22
f 10/20/21 9/18/19 120/19/20
f 11/5/6 121/21/22 122/22/23
f 11/5/6 10/20/21 121/21/22
f 11/5/6 122/22/23 12/2/4
f 1/2/2 2/1/1 13/23/24
f 13/23/24 23/24/25 1/2/2
f 13/23/24 24/25/26 23/24/25
f 13/23/24 14/26/27 24/25/26
f 14/26/27 25/27/28 24/25/26
f 14/26/27 15/28/29 25/27/28
f 15/28/29 26/29/30 25/27/28
f 15/28/29 16/30/31 26/29/30
f 16/30/31 27/27/32 26/29/30
f 16/30/31 17/31/33 27/27/32
f 17/31/33 28/32/34 27/27/32
f 17/31/33 18/33/35 28/32/34
f 18/33/35 29/34/36 28/32/34
f 18/33/35 19/35/37 29/34/36
f 19/35/37 30/36/38 29/34/36
f 19/35/37 20/37/39 30/36/38
f 20/37/39 31/38/40 30/36/38
f 20/37/39 21/39/41 31/38/40
f 21/39/41 32/40/42 31/38/40
f 21/39/41 22/4/5 32/40/42
f 22/4/5 12/2/4 32/40/42
f 23/24/25 33/41/43 1/2/2
f 23/24/25 34/42/44 33/41/43
f 23/24/25 24/25/26 34/42/44
f 24/25/26 126/43/45 34/42/44
f 24/25/26 25/27/28 126/43/45
f 36/44/46 153/45/47 154/46/48
f 36/44/46 35/47/49 153/45/47
f 37/48/50 154/49/48 147/50/51
f 37/48/50 36/51/46 154/49/48
f 27/27/32 38/52/52 128/53/53
f 27/27/32 28/32/34 38/52/52
f 28/32/34 39/54/54 38/52/52
f 28/32/34 29/34/36 39/54/54
f 29/34/36 40/55/55 39/54/54
f 29/34/36 30/36/38 40/55/55
f 30/36/38 41/56/56 40/55/55
f 30/36/38 31/38/40 41/56/56
f 31/38/40 42/57/57 41/56/56
f 31/38/40 32/40/42 42/57/57
f 32/40/42 12/2/4 42/57/57
f 33/41/43 43/58/58 1/2/2
f 33/41/43 44/59/59 43/58/58
f 33/41/43 34/42/44 44/59/59
f 35/60/49 152/61/60 153/62/47
f 35/60/49 45/63/61 152/61/60
f 35/60/49 46/64/62 45/63/61
f 35/60/49 36/51/46 46/64/62
f 36/51/46 47/65/63 46/64/62
f 36/51/46 37/48/50 47/65/63
f 47/65/63 147/50/51 148/66/64
f 47/65/63 37/48/50 147/50/51
f 38/52/52 49/67/65 48/68/66
f 38/52/52 39/54/54 49/67/65
f 39/54/54 50/69/67 49/67/65
f 39/54/54 40/55/55 50/69/67
f 40/55/55 51/70/68 50/69/67
f 40/55/55 41/56/56 51/70/68
f 41/56/56 52/71/69 51/70/68
f 41/56/56 42/57/57 52/71/69
f 42/57/57 12/2/4 52/71/69
f 43/58/58 53/72/70 1/2/2
f 43/58/58 54/73/71 53/72/70
f 43/58/58 44/59/59 54/73/71
f 45/63/61 151/74/72 152/61/60
f 45/63/61 55/75/73 151/74/72
f 45/63/61 56/76/74 55/75/73
f 45/63/61 46/64/62 56/76/74
f 46/64/62 57/77/75 56/76/74
f 46/64/62 47/65/63 57/77/75
f 57/77/75 148/66/64 149/78/76
f 57/77/75 47/65/63 148/66/64
f 48/68/66 59/79/77 58/80/78
f 48/68/66 49/67/65 59/79/77
f 49/67/65 60/81/79 59/79/77
f 49/67/65 50/69/67 60/81/79
f 50/69/67 61/82/80 60/81/79
f 50/69/67 51/70/68 61/82/80
f 51/70/68 62/83/81 61/82/80
f 51/70/68 52/71/69 62/83/81
f 52/71/69 12/2/4 62/83/81
f 53/72/70 63/84/82 1/2/2
f 53/72/70 64/85/83 63/84/82
f 53/72/70 54/73/71 64/85/83
f 54/73/71 65/86/84 64/85/83
f 54/73/71 124/87/85 65/86/84
f 55/47/73 150/46/86 151/45/72
f 55/47/73 56/44/74 150/46/86
f 56/76/74 149/78/76 150/88/86
f 56/76/74 57/77/75 149/78/76
f 130/89/87 68/90/88 67/86/89
f 130/89/87 58/80/78 68/90/88
f 58/80/78 69/91/90 68/90/88
f 58/80/78 59/79/77 69/91/90
f 59/79/77 70/92/91 69/91/90
f 59/79/77 60/81/79 70/92/91
f 60/81/79 71/93/92 70/92/91
f 60/81/79 61/82/80 71/93/92
f 61/82/80 72/94/93 71/93/92
f 61/82/80 62/83/81 72/94/93
f 62/83/81 12/2/4 72/94/93
f 63/84/82 73/95/94 1/2/2
f 63/84/82 74/96/95 73/95/94
f 63/84/82 64/85/83 74/96/95
f 64/85/83 75/97/96 74/96/95
f 64/85/83 65/86/84 75/97/96
f 65/86/84 76/98/97 75/97/96
f 65/86/84 66/99/98 76/98/97
f 66/99/98 77/100/99 76/98/97
f 66/99/98 67/86/89 77/100/99
f 67/86/89 78/101/100 77/100/99
f 67/86/89 68/90/88 78/101/100
f 68/90/88 79/102/101 78/101/100
f 68/90/88 69/91/90 79/102/101
f 69/91/90 80/103/102 79/102/101
f 69/91/90 70/92/91 80/103/102
f 70/92/91 81/104/103 80/103/102
f 70/92/91 71/93/92 81/104/103
f 71/93/92 82/105/104 81/104/103
f 71/93/92 72/94/93 82/105/104
f 72/94/93 12/2/4 82/105/104
f 73/95/94 83/106/105 1/2/2
f 73/95/94 84/107/106 83/106/105
f 73/95/94 74/96/95 84/107/106
f 74/96/95 85/108/107 84/107/106
f 74/96/95 75/97/96 85/108/107
f 75/97/96 86/109/108 85/108/107
f 75/97/96 76/98/97 86/109/108
f 76/98/97 87/110/109 86/109/108
f 76/98/97 77/100/99 87/110/109
f 77/100/99 88/111/110 87/110/109
f 77/100/99 78/101/100 88/111/110
f 78/101/100 89/112/111 88/111/110
f 78/101/100 79/102/101 89/112/111
f 79/102/101 90/113/112 89/112/111
f 79/102/101 80/103/102 90/113/112
f 80/103/102 91/114/113 90/113/112
f 80/103/102 81/104/103 91/114/113
f 81/104/103 92/115/114 91/114/113
f 81/104/103 82/105/104 92/115/114
f 82/105/104 12/2/4 92/115/114
f 83/106/105 93/116/115 1/2/2
f 83/106/105 94/117/116 93/116/115
f 83/106/105 84/107/106 94/117/116
f 84/107/106 95/118/117 94/117/116
f 84/107/106 85/108/107 95/118/117
f 85/108/107 96/119/118 95/118/117
f 85/108/107 86/109/108 96/119/118
f 86/109/108 97/120/119 96/119/118
f 86/109/108 87/110/109 97/120/119
f 87/110/109 98/121/120 97/120/119
f 87/110/109 88/111/110 98/121/120
f 88/111/110 99/122/121 98/121/120
f 88/111/110 89/112/111 99/122/121
f 89/112/111 100/123/122 99/122/121
f 89/112/111 90/113/112 100/123/122
f 90/113/112 101/124/123 100/123/122
f 90/113/112 91/114/113 101/124/123
f 91/114/113 102/125/124 101/124/123
f 91/114/113 92/115/114 102/125/124
f 92/115/114 12/2/4 102/125/124
f 93/116/115 103/126/125 1/2/2
f 93/116/115 104/127/126 103/126/125
f 93/116/115 94/117/116 104/127/126
f 94/117/116 105/128/127 104/127/126
f 94/117/116 95/118/117 105/128/127
f 95/118/117 106/129/128 105/128/127
f 95/118/117 96/119/118 106/129/128
f 96/119/118 107/130/129 106/129/128
f 96/119/118 97/120/119 107/130/129
f 97/120/119 108/131/130 107/130/129
f 97/120/119 98/121/120 108/131/130
f 98/121/120 109/132/131 108/131/130
f 98/121/120 99/122/121 109/132/131
f 99/122/121 110/133/132 109/132/131
f 99/122/121 100/123/122 110/133/132
f 100/123/122 111/134/133 110/133/132
f 100/123/122 101/124/123 111/134/133
f 101/124/123 112/135/134 111/134/133
f 101/124/123 102/125/124 112/135/134
f 102/125/124 12/2/4 112/135/134
f 103/126/125 113/3/3 1/2/2
f 103/126/125 114/7/8 113/3/3
f 103/126/125 104/127/126 114/7/8
f 104/127/126 115/9/10 114/7/8
f 104/127/126 105/128/127 115/9/10
f 105/128/127 116/11/12 115/9/10
f 105/128/127 106/129/128 116/11/12
f 106/129/128 117/13/14 116/11/12
f 106/129/128 107/130/129 117/13/14
f 107/130/129 118/15/16 117/13/14
f 107/130/129 108/131/130 118/15/16
f 108/131/130 119/17/18 118/15/16
f 108/131/130 109/132/131 119/17/18
f 109/132/131 120/19/20 119/17/18
f 109/132/131 110/133/132 120/19/20
f 110/133/132 121/21/22 120/19/20
f 110/133/132 111/134/133 121/21/22
f 111/134/133 122/22/23 121/21/22
f 111/134/133 112/135/134 122/22/23
f 112/135/134 12/2/4 122/22/23
f 13/23/24 3/6/7 14/26/27
f 13/23/24 2/1/1 3/6/7
f 14/26/27 4/8/9 15/28/29
f 14/26/27 3/6/7 4/8/9
f 15/28/29 5/10/11 16/30/31
f 15/28/29 4/8/9 5/10/11
f 16/30/31 6/12/13 17/31/33
f 16/30/31 5/10/11 6/12/13
f 17/31/33 7/14/15 18/33/35
f 17/31/33 6/12/13 7/14/15
f 18/33/35 8/16/17 19/35/37
f 18/33/35 7/14/15 8/16/17
f 19/35/37 9/18/19 20/37/39
f 19/35/37 8/16/17 9/18/19
f 20/37/39 10/20/21 21/39/41
f 20/37/39 9/18/19 10/20/21
f 21/39/41 11/5/6 22/4/5
f 21/39/41 10/20/21 11/5/6
f 66/99/98 124/87/85 123/136/135
f 66/99/98 65/86/84 124/87/85
f 54/73/71 125/137/136 124/87/85
f 54/73/71 44/59/59 125/137/136
f 44/59/59 126/43/45 125/137/136
f 44/59/59 34/42/44 126/43/45
f 25/27/28 127/138/137 126/43/45
f 25/27/28 26/29/30 127/138/137
f 26/29/30 128/53/53 127/138/137
f 26/29/30 27/27/32 128/53/53
f 38/52/52 129/139/138 128/53/53
f 38/52/52 48/68/66 129/139/138
f 48/68/66 130/89/87 129/139/138
f 48/68/66 58/80/78 130/89/87
f 67/86/89 123/136/135 130/89/87
f 67/86/89 66/99/98 123/136/135
f 124/87/85 132/140/139 131/141/140
f 124/87/85 125/137/136 132/140/139
f 125/137/136 133/142/141 132/140/139
f 125/137/136 126/43/45 133/142/141
f 126/143/45 134/144/142 133/145/141
f 126/143/45 127/146/137 134/144/142
f 127/138/137 135/147/143 134/148/142
f 127/138/137 128/53/53 135/147/143
f 128/53/53 136/149/144 135/147/143
f 128/53/53 129/139/138 136/149/144
f 129/139/138 137/150/145 136/149/144
f 129/139/138 130/89/87 137/150/145
f 130/89/87 138/151/146 137/150/145
f 130/89/87 123/136/135 138/151/146
f 123/146/135 131/145/140 138/152/146
f 123/146/135 124/143/85 131/145/140
f 131/141/140 140/153/147 139/154/148
f 131/141/140 132/140/139 140/153/147
f 132/140/139 141/155/149 140/153/147
f 132/140/139 133/142/141 141/155/149
f 133/145/141 142/156/150 141/157/149
f 133/145/141 134/144/142 142/156/150
f 134/148/142 143/158/151 142/159/150
f 134/148/142 135/147/143 143/158/151
f 135/147/143 144/160/152 143/158/151
f 135/147/143 136/149/144 144/160/152
f 136/149/144 145/161/153 144/160/152
f 136/149/144 137/150/145 145/161/153
f 137/150/145 146/162/154 145/161/153
f 137/150/145 138/151/146 146/162/154
f 138/152/146 139/163/148 146/156/154
f 138/152/146 131/145/140 139/163/148
f 143/158/151 148/66/64 147/50/51
f 143/158/151 144/160/152 148/66/64
f 144/160/152 149/78/76 148/66/64
f 144/160/152 145/161/153 149/78/76
f 145/161/153 150/88/86 149/78/76
f 145/161/153 146/162/154 150/88/86
f 146/156/154 151/45/72 150/46/86
f 146/156/154 139/163/148 151/45/72
f 139/154/148 152/61/60 151/74/72
f 139/154/148 140/153/147 152/61/60
f 140/153/147 153/62/47 152/61/60
f 140/153/147 141/155/149 153/62/47
f 141/157/149 154/46/48 153/45/47
f 141/157/149 142/156/150 154/46/48
f 142/159/150 147/50/51 154/49/48
f 142/159/150 143/158/151 147/50/51
# 304 triangles in group

# 304 triangles total

