# Wavefront OBJ exported by MilkShape 3D

mtllib stone1.mtl

v -20.507288 3.143130 71.272202
v 3.656539 3.143130 83.785515
v -10.546600 14.113776 67.783897
v 3.656539 21.807510 44.048645
v 17.859676 14.113776 67.783897
v 27.820366 3.143130 71.272202
v -46.527775 10.626490 41.892746
v -48.441353 15.381475 0.000002
v -17.824627 23.706514 25.891142
v -17.824627 23.706514 -25.891138
v 3.656539 21.807510 -44.048649
v 3.656539 25.084431 0.000002
v 31.637707 23.706514 25.891142
v 31.637707 23.706514 -25.891138
v 47.754436 17.490850 0.000002
v 45.840851 12.735867 41.892746
v 59.618866 1.385318 0.000002
v 52.754436 -4.876468 0.000002
v 50.840851 -5.394913 41.892746
v 45.840851 12.735867 -41.892757
v 27.820366 3.143130 -71.272202
v 50.840851 -5.394913 -41.892757
v 17.859676 14.113776 -67.783890
v -10.546600 14.113776 -67.783890
v -20.507288 3.143130 -71.272202
v 3.656539 3.143130 -83.785492
v -10.546600 -1.499392 -67.783890
v 6.156539 -5.677504 -44.048649
v 17.859676 -1.499392 -67.783890
v 30.137707 -12.849941 -25.891138
v 5.156539 -13.173170 0.000002
v 6.156539 -5.677504 44.048645
v 30.137707 -12.849941 25.891142
v -17.824627 -10.389004 -25.891138
v -48.441353 -1.360845 0.000002
v -17.824627 -10.389004 25.891142
v -46.527775 3.394149 41.892746
v -10.546600 -1.499392 67.783897
v 17.859676 -1.499392 67.783897
v -55.305801 3.846255 0.000002
v -46.527775 10.626490 -41.892757
v -46.527775 3.394149 -41.892757
v -20.507288 3.143130 71.272202
v -46.527775 10.626490 41.892746
v -20.507288 3.143130 -71.272202
v -46.527775 3.394149 41.892746
v -55.305801 3.846255 0.000002
v -46.527775 10.626490 -41.892757
v -46.527775 3.394149 -41.892757
# 49 vertices

vt 0.332799 0.249366
vt 0.545035 0.204778
vt 0.420286 0.261796
vt 0.545035 0.346372
vt 0.669785 0.261796
vt 0.784615 0.186866
vt 0.155037 0.408741
vt 0.087448 0.503329
vt 0.356362 0.411072
vt 0.356362 0.595586
vt 0.545035 0.660286
vt 0.545035 0.503329
vt 0.790800 0.411072
vt 0.790800 0.595586
vt 0.850326 0.495516
vt 0.915550 0.354053
vt 0.954534 0.495516
vt 0.894242 0.495516
vt 0.959466 0.354053
vt 0.872581 0.650651
vt 0.802194 0.772917
vt 0.916497 0.650651
vt 0.669785 0.744862
vt 0.420286 0.744862
vt 0.334752 0.739713
vt 0.546989 0.774536
vt 0.566994 0.660286
vt 0.777625 0.595586
vt 0.558210 0.503329
vt 0.566994 0.346372
vt 0.777625 0.411072
vt 0.027156 0.503329
vt 0.104256 0.652605
vt 0.716117 0.527741
vt 0.590577 0.623539
vt 0.590577 0.530954
vt 0.411568 0.536742
vt 0.107018 0.527741
vt 0.232558 0.530954
vt 0.232558 0.623539
# 40 texture coordinates

vn -0.616592 -0.156080 0.771657
vn -0.000000 -0.212640 0.977131
vn -0.221101 0.853143 0.472504
vn -0.002828 0.981474 0.191572
vn 0.234425 0.849076 0.473408
vn 0.623760 -0.077028 0.777811
vn -0.719990 0.582305 0.377539
vn -0.572977 0.819571 0.000000
vn -0.177816 0.976981 0.117856
vn -0.177816 0.976981 -0.117856
vn -0.002828 0.981474 -0.191572
vn -0.000504 1.000000 0.000000
vn 0.229825 0.964471 0.130295
vn 0.229825 0.964471 -0.130295
vn 0.618959 0.785423 0.000000
vn 0.705810 0.622716 0.337724
vn 0.998970 0.045377 0.000000
vn 0.479636 -0.877468 0.000000
vn 0.675369 -0.654969 0.338957
vn 0.705810 0.622716 -0.337724
vn 0.623760 -0.077028 -0.777812
vn 0.675369 -0.654970 -0.338957
vn 0.234425 0.849076 -0.473409
vn -0.221101 0.853143 -0.472505
vn -0.616591 -0.156080 -0.771657
vn -0.000000 -0.212640 -0.977131
vn -0.139880 -0.950351 -0.277968
vn -0.034423 -0.981533 -0.188173
vn 0.081998 -0.944752 -0.317364
vn 0.088895 -0.988962 -0.118539
vn -0.050294 -0.998734 0.000000
vn -0.034423 -0.981533 0.188173
vn 0.088895 -0.988962 0.118539
vn -0.165330 -0.978269 -0.125126
vn -0.453806 -0.891101 0.000000
vn -0.165330 -0.978269 0.125126
vn -0.649759 -0.690011 0.318901
vn -0.139880 -0.950351 0.277967
vn 0.081998 -0.944752 0.317364
vn -0.993345 -0.115173 0.000000
vn -0.719989 0.582305 -0.377539
vn -0.649759 -0.690011 -0.318901
# 42 normals

g GeoSphere03
usemtl Material04
s 1
f 1/1/1 2/2/2 3/3/3
f 4/4/4 3/3/3 5/5/5
f 6/6/6 5/5/5 2/2/2
f 3/3/3 2/2/2 5/5/5
f 1/1/1 3/3/3 7/7/7
f 8/8/8 7/7/7 9/9/9
f 4/4/4 9/9/9 3/3/3
f 7/7/7 3/3/3 9/9/9
f 8/8/8 9/9/9 10/10/10
f 11/11/11 10/10/10 12/12/12
f 4/4/4 12/12/12 9/9/9
f 10/10/10 9/9/9 12/12/12
f 4/4/4 13/13/13 12/12/12
f 11/11/11 12/12/12 14/14/14
f 15/15/15 14/14/14 13/13/13
f 12/12/12 13/13/13 14/14/14
f 4/4/4 5/5/5 13/13/13
f 15/15/15 13/13/13 16/16/16
f 6/6/6 16/16/16 5/5/5
f 13/13/13 5/5/5 16/16/16
f 15/15/15 16/16/16 17/17/17
f 18/18/18 17/17/17 19/19/19
f 6/6/6 19/19/19 16/16/16
f 17/17/17 16/16/16 19/19/19
f 15/15/15 17/17/17 20/20/20
f 21/21/21 20/20/20 22/22/22
f 18/18/18 22/22/22 17/17/17
f 20/20/20 17/17/17 22/22/22
f 11/11/11 14/14/14 23/23/23
f 21/21/21 23/23/23 20/20/20
f 15/15/15 20/20/20 14/14/14
f 23/23/23 14/14/14 20/20/20
f 11/11/11 23/23/23 24/24/24
f 25/25/25 24/24/24 26/26/26
f 21/21/21 26/26/26 23/23/23
f 24/24/24 23/23/23 26/26/26
f 25/25/25 26/26/26 27/24/27
f 28/27/28 27/24/27 29/23/29
f 21/21/21 29/23/29 26/26/26
f 27/24/27 26/26/26 29/23/29
f 28/27/28 29/23/29 30/28/30
f 18/18/18 30/28/30 22/22/22
f 21/21/21 22/22/22 29/23/29
f 30/28/30 29/23/29 22/22/22
f 28/27/28 30/28/30 31/29/31
f 32/30/32 31/29/31 33/31/33
f 18/18/18 33/31/33 30/28/30
f 31/29/31 30/28/30 33/31/33
f 28/27/28 31/29/31 34/10/34
f 35/8/35 34/10/34 36/9/36
f 32/30/32 36/9/36 31/29/31
f 34/10/34 31/29/31 36/9/36
f 35/8/35 36/9/36 37/7/37
f 1/1/1 37/7/37 38/3/38
f 32/30/32 38/3/38 36/9/36
f 37/7/37 36/9/36 38/3/38
f 1/1/1 38/3/38 2/2/2
f 6/6/6 2/2/2 39/5/39
f 32/30/32 39/5/39 38/3/38
f 2/2/2 38/3/38 39/5/39
f 32/30/32 33/31/33 39/5/39
f 6/6/6 39/5/39 19/19/19
f 18/18/18 19/19/19 33/31/33
f 39/5/39 33/31/33 19/19/19
f 8/8/8 40/32/40 7/7/7
f 35/8/35 37/7/37 40/32/40
f 8/8/8 41/33/41 40/32/40
f 35/8/35 40/32/40 42/33/42
f 8/8/8 10/10/10 41/33/41
f 25/25/25 41/33/41 24/24/24
f 11/11/11 24/24/24 10/10/10
f 41/33/41 10/10/10 24/24/24
f 28/27/28 34/10/34 27/24/27
f 25/25/25 27/24/27 42/33/42
f 35/8/35 42/33/42 34/10/34
f 27/24/27 34/10/34 42/33/42
# 76 triangles in group

g old
usemtl Material04
f 43/34/1 44/35/7 46/36/37
f 44/35/7 47/37/40 46/36/37
f 45/38/25 49/39/42 48/40/41
f 47/37/40 48/40/41 49/39/42
# 4 triangles in group

# 80 triangles total

