# Wavefront OBJ exported by MilkShape 3D

mtllib house2.mtl

v 93.000854 61.997871 133.003174
v 93.999512 61.997871 -131.002426
v -86.001167 61.997871 -131.002426
v -86.999825 61.997871 133.003174
v 93.000854 -62.000580 133.003174
v 93.999512 -62.000580 -131.002426
v -86.001167 -62.000580 -131.002426
v -86.999825 -62.000580 133.003174
v 103.999931 61.997871 145.996033
v 103.999931 167.003540 145.996033
v 104.998589 167.003540 -275.998077
v 104.998589 61.997871 -275.998077
v -97.998901 167.003540 -275.998077
v -97.998901 61.997871 -275.998077
v -99.001022 167.003540 145.996033
v -99.001022 61.997871 145.996033
v 103.999931 167.003540 145.996033
v -1.999696 270.003113 145.996033
v -1.001040 270.003113 -275.998077
v 104.998589 167.003540 -275.998077
v -1.001040 269.002899 -275.998077
v -97.998901 167.003540 -275.998077
v -1.999696 269.002899 145.996033
v -99.001022 167.003540 145.996033
v -1.573187 272.167419 168.997620
v -0.841533 271.483643 -298.999664
v -3.036494 273.529297 -297.997253
v -3.768148 274.213074 170.000046
v -109.961960 154.464111 168.997620
v -109.230309 153.785995 -298.999664
v -111.425270 155.831635 -297.997253
v -112.156921 156.515396 170.000046
v 113.005173 158.346298 -297.997253
v -1.392874 270.212189 -297.997253
v -2.089852 269.494537 170.000046
v 112.311661 157.628632 170.000046
v -0.005853 271.653198 168.997620
v 114.395660 159.787292 168.997620
v 0.691125 272.370850 -298.999664
v 115.089172 160.504959 -298.999664
v -85.664818 62.331276 -263.668365
v -85.664818 62.331276 -276.337341
v -98.335258 62.331276 -276.337341
v -98.335258 62.331276 -263.668365
v -85.664818 -62.333984 -263.668365
v -85.664818 -62.333984 -276.337341
v -98.335258 -62.333984 -276.337341
v -98.335258 -62.333984 -263.668365
v -86.666939 -62.333984 -202.667465
v -86.666939 62.331276 -202.667465
v -86.666939 62.331276 -215.336472
v -86.666939 -62.333984 -215.336472
v -99.333908 62.331276 -215.336472
v -99.333908 -62.333984 -215.336472
v -99.333908 62.331276 -202.667465
v -99.333908 -62.333984 -202.667465
v -85.664818 -62.333984 -131.665558
v -85.664818 62.331276 -131.665558
v -85.664818 62.331276 -144.334564
v -85.664818 -62.333984 -144.334564
v -98.335258 62.331276 -144.334564
v -98.335258 -62.333984 -144.334564
v -98.335258 62.331276 -131.665558
v -98.335258 -62.333984 -131.665558
v 104.332817 -62.333984 -263.668365
v 104.332817 62.331276 -263.668365
v 104.332817 62.331276 -276.337341
v 104.332817 -62.333984 -276.337341
v 91.665848 62.331276 -276.337341
v 91.665848 -62.333984 -276.337341
v 91.665848 62.331276 -263.668365
v 91.665848 -62.333984 -263.668365
v 104.332817 -62.333984 -202.667465
v 104.332817 62.331276 -202.667465
v 104.332817 62.331276 -215.336472
v 104.332817 -62.333984 -215.336472
v 91.665848 62.331276 -215.336472
v 91.665848 -62.333984 -215.336472
v 91.665848 62.331276 -202.667465
v 91.665848 -62.333984 -202.667465
v 104.332817 -62.333984 -131.665558
v 104.332817 62.331276 -131.665558
v 104.332817 62.331276 -144.334564
v 104.332817 -62.333984 -144.334564
v 91.665848 62.331276 -144.334564
v 91.665848 -62.333984 -144.334564
v 91.665848 62.331276 -131.665558
v 91.665848 -62.333984 -131.665558
v 2.334746 -62.333984 -264.663055
v 2.334746 62.331276 -264.663055
v 2.334746 62.331276 -277.339783
v 2.334746 -62.333984 -277.339783
v -10.335693 62.331276 -277.339783
v -10.335693 -62.333984 -277.339783
v -10.335693 62.331276 -264.663055
v -10.335693 -62.333984 -264.663055
v -86.999825 10.998190 81.000900
v -86.999825 10.998190 49.000690
v -89.000603 10.998190 49.000690
v -89.000603 10.998190 81.000900
v -86.999825 -56.999504 81.000900
v -86.999825 -56.999504 49.000690
v -89.000603 -56.999504 49.000690
v -89.000603 -56.999504 81.000900
v -89.000603 -51.998425 85.997559
v -89.000603 -51.998425 43.996319
v -107.000671 -51.998425 43.996319
v -107.000671 -51.998425 85.997559
v -89.000603 -62.000580 85.997559
v -89.000603 -62.000580 43.996319
v -107.000671 -62.000580 43.996319
v -107.000671 -62.000580 85.997559
v 3.333401 259.334137 -260.668823
v 3.333401 259.334137 -335.333405
v 3.333401 246.664749 -335.333405
v 3.333401 246.664749 -260.668823
v -9.333570 246.664749 -335.333405
v -9.333570 246.664749 -260.668823
v -9.333570 259.334137 -335.333405
v -9.333570 259.334137 -260.668823
v 3.333401 206.170166 -255.379150
v 3.333401 257.090729 -309.987701
v 3.333401 247.828842 -318.623901
v 3.333401 196.908279 -264.015350
v -9.333570 247.828842 -318.623901
v -9.333570 196.908279 -264.015350
v -9.333570 257.090729 -309.987701
v -9.333570 206.170166 -255.379150
v 64.750702 308.000000 48.746231
v 64.750702 308.000000 25.251137
v 41.251095 308.000000 25.251137
v 41.251095 308.000000 48.746231
v 67.001144 188.002411 53.002644
v 67.001144 188.002411 21.002434
v 36.999874 222.998642 21.002434
v 36.999874 222.998642 53.002644
# 136 vertices

vt 0.021484 0.001953
vt 0.471680 0.001953
vt 0.471680 0.196289
vt 0.021484 0.196289
vt 0.303711 0.002930
vt 0.023438 0.002930
vt 0.023438 0.196289
vt 0.303711 0.196289
vt 0.312500 0.000977
vt 0.028320 0.000977
vt 0.028320 0.197266
vt 0.312500 0.197266
vt 0.000000 0.000000
vt 0.031250 0.212891
vt 0.939453 0.211914
vt 0.938477 0.549805
vt 0.030273 0.550781
vt 0.565430 0.209961
vt 0.565430 0.548828
vt 0.563477 0.547852
vt 0.685547 0.633789
vt 0.685547 0.577148
vt 0.181641 0.577148
vt 0.181641 0.633789
vt 0.752930 0.018555
vt 0.752930 0.016602
vt 0.585938 0.208984
vt 0.933594 0.209961
vt 0.019531 0.657227
vt 0.560547 0.656250
vt 0.560547 0.973633
vt 0.019531 0.974609
vt 0.099609 0.637695
vt 0.099609 0.576172
vt 0.711914 0.576172
vt 0.711914 0.637695
vt 0.696289 0.638672
vt 0.696289 0.577148
vt 0.095703 0.577148
vt 0.095703 0.638672
vt 0.081055 0.574219
vt 0.081055 0.638672
vt 0.712891 0.574219
vt 0.106445 0.573242
vt 0.106445 0.634766
vt 0.716797 0.634766
vt 0.716797 0.573242
vt 0.152344 0.638672
vt 0.152344 0.573242
vt 0.086914 0.573242
vt 0.086914 0.638672
vt 0.291992 0.638672
vt 0.354492 0.638672
vt 0.354492 0.576172
vt 0.291992 0.576172
vt 0.824219 0.581055
vt 0.824219 0.892578
vt 0.971680 0.581055
vt 0.971680 0.892578
vt 0.725586 0.710938
vt 0.656250 0.710938
vt 0.656250 0.749023
vt 0.725586 0.749023
vt 0.755859 0.710938
vt 0.601563 0.710938
vt 0.601563 0.748047
vt 0.755859 0.748047
vt 0.739258 0.701172
vt 0.644531 0.701172
vt 0.644531 0.753906
vt 0.739258 0.753906
vt 0.600586 0.800781
vt 0.781250 0.800781
vt 0.781250 0.693359
vt 0.600586 0.693359
vt 0.092773 0.023438
vt 0.125000 0.023438
vt 0.130859 0.186523
vt 0.086914 0.186523
vt 0.168945 0.028320
vt 0.137695 0.028320
vt 0.134766 0.185547
vt 0.174805 0.139648
vt 0.125000 0.026367
vt 0.093750 0.026367
vt 0.087891 0.138672
vt 0.129883 0.138672
vt 0.208008 0.028320
vt 0.176758 0.028320
vt 0.171875 0.141602
vt 0.210938 0.187500
# 91 texture coordinates

vn 0.817522 0.408764 -0.405672
vn 0.333051 0.666107 0.667367
vn 0.666102 -0.666107 0.335573
vn 0.408761 -0.408764 -0.815982
vn -0.333051 0.666107 -0.667367
vn -0.666102 -0.666107 -0.335573
vn -0.817522 0.408764 0.405672
vn -0.408761 -0.408764 0.815982
vn 0.219761 0.800510 -0.557574
vn -0.876080 0.482161 -0.002073
vn 0.770857 -0.312839 0.554898
vn 0.326380 -0.132456 -0.935912
vn -0.789026 0.199560 -0.581045
vn -0.775353 -0.332632 -0.536828
vn -0.820532 0.461725 -0.336953
vn -0.918999 -0.394253 -0.002182
vn 0.881422 -0.187590 -0.433479
vn 0.798722 0.111046 0.591364
vn 0.106227 -0.948585 0.298166
vn -0.189813 -0.450917 -0.872150
vn 0.050567 0.803202 -0.593557
vn -0.954501 0.033382 -0.296332
vn -0.256488 0.862966 0.435320
vn -0.437917 -0.221738 0.871241
vn -0.870402 -0.233572 0.433410
vn -0.803562 0.068809 -0.591230
vn -0.056612 -0.952862 -0.298075
vn 0.213297 -0.440238 0.872178
vn -0.092734 0.799373 0.593635
vn 0.951447 0.083181 0.296361
vn 0.210873 0.875193 -0.435395
vn 0.448579 -0.198973 -0.871313
vn 0.816497 0.408248 -0.408248
vn 0.666667 -0.666667 0.333333
vn -0.666667 -0.666667 -0.333333
vn -0.816497 0.408248 0.408248
vn 0.816497 -0.408248 -0.408248
vn 0.333333 0.666667 -0.666667
vn 0.666667 0.333333 0.666667
vn 0.408248 -0.816497 0.408248
vn -0.333333 -0.666667 -0.666667
vn -0.666667 -0.333333 0.666667
vn -0.816497 0.408248 -0.408248
vn -0.408248 0.816497 0.408248
vn 0.816495 -0.020168 -0.577000
vn 0.333335 0.942233 -0.032934
vn 0.666665 -0.210856 0.714911
vn 0.408250 -0.875579 -0.258250
vn -0.333332 -0.032934 -0.942234
vn -0.666668 -0.698440 0.260261
vn -0.816498 0.576996 -0.020168
vn -0.408247 0.318748 0.855415
vn 0.806439 0.432685 -0.403038
vn 0.337989 0.682741 0.647786
vn 0.314019 -0.736646 0.598953
vn 0.141283 -0.262719 -0.954472
vn -0.307425 0.694599 -0.650401
vn -0.915025 -0.305281 -0.263690
vn -0.795205 0.457780 0.397601
vn -0.639528 -0.191843 0.744447
# 60 normals

g Frame 1
usemtl mat_house2_1
s 1
f 2/1/1 1/2/2 5/3/3
f 5/3/3 6/4/4 2/1/1
f 3/5/5 2/6/1 6/7/4
f 6/7/4 7/8/6 3/5/5
f 4/2/7 3/1/5 7/4/6
f 7/4/6 8/3/8 4/2/7
f 1/9/2 4/10/7 8/11/8
f 8/11/8 5/12/3 1/9/2
f 3/13/5 4/13/7 1/13/2
f 1/13/2 2/13/1 3/13/5
f 7/13/6 6/13/4 5/13/3
f 5/13/3 8/13/8 7/13/6
f 11/14/1 10/15/2 9/16/3
f 9/16/3 12/17/4 11/14/1
f 13/15/5 11/18/1 12/19/4
f 12/19/4 14/16/6 13/15/5
f 15/15/7 13/14/5 14/17/6
f 14/17/6 16/16/8 15/15/7
f 10/15/2 15/18/7 16/20/8
f 16/20/8 9/16/3 10/15/2
f 13/13/5 15/13/7 10/13/2
f 10/13/2 11/13/1 13/13/5
f 14/21/6 12/22/4 9/23/3
f 9/23/3 16/24/8 14/21/6
f 19/14/9 18/15/10 17/16/11
f 17/16/11 20/17/12 19/14/9
f 21/25/13 19/26/9 20/27/12
f 20/27/12 22/28/14 21/25/13
f 23/15/15 21/14/13 22/17/14
f 22/17/14 24/16/16 23/15/15
f 18/26/10 23/25/15 24/28/16
f 24/27/16 17/28/11 18/26/10
f 21/13/13 23/13/15 18/13/10
f 18/13/10 19/13/9 21/13/13
f 22/21/14 20/22/12 17/23/11
f 17/23/11 24/24/16 22/21/14
f 26/29/17 25/30/18 29/31/19
f 29/31/19 30/32/20 26/29/17
f 27/29/21 26/29/17 30/32/20
f 30/32/20 31/32/22 27/29/21
f 28/30/23 27/29/21 31/32/22
f 31/32/22 32/31/24 28/30/23
f 25/30/18 28/30/23 32/31/24
f 32/31/24 29/31/19 25/30/18
f 27/29/21 28/30/23 25/30/18
f 25/30/18 26/29/17 27/29/21
f 31/32/22 30/32/20 29/31/19
f 29/31/19 32/31/24 31/32/22
f 35/29/25 34/30/26 33/31/27
f 33/31/27 36/32/28 35/29/25
f 37/29/29 35/29/25 36/32/28
f 36/32/28 38/32/30 37/29/29
f 39/30/31 37/29/29 38/32/30
f 38/32/30 40/31/32 39/30/31
f 34/30/26 39/30/31 40/31/32
f 40/31/32 33/31/27 34/30/26
f 37/29/29 39/30/31 34/30/26
f 34/30/26 35/29/25 37/29/29
f 38/32/30 36/32/28 33/31/27
f 33/31/27 40/31/32 38/32/30
f 42/33/33 41/34/2 45/35/34
f 45/35/34 46/36/4 42/33/33
f 43/37/5 42/38/33 46/39/4
f 46/39/4 47/40/35 43/37/5
f 44/41/36 43/42/5 47/36/35
f 47/36/35 48/43/8 44/41/36
f 41/44/2 44/45/36 48/46/8
f 48/46/8 45/47/34 41/44/2
f 43/48/5 44/49/36 41/50/2
f 41/50/2 42/51/33 43/48/5
f 47/52/35 46/53/4 45/54/34
f 45/54/34 48/55/8 47/52/35
f 51/33/33 50/34/2 49/35/34
f 49/35/34 52/36/4 51/33/33
f 53/37/5 51/38/33 52/39/4
f 52/39/4 54/40/35 53/37/5
f 55/41/36 53/42/5 54/36/35
f 54/36/35 56/43/8 55/41/36
f 50/44/2 55/45/36 56/46/8
f 56/46/8 49/47/34 50/44/2
f 53/48/5 55/49/36 50/50/2
f 50/50/2 51/51/33 53/48/5
f 54/52/35 52/53/4 49/54/34
f 49/54/34 56/55/8 54/52/35
f 59/33/33 58/34/2 57/35/34
f 57/35/34 60/36/4 59/33/33
f 61/37/5 59/38/33 60/39/4
f 60/39/4 62/40/35 61/37/5
f 63/41/36 61/42/5 62/36/35
f 62/36/35 64/43/8 63/41/36
f 58/44/2 63/45/36 64/46/8
f 64/46/8 57/47/34 58/44/2
f 61/48/5 63/49/36 58/50/2
f 58/50/2 59/51/33 61/48/5
f 62/52/35 60/53/4 57/54/34
f 57/54/34 64/55/8 62/52/35
f 67/33/33 66/34/2 65/35/34
f 65/35/34 68/36/4 67/33/33
f 69/37/5 67/38/33 68/39/4
f 68/39/4 70/40/35 69/37/5
f 71/41/36 69/42/5 70/36/35
f 70/36/35 72/43/8 71/41/36
f 66/44/2 71/45/36 72/46/8
f 72/46/8 65/47/34 66/44/2
f 69/48/5 71/49/36 66/50/2
f 66/50/2 67/51/33 69/48/5
f 70/52/35 68/53/4 65/54/34
f 65/54/34 72/55/8 70/52/35
f 75/33/33 74/34/2 73/35/34
f 73/35/34 76/36/4 75/33/33
f 77/37/5 75/38/33 76/39/4
f 76/39/4 78/40/35 77/37/5
f 79/41/36 77/42/5 78/36/35
f 78/36/35 80/43/8 79/41/36
f 74/44/2 79/45/36 80/46/8
f 80/46/8 73/47/34 74/44/2
f 77/48/5 79/49/36 74/50/2
f 74/50/2 75/51/33 77/48/5
f 78/52/35 76/53/4 73/54/34
f 73/54/34 80/55/8 78/52/35
f 83/33/33 82/34/2 81/35/34
f 81/35/34 84/36/4 83/33/33
f 85/37/5 83/38/33 84/39/4
f 84/39/4 86/40/35 85/37/5
f 87/41/36 85/42/5 86/36/35
f 86/36/35 88/43/8 87/41/36
f 82/44/2 87/45/36 88/46/8
f 88/46/8 81/47/34 82/44/2
f 85/48/5 87/49/36 82/50/2
f 82/50/2 83/51/33 85/48/5
f 86/52/35 84/53/4 81/54/34
f 81/54/34 88/55/8 86/52/35
f 91/33/33 90/34/2 89/35/34
f 89/35/34 92/36/4 91/33/33
f 93/37/5 91/38/33 92/39/4
f 92/39/4 94/40/35 93/37/5
f 95/41/36 93/42/5 94/36/35
f 94/36/35 96/43/8 95/41/36
f 90/44/2 95/45/36 96/46/8
f 96/46/8 89/47/34 90/44/2
f 93/48/5 95/49/36 90/50/2
f 90/50/2 91/51/33 93/48/5
f 94/52/35 92/53/4 89/54/34
f 89/54/34 96/55/8 94/52/35
f 98/13/33 97/13/2 101/13/34
f 101/13/34 102/13/4 98/13/33
f 99/56/5 98/56/33 102/57/4
f 102/57/4 103/57/35 99/56/5
f 100/58/36 99/56/5 103/57/35
f 103/57/35 104/59/8 100/58/36
f 97/58/2 100/58/36 104/59/8
f 104/59/8 101/59/34 97/58/2
f 99/56/5 100/58/36 97/58/2
f 97/58/2 98/56/33 99/56/5
f 103/57/35 102/57/4 101/59/34
f 101/59/34 104/59/8 103/57/35
f 106/13/33 105/13/2 109/13/34
f 109/13/34 110/13/4 106/13/33
f 107/60/5 106/61/33 110/62/4
f 110/62/4 111/63/35 107/60/5
f 108/64/36 107/65/5 111/66/35
f 111/66/35 112/67/8 108/64/36
f 105/68/2 108/69/36 112/70/8
f 112/70/8 109/71/34 105/68/2
f 107/72/5 108/73/36 105/74/2
f 105/74/2 106/75/33 107/72/5
f 111/13/35 110/13/4 109/13/34
f 109/13/34 112/13/8 111/13/35
f 115/33/37 114/34/38 113/35/39
f 113/35/39 116/36/40 115/33/37
f 117/37/41 115/38/37 116/39/40
f 116/39/40 118/40/42 117/37/41
f 119/41/43 117/42/41 118/36/42
f 118/36/42 120/43/44 119/41/43
f 114/44/38 119/45/43 120/46/44
f 120/46/44 113/47/39 114/44/38
f 117/48/41 119/49/43 114/50/38
f 114/50/38 115/51/37 117/48/41
f 118/52/42 116/53/40 113/54/39
f 113/54/39 120/55/44 118/52/42
f 123/33/45 122/34/46 121/35/47
f 121/35/47 124/36/48 123/33/45
f 125/37/49 123/38/45 124/39/48
f 124/39/48 126/40/50 125/37/49
f 127/41/51 125/42/49 126/36/50
f 126/36/50 128/43/52 127/41/51
f 122/44/46 127/45/51 128/46/52
f 128/46/52 121/47/47 122/44/46
f 125/48/49 127/49/51 122/50/46
f 122/50/46 123/51/45 125/48/49
f 126/52/50 124/53/48 121/54/47
f 121/54/47 128/55/52 126/52/50
f 130/76/53 129/77/54 133/78/55
f 133/78/55 134/79/56 130/76/53
f 131/80/57 130/81/53 134/82/56
f 134/82/56 135/83/58 131/80/57
f 132/84/59 131/85/57 135/86/58
f 135/86/58 136/87/60 132/84/59
f 129/88/54 132/89/59 136/90/60
f 136/90/60 133/91/55 129/88/54
f 131/13/57 132/13/59 129/13/54
f 129/13/54 130/13/53 131/13/57
f 135/86/58 134/79/56 133/78/55
f 133/78/55 136/87/60 135/86/58
# 204 triangles in group

# 204 triangles total

