# Wavefront OBJ exported by MilkShape 3D

mtllib knife.mtl

v -0.384499 -0.382115 48.971188
v -0.158375 7.483198 48.503048
v 4.839895 -0.382115 48.971188
v 4.613863 7.483198 48.503048
v 4.364826 6.211682 50.075512
v -0.031301 6.211682 50.075512
v 4.364735 1.578834 50.411613
v -0.031301 1.578605 50.411613
v -0.763349 6.772248 43.482567
v -0.158284 7.483198 43.502071
v 4.613772 7.483198 43.502071
v 5.218837 6.772248 43.482567
v 5.218837 0.143430 43.482567
v 4.839895 -0.628864 43.484066
v -0.384408 -0.628864 43.484066
v -0.763349 0.143430 43.482567
v -0.763441 6.785066 41.488476
v -0.158375 7.495787 41.509483
v 4.613772 7.495787 41.509483
v 5.218837 6.785066 41.488476
v 5.218746 2.040746 41.516983
v 4.839804 1.268452 41.518486
v -0.384408 1.268452 41.518486
v -0.763441 2.040517 41.516983
v 4.840169 -0.597048 15.224718
v -0.384042 -0.597048 15.224718
v -0.762984 0.175246 15.223218
v -0.763076 6.719831 15.194710
v -0.158010 7.430552 15.214215
v 4.614137 7.430552 15.214215
v 5.219202 6.719831 15.194710
v 5.219202 0.175246 15.223218
v 4.840169 -2.032453 12.950047
v -0.384042 -2.032453 12.950047
v -0.763076 -1.260159 12.947045
v -0.763076 6.718687 12.947045
v -0.158010 7.429408 12.968052
v 4.614046 7.429408 12.968052
v 5.219202 6.718687 12.947045
v 5.219111 -1.260159 12.947045
v 3.302127 -2.026501 12.024273
v 1.153817 -2.026501 12.024273
v 0.997986 -1.254207 12.022773
v 0.997986 6.724638 12.022773
v 1.246841 7.435359 12.042278
v 3.209195 7.435359 12.042278
v 3.458050 6.724638 12.022773
v 3.458050 -1.254207 12.022773
v 2.669675 -7.504890 11.100000
v 1.786269 -7.504890 11.100000
v 1.722184 -6.732596 11.098499
v 1.722184 6.730818 11.096999
v 1.824519 7.441539 11.118006
v 2.631516 7.441539 11.118006
v 2.733852 6.730818 11.096999
v 2.733760 -6.732596 11.098499
v 1.722184 -6.711538 -8.587316
v 1.722184 6.751876 -8.587316
v 1.824519 7.462597 -8.567809
v 2.631516 7.462597 -8.567809
v 2.733852 6.751876 -8.587316
v 2.733760 -6.711538 -8.587316
v 1.824519 6.186733 -28.252123
v 2.631516 6.186733 -28.252123
v 2.733852 5.476012 -28.273130
v 2.733760 -4.281353 -28.318144
v 1.722184 -4.281353 -28.318144
v 1.722184 5.476012 -28.273130
v 1.722275 0.877956 -45.916843
v 1.722275 2.528751 -45.871830
v 1.824610 3.239472 -45.850822
v 2.631516 3.239472 -45.850822
v 2.733852 2.528751 -45.871830
v 2.733852 0.877956 -45.916843
v 2.228109 1.677488 -47.919933
v 2.228018 -7.483831 -8.585814
v 2.228018 -5.053647 -28.316643
v 2.228018 0.105662 -45.915340
v 5.218928 6.772477 48.564568
v 5.218928 0.143430 48.677101
v -0.763441 6.772477 48.548061
v -0.763441 0.143430 48.741619
# 82 vertices

vt 0.960938 0.372093
vt 0.960938 0.348837
vt 0.984375 0.395349
vt 0.042969 0.093023
vt 0.031250 0.162791
vt 0.964844 0.441860
vt 0.964844 0.488372
vt 0.039063 0.441860
vt 0.031250 0.325581
vt 0.042969 0.139535
vt 0.093750 0.093023
vt 0.093750 0.139535
vt 0.093750 0.441860
vt 0.042969 0.418605
vt 0.093750 0.488372
vt 0.113281 0.093023
vt 0.113281 0.139535
vt 0.113281 0.395349
vt 0.113281 0.441860
vt 0.367188 0.558140
vt 0.367188 0.511628
vt 0.367188 0.139535
vt 0.367188 0.093023
vt 0.390625 0.651163
vt 0.390625 0.604651
vt 0.390625 0.139535
vt 0.390625 0.093023
vt 0.398438 0.651163
vt 0.398438 0.627907
vt 0.398438 0.162791
vt 0.398438 0.116279
vt 0.417969 0.930233
vt 0.417969 0.883721
vt 0.417969 0.186047
vt 0.417969 0.139535
vt 0.609375 0.930233
vt 0.609375 0.883721
vt 0.609375 0.186047
vt 0.609375 0.139535
vt 0.800781 0.186047
vt 0.800781 0.232558
vt 0.800781 0.720930
vt 0.800781 0.767442
# 43 texture coordinates

vn -0.991784 0.059556 -0.113218
vn -0.762914 0.578096 -0.289424
vn -0.000005 0.037757 -0.999287
vn 0.407702 0.844813 0.346512
vn -0.364756 0.531588 0.764439
vn 0.479074 0.306926 0.822365
vn -0.318407 0.911387 0.260750
vn 0.505210 0.798828 -0.326555
vn 0.989068 0.088457 -0.117979
vn 0.961277 -0.218719 -0.167656
vn 0.272134 -0.867096 -0.417238
vn -0.921844 -0.331678 -0.200484
vn -0.509482 -0.722914 0.466715
vn 0.401633 -0.314145 0.860235
vn -0.515787 -0.139401 0.845299
vn 0.394513 -0.840648 0.371039
vn -0.904736 0.348070 0.245561
vn 0.419454 0.907773 0.002674
vn -0.419441 0.907777 0.003068
vn 0.938490 0.345305 0.000718
vn 0.934755 0.269703 0.231288
vn 0.966340 -0.218078 -0.136488
vn 0.938059 -0.216102 0.270824
vn 0.515713 -0.783317 -0.347066
vn -0.518887 -0.808168 -0.278605
vn -0.960264 -0.185108 0.208871
vn -0.938494 0.345293 0.001474
vn -0.419426 0.907788 0.001481
vn -0.938467 0.345368 0.000185
vn 0.973202 -0.222766 -0.057031
vn 0.520974 -0.810793 -0.266833
vn -0.541156 -0.768982 -0.340320
vn -0.967035 -0.218278 -0.131139
vn -0.966111 -0.249829 -0.064916
vn -0.520498 -0.817708 0.245837
vn 0.530071 -0.795870 0.292602
vn -0.972875 -0.224271 0.056709
vn -0.419368 0.907815 -0.001298
vn 0.419361 0.907818 -0.001425
vn 0.938462 0.345383 -0.000631
vn 0.970144 -0.222039 0.097566
vn -0.466829 -0.878824 -0.098688
vn 0.491757 -0.869315 0.049657
vn -0.867558 -0.226371 -0.442831
vn -0.829816 0.253309 -0.497233
vn -0.387714 0.910863 -0.141442
vn 0.355268 0.873029 -0.334073
vn 0.782583 0.339937 -0.521544
vn 0.868158 -0.155111 -0.471425
vn -0.685052 -0.723249 0.087261
vn 0.680688 -0.685449 0.258502
vn -0.745506 -0.097767 -0.659290
vn -0.649015 0.105492 -0.753426
vn -0.368032 0.819613 -0.439075
vn 0.461907 0.784771 -0.413251
vn 0.647647 0.151675 -0.746691
vn 0.789536 -0.069125 -0.609798
vn -0.721142 -0.524401 0.452722
vn 0.832733 -0.442663 0.332575
vn -0.995265 -0.060933 -0.075725
vn -0.942675 0.073405 -0.325538
vn -0.568277 0.786002 -0.243440
vn 0.631862 0.766623 -0.114190
vn 0.947229 0.098715 -0.304981
vn 0.953853 -0.126339 -0.272401
vn 0.042300 -0.997047 -0.064093
vn -0.978989 -0.203362 -0.014991
vn -0.997434 0.071526 -0.003067
vn -0.654905 0.755105 -0.030269
vn 0.654833 0.755563 -0.017841
vn 0.997441 0.071478 -0.001495
vn 0.958063 -0.285591 -0.023536
vn 0.654487 0.752086 -0.077550
vn -0.654754 0.749658 -0.096490
vn 0.997406 0.071636 -0.007099
vn 0.956476 -0.284004 -0.067055
vn 0.002661 -0.979094 -0.203389
vn -0.957233 -0.284769 -0.051103
vn -0.997380 0.071709 -0.009562
# 79 normals

g 
usemtl mat_knife_1
s 1
f 70/1/1 71/2/2 75/3/3
f 4/4/4 6/5/5 5/5/6
f 4/4/4 2/4/7 6/5/5
f 71/2/2 72/2/8 75/3/3
f 72/2/8 73/1/9 75/3/3
f 74/6/10 78/7/11 75/3/3
f 78/7/11 69/6/12 75/3/3
f 1/8/13 7/9/14 8/9/15
f 1/8/13 3/8/16 7/9/14
f 5/5/6 8/9/15 7/9/14
f 5/5/6 6/5/5 8/9/15
f 69/6/12 70/1/1 75/3/3
f 73/1/9 74/6/10 75/3/3
f 6/5/5 2/4/7 81/10/17
f 2/4/7 11/11/18 10/11/19
f 2/4/7 4/4/4 11/11/18
f 12/12/20 4/4/4 79/10/21
f 12/12/20 11/11/18 4/4/4
f 13/13/22 79/10/21 80/14/23
f 13/13/22 12/12/20 79/10/21
f 14/15/24 80/14/23 3/8/16
f 14/15/24 13/13/22 80/14/23
f 3/8/16 15/15/25 14/15/24
f 3/8/16 1/8/13 15/15/25
f 8/9/15 82/14/26 1/8/13
f 8/9/15 81/10/17 82/14/26
f 8/9/15 6/5/5 81/10/17
f 9/12/27 18/16/28 17/17/29
f 9/12/27 10/11/19 18/16/28
f 10/11/19 19/16/18 18/16/28
f 10/11/19 11/11/18 19/16/18
f 11/11/18 20/17/20 19/16/18
f 11/11/18 12/12/20 20/17/20
f 12/12/20 21/18/30 20/17/20
f 12/12/20 13/13/22 21/18/30
f 13/13/22 22/19/31 21/18/30
f 13/13/22 14/15/24 22/19/31
f 14/15/24 23/19/32 22/19/31
f 14/15/24 15/15/25 23/19/32
f 15/15/25 24/18/33 23/19/32
f 15/15/25 16/13/34 24/18/33
f 16/13/34 17/17/29 24/18/33
f 16/13/34 9/12/27 17/17/29
f 22/19/31 26/20/35 25/20/36
f 22/19/31 23/19/32 26/20/35
f 23/19/32 27/21/37 26/20/35
f 23/19/32 24/18/33 27/21/37
f 24/18/33 28/22/29 27/21/37
f 24/18/33 17/17/29 28/22/29
f 17/17/29 29/23/38 28/22/29
f 17/17/29 18/16/28 29/23/38
f 18/16/28 30/23/39 29/23/38
f 18/16/28 19/16/18 30/23/39
f 19/16/18 31/22/40 30/23/39
f 19/16/18 20/17/20 31/22/40
f 20/17/20 32/21/41 31/22/40
f 20/17/20 21/18/30 32/21/41
f 21/18/30 25/20/36 32/21/41
f 21/18/30 22/19/31 25/20/36
f 25/20/36 34/24/42 33/24/43
f 25/20/36 26/20/35 34/24/42
f 26/20/35 35/25/44 34/24/42
f 26/20/35 27/21/37 35/25/44
f 27/21/37 36/26/45 35/25/44
f 27/21/37 28/22/29 36/26/45
f 28/22/29 37/27/46 36/26/45
f 28/22/29 29/23/38 37/27/46
f 29/23/38 38/27/47 37/27/46
f 29/23/38 30/23/39 38/27/47
f 30/23/39 39/26/48 38/27/47
f 30/23/39 31/22/40 39/26/48
f 31/22/40 40/25/49 39/26/48
f 31/22/40 32/21/41 40/25/49
f 32/21/41 33/24/43 40/25/49
f 32/21/41 25/20/36 33/24/43
f 33/24/43 42/28/50 41/28/51
f 33/24/43 34/24/42 42/28/50
f 34/24/42 43/29/52 42/28/50
f 34/24/42 35/25/44 43/29/52
f 35/25/44 44/30/53 43/29/52
f 35/25/44 36/26/45 44/30/53
f 36/26/45 45/31/54 44/30/53
f 36/26/45 37/27/46 45/31/54
f 37/27/46 46/31/55 45/31/54
f 37/27/46 38/27/47 46/31/55
f 38/27/47 47/30/56 46/31/55
f 38/27/47 39/26/48 47/30/56
f 39/26/48 48/29/57 47/30/56
f 39/26/48 40/25/49 48/29/57
f 40/25/49 41/28/51 48/29/57
f 40/25/49 33/24/43 41/28/51
f 41/28/51 50/32/58 49/32/59
f 41/28/51 42/28/50 50/32/58
f 42/28/50 51/33/60 50/32/58
f 42/28/50 43/29/52 51/33/60
f 43/29/52 52/34/61 51/33/60
f 43/29/52 44/30/53 52/34/61
f 44/30/53 53/35/62 52/34/61
f 44/30/53 45/31/54 53/35/62
f 45/31/54 54/35/63 53/35/62
f 45/31/54 46/31/55 54/35/63
f 46/31/55 55/34/64 54/35/63
f 46/31/55 47/30/56 55/34/64
f 47/30/56 56/33/65 55/34/64
f 47/30/56 48/29/57 56/33/65
f 48/29/57 49/32/59 56/33/65
f 48/29/57 41/28/51 49/32/59
f 49/32/59 50/32/58 76/36/66
f 50/32/58 57/37/67 76/36/66
f 50/32/58 51/33/60 57/37/67
f 51/33/60 58/38/68 57/37/67
f 51/33/60 52/34/61 58/38/68
f 52/34/61 59/39/69 58/38/68
f 52/34/61 53/35/62 59/39/69
f 53/35/62 60/39/70 59/39/69
f 53/35/62 54/35/63 60/39/70
f 54/35/63 61/38/71 60/39/70
f 54/35/63 55/34/64 61/38/71
f 55/34/64 62/37/72 61/38/71
f 55/34/64 56/33/65 62/37/72
f 56/33/65 76/36/66 62/37/72
f 56/33/65 49/32/59 76/36/66
f 59/39/69 64/40/73 63/40/74
f 59/39/69 60/39/70 64/40/73
f 60/39/70 65/41/75 64/40/73
f 60/39/70 61/38/71 65/41/75
f 61/38/71 66/42/76 65/41/75
f 61/38/71 62/37/72 66/42/76
f 62/37/72 77/43/77 66/42/76
f 62/37/72 76/36/66 77/43/77
f 76/36/66 67/42/78 77/43/77
f 76/36/66 57/37/67 67/42/78
f 57/37/67 68/41/79 67/42/78
f 57/37/67 58/38/68 68/41/79
f 58/38/68 63/40/74 68/41/79
f 58/38/68 59/39/69 63/40/74
f 77/43/77 69/6/12 78/7/11
f 77/43/77 67/42/78 69/6/12
f 67/42/78 70/1/1 69/6/12
f 67/42/78 68/41/79 70/1/1
f 68/41/79 71/2/2 70/1/1
f 68/41/79 63/40/74 71/2/2
f 63/40/74 72/2/8 71/2/2
f 63/40/74 64/40/73 72/2/8
f 64/40/73 73/1/9 72/2/8
f 64/40/73 65/41/75 73/1/9
f 65/41/75 74/6/10 73/1/9
f 65/41/75 66/42/76 74/6/10
f 66/42/76 78/7/11 74/6/10
f 66/42/76 77/43/77 78/7/11
f 5/5/6 79/10/21 4/4/4
f 5/5/6 80/14/23 79/10/21
f 5/5/6 7/9/14 80/14/23
f 7/9/14 3/8/16 80/14/23
f 10/11/19 81/10/17 2/4/7
f 10/11/19 9/12/27 81/10/17
f 9/12/27 82/14/26 81/10/17
f 9/12/27 16/13/34 82/14/26
f 16/13/34 1/8/13 82/14/26
f 16/13/34 15/15/25 1/8/13
# 160 triangles in group

# 160 triangles total

