# Wavefront OBJ exported by MilkShape 3D

mtllib parchment3.mtl

v 0.505682 14.751917 8.107972
v 15.710068 14.245435 8.107253
v 15.710068 14.426523 8.113000
v 0.505682 14.899832 8.113000
v -14.699167 14.751918 8.108691
v -14.699167 14.933006 8.114438
v 0.508466 13.962874 -17.179676
v -14.696383 15.099849 -17.180395
v -14.696383 14.918663 -17.186142
v 0.508466 13.814960 -17.185423
v 15.712852 13.308477 -17.186142
v 15.712852 13.489566 -17.180395
v 0.505682 14.354616 0.956310
v -14.698703 14.387888 0.955591
v -14.698703 14.206702 0.950561
v 0.505682 14.206701 0.950561
v 15.710531 13.541962 1.045390
v 15.710531 13.723050 1.051137
v 0.505682 14.881196 4.610088
v -14.699167 14.914468 4.609369
v -14.699167 14.733283 4.603622
v 0.505682 14.733282 4.604339
v 15.710068 14.258411 4.603622
v 15.710068 14.439597 4.609369
v 0.505682 18.185572 29.759804
v -14.698703 18.172497 29.730350
v -14.698703 18.250748 29.894146
v 0.505682 18.250259 29.893425
v 15.710531 18.250845 29.891991
v 15.710531 18.172594 29.728195
v 0.506146 13.903652 15.220122
v -14.698239 13.936729 15.223716
v -14.698239 13.755641 15.217967
v 0.506146 13.755640 15.216533
v 15.710997 12.805999 15.215812
v 15.710997 12.987185 15.221560
v 0.506146 14.659910 11.607293
v -14.698703 14.693085 11.610887
v -14.698703 14.511899 11.605140
v 0.506146 14.511996 11.603702
v 15.710531 13.562257 11.602984
v 15.710531 13.743443 11.608731
v 0.506609 12.207901 18.523323
v 15.711460 12.207900 18.523323
v 15.711460 12.389086 18.528351
v 0.506609 12.355816 18.527634
v -14.697775 12.388990 18.531227
v -14.698239 12.207805 18.525478
v 0.506609 12.156482 20.294178
v 15.711460 12.156579 20.293457
v 15.711460 12.337667 20.299206
v 0.506609 12.304495 20.297768
v -14.697775 12.337669 20.301361
v -14.697775 12.156483 20.295612
v 0.507074 12.421773 23.900539
v 15.711460 12.421772 23.899822
v 15.711460 12.602958 23.905571
v 0.507074 12.569688 23.904133
v -14.697775 12.602861 23.907726
v -14.697775 12.421676 23.901978
v 0.507074 13.967658 27.560066
v 15.711460 13.968243 27.558628
v 15.711460 14.031955 27.389088
v 0.507074 14.018882 27.421413
v -14.697775 14.031859 27.391960
v -14.697775 13.968146 27.561504
v 0.506610 16.691593 29.532791
v 15.710997 16.692276 29.531353
v 15.710997 16.755695 29.361813
v 0.506610 16.742622 29.393421
v -14.698239 16.755695 29.363968
v -14.698239 16.692179 29.534225
v 0.505682 13.018894 -2.441719
v 15.710531 12.545586 -2.442438
v 15.710531 12.364400 -2.448184
v 0.505682 12.870979 -2.447466
v -14.698703 12.870980 -2.448184
v -14.698703 13.052167 -2.442438
v 0.507074 12.511047 -10.424571
v 15.711460 12.037836 -10.425288
v 15.711460 11.856650 -10.431036
v 0.507074 12.363132 -10.430318
v -14.697775 12.363231 -10.431036
v -14.697775 12.544319 -10.425288
# 84 vertices

vt 0.464844 0.984375
vt 0.539063 0.523438
vt 0.539063 0.984375
vt 0.464844 0.523438
vt 0.539063 0.000000
vt 0.464844 0.000000
vt 0.320313 0.000000
vt 0.253906 0.000000
vt 0.320313 0.984375
vt 0.253906 0.523438
vt 0.253906 0.984375
vt 0.320313 0.523438
vt 0.984375 0.984375
vt 0.984375 0.000000
vt 0.984375 0.523438
vt 0.847656 0.000000
vt 0.847656 0.523438
vt 0.847656 0.984375
vt 0.613281 0.523438
vt 0.613281 0.000000
vt 0.613281 0.984375
vt 0.394531 0.984375
vt 0.394531 0.523438
vt 0.394531 0.000000
vt 0.035156 0.523438
vt 0.007813 0.000000
vt 0.007813 0.523438
vt 0.035156 0.000000
vt 0.003906 0.984375
vt 0.003906 0.000000
vt 0.003906 0.523438
vt 0.007813 0.984375
vt 0.011719 0.523438
vt 0.011719 0.000000
vt 0.011719 0.984375
vt 0.035156 0.984375
vt 0.214844 0.984375
vt 0.214844 0.523438
vt 0.214844 0.000000
vt 0.144531 0.984375
vt 0.144531 0.523438
vt 0.144531 0.000000
vt 0.066406 0.984375
vt 0.066406 0.523438
vt 0.070313 0.984375
vt 0.070313 0.523438
vt 0.070313 0.000000
vt 0.066406 0.000000
vt 0.683594 0.984375
vt 0.683594 0.523438
vt 0.683594 0.000000
# 51 texture coordinates

vn 0.697058 -0.715556 -0.045708
vn -0.015943 -0.997229 0.072661
vn 0.695799 -0.713673 0.080836
vn -0.021423 -0.998405 -0.052237
vn 0.722345 0.688838 0.060981
vn 0.718993 0.693477 -0.046245
vn 0.016303 0.999319 0.033109
vn 0.017725 0.996363 -0.083350
vn -0.707856 -0.705433 0.036113
vn -0.707322 -0.706212 -0.031006
vn -0.707082 0.703790 -0.068667
vn -0.706549 0.707531 0.013717
vn -0.708118 0.677900 0.197535
vn -0.714301 -0.690436 -0.114336
vn -0.712292 0.670049 0.208985
vn -0.709233 -0.659615 -0.248790
vn 0.722570 0.665515 0.187038
vn 0.009590 0.982024 0.188510
vn 0.707222 0.704795 0.055687
vn 0.029969 0.948161 0.316375
vn 0.685172 -0.714245 -0.142803
vn 0.705078 -0.692798 -0.151310
vn 0.382792 0.728658 -0.567915
vn -0.882192 0.442322 0.161521
vn 0.030195 0.851976 0.522710
vn -0.319022 -0.559233 -0.765169
vn -0.034376 -0.739529 -0.672246
vn 0.788604 -0.378768 -0.484395
vn -0.020548 -0.961181 -0.275151
vn -0.000015 -0.972891 -0.231265
vn -0.704058 0.699910 0.120118
vn 0.016558 0.997121 0.073998
vn -0.714205 -0.697840 -0.054133
vn -0.028721 -0.994710 -0.098630
vn 0.698448 -0.710507 -0.085731
vn 0.720855 0.692812 0.019499
vn 0.019891 0.968579 -0.247911
vn -0.708462 0.674719 -0.206968
vn -0.709213 -0.687993 0.153890
vn -0.019767 -0.964087 0.264851
vn 0.693981 -0.687928 0.212472
vn 0.721169 0.675722 -0.152689
vn 0.689211 -0.715748 -0.112663
vn -0.030801 -0.990102 -0.136926
vn 0.727657 0.672027 0.137455
vn 0.025979 0.987179 0.157489
vn -0.707863 -0.697292 -0.112759
vn -0.707077 0.702501 0.080843
vn -0.000138 0.424509 -0.905424
vn -0.264395 0.607778 -0.748800
vn -0.000521 0.556106 -0.831111
vn -0.711908 0.338253 -0.615445
vn 0.301789 0.844518 0.442394
vn -0.616175 0.309516 0.724243
vn 0.000071 0.036819 0.999322
vn 0.740517 0.427430 -0.518592
vn 0.000079 -0.387682 0.921793
vn -0.837128 -0.226618 0.497856
vn 0.713451 -0.332377 0.616857
vn 0.711932 0.257682 -0.653263
vn 0.707521 -0.706684 0.003616
vn 0.000004 -0.999754 0.022202
vn 0.706750 0.706918 -0.027783
vn -0.000006 0.999754 -0.022200
vn -0.706749 0.707456 -0.003630
vn -0.707816 -0.705848 0.027854
vn 0.711298 -0.691306 0.127089
vn 0.000026 -0.972143 0.234389
vn 0.710369 0.675456 -0.197825
vn -0.000121 0.973243 -0.229778
vn -0.710292 0.692750 -0.124829
vn -0.711283 -0.673272 0.201944
vn 0.718781 -0.581829 0.380565
vn 0.000066 -0.782659 0.622451
vn 0.718489 0.503553 -0.479800
vn -0.000025 0.785540 -0.618811
vn -0.718546 0.584526 -0.376856
vn -0.718715 -0.501768 0.481328
vn 0.722193 0.669400 -0.174186
vn 0.016421 0.975974 -0.217266
vn 0.698191 -0.707816 0.107363
vn -0.018157 -0.977713 0.209160
vn -0.710916 -0.677584 0.188357
vn -0.710150 0.694272 -0.116935
# 84 normals

g 
usemtl mat_parchment3_1
s 1
f 2/1/1 22/2/2 23/3/3
f 2/1/1 1/4/4 22/2/2
f 3/1/5 23/3/3 24/3/6
f 3/1/5 2/1/1 23/3/3
f 4/4/7 24/3/6 19/2/8
f 4/4/7 3/1/5 24/3/6
f 1/4/4 21/5/9 22/2/2
f 1/4/4 5/6/10 21/5/9
f 5/6/10 20/5/11 21/5/9
f 5/6/10 6/6/12 20/5/11
f 32/7/13 48/8/14 47/8/15
f 32/7/13 33/7/16 48/8/14
f 6/6/12 19/2/8 20/5/11
f 6/6/12 4/4/7 19/2/8
f 36/9/17 46/10/18 45/11/19
f 36/9/17 31/12/20 46/10/18
f 35/9/21 45/11/19 44/11/22
f 35/9/21 36/9/17 45/11/19
f 12/13/23 8/14/24 7/15/25
f 12/13/23 9/14/26 8/14/24
f 12/13/23 10/15/27 9/14/26
f 12/13/23 11/13/28 10/15/27
f 34/12/29 44/11/22 43/10/30
f 34/12/29 35/9/21 44/11/22
f 7/15/25 84/16/31 79/17/32
f 7/15/25 8/14/24 84/16/31
f 8/14/24 83/16/33 84/16/31
f 8/14/24 9/14/26 83/16/33
f 9/14/26 82/17/34 83/16/33
f 9/14/26 10/15/27 82/17/34
f 10/15/27 81/18/35 82/17/34
f 10/15/27 11/13/28 81/18/35
f 11/13/28 80/18/36 81/18/35
f 11/13/28 12/13/23 80/18/36
f 12/13/23 79/17/32 80/18/36
f 12/13/23 7/15/25 79/17/32
f 13/19/37 20/5/11 19/2/8
f 13/19/37 14/20/38 20/5/11
f 14/20/38 21/5/9 20/5/11
f 14/20/38 15/20/39 21/5/9
f 15/20/39 22/2/2 21/5/9
f 15/20/39 16/19/40 22/2/2
f 16/19/40 23/3/3 22/2/2
f 16/19/40 17/21/41 23/3/3
f 17/21/41 24/3/6 23/3/3
f 17/21/41 18/21/42 24/3/6
f 18/21/42 19/2/8 24/3/6
f 18/21/42 13/19/37 19/2/8
f 41/22/43 1/4/4 2/1/1
f 41/22/43 40/23/44 1/4/4
f 42/22/45 2/1/1 3/1/5
f 42/22/45 41/22/43 2/1/1
f 37/23/46 3/1/5 4/4/7
f 37/23/46 42/22/45 3/1/5
f 40/23/44 5/6/10 1/4/4
f 40/23/44 39/24/47 5/6/10
f 39/24/47 6/6/12 5/6/10
f 39/24/47 38/24/48 6/6/12
f 38/24/48 4/4/7 6/6/12
f 38/24/48 37/23/46 4/4/7
f 70/25/49 26/26/50 25/27/51
f 70/25/49 71/28/52 26/26/50
f 29/29/53 27/30/54 28/31/55
f 29/29/53 26/26/50 27/30/54
f 29/29/53 25/27/51 26/26/50
f 29/29/53 30/32/56 25/27/51
f 27/30/54 67/33/57 28/31/55
f 27/30/54 72/34/58 67/33/57
f 31/12/20 47/8/15 46/10/18
f 31/12/20 32/7/13 47/8/15
f 71/28/52 27/30/54 26/26/50
f 71/28/52 72/34/58 27/30/54
f 33/7/16 43/10/30 48/8/14
f 33/7/16 34/12/29 43/10/30
f 67/33/57 29/29/53 28/31/55
f 67/33/57 68/35/59 29/29/53
f 68/35/59 30/32/56 29/29/53
f 68/35/59 69/36/60 30/32/56
f 69/36/60 25/27/51 30/32/56
f 69/36/60 70/25/49 25/27/51
f 37/23/46 32/7/13 31/12/20
f 37/23/46 38/24/48 32/7/13
f 38/24/48 33/7/16 32/7/13
f 38/24/48 39/24/47 33/7/16
f 39/24/47 34/12/29 33/7/16
f 39/24/47 40/23/44 34/12/29
f 40/23/44 35/9/21 34/12/29
f 40/23/44 41/22/43 35/9/21
f 41/22/43 36/9/17 35/9/21
f 41/22/43 42/22/45 36/9/17
f 42/22/45 31/12/20 36/9/17
f 42/22/45 37/23/46 31/12/20
f 43/10/30 50/37/61 49/38/62
f 43/10/30 44/11/22 50/37/61
f 44/11/22 51/37/63 50/37/61
f 44/11/22 45/11/19 51/37/63
f 45/11/19 52/38/64 51/37/63
f 45/11/19 46/10/18 52/38/64
f 46/10/18 53/39/65 52/38/64
f 46/10/18 47/8/15 53/39/65
f 47/8/15 54/39/66 53/39/65
f 47/8/15 48/8/14 54/39/66
f 48/8/14 49/38/62 54/39/66
f 48/8/14 43/10/30 49/38/62
f 49/38/62 56/40/67 55/41/68
f 49/38/62 50/37/61 56/40/67
f 50/37/61 57/40/69 56/40/67
f 50/37/61 51/37/63 57/40/69
f 51/37/63 58/41/70 57/40/69
f 51/37/63 52/38/64 58/41/70
f 52/38/64 59/42/71 58/41/70
f 52/38/64 53/39/65 59/42/71
f 53/39/65 60/42/72 59/42/71
f 53/39/65 54/39/66 60/42/72
f 54/39/66 55/41/68 60/42/72
f 54/39/66 49/38/62 55/41/68
f 55/41/68 62/43/73 61/44/74
f 55/41/68 56/40/67 62/43/73
f 56/40/67 63/45/75 62/43/73
f 56/40/67 57/40/69 63/45/75
f 57/40/69 64/46/76 63/45/75
f 57/40/69 58/41/70 64/46/76
f 58/41/70 65/47/77 64/46/76
f 58/41/70 59/42/71 65/47/77
f 59/42/71 66/48/78 65/47/77
f 59/42/71 60/42/72 66/48/78
f 60/42/72 61/44/74 66/48/78
f 60/42/72 55/41/68 61/44/74
f 61/44/74 68/35/59 67/33/57
f 61/44/74 62/43/73 68/35/59
f 62/43/73 69/36/60 68/35/59
f 62/43/73 63/45/75 69/36/60
f 63/45/75 70/25/49 69/36/60
f 63/45/75 64/46/76 70/25/49
f 64/46/76 71/28/52 70/25/49
f 64/46/76 65/47/77 71/28/52
f 65/47/77 72/34/58 71/28/52
f 65/47/77 66/48/78 72/34/58
f 66/48/78 67/33/57 72/34/58
f 66/48/78 61/44/74 67/33/57
f 13/19/37 74/49/79 73/50/80
f 13/19/37 18/21/42 74/49/79
f 18/21/42 75/49/81 74/49/79
f 18/21/42 17/21/41 75/49/81
f 17/21/41 76/50/82 75/49/81
f 17/21/41 16/19/40 76/50/82
f 16/19/40 77/51/83 76/50/82
f 16/19/40 15/20/39 77/51/83
f 15/20/39 78/51/84 77/51/83
f 15/20/39 14/20/38 78/51/84
f 14/20/38 73/50/80 78/51/84
f 14/20/38 13/19/37 73/50/80
f 73/50/80 80/18/36 79/17/32
f 73/50/80 74/49/79 80/18/36
f 74/49/79 81/18/35 80/18/36
f 74/49/79 75/49/81 81/18/35
f 75/49/81 82/17/34 81/18/35
f 75/49/81 76/50/82 82/17/34
f 76/50/82 83/16/33 82/17/34
f 76/50/82 77/51/83 83/16/33
f 77/51/83 84/16/31 83/16/33
f 77/51/83 78/51/84 84/16/31
f 78/51/84 79/17/32 84/16/31
f 78/51/84 73/50/80 79/17/32
# 164 triangles in group

# 164 triangles total

