# Wavefront OBJ exported by MilkShape 3D

mtllib knife.mtl

v -25.325434 -23.781469 -0.000000
v -24.649265 -24.600897 -0.921320
v -24.003065 -27.653149 -0.000000
v -23.788799 -21.798872 -0.000000
v -22.976883 -22.659184 -1.681054
v -20.691280 -21.584097 -0.000000
v -20.263655 -22.025452 -0.838362
v -17.444086 -18.431282 -0.000000
v -17.011999 -18.915630 -0.807303
v -11.950059 -13.187113 -0.000000
v -11.482899 -13.675587 -0.668421
v -10.507980 -11.423780 -0.000000
v -9.990835 -11.999232 -0.668210
v -10.540831 -10.125673 -0.000000
v -9.819061 -10.844264 -1.414910
v -8.022754 -7.973475 -0.000000
v -7.278194 -8.701508 -1.414910
v -7.877523 -7.986902 -0.000000
v -23.016880 -26.579157 -1.302944
v -21.016754 -24.736174 -1.703473
v -19.231239 -23.090977 -1.185622
v -15.968831 -20.084915 -1.141698
v -10.355078 -14.854843 -0.945289
v -8.742354 -13.388477 -0.944990
v -8.076611 -12.579080 -2.000983
v -5.480688 -10.459098 -2.000983
v -21.384487 -28.557417 -0.921321
v -19.056595 -26.813173 -1.681054
v -18.198824 -24.156506 -0.838362
v -14.925668 -21.254206 -0.807303
v -9.227262 -16.034100 -0.668421
v -7.493866 -14.777727 -0.668210
v -6.334151 -14.313899 -1.414910
v -3.683179 -12.216681 -1.414910
v -20.708323 -29.376833 0.000000
v -18.244682 -27.673491 0.000000
v -17.771194 -24.597857 0.000000
v -14.493574 -21.738543 0.000000
v -8.760103 -16.522566 0.000000
v -6.976730 -15.353171 0.000000
v -5.612391 -15.032488 -0.000000
v -2.938632 -12.944707 -0.000000
v -3.056604 -12.958122 0.000000
v -20.708323 -29.376833 0.000000
v -21.384487 -28.557417 0.921320
v -24.003065 -27.653149 -0.000000
v -18.244682 -27.673491 0.000000
v -19.056595 -26.813173 1.681054
v -17.771194 -24.597857 0.000000
v -18.198820 -24.156509 0.838362
v -14.493574 -21.738543 0.000000
v -14.925666 -21.254208 0.807303
v -8.760103 -16.522566 0.000000
v -9.227262 -16.034101 0.668421
v -6.976730 -15.353171 0.000000
v -7.493866 -14.777727 0.668210
v -5.612391 -15.032488 -0.000000
v -6.334140 -14.313902 1.414911
v -2.938632 -12.944707 -0.000000
v -3.683179 -12.216681 1.414911
v -3.056604 -12.958122 0.000000
v -23.016880 -26.579157 1.302944
v -21.016754 -24.736174 1.703474
v -19.231239 -23.090977 1.185622
v -15.968831 -20.084915 1.141698
v -10.355078 -14.854843 0.945290
v -8.742354 -13.388477 0.944990
v -8.076611 -12.579080 2.000983
v -5.480688 -10.459098 2.000983
v -24.649265 -24.600897 0.921320
v -22.976883 -22.659184 1.681054
v -20.263655 -22.025452 0.838362
v -17.011999 -18.915630 0.807303
v -11.482899 -13.675587 0.668421
v -9.990835 -11.999232 0.668210
v -9.819061 -10.844264 1.414911
v -7.278194 -8.701508 1.414911
v -25.325434 -23.781469 -0.000000
v -23.788799 -21.798872 -0.000000
v -20.691280 -21.584097 -0.000000
v -17.444086 -18.431282 -0.000000
v -11.950059 -13.187113 -0.000000
v -10.507980 -11.423780 -0.000000
v -10.540831 -10.125673 -0.000000
v -8.022754 -7.973475 -0.000000
v -7.877523 -7.986902 -0.000000
v -7.877523 -7.986902 -0.000000
v -7.171517 -8.714928 0.000000
v -7.278194 -8.701508 -1.414910
v -5.467067 -10.472512 0.000000
v -5.480688 -10.459098 -2.000983
v -3.683179 -12.216681 -1.414910
v -3.762610 -12.230101 0.000000
v -3.056604 -12.958122 0.000000
v -3.683179 -12.216681 1.414911
v -5.480688 -10.459098 2.000983
v -7.278194 -8.701508 1.414911
v -3.372049 -12.656378 0.043750
v -7.309581 -8.773039 -0.420398
v 3.652957 -5.448043 -0.022917
v 2.668513 0.751962 -0.420398
v 10.552961 2.551957 0.043750
v 9.283429 7.851962 -0.420398
v 13.052961 5.551957 0.043750
v 12.738988 11.951962 -0.420398
v 15.286288 8.451963 0.043750
v 17.052965 11.651966 0.043750
v 15.305972 15.251963 -0.420398
v 18.752953 14.951963 0.043750
v 17.872959 19.051962 -0.420398
v 20.552965 18.951963 0.043750
v 20.045017 22.751963 -0.420398
v 21.952957 22.851971 0.043750
v 22.118351 26.651962 -0.420398
v 23.052965 26.351955 0.043750
v 23.719625 30.251963 -0.110199
v 3.652957 -5.573043 -0.022917
v -7.309593 -8.898010 0.436193
v -3.372049 -12.781378 0.043750
v 2.668536 0.626953 0.436193
v 10.552961 2.426957 0.043750
v 9.283402 7.726990 0.436193
v 13.052961 5.426957 0.043750
v 12.738959 11.826965 0.436193
v 15.286288 8.326963 0.043750
v 17.052965 11.526966 0.043750
v 15.305981 15.126953 0.436193
v 18.752953 14.826963 0.043750
v 17.872944 18.926941 0.436193
v 20.552965 18.826963 0.043750
v 20.045017 22.626953 0.436193
v 21.952957 22.726971 0.043750
v 22.118324 26.526978 0.436193
v 23.052965 26.226955 0.043750
v 23.719624 30.126953 0.238929
v -7.309581 -8.898039 -0.420398
v 23.719625 30.126963 -0.110199
v 2.668513 0.626962 -0.420398
v -7.309581 -8.898039 -0.420398
v -7.309593 -8.898010 0.436193
v 2.668536 0.626953 0.436193
v 9.283429 7.726962 -0.420398
v 9.283402 7.726990 0.436193
v 12.738988 11.826962 -0.420398
v 12.738959 11.826965 0.436193
v 15.305972 15.126963 -0.420398
v 15.305981 15.126953 0.436193
v 17.872959 18.926962 -0.420398
v 17.872944 18.926941 0.436193
v 20.045017 22.626963 -0.420398
v 20.045017 22.626953 0.436193
v 22.118351 26.526962 -0.420398
v 22.118324 26.526978 0.436193
v 23.719625 30.126963 -0.110199
v 23.719624 30.126953 0.238929
# 155 vertices

vt 0.111065 0.133452
vt 0.121378 0.121177
vt 0.131234 0.075455
vt 0.134502 0.163151
vt 0.146886 0.150264
vt 0.181748 0.166368
vt 0.188270 0.159757
vt 0.231276 0.213597
vt 0.237866 0.206341
vt 0.315074 0.292152
vt 0.322200 0.284835
vt 0.337070 0.318567
vt 0.344958 0.309947
vt 0.336569 0.338012
vt 0.347578 0.327248
vt 0.374976 0.370251
vt 0.386333 0.359346
vt 0.377191 0.370050
vt 0.146276 0.091544
vt 0.176783 0.119151
vt 0.204017 0.143796
vt 0.253778 0.188825
vt 0.339402 0.267170
vt 0.364000 0.289136
vt 0.374155 0.301261
vt 0.413750 0.333017
vt 0.171174 0.061909
vt 0.206681 0.088038
vt 0.219764 0.127834
vt 0.269688 0.171310
vt 0.356604 0.249506
vt 0.383043 0.268326
vt 0.400732 0.275273
vt 0.441166 0.306689
vt 0.181488 0.049635
vt 0.219065 0.075150
vt 0.226287 0.121223
vt 0.276279 0.164054
vt 0.363730 0.242189
vt 0.390931 0.259705
vt 0.411741 0.264509
vt 0.452523 0.295783
vt 0.450723 0.295583
vt 0.181130 0.046272
vt 0.170796 0.058693
vt 0.130777 0.072399
vt 0.218781 0.072091
vt 0.206372 0.085132
vt 0.226017 0.118711
vt 0.219482 0.125401
vt 0.276107 0.162051
vt 0.269504 0.169393
vt 0.363730 0.241114
vt 0.145849 0.088679
vt 0.176416 0.116614
vt 0.203703 0.141552
vt 0.253562 0.187117
vt 0.120902 0.118665
vt 0.146460 0.148097
vt 0.187925 0.157703
vt 0.237619 0.204840
vt 0.110568 0.131085
vt 0.134052 0.161137
vt 0.181390 0.164393
vt 0.231016 0.212182
vt 0.341448 0.252421
vt 0.344173 0.250233
vt 0.331319 0.240095
vt 0.350750 0.244951
vt 0.332594 0.230597
vt 0.344474 0.229530
vt 0.357328 0.239668
vt 0.360052 0.237480
vt 0.370081 0.249887
vt 0.368806 0.259385
vt 0.356925 0.260452
vt 0.837388 0.691880
vt 0.929452 0.691617
vt 0.842232 0.582982
vt 0.925224 0.583074
vt 0.845199 0.471873
vt 0.921611 0.472963
vt 0.845843 0.416079
vt 0.919734 0.415983
vt 0.847130 0.360496
vt 0.849456 0.323288
vt 0.909819 0.323616
vt 0.853016 0.285871
vt 0.906805 0.286187
vt 0.858514 0.236040
vt 0.901750 0.236948
vt 0.864624 0.187462
vt 0.887116 0.127121
vt 0.873803 0.127225
vt 0.880395 0.071353
vt 0.891987 0.512972
vt 0.892301 0.692901
vt 0.869508 0.693418
vt 0.869194 0.513489
vt 0.891779 0.393688
vt 0.868986 0.394205
vt 0.891670 0.331379
vt 0.868877 0.331897
vt 0.891589 0.285089
vt 0.868796 0.285607
vt 0.891508 0.238801
vt 0.868715 0.239319
vt 0.891440 0.199634
vt 0.868647 0.200152
vt 0.891374 0.162246
vt 0.868581 0.162763
vt 0.883070 0.133559
vt 0.873780 0.133770
# 113 texture coordinates

vn -0.781623 0.172100 -0.599539
vn -0.655898 -0.123459 -0.744685
vn -0.613728 -0.516610 -0.597036
vn -0.379039 0.736653 -0.560065
vn -0.221925 0.427086 -0.876554
vn -0.316976 0.757346 -0.570923
vn -0.162740 0.570591 -0.804948
vn -0.540662 0.561613 -0.626319
vn -0.347617 0.379171 -0.857550
vn -0.513457 0.493426 -0.702063
vn -0.322003 0.323411 -0.889786
vn -0.680004 0.205998 -0.703676
vn -0.581387 0.026458 -0.813197
vn -0.749511 0.296642 -0.591808
vn -0.631920 0.089001 -0.769906
vn -0.234862 0.808500 -0.539599
vn -0.279164 0.552708 -0.785227
vn 0.083516 0.903286 -0.420832
vn -0.289019 -0.243826 -0.925752
vn 0.023243 0.021936 -0.999489
vn 0.120376 0.115135 -0.986029
vn 0.013234 0.011828 -0.999842
vn 0.004460 0.003971 -0.999982
vn -0.288158 -0.259803 -0.921665
vn -0.266992 -0.256874 -0.928833
vn 0.000000 -0.000000 -1.000000
vn -0.198694 -0.602662 -0.772864
vn 0.406457 -0.240283 -0.881508
vn 0.547949 -0.205117 -0.810974
vn 0.351393 -0.375681 -0.857547
vn 0.294906 -0.348840 -0.889574
vn 0.060708 -0.549511 -0.833278
vn 0.113982 -0.621354 -0.775195
vn 0.400174 -0.258862 -0.879120
vn 0.101691 -0.772934 -0.626284
vn 0.707308 -0.429536 -0.561439
vn 0.725335 -0.376587 -0.576256
vn 0.518419 -0.581915 -0.626591
vn 0.447569 -0.553989 -0.701982
vn 0.262628 -0.621272 -0.738274
vn 0.311936 -0.731172 -0.606699
vn 0.852429 0.483078 -0.199998
vn -0.098131 0.862954 0.495662
vn 0.101691 -0.772934 0.626284
vn -0.198694 -0.602662 0.772864
vn -0.613728 -0.516610 0.597036
vn 0.707308 -0.429536 0.561439
vn 0.406457 -0.240284 0.881508
vn 0.725336 -0.376588 0.576254
vn 0.547950 -0.205118 0.810973
vn 0.518420 -0.581916 0.626589
vn 0.351393 -0.375682 0.857546
vn 0.447570 -0.553989 0.701981
vn 0.294906 -0.348840 0.889574
vn 0.262628 -0.621272 0.738274
vn 0.060708 -0.549511 0.833278
vn 0.311937 -0.731172 0.606698
vn 0.113983 -0.621354 0.775194
vn 0.852429 0.483079 0.199998
vn 0.400175 -0.258862 0.879119
vn -0.098132 0.862954 -0.495662
vn -0.289019 -0.243826 0.925752
vn 0.023244 0.021936 0.999489
vn 0.120375 0.115135 0.986029
vn 0.013234 0.011828 0.999842
vn 0.004460 0.003971 0.999982
vn -0.288158 -0.259803 0.921666
vn -0.266992 -0.256874 0.928833
vn 0.000000 -0.000000 1.000000
vn -0.655898 -0.123459 0.744685
vn -0.221925 0.427086 0.876554
vn -0.162740 0.570591 0.804948
vn -0.347617 0.379171 0.857550
vn -0.322003 0.323411 0.889786
vn -0.581387 0.026458 0.813197
vn -0.631920 0.089001 0.769906
vn -0.279164 0.552708 0.785227
vn -0.781623 0.172100 0.599539
vn -0.379039 0.736653 0.560064
vn -0.316977 0.757346 0.570923
vn -0.540662 0.561613 0.626319
vn -0.513458 0.493426 0.702063
vn -0.680004 0.205998 0.703675
vn -0.749511 0.296642 0.591807
vn -0.234862 0.808500 0.539599
vn 0.083515 0.903286 0.420832
vn 0.717880 0.696167 -0.000000
vn 0.711323 0.702153 -0.031644
vn 0.708556 0.705655 -0.000000
vn 0.699122 0.715002 0.000034
vn 0.711326 0.702167 0.031256
vn 0.055260 -0.063071 -0.996478
vn 0.054124 -0.059290 -0.996772
vn 0.059637 -0.057075 -0.996587
vn 0.066015 -0.059155 -0.996064
vn 0.075407 -0.063198 -0.995148
vn 0.078805 -0.068365 -0.994543
vn 0.083338 -0.067850 -0.994209
vn 0.093248 -0.067869 -0.993327
vn 0.095444 -0.062285 -0.993484
vn 0.110568 -0.067092 -0.991601
vn 0.118170 -0.076462 -0.990045
vn 0.140258 -0.075338 -0.987245
vn 0.153181 -0.085982 -0.984451
vn 0.191288 -0.086402 -0.977724
vn 0.215778 -0.103978 -0.970891
vn 0.297221 -0.114505 -0.947918
vn 0.355701 -0.121350 -0.926688
vn 0.411240 -0.117367 -0.903940
vn 0.414613 -0.106547 -0.903739
vn 0.060189 -0.057443 0.996533
vn 0.058240 -0.054378 0.996821
vn 0.055331 -0.044699 0.997467
vn 0.062738 -0.062102 0.996096
vn 0.065271 -0.059846 0.996071
vn 0.066734 -0.057893 0.996090
vn 0.070580 -0.057463 0.995850
vn 0.078994 -0.057494 0.995216
vn 0.080849 -0.052760 0.995329
vn 0.093714 -0.056864 0.993974
vn 0.100202 -0.064834 0.992853
vn 0.119034 -0.063932 0.990830
vn 0.130104 -0.073023 0.988808
vn 0.162822 -0.073519 0.983913
vn 0.184021 -0.088659 0.978916
vn 0.255574 -0.098329 0.961776
vn 0.305945 -0.109602 0.945719
vn 0.354804 -0.109268 0.928534
vn 0.355454 -0.107229 0.928523
vn -0.702191 -0.711989 0.000014
vn 0.985703 -0.168494 0.000001
vn -0.704483 0.709721 0.000006
vn -0.690493 0.723339 -0.000033
vn -0.718211 0.695825 0.000002
vn -0.742859 0.669448 -0.000021
vn -0.753856 0.657040 -0.000039
vn -0.772998 0.634408 -0.000034
vn -0.781222 0.624253 -0.000014
vn -0.802825 0.596215 0.000000
vn -0.815943 0.578133 0.000009
vn -0.840267 0.542173 0.000004
vn -0.851517 0.524327 0.000001
vn -0.869420 0.494073 0.000003
vn -0.876288 0.481787 -0.000008
vn -0.893705 0.448655 -0.000022
vn -0.903947 0.427644 -0.000022
vn -0.913689 0.406414 -0.000015
# 147 normals

g drska front
usemtl Material01
s 1
f 1/1/1 2/2/2 3/3/3
f 1/1/1 4/4/4 5/5/5
f 1/1/1 5/5/5 2/2/2
f 4/4/4 6/6/6 5/5/5
f 6/6/6 7/7/7 5/5/5
f 6/6/6 8/8/8 9/9/9
f 6/6/6 9/9/9 7/7/7
f 8/8/8 10/10/10 9/9/9
f 10/10/10 11/11/11 9/9/9
f 10/10/10 12/12/12 13/13/13
f 10/10/10 13/13/13 11/11/11
f 12/12/12 14/14/14 13/13/13
f 14/14/14 15/15/15 13/13/13
f 14/14/14 16/16/16 17/17/17
f 14/14/14 17/17/17 15/15/15
f 16/16/16 18/18/18 17/17/17
f 3/3/3 2/2/2 19/19/19
f 2/2/2 5/5/5 19/19/19
f 5/5/5 20/20/20 19/19/19
f 5/5/5 7/7/7 21/21/21
f 5/5/5 21/21/21 20/20/20
f 7/7/7 9/9/9 21/21/21
f 9/9/9 22/22/22 21/21/21
f 9/9/9 11/11/11 23/23/23
f 9/9/9 23/23/23 22/22/22
f 11/11/11 13/13/13 23/23/23
f 13/13/13 24/24/24 23/23/23
f 13/13/13 15/15/15 25/25/25
f 13/13/13 25/25/25 24/24/24
f 15/15/15 17/17/17 25/25/25
f 17/17/17 26/26/26 25/25/25
f 19/19/19 27/27/27 3/3/3
f 19/19/19 20/20/20 28/28/28
f 19/19/19 28/28/28 27/27/27
f 20/20/20 21/21/21 28/28/28
f 21/21/21 29/29/29 28/28/28
f 21/21/21 22/22/22 30/30/30
f 21/21/21 30/30/30 29/29/29
f 22/22/22 23/23/23 30/30/30
f 23/23/23 31/31/31 30/30/30
f 23/23/23 24/24/24 32/32/32
f 23/23/23 32/32/32 31/31/31
f 24/24/24 25/25/25 32/32/32
f 25/25/25 33/33/33 32/32/32
f 25/25/25 26/26/26 34/34/34
f 25/25/25 34/34/34 33/33/33
f 3/3/3 27/27/27 35/35/35
f 27/27/27 28/28/28 35/35/35
f 28/28/28 36/36/36 35/35/35
f 28/28/28 29/29/29 37/37/37
f 28/28/28 37/37/37 36/36/36
f 29/29/29 30/30/30 37/37/37
f 30/30/30 38/38/38 37/37/37
f 30/30/30 31/31/31 39/39/39
f 30/30/30 39/39/39 38/38/38
f 31/31/31 32/32/32 39/39/39
f 32/32/32 40/40/40 39/39/39
f 32/32/32 33/33/33 41/41/41
f 32/32/32 41/41/41 40/40/40
f 33/33/33 34/34/34 41/41/41
f 34/34/34 42/42/42 41/41/41
f 34/34/34 43/43/43 42/42/42
# 62 triangles in group

g drska mazad
usemtl Material01
f 44/44/44 45/45/45 46/46/46
f 44/44/44 47/47/47 48/48/48
f 44/44/44 48/48/48 45/45/45
f 47/47/47 49/49/49 48/48/48
f 49/49/49 50/50/50 48/48/48
f 49/49/49 51/51/51 52/52/52
f 49/49/49 52/52/52 50/50/50
f 51/51/51 53/53/53 52/52/52
f 53/53/53 54/31/54 52/52/52
f 53/53/53 55/40/55 56/32/56
f 53/53/53 56/32/56 54/31/54
f 55/40/55 57/41/57 56/32/56
f 57/41/57 58/33/58 56/32/56
f 57/41/57 59/42/59 60/34/60
f 57/41/57 60/34/60 58/33/58
f 59/42/59 61/43/61 60/34/60
f 46/46/46 45/45/45 62/54/62
f 45/45/45 48/48/48 62/54/62
f 48/48/48 63/55/63 62/54/62
f 48/48/48 50/50/50 64/56/64
f 48/48/48 64/56/64 63/55/63
f 50/50/50 52/52/52 64/56/64
f 52/52/52 65/57/65 64/56/64
f 52/52/52 54/31/54 66/23/66
f 52/52/52 66/23/66 65/57/65
f 54/31/54 56/32/56 66/23/66
f 56/32/56 67/24/67 66/23/66
f 56/32/56 58/33/58 68/25/68
f 56/32/56 68/25/68 67/24/67
f 58/33/58 60/34/60 68/25/68
f 60/34/60 69/26/69 68/25/68
f 62/54/62 70/58/70 46/46/46
f 62/54/62 63/55/63 71/59/71
f 62/54/62 71/59/71 70/58/70
f 63/55/63 64/56/64 71/59/71
f 64/56/64 72/60/72 71/59/71
f 64/56/64 65/57/65 73/61/73
f 64/56/64 73/61/73 72/60/72
f 65/57/65 66/23/66 73/61/73
f 66/23/66 74/11/74 73/61/73
f 66/23/66 67/24/67 75/13/75
f 66/23/66 75/13/75 74/11/74
f 67/24/67 68/25/68 75/13/75
f 68/25/68 76/15/76 75/13/75
f 68/25/68 69/26/69 77/17/77
f 68/25/68 77/17/77 76/15/76
f 46/46/46 70/58/70 78/62/78
f 70/58/70 71/59/71 78/62/78
f 71/59/71 79/63/79 78/62/78
f 71/59/71 72/60/72 80/64/80
f 71/59/71 80/64/80 79/63/79
f 72/60/72 73/61/73 80/64/80
f 73/61/73 81/65/81 80/64/80
f 73/61/73 74/11/74 82/10/82
f 73/61/73 82/10/82 81/65/81
f 74/11/74 75/13/75 82/10/82
f 75/13/75 83/12/83 82/10/82
f 75/13/75 76/15/76 84/14/84
f 75/13/75 84/14/84 83/12/83
f 76/15/76 77/17/77 84/14/84
f 77/17/77 85/16/85 84/14/84
f 77/17/77 86/18/86 85/16/85
# 62 triangles in group

g drz
usemtl Material01
f 87/66/87 88/67/87 89/68/88
f 89/68/88 88/67/87 90/69/89
f 89/68/88 90/69/89 91/70/90
f 91/70/90 90/69/89 92/71/91
f 90/69/89 93/72/87 92/71/91
f 92/71/91 93/72/87 94/73/87
f 94/73/87 93/72/87 95/74/88
f 95/74/88 93/72/87 90/69/89
f 95/74/88 90/69/89 96/75/90
f 96/75/90 90/69/89 97/76/91
f 90/69/89 88/67/87 97/76/91
f 97/76/91 88/67/87 87/66/87
# 12 triangles in group

g Regroup12
usemtl Material01
f 98/77/92 99/78/93 100/79/94
f 100/79/94 99/78/93 101/80/95
f 100/79/94 101/80/95 102/81/96
f 102/81/96 101/80/95 103/82/97
f 102/81/96 103/82/97 104/83/98
f 104/83/98 103/82/97 105/84/99
f 106/85/100 104/83/98 105/84/99
f 106/85/100 105/84/99 107/86/101
f 107/86/101 105/84/99 108/87/102
f 107/86/101 108/87/102 109/88/103
f 109/88/103 108/87/102 110/89/104
f 109/88/103 110/89/104 111/90/105
f 111/90/105 110/89/104 112/91/106
f 111/90/105 112/91/106 113/92/107
f 113/92/107 112/91/106 114/93/108
f 113/92/107 114/93/108 115/94/109
f 115/94/109 114/93/108 116/95/110
f 117/79/111 118/78/112 119/77/113
f 120/80/114 118/78/112 117/79/111
f 121/81/115 120/80/114 117/79/111
f 122/82/116 120/80/114 121/81/115
f 123/83/117 122/82/116 121/81/115
f 124/84/118 122/82/116 123/83/117
f 124/84/118 123/83/117 125/85/119
f 126/86/120 124/84/118 125/85/119
f 127/87/121 124/84/118 126/86/120
f 128/88/122 127/87/121 126/86/120
f 129/89/123 127/87/121 128/88/122
f 130/90/124 129/89/123 128/88/122
f 131/91/125 129/89/123 130/90/124
f 132/92/126 131/91/125 130/90/124
f 133/93/127 131/91/125 132/92/126
f 134/94/128 133/93/127 132/92/126
f 135/95/129 133/93/127 134/94/128
s 2
f 118/78/130 136/78/130 119/77/130
f 134/94/131 137/95/131 135/95/131
# 36 triangles in group

g ostrica top
usemtl Material01
f 138/96/132 139/97/133 140/98/133
f 141/99/134 138/96/132 140/98/133
f 142/100/135 138/96/132 141/99/134
f 143/101/136 142/100/135 141/99/134
f 144/102/137 142/100/135 143/101/136
f 145/103/138 144/102/137 143/101/136
f 146/104/139 144/102/137 145/103/138
f 147/105/140 146/104/139 145/103/138
f 148/106/141 146/104/139 147/105/140
f 149/107/142 148/106/141 147/105/140
f 150/108/143 148/106/141 149/107/142
f 151/109/144 150/108/143 149/107/142
f 152/110/145 150/108/143 151/109/144
f 153/111/146 152/110/145 151/109/144
f 154/112/147 152/110/145 153/111/146
f 155/113/147 154/112/147 153/111/146
# 16 triangles in group

# 188 triangles total

