# Wavefront OBJ exported by MilkShape 3D

mtllib bucket.mtl

v 0.250026 -6.371216 8.862924
v 4.950351 -6.371216 7.335500
v 7.855676 -6.371216 3.336962
v 7.855676 -6.371216 -1.605264
v 4.950351 -6.371216 -5.603802
v 0.250026 -6.371216 -7.131226
v -4.450581 -6.371216 -5.603802
v -7.355623 -6.371216 -1.605264
v -7.355623 -6.371216 3.336962
v -4.450581 -6.371216 7.335500
v 0.262779 -0.016594 8.382885
v 4.688214 -0.016594 6.944854
v 7.422938 -0.016594 3.180525
v 7.422938 -0.016594 -1.472367
v 4.688214 -0.016594 -5.236696
v 0.262779 -0.016594 -6.674429
v -4.162373 -0.016594 -5.236696
v -6.897096 -0.016594 -1.472367
v -6.897096 -0.016594 3.180525
v -4.162373 -0.016594 6.944854
v -5.087644 -0.007055 8.216912
v 0.262779 -0.007055 9.955303
v 5.613486 -0.007055 8.216912
v 8.920376 -0.007055 3.665332
v 8.920376 -0.007055 -1.960750
v 5.613486 -0.007055 -6.512330
v 0.262779 -0.007055 -8.251019
v -5.087644 -0.007055 -6.512330
v -8.394535 -0.007055 -1.960750
v -8.394535 -0.007055 3.665332
v -5.476173 4.864785 8.905535
v 0.262779 4.864785 10.770267
v 6.002015 4.864785 8.905535
v 9.145389 8.167103 2.955851
v 9.145389 8.167103 -0.829037
v 6.002015 4.864785 -6.892845
v 0.262779 4.864785 -8.757578
v -5.476173 4.864785 -6.892845
v -8.619547 8.167103 -0.926773
v -8.619547 8.167103 2.858115
v -4.577824 4.816424 7.712737
v 0.262779 4.816424 9.285454
v 5.103665 4.816424 7.712737
v 8.233720 8.136933 2.687077
v 8.233720 8.136933 -0.505436
v 5.103665 4.816424 -5.612741
v 0.262779 4.816424 -7.185755
v -4.577824 4.816424 -5.612741
v -7.707878 8.136933 -0.603470
v -7.707878 8.136933 2.589043
v -7.569583 4.816424 -1.495013
v -9.023096 4.864785 -2.010809
v -9.023096 4.864785 4.023499
v -7.569583 4.816424 3.594712
v 8.095425 4.816424 3.594712
v 9.548938 4.864785 4.023499
v 9.548938 4.864785 -2.010809
v 8.095425 4.816424 -1.495013
# 58 vertices

vt 0.160156 0.621094
vt 0.289063 0.339844
vt 0.148438 0.339844
vt 0.289063 0.621094
vt 0.312500 0.621094
vt 0.445313 0.339844
vt 0.324219 0.339844
vt 0.423828 0.621094
vt 0.298828 0.144531
vt 0.175781 0.339844
vt 0.205078 0.144531
vt 0.066406 0.621094
vt 0.054688 0.339844
vt 0.175781 0.621094
vt 0.431641 0.339844
vt 0.419922 0.621094
vt 0.203125 0.144531
vt 0.294922 0.144531
vt 0.927734 0.511719
vt 0.804688 0.855469
vt 0.892578 0.722656
vt 0.693359 0.855469
vt 0.603516 0.722656
vt 0.568359 0.511719
vt 0.603516 0.300781
vt 0.693359 0.171875
vt 0.804688 0.171875
vt 0.892578 0.300781
vt 0.166016 0.839844
vt 0.166016 0.585938
vt 0.144531 0.710938
vt 0.218750 0.507813
vt 0.285156 0.507813
vt 0.339844 0.585938
vt 0.359375 0.710938
vt 0.339844 0.839844
vt 0.285156 0.917969
vt 0.218750 0.917969
vt 0.152344 0.992188
vt 0.132813 0.621094
vt 0.289063 0.992188
vt 0.447266 0.621094
vt 0.427734 0.992188
vt 0.433594 0.992188
vt 0.326172 0.621094
vt 0.460938 0.621094
vt 0.318359 0.992188
vt 0.162109 0.621094
vt 0.173828 0.992188
vt 0.029297 0.621094
vt 0.056641 0.992188
vt 0.291016 0.992188
vt 0.289063 0.335938
vt 0.121094 0.335938
vt 0.457031 0.335938
vt 0.337891 0.335938
vt 0.480469 0.335938
vt 0.195313 0.140625
vt 0.160156 0.335938
vt 0.306641 0.140625
vt 0.017578 0.335938
vt 0.302734 0.140625
vt 0.193359 0.140625
vt 0.941406 0.781250
vt 0.949219 0.503906
vt 0.912109 0.738281
vt 0.986328 0.503906
vt 0.912109 0.273438
vt 0.941406 0.226563
vt 0.466797 0.140625
vt 0.437500 0.339844
vt 0.441406 0.144531
vt 0.796875 0.078125
vt 0.712891 0.121094
vt 0.791016 0.121094
vt 0.705078 0.078125
vt 0.056641 0.144531
vt 0.060547 0.339844
vt 0.029297 0.140625
vt 0.558594 0.226563
vt 0.552734 0.503906
vt 0.589844 0.273438
vt 0.513672 0.503906
vt 0.589844 0.738281
vt 0.558594 0.781250
vt 0.703125 0.933594
vt 0.789063 0.890625
vt 0.710938 0.890625
vt 0.794922 0.933594
vt 0.677734 0.953125
vt 0.689453 0.882813
vt 0.812500 0.882813
vt 0.822266 0.953125
vt 0.822266 0.058594
vt 0.812500 0.128906
vt 0.689453 0.128906
vt 0.677734 0.058594
# 97 texture coordinates

vn -0.438869 0.471185 -0.765101
vn -0.064167 0.769735 -0.635130
vn -0.367440 0.835222 -0.409136
vn 0.033878 0.949215 -0.312799
vn -0.689318 0.655213 -0.309090
vn -0.879727 0.403920 0.250856
vn -0.816910 0.475777 0.326029
vn -0.875448 0.480324 0.053658
vn -0.477958 0.722364 -0.499746
vn -0.519980 0.632487 0.574092
vn -0.390932 0.621618 0.678796
vn -0.749376 0.643231 0.157130
vn -0.083854 0.627339 0.774218
vn 0.067260 0.745843 0.662718
vn 0.386067 0.629906 0.673922
vn 0.378528 0.823992 0.421609
vn 0.701487 0.639122 0.315338
vn 0.889795 0.387332 -0.241327
vn 0.824846 0.468057 -0.317098
vn 0.865717 0.498025 -0.050047
vn 0.453274 0.730466 0.510844
vn 0.593857 0.467440 -0.654855
vn 0.377370 0.655361 -0.654289
vn 0.742884 0.651216 -0.155050
vn -0.157527 -0.948497 0.274844
vn 0.504339 -0.660169 0.556615
vn 0.095350 -0.464112 0.880629
vn 0.734483 -0.660986 0.153728
vn 0.684108 -0.661543 -0.307175
vn 0.372868 -0.661612 -0.650569
vn -0.080811 -0.661168 -0.745873
vn -0.504274 -0.660365 -0.556441
vn -0.735752 -0.659528 -0.153924
vn -0.808339 -0.463501 0.362981
vn 0.000010 -0.166977 0.985961
vn -0.579807 -0.164756 0.797922
vn 0.580012 -0.163835 0.797962
vn 0.939464 -0.156479 0.304830
vn 0.940467 -0.147682 -0.306125
vn 0.581481 -0.140834 -0.801278
vn -0.000495 -0.138571 -0.990352
vn -0.582155 -0.141792 -0.800619
vn -0.940464 -0.149214 -0.305391
vn -0.939115 -0.157981 0.305133
vn -0.084742 0.678164 0.730008
vn -0.409908 0.794868 0.447392
vn 0.433056 0.485390 0.759512
vn 0.823583 0.404891 0.397208
vn 0.675682 0.634600 -0.375149
vn 0.752385 0.320734 -0.575366
vn 0.112278 0.815237 0.568139
vn 0.402173 0.803057 -0.439722
vn 0.082108 0.699022 -0.710371
vn -0.423382 0.518158 -0.743142
vn -0.817179 0.418477 -0.396354
vn -0.683946 0.626113 0.374434
vn -0.760730 0.309251 0.570661
vn -0.082584 0.820639 -0.565448
# 58 normals

g 
usemtl mat_bucket_1
s 1
f 12/1/1 42/2/2 43/3/3
f 12/1/1 11/4/4 42/2/2
f 13/5/5 43/6/3 55/7/6
f 13/5/5 12/8/1 43/6/3
f 44/9/7 58/10/8 55/7/6
f 44/9/7 45/11/9 58/10/8
f 15/12/10 58/10/8 46/13/11
f 15/12/10 14/14/12 58/10/8
f 16/4/13 46/15/11 47/2/14
f 16/4/13 15/16/10 46/15/11
f 17/1/15 47/2/14 48/3/16
f 17/1/15 16/4/13 47/2/14
f 18/14/17 48/13/16 51/10/18
f 18/14/17 17/12/15 48/13/16
f 49/17/19 54/7/20 51/10/18
f 49/17/19 50/18/21 54/7/20
f 20/8/22 54/7/20 41/6/23
f 20/8/22 19/5/24 54/7/20
f 11/4/4 41/15/23 42/2/2
f 11/4/4 20/16/22 41/15/23
f 11/19/4 19/20/24 20/21/22
f 11/19/4 18/22/17 19/20/24
f 11/19/4 17/23/15 18/22/17
f 11/19/4 16/24/13 17/23/15
f 11/19/4 15/25/10 16/24/13
f 11/19/4 14/26/12 15/25/10
f 11/19/4 13/27/5 14/26/12
f 11/19/4 12/28/1 13/27/5
f 10/29/25 2/30/26 1/31/27
f 10/29/25 3/32/28 2/30/26
f 10/29/25 4/33/29 3/32/28
f 10/29/25 5/34/30 4/33/29
f 10/29/25 6/35/31 5/34/30
f 10/29/25 7/36/32 6/35/31
f 10/29/25 8/37/33 7/36/32
f 10/29/25 9/38/34 8/37/33
f 10/39/25 22/4/35 21/40/36
f 10/39/25 1/41/27 22/4/35
f 1/41/27 23/42/37 22/4/35
f 1/41/27 2/43/26 23/42/37
f 2/44/26 24/45/38 23/46/37
f 2/44/26 3/47/28 24/45/38
f 3/47/28 25/48/39 24/45/38
f 3/47/28 4/49/29 25/48/39
f 4/49/29 26/50/40 25/48/39
f 4/49/29 5/51/30 26/50/40
f 5/39/30 27/4/41 26/40/40
f 5/39/30 6/52/31 27/4/41
f 6/52/31 28/42/42 27/4/41
f 6/52/31 7/43/32 28/42/42
f 7/51/32 29/48/43 28/50/42
f 7/51/32 8/49/33 29/48/43
f 8/49/33 30/45/44 29/48/43
f 8/49/33 9/47/34 30/45/44
f 9/47/34 21/46/36 30/45/44
f 9/47/34 10/44/25 21/46/36
f 21/40/36 32/53/45 31/54/46
f 21/40/36 22/4/35 32/53/45
f 22/4/35 33/55/47 32/53/45
f 22/4/35 23/42/37 33/55/47
f 23/46/37 56/56/48 33/57/47
f 23/46/37 24/45/38 56/56/48
f 35/58/49 56/56/48 57/59/50
f 35/58/49 34/60/51 56/56/48
f 25/48/39 36/61/52 57/59/50
f 25/48/39 26/50/40 36/61/52
f 26/40/40 37/53/53 36/54/52
f 26/40/40 27/4/41 37/53/53
f 27/4/41 38/55/54 37/53/53
f 27/4/41 28/42/42 38/55/54
f 28/50/42 52/59/55 38/61/54
f 28/50/42 29/48/43 52/59/55
f 40/62/56 52/59/55 53/56/57
f 40/62/56 39/63/58 52/59/55
f 30/45/44 31/57/46 53/56/57
f 30/45/44 21/46/36 31/57/46
f 31/64/46 42/65/2 41/66/23
f 31/64/46 32/67/45 42/65/2
f 32/67/45 43/68/3 42/65/2
f 32/67/45 33/69/47 43/68/3
f 34/70/51 55/71/6 56/57/48
f 34/70/51 44/72/7 55/71/6
f 34/73/51 45/74/9 44/75/7
f 34/73/51 35/76/49 45/74/9
f 45/77/9 57/61/50 58/78/8
f 45/77/9 35/79/49 57/61/50
f 36/80/52 47/81/14 46/82/11
f 36/80/52 37/83/53 47/81/14
f 37/83/53 48/84/16 47/81/14
f 37/83/53 38/85/54 48/84/16
f 39/70/58 51/71/18 52/57/55
f 39/70/58 49/72/19 51/71/18
f 39/86/58 50/87/21 49/88/19
f 39/86/58 40/89/56 50/87/21
f 50/77/21 53/61/57 54/78/20
f 50/77/21 40/79/56 53/61/57
f 48/84/16 52/90/55 51/91/18
f 48/84/16 38/85/54 52/90/55
f 29/48/43 53/56/57 52/59/55
f 29/48/43 30/45/44 53/56/57
f 31/64/46 54/92/20 53/93/57
f 31/64/46 41/66/23 54/92/20
f 19/5/24 51/10/18 54/7/20
f 19/5/24 18/14/17 51/10/18
f 43/68/3 56/94/48 55/95/6
f 43/68/3 33/69/47 56/94/48
f 24/45/38 57/59/50 56/56/48
f 24/45/38 25/48/39 57/59/50
f 36/80/52 58/96/8 57/97/50
f 36/80/52 46/82/11 58/96/8
f 14/14/12 55/7/6 58/10/8
f 14/14/12 13/5/5 55/7/6
# 112 triangles in group

# 112 triangles total

