# Wavefront OBJ exported by MilkShape 3D

mtllib fence.mtl

v -1.083694 -33.980217 -52.363319
v -0.933510 56.859127 -46.262451
v -1.083694 -34.534634 -36.497101
v -0.933510 56.574238 -38.095608
v 2.070367 -33.980217 -52.363319
v 2.070367 -34.534634 -36.497101
v 1.920182 56.574238 -38.095608
v 1.920182 56.859127 -46.262451
v 2.070367 -4.660308 -35.453217
v 2.070367 -4.105891 -51.319435
v -1.083694 -4.105891 -51.319435
v -1.083694 -4.660308 -35.453217
v 2.070367 2.896253 -37.073513
v 2.070367 3.449275 -51.729462
v -1.083694 3.449275 -51.729462
v -1.083694 2.896253 -37.073513
v 2.070367 19.546944 -35.684971
v 2.070367 20.101362 -49.263367
v -1.083694 20.101362 -49.263367
v -1.083694 19.546944 -35.684971
v 1.920182 44.761086 -35.292774
v 1.920182 45.262436 -48.570084
v -0.933510 45.262436 -48.570084
v -0.933510 44.761086 -35.292774
v -1.083694 -34.266502 -24.477598
v -0.933510 53.367832 -21.435087
v -1.083694 -34.266502 -8.601475
v -0.933510 53.367832 -13.260320
v 2.070367 -34.266502 -24.477598
v 2.070367 -34.266502 -8.601475
v 1.920182 53.367832 -13.260320
v 1.920182 53.367832 -21.435087
v 2.070367 -4.374022 -8.601475
v 2.070367 -4.374022 -24.477598
v -1.083694 -4.374022 -24.477598
v -1.083694 -4.374022 -8.601475
v 2.070367 3.162988 -9.274947
v 2.070367 3.162988 -25.151070
v -1.083694 3.162988 -25.151070
v -1.083694 3.162988 -9.274947
v 2.070367 19.852781 -8.466781
v 2.070367 19.852781 -24.342903
v -1.083694 19.852781 -24.342903
v -1.083694 19.852781 -8.466781
v 1.920182 45.022236 -10.166308
v 1.920182 45.022236 -24.529099
v -0.933510 45.022236 -24.529099
v -0.933510 45.022236 -10.166308
v 2.070367 -33.830788 22.106888
v 1.920182 50.298283 14.649171
v 2.070367 -34.661716 6.250574
v 1.920182 51.349861 6.409038
v -1.083694 -33.830788 22.106888
v -1.083694 -34.661716 6.250574
v -0.933510 51.349861 6.409038
v -0.933510 50.298283 14.649171
v -1.083694 -4.809736 4.687721
v -1.083694 -3.978807 20.542055
v 2.070367 -3.978807 20.542055
v 2.070367 -4.809736 4.687721
v -1.083694 2.752412 4.965034
v -1.083694 3.583341 20.819366
v 2.070367 3.583341 20.819366
v 2.070367 2.752412 4.965034
v -1.083694 19.376570 3.285314
v -1.083694 20.207497 19.139648
v 2.070367 20.207497 19.139648
v 2.070367 19.376570 3.285314
v -0.933510 44.600487 3.663647
v -0.933510 45.353210 18.008610
v 1.920182 45.353210 18.008610
v 1.920182 44.600487 3.663647
v -1.083694 -34.266502 35.956650
v -0.933510 53.367832 39.001144
v -1.083694 -34.266502 51.832775
v -0.933510 53.367832 47.173931
v 2.070367 -34.266502 35.956650
v 2.070367 -34.266502 51.832775
v 1.920182 53.367832 47.173931
v 1.920182 53.367832 39.001144
v 2.070367 -4.374022 51.832775
v 2.070367 -4.374022 35.956650
v -1.083694 -4.374022 35.956650
v -1.083694 -4.374022 51.832775
v 2.070367 3.162988 51.159302
v 2.070367 3.162988 35.283180
v -1.083694 3.162988 35.283180
v -1.083694 3.162988 51.159302
v 2.070367 19.852781 51.967468
v 2.070367 19.852781 36.091347
v -1.083694 19.852781 36.091347
v -1.083694 19.852781 51.967468
v 1.920182 45.022236 50.269920
v 1.920182 45.022236 35.905151
v -0.933510 45.022236 35.905151
v -0.933510 45.022236 50.269920
v -4.190655 30.540339 -65.292007
v -4.190655 37.916748 -65.292007
v -4.189795 30.811262 64.252396
v -4.189795 38.186275 64.252396
v -1.678508 30.540339 -65.292007
v -1.677648 30.811262 64.252396
v -1.677648 38.186275 64.252396
v -1.678508 37.916748 -65.292007
v -1.678508 30.540339 -12.331324
v -1.678508 37.916748 -12.331324
v -4.190655 37.916748 -12.331324
v -4.190655 30.540339 -12.331324
v -1.678412 29.867216 -5.602542
v -1.678412 37.243626 -5.602542
v -4.190655 37.243626 -5.602542
v -4.190655 29.867216 -5.602542
v -1.678221 30.675800 26.565672
v -1.678221 38.050816 26.565672
v -4.190368 38.050816 26.565672
v -4.190368 30.675800 26.565672
v -4.190655 4.587437 63.984989
v -4.190655 -2.787577 63.984989
v -4.189795 4.316513 -65.559418
v -4.189795 -3.058502 -65.559418
v -1.678508 4.587437 63.984989
v -1.677648 4.316513 -65.559418
v -1.677648 -3.058502 -65.559418
v -1.678508 -2.787577 63.984989
v -1.678508 4.587437 11.024304
v -1.678508 -2.787577 11.024304
v -4.190655 -2.787577 11.024304
v -4.190655 4.587437 11.024304
v -1.678412 5.260560 4.295523
v -1.678412 -2.115852 4.295523
v -4.190655 -2.115852 4.295523
v -4.190655 5.260560 4.295523
v -1.678221 4.451975 -27.872692
v -1.678221 -2.923039 -27.872692
v -4.190368 -2.923039 -27.872692
v -4.190368 4.451975 -27.872692
# 136 vertices

vt 0.195313 0.042969
vt 0.121094 0.156250
vt 0.214844 0.160156
vt 0.136719 0.039063
vt 0.125000 0.996094
vt 0.839844 0.031250
vt 0.816406 0.152344
vt 0.839844 0.152344
vt 0.816406 0.031250
vt 0.968750 0.031250
vt 0.949219 0.152344
vt 0.968750 0.152344
vt 0.949219 0.031250
vt 0.945313 0.976563
vt 0.972656 0.667969
vt 0.945313 0.667969
vt 0.972656 0.976563
vt 0.816406 0.988281
vt 0.839844 0.671875
vt 0.816406 0.671875
vt 0.839844 0.988281
vt 0.972656 0.585938
vt 0.945313 0.585938
vt 0.839844 0.593750
vt 0.816406 0.593750
vt 0.117188 0.414063
vt 0.214844 0.968750
vt 0.105469 0.960938
vt 0.214844 0.664063
vt 0.210938 0.585938
vt 0.210938 0.417969
vt 0.972656 0.414063
vt 0.945313 0.414063
vt 0.113281 0.656250
vt 0.109375 0.582031
vt 0.839844 0.417969
vt 0.816406 0.417969
vt 0.355469 0.074219
vt 0.277344 0.160156
vt 0.375000 0.160156
vt 0.296875 0.074219
vt 0.839844 0.062500
vt 0.816406 0.062500
vt 0.968750 0.066406
vt 0.949219 0.156250
vt 0.968750 0.156250
vt 0.949219 0.066406
vt 0.945313 0.980469
vt 0.972656 0.980469
vt 0.816406 0.984375
vt 0.839844 0.984375
vt 0.972656 0.589844
vt 0.945313 0.589844
vt 0.839844 0.589844
vt 0.816406 0.589844
vt 0.277344 0.414063
vt 0.386719 0.964844
vt 0.277344 0.964844
vt 0.386719 0.660156
vt 0.382813 0.585938
vt 0.386719 0.414063
vt 0.972656 0.417969
vt 0.945313 0.417969
vt 0.277344 0.660156
vt 0.273438 0.585938
vt 0.839844 0.414063
vt 0.816406 0.414063
vt 0.625000 0.070313
vt 0.703125 0.128906
vt 0.609375 0.136719
vt 0.679688 0.078125
vt 0.968750 0.089844
vt 0.949219 0.160156
vt 0.968750 0.160156
vt 0.949219 0.089844
vt 0.839844 0.097656
vt 0.816406 0.148438
vt 0.839844 0.148438
vt 0.816406 0.097656
vt 0.816406 0.980469
vt 0.839844 0.664063
vt 0.816406 0.664063
vt 0.839844 0.980469
vt 0.945313 0.984375
vt 0.972656 0.671875
vt 0.945313 0.671875
vt 0.972656 0.984375
vt 0.839844 0.585938
vt 0.816406 0.585938
vt 0.972656 0.593750
vt 0.945313 0.593750
vt 0.710938 0.386719
vt 0.609375 0.941406
vt 0.710938 0.933594
vt 0.597656 0.640625
vt 0.601563 0.562500
vt 0.609375 0.394531
vt 0.839844 0.410156
vt 0.816406 0.410156
vt 0.699219 0.632813
vt 0.703125 0.554688
vt 0.972656 0.421875
vt 0.945313 0.421875
vt 0.851563 0.074219
vt 0.773438 0.160156
vt 0.871094 0.160156
vt 0.792969 0.074219
vt 0.773438 0.414063
vt 0.882813 0.964844
vt 0.773438 0.964844
vt 0.882813 0.660156
vt 0.878906 0.585938
vt 0.882813 0.414063
vt 0.773438 0.660156
vt 0.769531 0.585938
vt 0.082031 0.941406
vt 0.093750 0.824219
vt 0.082031 0.828125
vt 0.093750 0.941406
vt 0.546875 0.007813
vt 0.519531 0.289063
vt 0.546875 0.289063
vt 0.523438 0.007813
vt 0.511719 0.980469
vt 0.542969 0.582031
vt 0.515625 0.582031
vt 0.539063 0.980469
vt 0.089844 0.542969
vt 0.082031 0.707031
vt 0.089844 0.707031
vt 0.078125 0.542969
vt 0.542969 0.531250
vt 0.519531 0.531250
vt 0.082031 0.726563
vt 0.089844 0.726563
vt 0.195313 0.687500
vt 0.128906 0.027344
vt 0.199219 0.027344
vt 0.125000 0.410156
vt 0.117188 0.457031
vt 0.125000 0.687500
vt 0.125000 0.957031
vt 0.195313 0.960938
vt 0.203125 0.437500
vt 0.128906 0.996094
vt 0.199219 0.996094
vt 0.132813 0.722656
vt 0.140625 0.675781
vt 0.132813 0.437500
vt 0.132813 0.164063
vt 0.207031 0.164063
vt 0.511719 0.984375
vt 0.542969 0.699219
vt 0.515625 0.699219
vt 0.539063 0.984375
vt 0.082031 0.656250
vt 0.089844 0.656250
vt 0.089844 0.777344
vt 0.082031 0.777344
vt 0.519531 0.406250
vt 0.542969 0.406250
vt 0.089844 0.757813
vt 0.082031 0.757813
vt 0.519531 0.457031
vt 0.542969 0.457031
vt 0.128906 0.285156
vt 0.195313 0.945313
vt 0.125000 0.945313
vt 0.199219 0.562500
vt 0.207031 0.515625
vt 0.199219 0.285156
vt 0.203125 0.015625
vt 0.132813 0.011719
vt 0.125000 0.839844
vt 0.203125 0.167969
vt 0.128906 0.167969
vt 0.199219 0.554688
vt 0.191406 0.605469
vt 0.199219 0.839844
vt 0.195313 0.996094
# 180 texture coordinates

vn -0.630612 0.703019 0.328774
vn -0.708192 0.060483 -0.703425
vn -0.709260 0.108299 0.696578
vn -0.387976 0.539178 -0.747504
vn 0.666667 -0.677901 0.309849
vn -0.666667 -0.654620 -0.356411
vn 0.666667 -0.309849 -0.677901
vn -0.666667 -0.356411 0.654620
vn 0.376394 0.549950 0.745576
vn 0.709456 0.048646 0.703068
vn 0.644043 0.706498 -0.293376
vn 0.708078 0.101442 -0.698809
vn -0.555039 0.004343 -0.831813
vn 0.555039 -0.020387 -0.831574
vn 0.557291 0.038959 0.829403
vn 0.000000 0.128998 0.991645
vn -0.556431 0.010604 -0.830826
vn 0.317512 0.075823 -0.945218
vn 0.558409 0.093871 0.824237
vn 0.318985 0.013860 0.947658
vn 0.919363 0.027259 -0.392465
vn 0.707310 -0.040045 0.705769
vn -0.707565 0.078412 -0.702284
vn -0.857606 -0.018568 0.513972
vn -0.620458 0.728299 0.290882
vn -0.712184 0.080427 -0.697370
vn -0.709987 0.183305 0.679939
vn -0.367844 0.623581 -0.689809
vn 0.666667 -0.666667 0.333333
vn -0.666667 -0.666667 -0.333333
vn 0.666667 -0.333333 -0.666667
vn 0.000000 -0.447214 0.894427
vn 0.367844 0.623581 0.689809
vn 0.710239 0.115609 0.694403
vn 0.620458 0.728299 -0.290882
vn 0.711930 0.166064 -0.682333
vn -0.555039 -0.024699 -0.831457
vn 0.555039 -0.049399 -0.830356
vn 0.555039 0.024699 0.831457
vn 0.555039 0.049399 0.830356
vn -0.555507 -0.036007 -0.830732
vn 0.316826 0.002450 -0.948480
vn 0.555507 0.036007 0.830732
vn 0.316826 -0.002450 0.948480
vn 0.919191 0.005192 -0.393779
vn 0.707640 -0.004111 0.706561
vn -0.707180 0.023872 -0.706630
vn -0.707610 0.021781 0.706267
vn 0.631636 0.745550 -0.212584
vn 0.718937 0.157632 0.676965
vn 0.712077 0.185257 -0.677220
vn 0.340039 0.719468 0.605590
vn -0.666674 -0.683188 -0.297993
vn 0.666669 -0.648306 0.367766
vn -0.666669 -0.297979 0.683199
vn 0.000000 -0.493373 -0.869818
vn -0.377265 0.658525 -0.651164
vn -0.712386 0.098010 -0.694910
vn -0.585996 0.745929 0.316542
vn -0.718550 0.282809 0.635378
vn 0.555038 0.018885 0.831610
vn -0.555038 -0.005813 0.831804
vn -0.555038 -0.018848 -0.831611
vn -0.555038 0.005831 -0.831805
vn 0.555506 0.007565 0.831478
vn -0.316825 0.052090 0.947053
vn -0.555506 -0.007565 -0.831478
vn -0.316825 -0.052090 -0.947053
vn -0.919190 0.025784 0.392968
vn -0.707639 -0.041077 -0.705379
vn 0.707180 0.060797 0.704415
vn 0.707610 -0.015232 -0.706439
vn 0.666137 -0.666133 0.335453
vn -0.936414 -0.350876 0.003788
vn 0.554720 -0.831903 0.014930
vn -0.407758 -0.407755 0.816988
vn 0.408740 0.408738 0.816005
vn -0.667198 0.667193 0.331211
vn 0.799818 0.600208 -0.006462
vn -0.554720 0.831904 -0.014905
vn -0.666670 0.333322 -0.666669
vn 0.000001 0.894618 -0.446833
vn -0.555141 0.831298 0.027627
vn -0.554859 0.830109 0.055233
vn 0.555123 -0.831309 -0.027632
vn -0.555404 -0.829741 -0.055283
vn -0.555376 0.830195 0.048316
vn -0.316727 0.948388 0.015639
vn 0.555368 -0.830200 -0.048308
vn -0.316728 -0.948388 -0.015607
vn 0.666137 0.666133 -0.335453
vn -0.936414 0.350876 -0.003788
vn 0.554720 0.831903 -0.014930
vn -0.407758 0.407755 -0.816988
vn 0.408740 -0.408738 -0.816005
vn -0.667198 -0.667193 -0.331211
vn 0.799820 -0.600206 0.006462
vn -0.554720 -0.831904 0.014905
vn -0.666670 -0.333322 0.666669
vn 0.666663 0.333344 0.666664
vn -0.666980 0.666275 0.333489
vn 0.000001 -0.894616 0.446837
vn -0.555139 -0.831301 -0.027570
vn 0.555123 0.831309 0.027632
vn -0.555374 -0.830203 -0.048202
vn 0.555368 0.830200 0.048308
# 106 normals

g 
usemtl mat_fence_1
s 1
f 4/1/1 23/2/2 24/3/3
f 4/1/1 2/4/4 23/2/2
f 6/5/5 1/5/6 5/5/7
f 6/5/5 3/5/8 1/5/6
f 7/6/9 24/7/3 21/8/10
f 7/6/9 4/9/1 24/7/3
f 8/5/11 4/5/1 7/5/9
f 8/5/11 2/5/4 4/5/1
f 8/4/11 21/3/10 22/2/12
f 8/4/11 7/1/9 21/3/10
f 2/10/4 22/11/12 23/12/2
f 2/10/4 8/13/11 22/11/12
f 5/14/7 11/15/13 10/16/14
f 5/14/7 1/17/6 11/15/13
f 3/18/8 9/19/15 12/20/16
f 3/18/8 6/21/5 9/19/15
f 10/16/14 15/22/17 14/23/18
f 10/16/14 11/15/13 15/22/17
f 12/20/16 13/24/19 16/25/20
f 12/20/16 9/19/15 13/24/19
f 18/5/21 10/5/14 14/5/18
f 18/5/21 5/5/7 10/5/14
f 18/26/21 6/27/5 5/28/7
f 18/26/21 9/29/15 6/27/5
f 18/26/21 13/30/19 9/29/15
f 18/26/21 17/31/22 13/30/19
f 14/23/18 19/32/23 18/33/21
f 14/23/18 15/22/17 19/32/23
f 20/5/24 12/5/16 16/5/20
f 20/5/24 3/5/8 12/5/16
f 20/31/24 1/28/6 3/27/8
f 20/31/24 11/34/13 1/28/6
f 20/31/24 15/35/17 11/34/13
f 20/31/24 19/26/23 15/35/17
f 16/25/20 17/36/22 20/37/24
f 16/25/20 13/24/19 17/36/22
f 17/31/22 22/2/12 21/3/10
f 17/31/22 18/26/21 22/2/12
f 18/33/21 23/12/2 22/11/12
f 18/33/21 19/32/23 23/12/2
f 19/26/23 24/3/3 23/2/2
f 19/26/23 20/31/24 24/3/3
f 20/37/24 21/8/10 24/7/3
f 20/37/24 17/36/22 21/8/10
f 28/38/25 47/39/26 48/40/27
f 28/38/25 26/41/28 47/39/26
f 30/5/29 25/5/30 29/5/31
f 30/5/29 27/5/32 25/5/30
f 31/42/33 48/7/27 45/8/34
f 31/42/33 28/43/25 48/7/27
f 32/5/35 28/5/25 31/5/33
f 32/5/35 26/5/28 28/5/25
f 32/41/35 45/40/34 46/39/36
f 32/41/35 31/38/33 45/40/34
f 26/44/28 46/45/36 47/46/26
f 26/44/28 32/47/35 46/45/36
f 29/48/31 35/15/37 34/16/38
f 29/48/31 25/49/30 35/15/37
f 27/50/32 33/19/39 36/20/40
f 27/50/32 30/51/29 33/19/39
f 34/16/38 39/52/41 38/53/42
f 34/16/38 35/15/37 39/52/41
f 36/20/40 37/54/43 40/55/44
f 36/20/40 33/19/39 37/54/43
f 42/5/45 34/5/38 38/5/42
f 42/5/45 29/5/31 34/5/38
f 42/56/45 30/57/29 29/58/31
f 42/56/45 33/59/39 30/57/29
f 42/56/45 37/60/43 33/59/39
f 42/56/45 41/61/46 37/60/43
f 38/53/42 43/62/47 42/63/45
f 38/53/42 39/52/41 43/62/47
f 44/5/48 36/5/40 40/5/44
f 44/5/48 27/5/32 36/5/40
f 44/61/48 25/58/30 27/57/32
f 44/61/48 35/64/37 25/58/30
f 44/61/48 39/65/41 35/64/37
f 44/61/48 43/56/47 39/65/41
f 40/55/44 41/66/46 44/67/48
f 40/55/44 37/54/43 41/66/46
f 41/61/46 46/39/36 45/40/34
f 41/61/46 42/56/45 46/39/36
f 42/63/45 47/46/26 46/45/36
f 42/63/45 43/62/47 47/46/26
f 43/56/47 48/40/27 47/39/26
f 43/56/47 44/61/48 48/40/27
f 44/67/48 45/8/34 48/7/27
f 44/67/48 41/66/46 45/8/34
f 52/68/49 71/69/50 72/70/51
f 52/68/49 50/71/52 71/69/50
f 54/5/53 49/5/54 53/5/55
f 54/5/53 51/5/56 49/5/54
f 55/72/57 72/73/51 69/74/58
f 55/72/57 52/75/49 72/73/51
f 56/5/59 52/5/49 55/5/57
f 56/5/59 50/5/52 52/5/49
f 56/71/59 69/70/58 70/69/60
f 56/71/59 55/68/57 69/70/58
f 50/76/52 70/77/60 71/78/50
f 50/76/52 56/79/59 70/77/60
f 53/80/55 59/81/61 58/82/62
f 53/80/55 49/83/54 59/81/61
f 51/84/56 57/85/63 60/86/64
f 51/84/56 54/87/53 57/85/63
f 58/82/62 63/88/65 62/89/66
f 58/82/62 59/81/61 63/88/65
f 60/86/64 61/90/67 64/91/68
f 60/86/64 57/85/63 61/90/67
f 66/5/69 58/5/62 62/5/66
f 66/5/69 53/5/55 58/5/62
f 66/92/69 54/93/53 53/94/55
f 66/92/69 57/95/63 54/93/53
f 66/92/69 61/96/67 57/95/63
f 66/92/69 65/97/70 61/96/67
f 62/89/66 67/98/71 66/99/69
f 62/89/66 63/88/65 67/98/71
f 68/5/72 60/5/64 64/5/68
f 68/5/72 51/5/56 60/5/64
f 68/97/72 49/94/54 51/93/56
f 68/97/72 59/100/61 49/94/54
f 68/97/72 63/101/65 59/100/61
f 68/97/72 67/92/71 63/101/65
f 64/91/68 65/102/70 68/103/72
f 64/91/68 61/90/67 65/102/70
f 65/97/70 70/69/60 69/70/58
f 65/97/70 66/92/69 70/69/60
f 66/99/69 71/78/50 70/77/60
f 66/99/69 67/98/71 71/78/50
f 67/92/71 72/70/51 71/69/50
f 67/92/71 68/97/72 72/70/51
f 68/103/72 69/74/58 72/73/51
f 68/103/72 65/102/70 69/74/58
f 76/104/25 95/105/26 96/106/27
f 76/104/25 74/107/28 95/105/26
f 78/5/29 73/5/30 77/5/31
f 78/5/29 75/5/32 73/5/30
f 79/42/33 96/7/27 93/8/34
f 79/42/33 76/43/25 96/7/27
f 80/5/35 76/5/25 79/5/33
f 80/5/35 74/5/28 76/5/25
f 80/107/35 93/106/34 94/105/36
f 80/107/35 79/104/33 93/106/34
f 74/44/28 94/45/36 95/46/26
f 74/44/28 80/47/35 94/45/36
f 77/48/31 83/15/37 82/16/38
f 77/48/31 73/49/30 83/15/37
f 75/50/32 81/19/39 84/20/40
f 75/50/32 78/51/29 81/19/39
f 82/16/38 87/52/41 86/53/42
f 82/16/38 83/15/37 87/52/41
f 84/20/40 85/54/43 88/55/44
f 84/20/40 81/19/39 85/54/43
f 90/5/45 82/5/38 86/5/42
f 90/5/45 77/5/31 82/5/38
f 90/108/45 78/109/29 77/110/31
f 90/108/45 81/111/39 78/109/29
f 90/108/45 85/112/43 81/111/39
f 90/108/45 89/113/46 85/112/43
f 86/53/42 91/62/47 90/63/45
f 86/53/42 87/52/41 91/62/47
f 92/5/48 84/5/40 88/5/44
f 92/5/48 75/5/32 84/5/40
f 92/113/48 73/110/30 75/109/32
f 92/113/48 83/114/37 73/110/30
f 92/113/48 87/115/41 83/114/37
f 92/113/48 91/108/47 87/115/41
f 88/55/44 89/66/46 92/67/48
f 88/55/44 85/54/43 89/66/46
f 89/113/46 94/105/36 93/106/34
f 89/113/46 90/108/45 94/105/36
f 90/63/45 95/46/26 94/45/36
f 90/63/45 91/62/47 95/46/26
f 91/108/47 96/106/27 95/105/26
f 91/108/47 92/113/48 96/106/27
f 92/67/48 93/8/34 96/7/27
f 92/67/48 89/66/46 93/8/34
f 102/116/73 116/117/74 113/118/75
f 102/116/73 99/119/76 116/117/74
f 103/5/77 99/5/76 102/5/73
f 103/5/77 100/5/78 99/5/76
f 100/120/78 114/121/79 115/122/80
f 100/120/78 103/123/77 114/121/79
f 98/5/81 101/5/31 97/5/30
f 98/5/81 104/5/82 101/5/31
f 104/124/82 107/125/83 106/126/84
f 104/124/82 98/127/81 107/125/83
f 97/128/30 105/129/85 108/130/86
f 97/128/30 101/131/31 105/129/85
f 106/126/84 111/132/87 110/133/88
f 106/126/84 107/125/83 111/132/87
f 108/130/86 109/134/89 112/135/90
f 108/130/86 105/129/85 109/134/89
f 114/5/79 106/5/84 110/5/88
f 114/5/79 104/5/82 106/5/84
f 114/136/79 101/137/31 104/138/82
f 114/136/79 105/139/85 101/137/31
f 114/136/79 109/140/89 105/139/85
f 114/136/79 113/141/75 109/140/89
f 114/136/79 102/142/73 113/141/75
f 114/136/79 103/143/77 102/142/73
f 110/133/88 115/122/80 114/121/79
f 110/133/88 111/132/87 115/122/80
f 116/5/74 108/5/86 112/5/90
f 116/5/74 97/5/30 108/5/86
f 116/144/74 98/145/81 97/146/30
f 116/144/74 107/147/83 98/145/81
f 116/144/74 111/148/87 107/147/83
f 116/144/74 115/149/80 111/148/87
f 116/144/74 100/150/78 115/149/80
f 116/144/74 99/151/76 100/150/78
f 112/135/90 113/118/75 116/117/74
f 112/135/90 109/134/89 113/118/75
f 122/152/91 136/153/92 133/154/93
f 122/152/91 119/155/94 136/153/92
f 123/5/95 119/5/94 122/5/91
f 123/5/95 120/5/96 119/5/94
f 120/128/96 134/156/97 135/157/98
f 120/128/96 123/131/95 134/156/97
f 118/5/99 121/5/100 117/5/101
f 118/5/99 124/5/102 121/5/100
f 124/116/102 127/158/103 126/159/86
f 124/116/102 118/119/99 127/158/103
f 117/120/101 125/160/104 128/161/84
f 117/120/101 121/123/100 125/160/104
f 126/159/86 131/162/105 130/163/90
f 126/159/86 127/158/103 131/162/105
f 128/161/84 129/164/106 132/165/88
f 128/161/84 125/160/104 129/164/106
f 134/5/97 126/5/86 130/5/90
f 134/5/97 124/5/102 126/5/86
f 134/166/97 121/167/100 124/168/102
f 134/166/97 125/169/104 121/167/100
f 134/166/97 129/170/106 125/169/104
f 134/166/97 133/171/93 129/170/106
f 134/166/97 122/172/91 133/171/93
f 134/166/97 123/173/95 122/172/91
f 130/163/90 135/157/98 134/156/97
f 130/163/90 131/162/105 135/157/98
f 136/5/92 128/5/84 132/5/88
f 136/5/92 117/5/101 128/5/84
f 136/174/92 118/175/99 117/176/101
f 136/174/92 127/177/103 118/175/99
f 136/174/92 131/178/105 127/177/103
f 136/174/92 135/179/98 131/178/105
f 136/174/92 120/180/96 135/179/98
f 136/174/92 119/5/94 120/180/96
f 132/165/88 133/154/93 136/153/92
f 132/165/88 129/164/106 133/154/93
# 248 triangles in group

# 248 triangles total

