# Wavefront OBJ file
# Creator: Ultimate Unwrap3D Pro v3.27
# Website: http://www.unwrap3d.com
# Time: Thu May 05 10:14:39 2011
# num_vertices: 8
# num_vertex_normals: 8
# num_uvs: 36
# num_faces: 12
# num_groups: 1

mtllib painting1.mtl

v -1.730000 -1.575000 -0.055000
v -1.730000 1.575000 -0.055000
v 1.730000 1.575000 -0.055000
v 1.730000 -1.575000 -0.055000
v -1.730000 -1.575000 0.055000
v -1.730000 1.575000 0.055000
v 1.730000 1.575000 0.055000
v 1.730000 -1.575000 0.055000
# num_vertices: 8

vn -0.816497 -0.408248 -0.408248
vn -0.333333 0.666667 -0.666667
vn 0.816497 0.408248 -0.408248
vn 0.333333 -0.666667 -0.666667
vn -0.408248 -0.816497 0.408248
vn -0.666667 0.333333 0.666667
vn 0.408248 0.816497 0.408248
vn 0.666667 -0.333333 0.666667
# num_vertex_normals: 8

vt 0.393155 0.696245
vt 0.228615 0.992695
vt 0.228615 0.696245
vt 0.228615 0.992695
vt 0.393155 0.696245
vt 0.393155 0.992695
vt 0.230025 0.990450
vt 0.391900 0.981200
vt 0.391900 0.990450
vt 0.391900 0.981200
vt 0.230025 0.990450
vt 0.230025 0.981200
vt 0.235431 0.694000
vt 0.228569 0.994000
vt 0.235431 0.994000
vt 0.228569 0.994000
vt 0.235431 0.694000
vt 0.228569 0.694000
vt 0.391900 0.990450
vt 0.230025 0.981200
vt 0.230025 0.990450
vt 0.230025 0.981200
vt 0.391900 0.990450
vt 0.391900 0.981200
vt 0.235431 0.994000
vt 0.228569 0.694000
vt 0.235431 0.694000
vt 0.228569 0.694000
vt 0.235431 0.994000
vt 0.228569 0.994000
vt 0.228615 0.992695
vt 0.393155 0.696245
vt 0.228615 0.696245
vt 0.393155 0.696245
vt 0.228615 0.992695
vt 0.393155 0.992695
# num_uvs: 36

g painting1_Layer1
s 1

usemtl painting
f 8/1/8 6/2/6 5/3/5 
f 6/4/6 8/5/8 7/6/7 
f 5/7/5 4/8/4 8/9/8 
f 4/10/4 5/11/5 1/12/1 
f 8/13/8 3/14/3 7/15/7 
f 3/16/3 8/17/8 4/18/4 
f 7/19/7 2/20/2 6/21/6 
f 2/22/2 7/23/7 3/24/3 
f 6/25/6 1/26/1 5/27/5 
f 1/28/1 6/29/6 2/30/2 
f 2/31/2 4/32/4 1/33/1 
f 4/34/4 2/35/2 3/36/3 
# num_faces: 12

