# Wavefront OBJ file
# Creator: Ultimate Unwrap3D Pro v3.27
# Website: http://www.unwrap3d.com
# Time: Thu May 05 10:15:09 2011
# num_vertices: 8
# num_vertex_normals: 8
# num_uvs: 36
# num_faces: 12
# num_groups: 1

mtllib painting5.mtl

v -2.394085 -1.825173 -0.055000
v -2.394085 1.825173 -0.055000
v 2.394085 1.825173 -0.055000
v 2.394085 -1.825173 -0.055000
v -2.394085 -1.825173 0.055000
v -2.394085 1.825173 0.055000
v 2.394085 1.825173 0.055000
v 2.394085 -1.825173 0.055000
# num_vertices: 8

vn -0.816497 -0.408248 -0.408248
vn -0.333333 0.666667 -0.666667
vn 0.816497 0.408248 -0.408248
vn 0.333333 -0.666667 -0.666667
vn -0.408248 -0.816497 0.408248
vn -0.666667 0.333333 0.666667
vn 0.408248 0.816497 0.408248
vn 0.666667 -0.333333 0.666667
# num_vertex_normals: 8

vt 0.832710 0.611738
vt 0.960090 0.992246
vt 0.832710 0.992246
vt 0.960090 0.992246
vt 0.832710 0.611738
vt 0.960090 0.611738
vt 0.959126 0.988984
vt 0.955151 0.614641
vt 0.959126 0.614641
vt 0.955151 0.614641
vt 0.959126 0.988984
vt 0.955151 0.988984
vt 0.833034 0.976482
vt 0.959362 0.992352
vt 0.959362 0.976482
vt 0.959362 0.992352
vt 0.833034 0.976482
vt 0.833034 0.992352
vt 0.959126 0.614641
vt 0.955151 0.988984
vt 0.959126 0.988984
vt 0.955151 0.988984
vt 0.959126 0.614641
vt 0.955151 0.614641
vt 0.959362 0.976482
vt 0.833034 0.992352
vt 0.833034 0.976482
vt 0.833034 0.992352
vt 0.959362 0.976482
vt 0.959362 0.992352
vt 0.960090 0.992246
vt 0.832710 0.611738
vt 0.832710 0.992246
vt 0.832710 0.611738
vt 0.960090 0.992246
vt 0.960090 0.611738
# num_uvs: 36

g painting5_Layer1
s 1

usemtl painting
f 8/1/8 6/2/6 5/3/5 
f 6/4/6 8/5/8 7/6/7 
f 5/7/5 4/8/4 8/9/8 
f 4/10/4 5/11/5 1/12/1 
f 8/13/8 3/14/3 7/15/7 
f 3/16/3 8/17/8 4/18/4 
f 7/19/7 2/20/2 6/21/6 
f 2/22/2 7/23/7 3/24/3 
f 6/25/6 1/26/1 5/27/5 
f 1/28/1 6/29/6 2/30/2 
f 2/31/2 4/32/4 1/33/1 
f 4/34/4 2/35/2 3/36/3 
# num_faces: 12

