# Wavefront OBJ file
# Creator: Ultimate Unwrap3D Pro v3.27
# Website: http://www.unwrap3d.com
# Time: Thu May 05 10:21:37 2011
# num_vertices: 50
# num_vertex_normals: 50
# num_uvs: 254
# num_faces: 84
# num_groups: 1

mtllib tavern_shl3.mtl

v 2.087794 0.720072 -0.590460
v 2.087794 0.881062 -0.590460
v -2.087794 0.720072 -0.590460
v -2.087794 0.881062 -0.590460
v 2.087794 0.720072 0.607193
v 2.087794 0.881062 0.607193
v -2.087794 0.720072 0.607193
v -2.087794 0.881062 0.607193
v -0.149460 0.838656 0.607193
v -0.152056 0.677666 0.607193
v -0.263034 0.838656 -0.590460
v -0.265629 0.677666 -0.590460
v -1.593727 0.747664 -0.599410
v -1.404727 0.000000 -0.607193
v -1.593727 0.011682 -0.299753
v -1.593727 0.292056 -0.276403
v -1.593727 0.436137 -0.159654
v -1.593727 0.514019 0.031036
v -1.593727 0.556854 0.198377
v -1.593727 0.673676 0.276210
v -1.593727 0.763240 0.280101
v -1.593727 0.751558 -0.603301
v -1.404727 0.763240 0.280101
v -1.404727 0.747664 -0.599410
v -1.593727 0.000000 -0.607193
v -1.404727 0.011682 -0.299753
v -1.404727 0.292056 -0.276403
v -1.404727 0.436137 -0.159654
v -1.404727 0.514019 0.031036
v -1.404727 0.556854 0.198377
v -1.404727 0.673676 0.276210
v 1.472707 0.747664 -0.599410
v 1.661707 0.000000 -0.607193
v 1.472707 0.011682 -0.299753
v 1.472707 0.292056 -0.276403
v 1.472707 0.436137 -0.159654
v 1.472707 0.514019 0.031036
v 1.472707 0.556854 0.198377
v 1.472707 0.673676 0.276210
v 1.472707 0.763240 0.280101
v 1.472707 0.751558 -0.603301
v 1.661707 0.763240 0.280101
v 1.661707 0.747664 -0.599410
v 1.472707 0.000000 -0.607193
v 1.661707 0.011682 -0.299753
v 1.661707 0.292056 -0.276403
v 1.661707 0.436137 -0.159654
v 1.661707 0.514019 0.031036
v 1.661707 0.556854 0.198377
v 1.661707 0.673676 0.276210
# num_vertices: 50

vn 0.584264 -0.573568 -0.574157
vn 0.395709 0.821673 -0.410204
vn -0.670962 -0.331533 -0.663246
vn -0.392652 0.822188 -0.412105
vn 0.414670 -0.406893 0.813933
vn 0.813918 0.410778 0.410852
vn -0.423368 -0.809935 0.405913
vn -0.662604 0.334885 0.669931
vn 0.001624 0.799985 0.600018
vn 0.003546 -0.706990 0.707215
vn 0.001162 0.447091 -0.894488
vn -0.007532 -0.832016 -0.554700
vn -0.951589 0.273255 -0.140748
vn 0.414994 -0.825070 -0.383457
vn -0.649464 -0.675946 0.348272
vn -0.570125 -0.226782 0.789637
vn -0.565541 -0.617823 0.546313
vn -0.555503 -0.783341 0.278914
vn -0.577975 -0.720155 0.383824
vn -0.567460 -0.326949 0.755708
vn -0.416824 0.380576 0.825482
vn -1.000000 0.000000 0.000000
vn 0.416824 0.815426 0.401670
vn 0.951589 0.138750 -0.274275
vn -0.414994 -0.406055 -0.814186
vn 0.649464 -0.378400 0.659553
vn 0.570125 -0.382588 0.727038
vn 0.565541 -0.701580 0.433531
vn 0.555503 -0.795285 0.242772
vn 0.577975 -0.600427 0.552659
vn 0.567460 -0.181947 0.803047
vn -0.951589 0.273255 -0.140748
vn 0.414994 -0.825070 -0.383457
vn -0.649464 -0.675946 0.348272
vn -0.570125 -0.226782 0.789637
vn -0.565541 -0.617823 0.546313
vn -0.555503 -0.783341 0.278914
vn -0.577975 -0.720155 0.383824
vn -0.567460 -0.326949 0.755708
vn -0.416824 0.380576 0.825482
vn -1.000000 0.000000 0.000000
vn 0.416824 0.815426 0.401670
vn 0.951589 0.138750 -0.274275
vn -0.414994 -0.406055 -0.814186
vn 0.649464 -0.378400 0.659553
vn 0.570125 -0.382588 0.727038
vn 0.565541 -0.701580 0.433531
vn 0.555503 -0.795285 0.242772
vn 0.577975 -0.600427 0.552659
vn 0.567460 -0.181947 0.803047
# num_vertex_normals: 50

vt 0.005472 0.607049
vt 0.562304 0.642142
vt 0.005472 0.642142
vt -0.004233 0.649746
vt 0.984823 0.612390
vt 0.984823 0.649746
vt -0.361355 0.411284
vt 0.554017 0.171240
vt 0.600432 0.411284
vt -0.361355 0.171240
vt 0.552957 0.411284
vt -0.361355 0.411284
vt 0.984823 0.649746
vt -0.004233 0.612390
vt 0.984823 0.612390
vt -0.004233 0.649746
vt 0.525697 0.612390
vt 0.526312 0.649746
vt 0.984823 0.612390
vt 0.526312 0.649746
vt 0.525697 0.612390
vt 1.345106 0.171240
vt 0.552957 0.411284
vt 0.599371 0.171240
vt 1.345106 0.171240
vt 0.600432 0.411284
vt 0.554017 0.171240
vt 0.994528 0.607049
vt 0.562304 0.642142
vt 0.562919 0.607049
vt 0.058484 0.508987
vt 0.304724 0.484798
vt 0.305818 0.514079
vt 0.057390 0.510260
vt 0.305818 0.264557
vt 0.303629 0.508987
vt 0.219361 0.268376
vt 0.313588 0.826294
vt 0.451023 0.908661
vt 0.313588 0.908661
vt 0.305818 0.264557
vt 0.056296 0.508987
vt 0.056296 0.264557
vt 0.056296 0.511890
vt 0.305818 0.264557
vt 0.305818 0.511890
vt 0.054376 0.826294
vt 0.100921 0.908661
vt 0.054376 0.908661
vt 0.100921 0.826294
vt 0.161633 0.908661
vt 0.100921 0.908661
vt 0.090909 0.826294
vt 0.165715 0.908661
vt 0.090909 0.908661
vt 0.165715 0.826294
vt 0.250960 0.908661
vt 0.165715 0.908661
vt 0.224367 0.826294
vt 0.299245 0.908661
vt 0.224367 0.908661
vt 0.299245 0.826294
vt 0.444952 0.908661
vt 0.299245 0.908661
vt 0.058484 0.508987
vt 0.304724 0.484798
vt 0.305818 0.514079
vt 0.057390 0.510260
vt 0.305818 0.264557
vt 0.303629 0.508987
vt 0.219361 0.268376
vt 0.313588 0.826294
vt 0.451023 0.908661
vt 0.313588 0.908661
vt 0.305818 0.264557
vt 0.056296 0.508987
vt 0.056296 0.264557
vt 0.056296 0.511890
vt 0.305818 0.264557
vt 0.305818 0.511890
vt 0.054376 0.826294
vt 0.100921 0.908661
vt 0.054376 0.908661
vt 0.100921 0.826294
vt 0.161633 0.908661
vt 0.100921 0.908661
vt 0.090909 0.826294
vt 0.165715 0.908661
vt 0.090909 0.908661
vt 0.165715 0.826294
vt 0.250960 0.908661
vt 0.165715 0.908661
vt 0.224367 0.826294
vt 0.299245 0.908661
vt 0.224367 0.908661
vt 0.299245 0.826294
vt 0.444952 0.908661
vt 0.299245 0.908661
vt 0.562919 0.607049
vt 0.562304 0.642142
vt 0.005472 0.607049
vt -0.004233 0.612390
vt 0.984823 0.612390
vt -0.004233 0.649746
vt -0.361355 0.171240
vt 0.554017 0.171240
vt -0.361355 0.411284
vt 0.599371 0.171240
vt 0.552957 0.411284
vt -0.361355 0.171240
vt -0.004233 0.649746
vt -0.004233 0.612390
vt 0.984823 0.649746
vt -0.004233 0.612390
vt 0.525697 0.612390
vt -0.004233 0.649746
vt 0.984823 0.649746
vt 0.526312 0.649746
vt 0.984823 0.612390
vt 1.345106 0.411284
vt 0.552957 0.411284
vt 1.345106 0.171240
vt 1.345106 0.411284
vt 0.600432 0.411284
vt 1.345106 0.171240
vt 0.994528 0.642142
vt 0.562304 0.642142
vt 0.994528 0.607049
vt 0.056296 0.264557
vt 0.142753 0.268376
vt 0.058484 0.508987
vt 0.142753 0.268376
vt 0.149319 0.360037
vt 0.058484 0.508987
vt 0.149319 0.360037
vt 0.182151 0.407141
vt 0.058484 0.508987
vt 0.182151 0.407141
vt 0.235777 0.432602
vt 0.058484 0.508987
vt 0.235777 0.432602
vt 0.282836 0.446606
vt 0.058484 0.508987
vt 0.282836 0.446606
vt 0.304724 0.484798
vt 0.058484 0.508987
vt 0.056296 0.514079
vt 0.057390 0.484798
vt 0.303629 0.508987
vt 0.057390 0.484798
vt 0.079278 0.446606
vt 0.303629 0.508987
vt 0.079278 0.446606
vt 0.126337 0.432602
vt 0.303629 0.508987
vt 0.126337 0.432602
vt 0.179962 0.407141
vt 0.303629 0.508987
vt 0.179962 0.407141
vt 0.212794 0.360037
vt 0.303629 0.508987
vt 0.212794 0.360037
vt 0.219361 0.268376
vt 0.303629 0.508987
vt 0.451023 0.826294
vt 0.451023 0.908661
vt 0.313588 0.826294
vt 0.305818 0.508987
vt 0.056296 0.508987
vt 0.305818 0.264557
vt 0.056296 0.264557
vt 0.305818 0.264557
vt 0.056296 0.511890
vt 0.100921 0.826294
vt 0.100921 0.908661
vt 0.054376 0.826294
vt 0.161633 0.826294
vt 0.161633 0.908661
vt 0.100921 0.826294
vt 0.165715 0.826294
vt 0.165715 0.908661
vt 0.090909 0.826294
vt 0.250960 0.826294
vt 0.250960 0.908661
vt 0.165715 0.826294
vt 0.299245 0.826294
vt 0.299245 0.908661
vt 0.224367 0.826294
vt 0.444952 0.826294
vt 0.444952 0.908661
vt 0.299245 0.826294
vt 0.056296 0.264557
vt 0.142753 0.268376
vt 0.058484 0.508987
vt 0.142753 0.268376
vt 0.149319 0.360037
vt 0.058484 0.508987
vt 0.149319 0.360037
vt 0.182151 0.407141
vt 0.058484 0.508987
vt 0.182151 0.407141
vt 0.235777 0.432602
vt 0.058484 0.508987
vt 0.235777 0.432602
vt 0.282836 0.446606
vt 0.058484 0.508987
vt 0.282836 0.446606
vt 0.304724 0.484798
vt 0.058484 0.508987
vt 0.056296 0.514079
vt 0.057390 0.484798
vt 0.303629 0.508987
vt 0.057390 0.484798
vt 0.079278 0.446606
vt 0.303629 0.508987
vt 0.079278 0.446606
vt 0.126337 0.432602
vt 0.303629 0.508987
vt 0.126337 0.432602
vt 0.179962 0.407141
vt 0.303629 0.508987
vt 0.179962 0.407141
vt 0.212794 0.360037
vt 0.303629 0.508987
vt 0.212794 0.360037
vt 0.219361 0.268376
vt 0.303629 0.508987
vt 0.451023 0.826294
vt 0.451023 0.908661
vt 0.313588 0.826294
vt 0.305818 0.508987
vt 0.056296 0.508987
vt 0.305818 0.264557
vt 0.056296 0.264557
vt 0.305818 0.264557
vt 0.056296 0.511890
vt 0.100921 0.826294
vt 0.100921 0.908661
vt 0.054376 0.826294
vt 0.161633 0.826294
vt 0.161633 0.908661
vt 0.100921 0.826294
vt 0.165715 0.826294
vt 0.165715 0.908661
vt 0.090909 0.826294
vt 0.250960 0.826294
vt 0.250960 0.908661
vt 0.165715 0.826294
vt 0.299245 0.826294
vt 0.299245 0.908661
vt 0.224367 0.826294
vt 0.444952 0.826294
vt 0.444952 0.908661
vt 0.299245 0.826294
# num_uvs: 254

g Default_Layer
s 1

usemtl WoodPlanks_ornaments1
f 1/1/1 11/2/11 2/3/2 
f 1/4/1 6/5/6 5/6/5 
f 1/7/1 10/8/10 12/9/12 
f 2/10/2 9/11/9 6/12/6 
f 3/13/3 8/14/8 4/15/4 
f 5/16/5 9/17/9 10/18/10 
f 8/19/8 10/20/10 9/21/9 
f 4/22/4 9/23/9 11/24/11 
f 7/25/7 12/26/12 10/27/10 
f 3/28/3 11/29/11 12/30/12 
f 13/31/13 20/32/20 21/33/21 22/34/22 
f 14/35/14 24/36/24 26/37/26 
f 15/38/15 14/39/14 26/40/26 
f 25/41/25 24/42/24 14/43/14 
f 13/44/13 23/45/23 24/46/24 
f 21/47/21 31/48/31 23/49/23 
f 20/50/20 30/51/30 31/52/31 
f 19/53/19 29/54/29 30/55/30 
f 18/56/18 28/57/28 29/58/29 
f 17/59/17 27/60/27 28/61/28 
f 16/62/16 26/63/26 27/64/27 
f 32/65/32 39/66/39 40/67/40 41/68/41 
f 33/69/33 43/70/43 45/71/45 
f 34/72/34 33/73/33 45/74/45 
f 44/75/44 43/76/43 33/77/33 
f 32/78/32 42/79/42 43/80/43 
f 40/81/40 50/82/50 42/83/42 
f 39/84/39 49/85/49 50/86/50 
f 38/87/38 48/88/48 49/89/49 
f 37/90/37 47/91/47 48/92/48 
f 36/93/36 46/94/46 47/95/47 
f 35/96/35 45/97/45 46/98/46 
f 12/99/12 11/100/11 1/101/1 
f 2/102/2 6/103/6 1/104/1 
f 5/105/5 10/106/10 1/107/1 
f 11/108/11 9/109/9 2/110/2 
f 7/111/7 8/112/8 3/113/3 
f 6/114/6 9/115/9 5/116/5 
f 7/117/7 10/118/10 8/119/8 
f 8/120/8 9/121/9 4/122/4 
f 3/123/3 12/124/12 7/125/7 
f 4/126/4 11/127/11 3/128/3 
f 25/129/25 15/130/15 13/131/13 
f 15/132/15 16/133/16 13/134/13 
f 16/135/16 17/136/17 13/137/13 
f 17/138/17 18/139/18 13/140/13 
f 18/141/18 19/142/19 13/143/13 
f 19/144/19 20/145/20 13/146/13 
f 23/147/23 31/148/31 24/149/24 
f 31/150/31 30/151/30 24/152/24 
f 30/153/30 29/154/29 24/155/24 
f 29/156/29 28/157/28 24/158/24 
f 28/159/28 27/160/27 24/161/24 
f 27/162/27 26/163/26 24/164/24 
f 25/165/25 14/166/14 15/167/15 
f 13/168/13 24/169/24 25/170/25 
f 21/171/21 23/172/23 13/173/13 
f 20/174/20 31/175/31 21/176/21 
f 19/177/19 30/178/30 20/179/20 
f 18/180/18 29/181/29 19/182/19 
f 17/183/17 28/184/28 18/185/18 
f 16/186/16 27/187/27 17/188/17 
f 15/189/15 26/190/26 16/191/16 
f 44/192/44 34/193/34 32/194/32 
f 34/195/34 35/196/35 32/197/32 
f 35/198/35 36/199/36 32/200/32 
f 36/201/36 37/202/37 32/203/32 
f 37/204/37 38/205/38 32/206/32 
f 38/207/38 39/208/39 32/209/32 
f 42/210/42 50/211/50 43/212/43 
f 50/213/50 49/214/49 43/215/43 
f 49/216/49 48/217/48 43/218/43 
f 48/219/48 47/220/47 43/221/43 
f 47/222/47 46/223/46 43/224/43 
f 46/225/46 45/226/45 43/227/43 
f 44/228/44 33/229/33 34/230/34 
f 32/231/32 43/232/43 44/233/44 
f 40/234/40 42/235/42 32/236/32 
f 39/237/39 50/238/50 40/239/40 
f 38/240/38 49/241/49 39/242/39 
f 37/243/37 48/244/48 38/245/38 
f 36/246/36 47/247/47 37/248/37 
f 35/249/35 46/250/46 36/251/36 
f 34/252/34 45/253/45 35/254/35 
# num_faces: 84

