# Wavefront OBJ file
# Creator: Ultimate Unwrap3D Pro v3.27
# Website: http://www.unwrap3d.com
# Time: Thu May 05 10:16:04 2011
# num_vertices: 58
# num_vertex_normals: 58
# num_uvs: 288
# num_faces: 96
# num_groups: 1

mtllib tavern_amblem_LOD.mtl

v 0.388499 2.556003 -0.000000
v 0.397468 2.590772 0.034769
v -0.588719 0.974928 -0.069457
v -0.588719 0.974928 0.069457
v -0.489689 0.541044 -0.069457
v -0.489689 0.541044 0.069457
v -0.212209 0.193097 -0.069457
v -0.212209 0.193097 0.069457
v 0.188760 0.000000 -0.069457
v 0.188760 0.000000 0.069457
v 0.633802 0.000000 -0.069457
v 0.633802 0.000000 0.069457
v 1.034770 0.193097 -0.069457
v 1.034770 0.193097 0.069457
v 1.312250 0.541044 -0.069457
v 1.312250 0.541044 0.069457
v 1.411281 0.974928 -0.069457
v 1.411281 0.974928 0.069457
v 1.312250 1.408812 -0.069457
v 1.312250 1.408812 0.069457
v 1.034770 1.756760 -0.069457
v 1.034770 1.756760 0.069457
v 0.633802 1.949856 -0.069457
v 0.633802 1.949856 0.069457
v 0.188760 1.949856 -0.069457
v 0.188760 1.949856 0.069457
v -0.212209 1.756760 -0.069457
v -0.212209 1.756760 0.069457
v -0.489689 1.408812 -0.069457
v -0.489689 1.408812 0.069457
v -0.041488 1.841968 0.034769
v 0.390582 2.625542 -0.000000
v -0.041488 1.841968 -0.034769
v 0.381614 2.590772 -0.034769
v -1.379210 2.039910 -0.090921
v -1.403795 2.039910 -0.128581
v -1.428380 2.039910 -0.090921
v -1.438563 2.039910 -0.000000
v -1.438563 3.183526 -0.000000
v -0.340383 2.622084 0.034769
v -1.403795 2.039910 0.128581
v -1.403795 3.183526 0.128581
v -1.369025 2.039910 -0.000000
v -0.340383 2.622084 -0.034769
v -1.369025 3.183526 -0.000000
v -1.403795 3.183526 -0.128581
v -1.431141 2.627276 -0.024586
v -1.431141 2.651861 -0.034769
v 0.849985 1.845302 0.012293
v -1.431141 2.676447 -0.024586
v 1.438563 2.686631 -0.000000
v -1.431141 2.686631 -0.000000
v -1.431141 2.617092 -0.000000
v 1.132004 2.633912 0.012293
v 0.800313 1.867149 0.024586
v 1.438563 2.617092 -0.000000
v 1.186337 2.610015 -0.012293
v 0.811566 1.862200 -0.029677
# num_vertices: 58

vn 0.002496 -0.994711 -0.102684
vn 0.003106 -0.000828 0.999995
vn -0.236761 -0.018013 -0.971401
vn -0.943779 0.071804 0.322683
vn -0.819161 -0.474184 -0.322684
vn -0.221130 -0.086498 0.971401
vn -0.464651 -0.683182 -0.563349
vn -0.644575 -0.693108 0.322683
vn -0.122214 -0.817130 -0.563350
vn -0.244429 -0.789235 0.563350
vn 0.244429 -0.789235 -0.563350
vn 0.122214 -0.817130 0.563350
vn 0.562658 -0.605023 -0.563349
vn 0.464651 -0.683182 0.563349
vn 0.769447 -0.300978 -0.563350
vn 0.715057 -0.413922 0.563350
vn 0.823838 0.062678 -0.563349
vn 0.823838 -0.062678 0.563349
vn 0.715057 0.413921 -0.563350
vn 0.769448 0.300978 0.563349
vn 0.464650 0.683182 -0.563350
vn 0.562658 0.605023 0.563350
vn 0.155336 0.680572 -0.716026
vn 0.198000 0.867495 0.456343
vn -0.198000 0.867495 -0.456343
vn -0.155336 0.680572 0.716026
vn -0.562658 0.605023 -0.563350
vn -0.464650 0.683182 0.563350
vn -0.881471 0.344797 -0.322683
vn -0.715057 0.413921 0.563350
vn 0.933806 0.357779 0.000000
vn 0.000410 0.994929 -0.100580
vn -0.933806 -0.357779 0.000000
vn 0.007622 0.000628 -0.999971
vn 0.840087 -0.450696 -0.301873
vn 0.000002 -0.964617 -0.263655
vn -0.900651 -0.318160 -0.295978
vn -0.819938 -0.560748 0.115166
vn -0.944388 0.326862 -0.035937
vn -0.933806 -0.357779 0.000000
vn 0.409941 -0.849328 0.332551
vn -0.409941 0.849328 0.332551
vn 0.827333 -0.560829 -0.031488
vn 0.933806 0.357779 0.000000
vn 0.941822 0.325216 0.084891
vn 0.349391 0.713700 -0.607090
vn -0.349531 -0.663060 -0.661951
vn -0.851472 -0.000004 -0.524400
vn 0.324911 -0.925736 0.193510
vn -0.309599 0.671057 -0.673670
vn -0.011443 0.999912 0.006656
vn -0.682986 0.567694 0.459623
vn -0.702639 -0.551396 0.449734
vn -0.873770 0.433615 -0.220236
vn -0.369756 -0.372106 0.851362
vn 0.104447 -0.994508 -0.006630
vn 0.903371 -0.327113 0.277342
vn -0.452522 -0.293697 -0.842001
# num_vertex_normals: 58

vt 0.216829 0.854928
vt 0.271818 0.740743
vt 0.231293 0.791560
vt 0.541980 0.006950
vt 0.585085 0.029086
vt 0.541980 0.029086
vt 0.231293 0.791560
vt 0.231293 0.918296
vt 0.216829 0.854928
vt 0.369559 0.006950
vt 0.412665 0.006950
vt 0.369559 0.029086
vt 0.585085 0.006950
vt 0.628190 0.029086
vt 0.585085 0.029086
vt 0.654545 0.054378
vt 0.654545 0.044002
vt 0.663413 0.054449
vt 0.645678 0.054449
vt 0.654545 0.044002
vt 0.654545 0.054378
vt 0.628190 0.006950
vt 0.671295 0.029086
vt 0.628190 0.029086
vt 0.663413 0.054449
vt 0.667086 0.043909
vt 0.667086 0.054623
vt 0.671295 0.006950
vt 0.714401 0.029086
vt 0.671295 0.029086
vt 0.667086 0.020832
vt 0.667086 0.031545
vt 0.654545 0.031543
vt 0.714401 0.006950
vt 0.714401 0.029086
vt 0.671295 0.006950
vt 0.369559 0.029086
vt 0.412665 0.006950
vt 0.412665 0.029086
vt 0.714401 0.006950
vt 0.757506 0.029086
vt 0.714401 0.029086
vt 0.667086 0.043909
vt 0.654545 0.044002
vt 0.667086 0.037727
vt 0.642005 0.054623
vt 0.642005 0.043897
vt 0.645678 0.054449
vt 0.757506 0.006950
vt 0.800611 0.029086
vt 0.757506 0.029086
vt 0.271818 0.969113
vt 0.231293 0.918296
vt 0.231293 0.791560
vt 0.667086 0.020832
vt 0.654545 0.031543
vt 0.642005 0.020832
vt 0.800611 0.006950
vt 0.843716 0.029086
vt 0.800611 0.029086
vt 0.654545 0.044002
vt 0.642005 0.043897
vt 0.642005 0.037727
vt 0.330379 0.997315
vt 0.271818 0.969113
vt 0.231293 0.791560
vt 0.843716 0.006950
vt 0.886821 0.029086
vt 0.843716 0.029086
vt 0.395376 0.997315
vt 0.330379 0.997315
vt 0.231293 0.791560
vt 0.453937 0.969113
vt 0.395376 0.997315
vt 0.231293 0.791560
vt 0.886821 0.006950
vt 0.929926 0.029086
vt 0.886821 0.029086
vt 0.642005 0.031557
vt 0.654545 0.031543
vt 0.642005 0.037727
vt 0.494463 0.918296
vt 0.453937 0.969113
vt 0.231293 0.791560
vt 0.929926 0.006950
vt 0.973031 0.029086
vt 0.929926 0.029086
vt 0.508926 0.854928
vt 0.494463 0.918296
vt 0.231293 0.791560
vt 0.494463 0.791560
vt 0.508926 0.854928
vt 0.231293 0.791560
vt 0.453937 0.740743
vt 0.494463 0.791560
vt 0.231293 0.791560
vt 0.654545 0.031543
vt 0.667086 0.031545
vt 0.667086 0.037727
vt 0.395376 0.712542
vt 0.453937 0.740743
vt 0.231293 0.791560
vt 0.412665 0.006950
vt 0.455770 0.029086
vt 0.412665 0.029086
vt 0.330379 0.712542
vt 0.395376 0.712542
vt 0.231293 0.791560
vt 0.271818 0.740743
vt 0.330379 0.712542
vt 0.231293 0.791560
vt 0.455770 0.006950
vt 0.498875 0.029086
vt 0.455770 0.029086
vt 0.642005 0.020832
vt 0.654545 0.031543
vt 0.642005 0.031557
vt 0.330379 0.712542
vt 0.271818 0.740743
vt 0.216829 0.854928
vt 0.498875 0.006950
vt 0.541980 0.029086
vt 0.498875 0.029086
vt 0.395376 0.712542
vt 0.330379 0.712542
vt 0.216829 0.854928
vt 0.453937 0.740743
vt 0.395376 0.712542
vt 0.216829 0.854928
vt 0.494463 0.791560
vt 0.453937 0.740743
vt 0.216829 0.854928
vt 0.508926 0.854928
vt 0.494463 0.791560
vt 0.216829 0.854928
vt 0.494463 0.918296
vt 0.508926 0.854928
vt 0.216829 0.854928
vt 0.453937 0.969113
vt 0.494463 0.918296
vt 0.216829 0.854928
vt 0.395376 0.997315
vt 0.453937 0.969113
vt 0.216829 0.854928
vt 0.330379 0.997315
vt 0.395376 0.997315
vt 0.216829 0.854928
vt 0.271818 0.969113
vt 0.330379 0.997315
vt 0.216829 0.854928
vt 0.231293 0.918296
vt 0.271818 0.969113
vt 0.216829 0.854928
vt 0.645678 0.054449
vt 0.642005 0.043897
vt 0.654545 0.044002
vt 0.953518 0.029279
vt 0.379497 0.046175
vt 0.379497 0.029279
vt 0.663413 0.054449
vt 0.654545 0.044002
vt 0.667086 0.043909
vt 0.667086 0.037727
vt 0.667086 0.054623
vt 0.654545 0.037953
vt 0.654545 0.037953
vt 0.645678 0.054449
vt 0.642005 0.037727
vt 0.642005 0.037727
vt 0.642005 0.020832
vt 0.654545 0.037502
vt 0.654545 0.037502
vt 0.654545 0.021077
vt 0.667086 0.037727
vt 0.667086 0.037727
vt 0.654545 0.044002
vt 0.642005 0.037727
vt 0.642005 0.037727
vt 0.654545 0.031543
vt 0.667086 0.037727
vt 0.953518 0.037552
vt 0.379497 0.037640
vt 0.953518 0.037934
vt 0.953518 0.037934
vt 0.379497 0.037809
vt 0.953518 0.037645
vt 0.953518 0.037645
vt 0.379497 0.037809
vt 0.953518 0.037552
vt 0.953518 0.046175
vt 0.379497 0.046175
vt 0.953518 0.029279
vt 0.953518 0.012384
vt 0.379497 0.029279
vt 0.379497 0.012384
vt 0.953518 0.029279
vt 0.379497 0.029279
vt 0.953518 0.012384
vt 0.541980 0.006950
vt 0.541980 0.029086
vt 0.498875 0.006950
vt 0.498875 0.006950
vt 0.498875 0.029086
vt 0.455770 0.006950
vt 0.455770 0.006950
vt 0.455770 0.029086
vt 0.412665 0.006950
vt 0.973031 0.006950
vt 0.973031 0.029086
vt 0.929926 0.006950
vt 0.953518 0.037552
vt 0.379497 0.037809
vt 0.379497 0.037640
vt 0.929926 0.006950
vt 0.929926 0.029086
vt 0.886821 0.006950
vt 0.886821 0.006950
vt 0.886821 0.029086
vt 0.843716 0.006950
vt 0.843716 0.006950
vt 0.843716 0.029086
vt 0.800611 0.006950
vt 0.800611 0.006950
vt 0.800611 0.029086
vt 0.757506 0.006950
vt 0.757506 0.006950
vt 0.757506 0.029086
vt 0.714401 0.006950
vt 0.671295 0.006950
vt 0.671295 0.029086
vt 0.628190 0.006950
vt 0.628190 0.006950
vt 0.628190 0.029086
vt 0.585085 0.006950
vt 0.585085 0.006950
vt 0.585085 0.029086
vt 0.541980 0.006950
vt 0.663413 0.020658
vt 0.667086 0.020832
vt 0.654545 0.020586
vt 0.654545 0.037953
vt 0.667086 0.054623
vt 0.663413 0.054449
vt 0.654545 0.037953
vt 0.663413 0.054449
vt 0.654545 0.054378
vt 0.654545 0.037953
vt 0.654545 0.054378
vt 0.645678 0.054449
vt 0.642005 0.020832
vt 0.645678 0.020658
vt 0.654545 0.020586
vt 0.642005 0.037727
vt 0.645678 0.054449
vt 0.642005 0.054623
vt 0.654545 0.021077
vt 0.642005 0.020832
vt 0.654545 0.020586
vt 0.654545 0.037502
vt 0.642005 0.020832
vt 0.654545 0.021077
vt 0.953518 0.037552
vt 0.953518 0.037934
vt 0.953518 0.037645
vt 0.953518 0.037934
vt 0.379497 0.037640
vt 0.379497 0.037809
vt 0.642005 0.037727
vt 0.654545 0.037502
vt 0.654545 0.037953
vt 0.667086 0.020832
vt 0.654545 0.021077
vt 0.654545 0.020586
vt 0.667086 0.037727
vt 0.654545 0.021077
vt 0.667086 0.020832
vt 0.654545 0.037502
vt 0.667086 0.037727
vt 0.654545 0.037953
vt 0.663413 0.020658
vt 0.667086 0.020832
vt 0.654545 0.020586
vt 0.642005 0.020832
vt 0.645678 0.020658
vt 0.654545 0.020586
vt 0.667086 0.020832
vt 0.642005 0.020832
vt 0.654545 0.020586
# num_uvs: 288

g Default_Layer
s 1

usemtl amblems
f 3/1/3 7/2/7 5/3/5 
f 3/4/3 6/5/6 4/6/4 
f 6/7/6 30/8/30 4/9/4 
f 23/10/23 25/11/25 24/12/24 
f 5/13/5 8/14/8 6/15/6 
f 48/16/48 34/17/34 47/18/47 
f 50/19/50 34/20/34 48/21/48 
f 7/22/7 10/23/10 8/24/8 
f 47/25/47 1/26/1 53/27/53 
f 9/28/9 12/29/12 10/30/10 
f 53/31/53 1/32/1 2/33/2 
f 11/34/11 12/35/12 9/36/9 
f 24/37/24 25/38/25 26/39/26 
f 11/40/11 14/41/14 12/42/12 
f 1/43/1 34/44/34 56/45/56 
f 52/46/52 32/47/32 50/48/50 
f 13/49/13 16/50/16 14/51/14 
f 28/52/28 30/53/30 6/54/6 
f 53/55/53 2/56/2 52/57/52 
f 15/58/15 18/59/18 16/60/16 
f 34/61/34 32/62/32 51/63/51 
f 26/64/26 28/65/28 6/66/6 
f 17/67/17 20/68/20 18/69/18 
f 24/70/24 26/71/26 6/72/6 
f 22/73/22 24/74/24 6/75/6 
f 19/76/19 22/77/22 20/78/20 
f 32/79/32 2/80/2 51/81/51 
f 20/82/20 22/83/22 6/84/6 
f 21/85/21 24/86/24 22/87/22 
f 18/88/18 20/89/20 6/90/6 
f 16/91/16 18/92/18 6/93/6 
f 14/94/14 16/95/16 6/96/6 
f 2/97/2 1/98/1 56/99/56 
f 12/100/12 14/101/14 6/102/6 
f 25/103/25 28/104/28 26/105/26 
f 10/106/10 12/107/12 6/108/6 
f 8/109/8 10/110/10 6/111/6 
f 27/112/27 30/113/30 28/114/28 
f 52/115/52 2/116/2 32/117/32 
f 9/118/9 7/119/7 3/120/3 
f 29/121/29 4/122/4 30/123/30 
f 11/124/11 9/125/9 3/126/3 
f 13/127/13 11/128/11 3/129/3 
f 15/130/15 13/131/13 3/132/3 
f 17/133/17 15/134/15 3/135/3 
f 19/136/19 17/137/17 3/138/3 
f 21/139/21 19/140/19 3/141/3 
f 23/142/23 21/143/21 3/144/3 
f 25/145/25 23/146/23 3/147/3 
f 27/148/27 25/149/25 3/150/3 
f 29/151/29 27/152/27 3/153/3 
f 50/154/50 32/155/32 34/156/34 
f 31/157/31 44/158/44 40/159/40 
f 47/160/47 34/161/34 1/162/1 
f 45/163/45 43/164/43 46/165/46 
f 46/166/46 37/167/37 39/168/39 
f 39/169/39 38/170/38 42/171/42 
f 42/172/42 41/173/41 45/174/45 
f 56/175/56 34/176/34 51/177/51 
f 51/178/51 2/179/2 56/180/56 
f 55/181/55 54/182/54 58/183/58 
f 58/184/58 57/185/57 49/186/49 
f 49/187/49 57/188/57 55/189/55 
f 33/190/33 44/191/44 31/192/31 
f 33/193/33 40/194/40 44/195/44 
f 31/196/31 40/197/40 33/198/33 
f 3/199/3 4/200/4 29/201/29 
f 29/202/29 30/203/30 27/204/27 
f 27/205/27 28/206/28 25/207/25 
f 23/208/23 24/209/24 21/210/21 
f 55/211/55 57/212/57 54/213/54 
f 21/214/21 22/215/22 19/216/19 
f 19/217/19 20/218/20 17/219/17 
f 17/220/17 18/221/18 15/222/15 
f 15/223/15 16/224/16 13/225/13 
f 13/226/13 14/227/14 11/228/11 
f 9/229/9 10/230/10 7/231/7 
f 7/232/7 8/233/8 5/234/5 
f 5/235/5 6/236/6 3/237/3 
f 35/238/35 43/239/43 36/240/36 
f 46/241/46 43/242/43 35/243/35 
f 46/244/46 35/245/35 36/246/36 
f 46/247/46 36/248/36 37/249/37 
f 38/250/38 37/251/37 36/252/36 
f 39/253/39 37/254/37 38/255/38 
f 41/256/41 38/257/38 36/258/36 
f 42/259/42 38/260/38 41/261/41 
f 55/262/55 58/263/58 49/264/49 
f 58/265/58 54/266/54 57/267/57 
f 39/268/39 42/269/42 46/270/46 
f 43/271/43 41/272/41 36/273/36 
f 45/274/45 41/275/41 43/276/43 
f 42/277/42 45/278/45 46/279/46 
f 47/280/47 53/281/53 48/282/48 
f 52/283/52 50/284/50 48/285/48 
f 53/286/53 52/287/52 48/288/48 
# num_faces: 96

