# Wavefront OBJ file
# Creator: Ultimate Unwrap3D Pro v3.27
# Website: http://www.unwrap3d.com
# Time: Thu May 05 10:21:15 2011
# num_vertices: 73
# num_vertex_normals: 73
# num_uvs: 426
# num_faces: 142
# num_groups: 1

mtllib tavern_plate_LOD.mtl

v -0.000011 0.105515 0.000025
v -0.342258 0.234248 -0.342244
v -0.486479 0.316544 -0.486464
v -0.196826 0.213970 -0.475152
v -0.492687 0.283149 -0.492673
v -0.363660 0.213970 -0.363646
v -0.271653 0.159108 -0.406545
v -0.266559 0.240029 -0.643661
v -0.447173 0.234248 -0.185213
v -0.185227 0.234248 -0.447158
v -0.000011 0.116274 0.000025
v -0.000011 0.186539 -0.506410
v -0.635621 0.316544 -0.263261
v -0.000057 0.236564 -0.696769
v -0.643723 0.283149 -0.266620
v -0.491252 0.251541 -0.328231
v -0.000555 0.255823 -0.688317
v -0.467884 0.186539 -0.193792
v 0.093900 0.261679 -0.472079
v 0.091316 0.206814 -0.459087
v -0.484023 0.217243 0.000025
v 0.193807 0.186539 -0.467869
v 0.328246 0.251541 -0.491238
v -0.600643 0.282538 0.000025
v 0.266635 0.283149 -0.643708
v -0.696754 0.249143 0.000025
v 0.263275 0.316544 -0.635607
v -0.514313 0.213971 0.000025
v -0.498535 0.159108 0.000025
v -0.447173 0.217244 0.185241
v 0.358089 0.186539 -0.358075
v -0.643723 0.249143 0.266649
v 0.487903 0.249754 -0.487889
v -0.467884 0.186539 0.193821
v 0.492688 0.283149 -0.492673
v -0.342258 0.217243 0.342273
v -0.489828 0.282538 0.327303
v 0.342258 0.234246 -0.342244
v -0.492687 0.283149 0.492702
v 0.467884 0.186539 -0.193792
v 0.556542 0.251541 -0.230515
v -0.358089 0.186539 0.358104
v 0.643723 0.283149 -0.266620
v -0.185227 0.234246 0.447187
v 0.635621 0.316544 -0.263261
v -0.263275 0.275189 0.635636
v 0.447173 0.234248 -0.185213
v -0.266634 0.241794 0.643737
v 0.506424 0.186539 0.000025
v -0.196826 0.213971 0.475181
v 0.689992 0.194379 0.000025
v 0.696754 0.227774 0.000025
v -0.190787 0.159108 0.460615
v 0.687993 0.261170 0.000025
v -0.000011 0.234246 0.484037
v 0.484023 0.234246 0.000025
v -0.000011 0.275189 0.688008
v -0.000011 0.241794 0.696769
v 0.475166 0.213970 0.196841
v -0.000011 0.208399 0.690007
v 0.643723 0.227774 0.266649
v -0.000011 0.186539 0.506438
v 0.635621 0.261170 0.263289
v 0.185227 0.234248 0.447187
v 0.447173 0.234246 0.185241
v 0.266635 0.283149 0.643737
v 0.358089 0.186539 0.358104
v 0.264040 0.249754 0.637486
v 0.487903 0.249754 0.487918
v 0.193807 0.186539 0.467898
v 0.492688 0.283149 0.492702
v 0.327289 0.316544 0.489842
v 0.342258 0.234246 0.342273
# num_vertices: 73

vn 0.024872 -0.999645 0.009564
vn 0.350371 0.895614 0.274071
vn -0.226145 0.929790 -0.290429
vn -0.273755 -0.838966 -0.470312
vn -0.647002 -0.478287 -0.593827
vn -0.487892 -0.658811 -0.572651
vn -0.332667 -0.800942 -0.497820
vn -0.403053 -0.132033 -0.905602
vn 0.432453 0.866804 0.248266
vn 0.101625 0.958411 0.266686
vn -0.007935 0.999842 -0.015917
vn 0.008620 -0.909697 -0.415183
vn -0.618349 0.773841 -0.137167
vn 0.057850 -0.601116 -0.797065
vn -0.768400 -0.499776 -0.399732
vn -0.379334 -0.893691 -0.239628
vn -0.113859 0.907667 -0.403952
vn -0.554969 -0.795319 -0.243878
vn -0.180683 0.822061 0.539972
vn -0.133715 0.728081 0.672323
vn 0.420919 0.907072 -0.006889
vn 0.156589 -0.899016 -0.408962
vn 0.218597 -0.917344 -0.332709
vn 0.188036 0.970537 0.150668
vn 0.384913 -0.430044 -0.816642
vn -0.995908 0.086348 -0.026660
vn 0.002610 0.936637 -0.350293
vn -0.597946 -0.798660 -0.067842
vn -0.641941 -0.766754 0.000011
vn 0.376074 0.915092 -0.145517
vn 0.319595 -0.896815 -0.305911
vn -0.729265 -0.541168 0.418700
vn 0.438880 -0.772272 -0.459327
vn -0.397064 -0.909389 0.123899
vn 0.689215 0.223527 -0.689215
vn 0.219270 0.949200 -0.225699
vn 0.240107 0.963271 -0.120244
vn -0.307954 0.863354 0.399730
vn -0.676526 0.193953 0.710419
vn 0.251198 -0.950670 -0.182004
vn 0.377058 -0.853013 -0.360828
vn -0.327933 -0.860403 0.390086
vn 0.839235 -0.424815 -0.339436
vn 0.041065 0.976155 -0.213156
vn 0.299616 0.949047 -0.097678
vn -0.073159 0.910678 0.406587
vn -0.331893 0.925470 0.182628
vn -0.350164 -0.462344 0.814631
vn 0.100229 -0.992728 0.066667
vn -0.292357 -0.827056 0.480111
vn 0.456911 -0.884390 -0.095328
vn 0.996259 0.075547 0.041962
vn -0.245699 -0.766706 0.593122
vn 0.556910 0.830338 0.019780
vn -0.071952 0.939552 -0.334760
vn -0.222905 0.973241 0.055817
vn -0.040647 0.943088 0.330051
vn 0.004004 0.028798 0.999577
vn 0.140438 -0.984033 0.109349
vn -0.008661 -0.861706 0.507334
vn 0.817712 -0.426101 0.387021
vn -0.041258 -0.941711 0.333883
vn 0.476775 0.877014 0.059427
vn -0.170295 0.884188 -0.434985
vn -0.162249 0.984828 -0.061562
vn 0.356391 0.341478 0.869700
vn 0.209120 -0.965108 0.157591
vn 0.301201 -0.661351 0.686945
vn 0.488030 -0.687162 0.538177
vn 0.106435 -0.975663 0.191713
vn 0.670095 0.468104 0.576065
vn -0.083753 0.971759 -0.220614
vn -0.200292 0.937849 -0.283412
# num_vertex_normals: 73

vt 0.085938 0.433594
vt 0.095703 0.628906
vt 0.089843 0.437500
vt 0.250000 0.500000
vt 0.089843 0.437500
vt 0.095703 0.628906
vt 0.582031 0.640625
vt 0.605469 0.691406
vt 0.621094 0.757813
vt 0.007813 0.500000
vt 0.023438 0.687500
vt 0.095703 0.628906
vt 0.582031 0.640625
vt 0.621094 0.757813
vt 0.632813 0.843750
vt 0.007813 0.500000
vt 0.095703 0.628906
vt 0.085938 0.433594
vt 0.523438 0.687500
vt 0.632813 0.843750
vt 0.574219 0.843750
vt 0.523438 0.687500
vt 0.582031 0.640625
vt 0.632813 0.843750
vt 0.007813 0.500000
vt 0.023438 0.687500
vt 0.007813 0.500000
vt 0.503906 0.500000
vt 0.582031 0.640625
vt 0.523438 0.687500
vt 0.023438 0.687500
vt 0.078125 0.843750
vt 0.082031 0.843750
vt 0.570313 0.500000
vt 0.582031 0.640625
vt 0.503906 0.500000
vt 0.570313 0.500000
vt 0.605469 0.691406
vt 0.582031 0.640625
vt 0.187500 0.816406
vt 0.250000 0.500000
vt 0.130859 0.738281
vt 0.095703 0.628906
vt 0.082031 0.843750
vt 0.130859 0.738281
vt 0.095703 0.628906
vt 0.023438 0.687500
vt 0.082031 0.843750
vt 0.250000 0.921875
vt 0.187500 0.816406
vt 0.130859 0.738281
vt 0.250000 0.921875
vt 0.130859 0.738281
vt 0.082031 0.843750
vt 0.095703 0.628906
vt 0.130859 0.738281
vt 0.250000 0.500000
vt 0.750000 0.500000
vt 0.605469 0.691406
vt 0.570313 0.500000
vt 0.570313 0.500000
vt 0.583984 0.363281
vt 0.750000 0.500000
vt 0.160156 0.945313
vt 0.250000 0.921875
vt 0.082031 0.843750
vt 0.155069 0.953765
vt 0.160513 0.945410
vt 0.250072 0.992718
vt 0.570313 0.500000
vt 0.576172 0.269531
vt 0.583984 0.363281
vt 0.570313 0.500000
vt 0.503906 0.500000
vt 0.576172 0.269531
vt 0.503906 0.500000
vt 0.523438 0.312500
vt 0.576172 0.269531
vt 0.156250 0.953125
vt 0.082031 0.843750
vt 0.078125 0.843750
vt 0.632813 0.843750
vt 0.656250 0.953125
vt 0.574219 0.843750
vt 0.679688 0.828125
vt 0.632813 0.843750
vt 0.621094 0.757813
vt 0.007813 0.500000
vt 0.027344 0.312500
vt 0.023438 0.312500
vt 0.007813 0.500000
vt 0.007813 0.500000
vt 0.027344 0.312500
vt 0.679688 0.828125
vt 0.621094 0.757813
vt 0.605469 0.691406
vt 0.679688 0.828125
vt 0.605469 0.691406
vt 0.750000 0.500000
vt 0.007813 0.500000
vt 0.085938 0.433594
vt 0.027344 0.312500
vt 0.250000 0.839844
vt 0.250000 0.500000
vt 0.187500 0.816406
vt 0.250000 0.921875
vt 0.250000 0.839844
vt 0.187500 0.816406
vt 0.250000 0.992188
vt 0.250000 0.921875
vt 0.160156 0.945313
vt 0.081742 0.843382
vt 0.160513 0.945410
vt 0.155069 0.953765
vt 0.583984 0.363281
vt 0.623047 0.246094
vt 0.750000 0.500000
vt 0.750000 0.859375
vt 0.750000 0.984375
vt 0.656250 0.953125
vt 0.750000 0.859375
vt 0.656250 0.953125
vt 0.632813 0.843750
vt 0.583984 0.363281
vt 0.576172 0.269531
vt 0.623047 0.246094
vt 0.750000 0.859375
vt 0.632813 0.843750
vt 0.679688 0.828125
vt 0.750000 0.851563
vt 0.750000 0.859375
vt 0.679688 0.828125
vt 0.576172 0.269531
vt 0.523438 0.312500
vt 0.578125 0.156250
vt 0.523438 0.312500
vt 0.574219 0.156250
vt 0.578125 0.156250
vt 0.750000 0.851563
vt 0.679688 0.828125
vt 0.750000 0.500000
vt 0.316406 0.816406
vt 0.250000 0.500000
vt 0.250000 0.839844
vt 0.023438 0.312500
vt 0.027344 0.312500
vt 0.078125 0.156250
vt 0.367188 0.843750
vt 0.316406 0.816406
vt 0.250000 0.839844
vt 0.367188 0.843750
vt 0.250000 0.839844
vt 0.250000 0.921875
vt 0.347656 0.953125
vt 0.367188 0.843750
vt 0.250000 0.921875
vt 0.027344 0.312500
vt 0.085938 0.433594
vt 0.130859 0.261719
vt 0.347656 0.953125
vt 0.250000 0.921875
vt 0.250000 0.992188
vt 0.085938 0.433594
vt 0.089843 0.437500
vt 0.130859 0.261719
vt 0.089843 0.437500
vt 0.250000 0.500000
vt 0.130859 0.261719
vt 0.623047 0.246094
vt 0.679688 0.171876
vt 0.750000 0.500000
vt 0.839844 0.953125
vt 0.750000 0.984375
vt 0.750000 0.859375
vt 0.816406 0.828125
vt 0.839844 0.953125
vt 0.750000 0.859375
vt 0.623047 0.246094
vt 0.667969 0.109375
vt 0.679688 0.171876
vt 0.623047 0.246094
vt 0.576172 0.269531
vt 0.667969 0.109375
vt 0.576172 0.269531
vt 0.656250 0.046875
vt 0.667969 0.109375
vt 0.576172 0.269531
vt 0.578125 0.156250
vt 0.656250 0.046875
vt 0.816406 0.828125
vt 0.750000 0.859375
vt 0.750000 0.851563
vt 0.578125 0.156250
vt 0.574219 0.156250
vt 0.656250 0.046875
vt 0.078125 0.156250
vt 0.160156 0.054688
vt 0.156250 0.046875
vt 0.816406 0.828125
vt 0.750000 0.851563
vt 0.750000 0.500000
vt 0.373047 0.738281
vt 0.250000 0.500000
vt 0.316406 0.816406
vt 0.078125 0.156250
vt 0.027344 0.312500
vt 0.160156 0.054688
vt 0.027344 0.312500
vt 0.187500 0.183594
vt 0.160156 0.054688
vt 0.027344 0.312500
vt 0.130859 0.261719
vt 0.187500 0.183594
vt 0.367188 0.843750
vt 0.373047 0.738281
vt 0.316406 0.816406
vt 0.425781 0.843750
vt 0.367188 0.843750
vt 0.347656 0.953125
vt 0.130859 0.261719
vt 0.250000 0.500000
vt 0.187500 0.183594
vt 0.679688 0.171876
vt 0.750000 0.144532
vt 0.750000 0.500000
vt 0.914063 0.640625
vt 0.921875 0.843750
vt 0.839844 0.953125
vt 0.873047 0.753906
vt 0.914063 0.640625
vt 0.839844 0.953125
vt 0.679688 0.171876
vt 0.750000 0.015625
vt 0.750000 0.144532
vt 0.679688 0.171876
vt 0.667969 0.109375
vt 0.750000 0.015625
vt 0.873047 0.753906
vt 0.839844 0.953125
vt 0.816406 0.828125
vt 0.667969 0.109375
vt 0.656250 0.046875
vt 0.750000 0.015625
vt 0.656250 0.046875
vt 0.750000 0.015625
vt 0.750000 0.015625
vt 0.873047 0.753906
vt 0.816406 0.828125
vt 0.750000 0.500000
vt 0.156250 0.046875
vt 0.250000 0.015625
vt 0.250000 0.007813
vt 0.156250 0.046875
vt 0.160156 0.054688
vt 0.250000 0.015625
vt 0.408203 0.628906
vt 0.250000 0.500000
vt 0.373047 0.738281
vt 0.476563 0.687500
vt 0.408203 0.628906
vt 0.373047 0.738281
vt 0.160156 0.054688
vt 0.250000 0.160157
vt 0.250000 0.015625
vt 0.160156 0.054688
vt 0.187500 0.183594
vt 0.250000 0.160157
vt 0.476563 0.687500
vt 0.373047 0.738281
vt 0.367188 0.843750
vt 0.476563 0.687500
vt 0.367188 0.843750
vt 0.425781 0.843750
vt 0.187500 0.183594
vt 0.250000 0.500000
vt 0.250000 0.160157
vt 0.750000 0.144532
vt 0.816406 0.164063
vt 0.750000 0.500000
vt 0.480469 0.687500
vt 0.476563 0.687500
vt 0.425781 0.843750
vt 0.914063 0.640625
vt 0.972656 0.687500
vt 0.921875 0.843750
vt 0.910156 0.632813
vt 0.914063 0.640625
vt 0.873047 0.753906
vt 0.750000 0.144532
vt 0.750000 0.015625
vt 0.816406 0.164063
vt 0.750000 0.015625
vt 0.839844 0.046875
vt 0.816406 0.164063
vt 0.910156 0.632813
vt 0.873047 0.753906
vt 0.750000 0.500000
vt 0.423828 0.500000
vt 0.250000 0.500000
vt 0.408203 0.628906
vt 0.750000 0.015625
vt 0.750000 0.015625
vt 0.839844 0.046875
vt 0.250000 0.007813
vt 0.343750 0.054688
vt 0.347656 0.046875
vt 0.250000 0.007813
vt 0.250000 0.015625
vt 0.343750 0.054688
vt 0.496094 0.500000
vt 0.423828 0.500000
vt 0.408203 0.628906
vt 0.496094 0.500000
vt 0.408203 0.628906
vt 0.476563 0.687500
vt 0.250000 0.015625
vt 0.316406 0.183594
vt 0.343750 0.054688
vt 0.250000 0.015625
vt 0.250000 0.160157
vt 0.316406 0.183594
vt 0.496094 0.500000
vt 0.496094 0.500000
vt 0.476563 0.687500
vt 0.496094 0.500000
vt 0.476563 0.687500
vt 0.480469 0.687500
vt 0.250000 0.160157
vt 0.250000 0.500000
vt 0.316406 0.183594
vt 0.816406 0.164063
vt 0.873047 0.246094
vt 0.750000 0.500000
vt 0.988281 0.500000
vt 0.992188 0.500000
vt 0.972656 0.687500
vt 0.988281 0.500000
vt 0.972656 0.687500
vt 0.914063 0.640625
vt 0.816406 0.164063
vt 0.917969 0.156250
vt 0.873047 0.246094
vt 0.925781 0.500000
vt 0.988281 0.500000
vt 0.914063 0.640625
vt 0.925781 0.500000
vt 0.914063 0.640625
vt 0.910156 0.632813
vt 0.816406 0.164063
vt 0.839844 0.046875
vt 0.917969 0.156250
vt 0.839844 0.046875
vt 0.921875 0.156250
vt 0.917969 0.156250
vt 0.925781 0.500000
vt 0.910156 0.632813
vt 0.750000 0.500000
vt 0.408203 0.371094
vt 0.250000 0.500000
vt 0.423828 0.500000
vt 0.347656 0.046875
vt 0.343750 0.054688
vt 0.425781 0.156250
vt 0.343750 0.054688
vt 0.425781 0.269531
vt 0.425781 0.156250
vt 0.425781 0.269531
vt 0.408203 0.371094
vt 0.423828 0.500000
vt 0.343750 0.054688
vt 0.373047 0.261719
vt 0.425781 0.269531
vt 0.343750 0.054688
vt 0.316406 0.183594
vt 0.373047 0.261719
vt 0.425781 0.269531
vt 0.423828 0.500000
vt 0.496094 0.500000
vt 0.480469 0.312500
vt 0.425781 0.269531
vt 0.496094 0.500000
vt 0.316406 0.183594
vt 0.250000 0.500000
vt 0.373047 0.261719
vt 0.873047 0.246094
vt 0.912109 0.363281
vt 0.750000 0.500000
vt 0.480469 0.312500
vt 0.496094 0.500000
vt 0.496094 0.500000
vt 0.972656 0.312500
vt 0.972656 0.312500
vt 0.992188 0.500000
vt 0.873047 0.246094
vt 0.972656 0.312500
vt 0.912109 0.363281
vt 0.873047 0.246094
vt 0.917969 0.156250
vt 0.972656 0.312500
vt 0.972656 0.312500
vt 0.992188 0.500000
vt 0.988281 0.500000
vt 0.912109 0.363281
vt 0.972656 0.312500
vt 0.988281 0.500000
vt 0.917969 0.156250
vt 0.972656 0.312500
vt 0.972656 0.312500
vt 0.917969 0.156250
vt 0.921875 0.156250
vt 0.972656 0.312500
vt 0.912109 0.363281
vt 0.988281 0.500000
vt 0.925781 0.500000
vt 0.912109 0.363281
vt 0.925781 0.500000
vt 0.750000 0.500000
vt 0.425781 0.156250
vt 0.425781 0.269531
vt 0.480469 0.312500
vt 0.373047 0.261719
vt 0.250000 0.500000
vt 0.408203 0.371094
vt 0.425781 0.269531
vt 0.373047 0.261719
vt 0.408203 0.371094
# num_uvs: 426

g Default_Layer
s 1

usemtl plate
f 19/1/19 10/2/10 20/3/20 
f 11/4/11 20/5/20 10/6/10 
f 4/7/4 7/8/7 6/9/6 
f 17/10/17 8/11/8 10/12/10 
f 4/13/4 6/14/6 16/15/16 
f 17/16/17 10/17/10 19/18/19 
f 8/19/8 16/20/16 5/21/5 
f 8/22/8 4/23/4 16/24/16 
f 14/25/14 8/26/8 17/27/17 
f 14/28/14 4/29/4 8/30/8 
f 8/31/8 5/32/5 3/33/3 
f 12/34/12 4/35/4 14/36/14 
f 12/37/12 7/38/7 4/39/4 
f 9/40/9 11/41/11 2/42/2 
f 10/43/10 3/44/3 2/45/2 
f 10/46/10 8/47/8 3/48/3 
f 24/49/24 9/50/9 2/51/2 
f 24/52/24 2/53/2 3/54/3 
f 10/55/10 2/56/2 11/57/11 
f 1/58/1 7/59/7 12/60/12 
f 12/61/12 22/62/22 1/63/1 
f 13/64/13 24/65/24 3/66/3 
f 15/67/15 13/68/13 3/69/3 
f 12/70/12 23/71/23 22/72/22 
f 12/73/12 14/74/14 23/75/23 
f 14/76/14 25/77/25 23/78/23 
f 15/79/15 3/80/3 5/81/5 
f 16/82/16 15/83/15 5/84/5 
f 18/85/18 16/86/16 6/87/6 
f 14/88/14 27/89/27 25/90/25 
f 14/91/14 17/92/17 27/93/27 
f 18/94/18 6/95/6 7/96/7 
f 18/97/18 7/98/7 1/99/1 
f 17/100/17 19/101/19 27/102/27 
f 21/103/21 11/104/11 9/105/9 
f 24/106/24 21/107/21 9/108/9 
f 26/109/26 24/110/24 13/111/13 
f 26/112/26 13/113/13 15/114/15 
f 22/115/22 31/116/31 1/117/1 
f 28/118/28 26/119/26 15/120/15 
f 28/121/28 15/122/15 16/123/16 
f 22/124/22 23/125/23 31/126/31 
f 28/127/28 16/128/16 18/129/18 
f 29/130/29 28/131/28 18/132/18 
f 23/133/23 25/134/25 33/135/33 
f 25/136/25 35/137/35 33/138/33 
f 29/139/29 18/140/18 1/141/1 
f 30/142/30 11/143/11 21/144/21 
f 25/145/25 27/146/27 35/147/35 
f 37/148/37 30/149/30 21/150/21 
f 37/151/37 21/152/21 24/153/24 
f 32/154/32 37/155/37 24/156/24 
f 27/157/27 19/158/19 38/159/38 
f 32/160/32 24/161/24 26/162/26 
f 19/163/19 20/164/20 38/165/38 
f 20/166/20 11/167/11 38/168/38 
f 31/169/31 40/170/40 1/171/1 
f 32/172/32 26/173/26 28/174/28 
f 34/175/34 32/176/32 28/177/28 
f 31/178/31 41/179/41 40/180/40 
f 31/181/31 23/182/23 41/183/41 
f 23/184/23 43/185/43 41/186/41 
f 23/187/23 33/188/33 43/189/43 
f 34/190/34 28/191/28 29/192/29 
f 33/193/33 35/194/35 43/195/43 
f 35/196/35 45/197/45 43/198/43 
f 34/199/34 29/200/29 1/201/1 
f 36/202/36 11/203/11 30/204/30 
f 35/205/35 27/206/27 45/207/45 
f 27/208/27 47/209/47 45/210/45 
f 27/211/27 38/212/38 47/213/47 
f 37/214/37 36/215/36 30/216/30 
f 39/217/39 37/218/37 32/219/32 
f 38/220/38 11/221/11 47/222/47 
f 40/223/40 49/224/49 1/225/1 
f 50/226/50 39/227/39 32/228/32 
f 42/229/42 50/230/50 32/231/32 
f 40/232/40 51/233/51 49/234/49 
f 40/235/40 41/236/41 51/237/51 
f 42/238/42 32/239/32 34/240/34 
f 41/241/41 43/242/43 51/243/51 
f 43/244/43 52/245/52 51/246/51 
f 42/247/42 34/248/34 1/249/1 
f 43/250/43 54/251/54 52/252/52 
f 43/253/43 45/254/45 54/255/54 
f 44/256/44 11/257/11 36/258/36 
f 46/259/46 44/260/44 36/261/36 
f 45/262/45 56/263/56 54/264/54 
f 45/265/45 47/266/47 56/267/56 
f 46/268/46 36/269/36 37/270/37 
f 46/271/46 37/272/37 39/273/39 
f 47/274/47 11/275/11 56/276/56 
f 49/277/49 59/278/59 1/279/1 
f 48/280/48 46/281/46 39/282/39 
f 50/283/50 48/284/48 39/285/39 
f 53/286/53 50/287/50 42/288/42 
f 49/289/49 51/290/51 59/291/59 
f 51/292/51 61/293/61 59/294/59 
f 53/295/53 42/296/42 1/297/1 
f 55/298/55 11/299/11 44/300/44 
f 51/301/51 52/302/52 61/303/61 
f 52/304/52 63/305/63 61/306/61 
f 52/307/52 54/308/54 63/309/63 
f 57/310/57 55/311/55 44/312/44 
f 57/313/57 44/314/44 46/315/46 
f 54/316/54 65/317/65 63/318/63 
f 54/319/54 56/320/56 65/321/65 
f 58/322/58 57/323/57 46/324/46 
f 58/325/58 46/326/46 48/327/48 
f 56/328/56 11/329/11 65/330/65 
f 59/331/59 67/332/67 1/333/1 
f 60/334/60 58/335/58 48/336/48 
f 60/337/60 48/338/48 50/339/50 
f 59/340/59 69/341/69 67/342/67 
f 62/343/62 60/344/60 50/345/50 
f 62/346/62 50/347/50 53/348/53 
f 59/349/59 61/350/61 69/351/69 
f 61/352/61 71/353/71 69/354/69 
f 62/355/62 53/356/53 1/357/1 
f 64/358/64 11/359/11 55/360/55 
f 61/361/61 63/362/63 71/363/71 
f 63/364/63 72/365/72 71/366/71 
f 72/367/72 64/368/64 55/369/55 
f 63/370/63 73/371/73 72/372/72 
f 63/373/63 65/374/65 73/375/73 
f 72/376/72 55/377/55 57/378/57 
f 66/379/66 72/380/72 57/381/57 
f 65/382/65 11/383/11 73/384/73 
f 67/385/67 70/386/70 1/387/1 
f 66/388/66 57/389/57 58/390/58 
f 68/391/68 66/392/66 58/393/58 
f 67/394/67 68/395/68 70/396/70 
f 67/397/67 69/398/69 68/399/68 
f 68/400/68 58/401/58 60/402/60 
f 70/403/70 68/404/68 60/405/60 
f 69/406/69 66/407/66 68/408/68 
f 69/409/69 71/410/71 66/411/66 
f 70/412/70 60/413/60 62/414/62 
f 70/415/70 62/416/62 1/417/1 
f 71/418/71 72/419/72 66/420/66 
f 73/421/73 11/422/11 64/423/64 
f 72/424/72 73/425/73 64/426/64 
# num_faces: 142

