# Wavefront OBJ file
# Creator: Ultimate Unwrap3D Pro v3.27
# Website: http://www.unwrap3d.com
# Time: Thu May 05 10:18:05 2011
# num_vertices: 71
# num_vertex_normals: 71
# num_uvs: 326
# num_faces: 108
# num_groups: 1

mtllib tavern_chair_LOD.mtl

v 0.363936 0.409487 -0.132037
v 0.363936 0.409487 -0.007258
v 0.366592 0.309895 -0.132037
v 0.366592 0.309895 -0.007258
v -0.561085 0.655892 -0.120277
v -0.374643 0.409487 -0.132037
v -0.561085 0.807734 -0.120277
v -0.374643 0.409487 -0.007258
v -0.485914 0.655892 0.213231
v -0.374643 0.305575 -0.132037
v -0.485914 0.807734 0.213231
v -0.374643 0.305575 -0.007258
v 0.009935 1.272332 0.421163
v 0.545498 1.150016 0.346370
v 0.541565 1.182133 0.278745
v -0.280542 0.807734 0.329194
v 0.541565 1.336601 0.352107
v 0.545498 1.304484 0.419732
v -0.552272 1.182133 0.278745
v -0.552272 1.336601 0.352107
v 0.000000 0.807734 0.341649
v -0.552272 1.148623 0.349304
v -0.552272 1.303091 0.422666
v -0.002842 1.553837 0.555017
v -0.552272 1.618368 0.485927
v 0.280542 0.807734 0.329194
v 0.541565 1.463899 0.412565
v 0.545498 1.431782 0.480190
v 0.543531 1.602309 0.519739
v -0.552272 1.463899 0.412565
v 0.485914 0.807734 0.213231
v -0.552272 1.430389 0.483123
v -0.552272 1.584857 0.556485
v -0.320174 0.795123 -0.534570
v -0.149170 0.795123 -0.534570
v 0.561085 0.807734 -0.120277
v -0.320174 0.014110 0.263404
v 0.485914 0.655892 -0.453785
v 0.000000 0.655892 -0.578216
v -0.149170 0.014110 0.263404
v 0.485914 0.807734 -0.453785
v -0.192952 1.035812 0.252647
v 0.280542 0.655892 -0.577074
v -0.485914 0.655892 -0.453785
v -0.280542 0.655892 -0.577074
v 0.280542 0.807734 -0.577074
v -0.131895 1.646069 0.547321
v -0.349888 1.644646 0.516427
v -0.349381 1.647491 0.578216
v 0.561085 0.655892 -0.120277
v 0.000000 0.807734 -0.578216
v -0.128335 0.000000 -0.247527
v -0.328922 0.000000 -0.247527
v 0.485914 0.655892 0.213231
v 0.280542 0.655892 0.329194
v -0.280542 0.807734 -0.577074
v 0.184768 0.965682 0.218783
v 0.306718 0.974288 0.254055
v -0.280542 0.655892 0.329194
v 0.306416 0.990206 0.199510
v -0.485914 0.807734 -0.453785
v 0.349047 1.646069 0.547321
v 0.322745 0.014110 0.263404
v 0.121723 1.646069 0.547321
v 0.339135 0.000000 -0.247527
v 0.151741 0.014110 0.263404
v 0.322745 0.790970 -0.570411
v 0.141974 0.000000 -0.247527
v 0.322745 0.799277 -0.498729
v 0.151741 0.790970 -0.570411
v 0.151741 0.799277 -0.498729
# num_vertices: 71

vn 0.572084 0.587544 -0.572287
vn 0.406302 0.417282 0.812893
vn 0.584584 -0.565892 -0.581402
vn 0.676609 -0.654975 0.336463
vn -0.824039 -0.563141 0.061911
vn -0.816497 0.408248 -0.408248
vn -0.943900 0.322527 -0.070917
vn -0.408248 0.816497 0.408248
vn -0.664720 -0.339335 0.665581
vn -0.329875 -0.667520 -0.667532
vn -0.714615 0.585094 0.383392
vn -0.665587 -0.333760 0.667532
vn -0.007530 0.148402 0.988898
vn 0.300547 -0.710009 0.636835
vn 0.566731 -0.256396 -0.782993
vn -0.289907 0.564178 0.773083
vn 0.317040 0.919479 0.232474
vn 0.826667 0.216682 0.519298
vn -0.816498 -0.193631 -0.543910
vn -0.408247 0.719054 -0.562402
vn -0.000216 0.679491 0.733684
vn -0.407241 -0.913134 0.018500
vn -0.558869 0.123760 0.819969
vn 0.026302 0.105678 0.994052
vn -0.415910 0.901863 0.116886
vn 0.155702 0.534545 0.830674
vn 0.435953 -0.511580 -0.740426
vn 0.457157 -0.682283 0.570524
vn 0.587717 0.808850 -0.018700
vn -0.678756 0.047540 -0.732823
vn 0.573068 0.585094 0.573810
vn -0.332162 -0.896055 0.294539
vn -0.812533 0.195186 0.549265
vn 0.000000 0.714661 0.699471
vn 0.000000 0.000000 0.000000
vn 0.824039 0.563141 0.061911
vn 0.000000 0.000000 0.000000
vn 0.584586 -0.583150 -0.564088
vn -0.001129 -0.554703 -0.832048
vn 0.000000 0.714661 0.699471
vn 0.718952 0.583150 -0.378211
vn 0.342684 0.364876 -0.865698
vn 0.148250 -0.567097 -0.810199
vn -0.718952 -0.583150 -0.378211
vn -0.293038 -0.567097 -0.769759
vn 0.293038 0.567097 -0.769759
vn 0.245175 0.967920 -0.054956
vn -0.281990 0.676056 -0.680757
vn -0.448182 0.047277 0.892691
vn 0.824039 -0.563141 -0.061911
vn 0.001129 0.554703 -0.832048
vn 0.000000 -0.897274 -0.441473
vn -0.670672 0.295210 -0.680478
vn 0.714615 -0.585094 0.383392
vn 0.319330 -0.324732 0.890269
vn -0.170189 0.325510 -0.930096
vn -0.672326 -0.288045 0.681915
vn 0.464029 -0.383463 0.798519
vn -0.049463 -0.920576 0.387418
vn 0.364954 0.399469 -0.840971
vn -0.193136 0.963310 -0.186364
vn 0.616928 -0.319687 0.719166
vn 0.994993 -0.069948 0.071394
vn -0.222582 0.441125 -0.869405
vn 0.999714 -0.014867 -0.018706
vn -0.998741 -0.035106 0.035832
vn 0.541790 0.679974 -0.494063
vn -0.997274 -0.066420 -0.032136
vn 0.486876 0.822751 0.293313
vn -0.541790 -0.254617 -0.801020
vn -0.268470 0.907353 0.323473
# num_vertex_normals: 71

vt 0.172810 0.110027
vt 0.126515 0.315418
vt 0.299288 0.039974
vt 0.709068 0.420972
vt 0.709068 0.506956
vt 0.259430 0.420972
vt 0.138522 0.917176
vt -0.024216 0.826936
vt 0.138522 0.826936
vt 0.126148 0.334109
vt 0.840388 0.334109
vt 0.126148 0.412303
vt 0.432447 0.506956
vt 0.536052 0.420972
vt 0.536052 0.506956
vt 0.126515 0.315418
vt 0.172810 0.110027
vt 0.172810 0.520810
vt 0.593308 0.506956
vt 0.375190 0.420972
vt 0.593308 0.420972
vt 0.840388 0.334109
vt 0.840388 0.412303
vt 0.126148 0.412303
vt 0.138522 0.826936
vt 0.301260 0.917176
vt 0.138522 0.917176
vt 0.840388 0.334109
vt 0.126148 0.412303
vt 0.840388 0.412303
vt 0.259430 0.506956
vt 0.259430 0.420972
vt 0.709068 0.506956
vt 0.172810 0.110027
vt 0.299288 0.039974
vt 0.172810 0.520810
vt 0.432447 0.420972
vt 0.536052 0.506956
vt 0.432447 0.506956
vt 0.754334 0.506956
vt 0.490804 0.506956
vt 0.754334 0.420972
vt 0.301260 0.826936
vt 0.463998 0.917176
vt 0.301260 0.917176
vt -0.559961 0.266614
vt -0.559961 0.331472
vt 0.460280 0.266614
vt 0.104920 0.509348
vt 0.170402 0.423365
vt 0.170402 0.509348
vt 0.299288 0.039974
vt 0.472061 0.033123
vt 0.172810 0.520810
vt 1.010700 0.588091
vt 0.636633 0.521655
vt 1.010700 0.521655
vt 1.531278 0.266614
vt -0.559961 0.331472
vt -0.559961 0.266614
vt 0.301260 0.826936
vt 0.626736 0.917176
vt 0.463998 0.917176
vt 1.531278 0.266614
vt -0.559961 0.331472
vt 1.531278 0.331472
vt 0.214164 0.506956
vt 0.754334 0.420972
vt 0.490804 0.506956
vt 0.472061 0.033123
vt 0.644834 0.039974
vt 0.172810 0.520810
vt 0.771312 0.110027
vt 0.644834 0.039974
vt 0.299288 0.039974
vt 0.104920 0.423365
vt 0.170402 0.509348
vt 0.104920 0.509348
vt 0.626736 0.826936
vt 0.789474 0.917176
vt 0.626736 0.917176
vt 0.754334 0.420972
vt 0.484517 0.506956
vt 0.214164 0.420972
vt -0.559961 0.299043
vt 1.531278 0.331472
vt 0.484621 0.266614
vt 0.644834 0.039974
vt 0.771312 0.110027
vt 0.172810 0.520810
vt 0.817606 0.315418
vt 0.771312 0.110027
vt 0.299288 0.039974
vt -0.559961 0.331472
vt 1.531278 0.266614
vt 1.531278 0.331472
vt 0.789474 0.826936
vt 0.952212 0.917176
vt 0.789474 0.917176
vt 0.256306 0.589993
vt 0.678729 0.514969
vt 0.678729 0.589993
vt 0.137661 0.509348
vt 0.104920 0.423365
vt 0.170402 0.423365
vt 0.771312 0.110027
vt 0.817606 0.315418
vt 0.172810 0.520810
vt 0.771312 0.520810
vt 0.817606 0.315418
vt 0.299288 0.039974
vt 1.531278 0.266614
vt 0.484621 0.266614
vt 1.531278 0.331472
vt 0.952212 0.826936
vt 1.114950 0.917176
vt 0.952212 0.917176
vt 0.214164 0.506956
vt 0.214164 0.420972
vt 0.484517 0.506956
vt 0.104920 0.423365
vt 0.170402 0.509348
vt 0.104920 0.509348
vt 0.817606 0.315418
vt 0.771312 0.520810
vt 0.172810 0.520810
vt 0.644834 0.595451
vt 0.771312 0.520810
vt 0.299288 0.039974
vt 0.752576 0.506956
vt 0.215922 0.420972
vt 0.752576 0.420972
vt 1.114950 0.826936
vt 1.277688 0.917176
vt 1.114950 0.917176
vt -0.068893 0.506956
vt -0.068893 0.420972
vt 1.037391 0.420972
vt 1.037391 0.506956
vt 1.766440 0.172168
vt 1.766440 0.258152
vt 0.802900 0.172168
vt 0.771312 0.520810
vt 0.644834 0.595451
vt 0.172810 0.520810
vt 0.472061 0.595216
vt 0.644834 0.595451
vt 0.299288 0.039974
vt -0.153131 0.258152
vt -0.153131 0.172168
vt 0.309243 0.172168
vt 1.277688 0.826936
vt 1.440426 0.917176
vt 1.277688 0.917176
vt -0.192594 0.506956
vt 0.484249 0.420972
vt 1.161093 0.506956
vt 1.100897 0.258152
vt 0.309243 0.172168
vt 1.100897 0.172168
vt 0.644834 0.595451
vt 0.472061 0.595216
vt 0.172810 0.520810
vt 0.299288 0.595451
vt 0.472061 0.595216
vt 0.299288 0.039974
vt 1.567067 0.296651
vt -0.610091 0.262889
vt -0.610091 0.330412
vt -0.512429 0.826936
vt -0.349692 0.917176
vt -0.512429 0.917176
vt -0.818674 0.258152
vt -0.818674 0.172168
vt 0.802900 0.172168
vt 1.766440 0.258152
vt 1.037391 0.420972
vt 0.577765 0.506956
vt 0.588807 0.420972
vt 0.472061 0.595216
vt 0.299288 0.595451
vt 0.172810 0.520810
vt 0.172810 0.520810
vt 0.299288 0.595451
vt 0.299288 0.039974
vt -0.610091 0.296651
vt 0.272719 0.262889
vt 0.263010 0.330412
vt -0.349692 0.826936
vt -0.186954 0.917176
vt -0.349692 0.917176
vt -0.136375 0.506956
vt 0.366526 0.420972
vt 0.379251 0.506956
vt 1.117654 0.506956
vt 0.366526 0.420972
vt 1.117654 0.420972
vt 1.567067 0.296651
vt 0.263010 0.330412
vt 0.272719 0.262889
vt 0.126515 0.315418
vt 0.172810 0.520810
vt 0.299288 0.039974
vt -0.068893 0.506956
vt 0.588807 0.420972
vt 0.577765 0.506956
vt -0.024216 0.917176
vt -0.186954 0.826936
vt -0.024216 0.826936
vt -0.192594 0.506956
vt 1.161093 0.420972
vt 1.161093 0.506956
vt 0.752576 0.506956
vt 0.215922 0.420972
vt 0.752576 0.420972
vt 1.531278 0.299043
vt -0.559961 0.331472
vt -0.559961 0.266614
vt 1.531278 0.299043
vt -0.559961 0.266614
vt -0.559961 0.331472
vt -0.068893 0.506956
vt 1.037391 0.420972
vt 1.037391 0.506956
vt -0.024216 0.917176
vt -0.024216 0.826936
vt 0.138522 0.917176
vt 0.432447 0.420972
vt 0.536052 0.420972
vt 0.432447 0.506956
vt 0.375190 0.506956
vt 0.375190 0.420972
vt 0.593308 0.506956
vt 0.301260 0.826936
vt 0.301260 0.917176
vt 0.138522 0.826936
vt 0.126148 0.334109
vt 0.126148 0.412303
vt 0.840388 0.334109
vt 0.536052 0.420972
vt 0.536052 0.506956
vt 0.432447 0.420972
vt 0.104920 0.423365
vt 0.170402 0.423365
vt 0.104920 0.509348
vt 0.636633 0.588091
vt 0.636633 0.521655
vt 1.010700 0.588091
vt 1.531278 0.331472
vt -0.559961 0.331472
vt 1.531278 0.266614
vt 0.626736 0.826936
vt 0.626736 0.917176
vt 0.301260 0.826936
vt 0.460280 0.266614
vt -0.559961 0.331472
vt 1.531278 0.266614
vt 0.214164 0.420972
vt 0.754334 0.420972
vt 0.214164 0.506956
vt 0.170402 0.423365
vt 0.170402 0.509348
vt 0.104920 0.423365
vt 0.789474 0.826936
vt 0.789474 0.917176
vt 0.626736 0.826936
vt 0.754334 0.506956
vt 0.484517 0.506956
vt 0.754334 0.420972
vt -0.559961 0.266614
vt 1.531278 0.266614
vt -0.559961 0.331472
vt 0.952212 0.826936
vt 0.952212 0.917176
vt 0.789474 0.826936
vt 0.256306 0.514969
vt 0.678729 0.514969
vt 0.256306 0.589993
vt 1.114950 0.826936
vt 1.114950 0.917176
vt 0.952212 0.826936
vt 0.170402 0.423365
vt 0.170402 0.509348
vt 0.104920 0.423365
vt 0.215922 0.506956
vt 0.215922 0.420972
vt 0.752576 0.506956
vt 1.277688 0.826936
vt 1.277688 0.917176
vt 1.114950 0.826936
vt 1.440426 0.826936
vt 1.440426 0.917176
vt 1.277688 0.826936
vt -0.153131 0.258152
vt 0.309243 0.172168
vt 1.100897 0.258152
vt -0.349692 0.826936
vt -0.349692 0.917176
vt -0.512429 0.826936
vt 1.037391 0.506956
vt 0.577765 0.506956
vt 1.037391 0.420972
vt -0.186954 0.826936
vt -0.186954 0.917176
vt -0.349692 0.826936
vt -0.136375 0.420972
vt 0.366526 0.420972
vt -0.136375 0.506956
vt 0.379251 0.506956
vt 0.366526 0.420972
vt 1.117654 0.506956
vt -0.068893 0.420972
vt 0.588807 0.420972
vt -0.068893 0.506956
vt -0.186954 0.917176
vt -0.186954 0.826936
vt -0.024216 0.917176
vt -0.192594 0.420972
vt 1.161093 0.420972
vt -0.192594 0.506956
vt 0.215922 0.506956
vt 0.215922 0.420972
vt 0.752576 0.506956
vt -0.068893 0.420972
vt 1.037391 0.420972
vt -0.068893 0.506956
# num_uvs: 326

g Default_Layer
s 1

usemtl Material
f 9/1/9 5/2/5 59/3/59 
f 3/4/3 4/5/4 10/6/10 
f 11/7/11 5/8/5 9/9/9 
f 3/10/3 10/11/10 1/12/1 
f 4/13/4 1/14/1 2/15/2 
f 7/16/7 11/17/11 61/18/61 
f 8/19/8 1/20/1 6/21/6 
f 10/22/10 6/23/6 1/24/1 
f 9/25/9 16/26/16 11/27/11 
f 12/28/12 2/29/2 8/30/8 
f 12/31/12 10/32/10 4/33/4 
f 11/34/11 16/35/16 61/36/61 
f 12/37/12 6/38/6 10/39/10 
f 18/40/18 13/41/13 14/42/14 
f 59/43/59 21/44/21 16/45/16 
f 18/46/18 17/47/17 13/48/13 
f 18/49/18 15/50/15 17/51/17 
f 16/52/16 21/53/21 61/54/61 
f 20/55/20 15/56/15 19/57/19 
f 22/58/22 15/59/15 14/60/14 
f 59/61/59 26/62/26 21/63/21 
f 23/64/23 17/65/17 20/66/20 
f 23/67/23 14/68/14 13/69/13 
f 21/70/21 26/71/26 61/72/61 
f 54/73/54 55/74/55 59/75/59 
f 23/76/23 19/77/19 22/78/22 
f 55/79/55 31/80/31 26/81/26 
f 28/82/28 24/83/24 32/84/32 
f 29/85/29 25/86/25 24/87/24 
f 26/88/26 31/89/31 61/90/61 
f 50/91/50 54/92/54 59/93/59 
f 27/94/27 32/95/32 30/96/30 
f 54/97/54 36/98/36 31/99/31 
f 29/100/29 30/101/30 25/102/25 
f 29/103/29 28/104/28 27/105/27 
f 31/106/31 36/107/36 61/108/61 
f 38/109/38 50/110/50 59/111/59 
f 33/112/33 24/113/24 25/114/25 
f 50/115/50 41/116/41 36/117/36 
f 33/118/33 32/119/32 24/120/24 
f 33/121/33 30/122/30 32/123/32 
f 36/124/36 41/125/41 61/126/61 
f 43/127/43 38/128/38 59/129/59 
f 40/130/40 34/131/34 37/132/37 
f 38/133/38 46/134/46 41/135/41 
f 40/136/40 37/137/37 34/138/34 35/139/35 
f 47/140/47 49/141/49 42/142/42 
f 41/143/41 46/144/46 61/145/61 
f 39/146/39 43/147/43 59/148/59 
f 48/149/48 47/150/47 42/151/42 
f 43/152/43 51/153/51 46/154/46 
f 49/155/49 47/156/47 48/157/48 
f 53/158/53 42/159/42 52/160/52 
f 46/161/46 51/162/51 61/163/61 
f 45/164/45 39/165/39 59/166/59 
f 53/167/53 49/168/49 48/169/48 
f 39/170/39 56/171/56 51/172/51 
f 53/173/53 52/174/52 42/175/42 49/176/49 
f 62/177/62 57/178/57 58/179/58 
f 51/180/51 56/181/56 61/182/61 
f 44/183/44 45/184/45 59/185/59 
f 62/186/62 58/187/58 60/188/60 
f 45/189/45 61/190/61 56/191/56 
f 64/192/64 60/193/60 57/194/57 
f 68/195/68 60/196/60 65/197/65 
f 65/198/65 60/199/60 58/200/58 
f 5/201/5 44/202/44 59/203/59 
f 68/204/68 58/205/58 57/206/57 
f 7/207/7 44/208/44 5/209/5 
f 67/210/67 71/211/71 69/212/69 
f 63/213/63 71/214/71 66/215/66 
f 66/216/66 71/217/71 70/218/70 
f 63/219/63 67/220/67 69/221/69 
f 63/222/63 70/223/70 67/224/67 
f 7/225/7 5/226/5 11/227/11 
f 3/228/3 1/229/1 4/230/4 
f 2/231/2 1/232/1 8/233/8 
f 59/234/59 16/235/16 9/236/9 
f 4/237/4 2/238/2 12/239/12 
f 8/240/8 6/241/6 12/242/12 
f 14/243/14 15/244/15 18/245/18 
f 17/246/17 15/247/15 20/248/20 
f 19/249/19 15/250/15 22/251/22 
f 55/252/55 26/253/26 59/254/59 
f 13/255/13 17/256/17 23/257/23 
f 22/258/22 14/259/14 23/260/23 
f 20/261/20 19/262/19 23/263/23 
f 54/264/54 31/265/31 55/266/55 
f 29/267/29 24/268/24 28/269/28 
f 28/270/28 32/271/32 27/272/27 
f 50/273/50 36/274/36 54/275/54 
f 27/276/27 30/277/30 29/278/29 
f 38/279/38 41/280/41 50/281/50 
f 25/282/25 30/283/30 33/284/33 
f 35/285/35 34/286/34 40/287/40 
f 43/288/43 46/289/46 38/290/38 
f 39/291/39 51/292/51 43/293/43 
f 48/294/48 42/295/42 53/296/53 
f 45/297/45 56/298/56 39/299/39 
f 64/300/64 57/301/57 62/302/62 
f 44/303/44 61/304/61 45/305/45 
f 62/306/62 60/307/60 64/308/64 
f 57/309/57 60/310/60 68/311/68 
f 65/312/65 58/313/58 68/314/68 
f 61/315/61 44/316/44 7/317/7 
f 70/318/70 71/319/71 67/320/67 
f 69/321/69 71/322/71 63/323/63 
f 66/324/66 70/325/70 63/326/63 
# num_faces: 108

