# Wavefront OBJ file
# Creator: Ultimate Unwrap3D Pro v3.27
# Website: http://www.unwrap3d.com
# Time: Thu May 05 10:21:45 2011
# num_vertices: 46
# num_vertex_normals: 46
# num_uvs: 264
# num_faces: 88
# num_groups: 1

mtllib tavern_smallbox.mtl

v -0.540700 0.000000 -0.581396
v 0.540700 0.000000 -0.581396
v -0.540700 1.081400 -0.581396
v 0.540700 1.081400 -0.581396
v -0.540700 0.000000 0.500004
v 0.509977 0.016701 0.538951
v -0.540700 1.081400 0.500004
v 0.540700 1.081400 0.500004
v 0.514341 0.898441 -0.477717
v 0.540700 0.342193 0.500004
v -0.540700 0.924800 0.500004
v -0.540700 0.342193 0.500004
v 0.540700 0.924800 0.500004
v 0.514341 0.368552 0.500004
v -0.514341 0.898441 0.500004
v -0.514341 0.368552 0.500004
v 0.514341 0.898441 0.500004
v 0.514341 0.368552 -0.477717
v -0.514341 0.898441 -0.477717
v -0.514341 0.368552 -0.477717
v -0.509977 0.016701 0.538951
v 0.540700 0.000000 0.500004
v 0.509977 0.330395 0.538951
v -0.509977 0.330395 0.538951
v 0.540700 0.925996 -0.581396
v -0.540700 0.925184 -0.581396
v 0.509977 0.134336 0.538951
v -0.509977 0.134336 0.538951
v 0.127494 0.212760 0.581396
v 0.509977 0.212760 0.538951
v -0.127494 0.134336 0.538951
v -0.509977 0.212760 0.538951
v -0.127494 0.212760 0.538951
v 0.127494 0.134336 0.538951
v 0.127494 0.212760 0.538951
v -0.127494 0.134336 0.581396
v -0.127494 0.212760 0.581396
v 0.127494 0.134336 0.581396
v 0.503908 0.645481 0.500004
v 0.495064 0.561616 -0.477717
v -0.495746 0.639360 0.500004
v -0.499893 0.555495 -0.477717
v 0.530267 0.645638 0.500004
v -0.522106 0.639204 0.500004
v 0.521423 0.552879 -0.581396
v -0.526252 0.546444 -0.581396
# num_vertices: 46

vn -0.733272 -0.467508 -0.493709
vn 0.908148 -0.281892 -0.309522
vn -0.333333 0.666667 -0.666667
vn 0.816497 0.408248 -0.408248
vn -0.490917 -0.780495 0.387077
vn 0.250912 -0.587427 0.769398
vn -0.816497 0.408248 0.408248
vn 0.333333 0.666667 0.666667
vn -0.411519 -0.388641 0.824385
vn 0.516250 0.361249 0.776521
vn -0.513343 -0.017657 0.858002
vn -0.601523 0.119350 0.789890
vn 0.514400 -0.006405 0.857526
vn -0.536924 0.232349 0.811004
vn 0.539210 -0.239377 0.807435
vn 0.590144 0.548655 0.592206
vn -0.585771 -0.557664 0.588118
vn -0.420389 0.802984 0.422480
vn 0.413733 -0.810769 0.414100
vn 0.412365 0.381724 0.827189
vn -0.265278 -0.155265 0.951588
vn 0.711037 -0.501280 0.493097
vn 0.269509 0.164261 0.948885
vn -0.260032 0.633941 0.728355
vn 0.706266 -0.020953 -0.707637
vn -0.706991 -0.008986 -0.707165
vn 0.347391 0.000000 0.937720
vn -0.347391 0.000000 0.937720
vn 0.666667 0.333333 0.666667
vn 0.347391 0.000000 0.937720
vn -0.267261 -0.534522 0.801784
vn -0.347391 0.000000 0.937720
vn -0.436436 0.218218 0.872872
vn 0.436436 -0.218218 0.872872
vn 0.267261 0.534522 0.801784
vn -0.666667 -0.333333 0.666667
vn -0.408248 0.816497 0.408248
vn 0.408248 -0.816497 0.408248
vn -0.445334 0.000794 0.895364
vn -0.797674 -0.007724 0.603040
vn 0.447105 0.000691 0.894481
vn 0.800186 -0.006392 0.599718
vn 0.896574 -0.004428 0.442872
vn -0.832762 0.006654 0.553590
vn 0.445522 -0.003736 -0.895263
vn -0.832988 -0.021307 -0.552881
# num_vertex_normals: 46

vt 0.800873 0.016182
vt 0.118123 0.365246
vt 0.118123 0.016182
vt 0.204075 0.007923
vt 0.914505 0.422267
vt 0.060860 0.422267
vt 0.824432 0.011966
vt 0.143297 0.414578
vt 0.824432 0.356152
vt 0.824432 0.019619
vt 0.143297 0.227502
vt 0.143297 0.019619
vt 0.137922 0.762824
vt 0.777924 0.027872
vt 0.848577 0.762824
vt 0.088429 0.172567
vt 0.390357 0.265427
vt 0.088429 0.265427
vt 0.848577 0.762824
vt 0.137922 0.659912
vt 0.848577 0.659912
vt 0.816711 0.578025
vt 0.165288 0.360851
vt 0.816711 0.364727
vt 0.997750 0.654511
vt 0.022125 0.630136
vt 0.973375 0.630136
vt 0.144449 0.591775
vt 0.160977 0.412790
vt 0.160977 0.575246
vt 0.204075 0.189509
vt 0.763937 0.203497
vt 0.218062 0.203497
vt 0.144907 0.230621
vt 0.120532 0.419150
vt 0.120532 0.247644
vt 0.763937 0.561823
vt 0.218062 0.061028
vt 0.763937 0.061028
vt 0.172402 0.578025
vt 0.770030 0.360851
vt 0.770030 0.578025
vt 0.218062 0.027872
vt 0.763937 0.528667
vt 0.218062 0.528667
vt 0.809597 0.242468
vt 0.211969 0.364727
vt 0.211969 0.242468
vt 0.093853 0.159383
vt 0.064177 0.265427
vt 0.064177 0.172567
vt 0.917822 0.189059
vt 0.088429 0.159383
vt 0.893570 0.159383
vt 0.888146 0.429506
vt 0.917822 0.327333
vt 0.917822 0.420193
vt 0.060860 0.422267
vt 0.890253 0.451943
vt 0.085112 0.451943
vt 0.848577 0.762824
vt 0.162627 0.659912
vt 0.848577 0.660698
vt 0.848577 0.762824
vt 0.137922 0.660698
vt 0.848577 0.660164
vt 0.823872 0.762824
vt 0.137922 0.660164
vt 0.823872 0.659912
vt 0.893570 0.420193
vt 0.591642 0.327333
vt 0.893570 0.327333
vt 0.591642 0.327333
vt 0.390357 0.265427
vt 0.591642 0.265427
vt 0.088429 0.265427
vt 0.390357 0.327333
vt 0.088429 0.327333
vt 0.893570 0.327333
vt 0.591642 0.265427
vt 0.893570 0.265427
vt 0.552203 0.489121
vt 0.392389 0.443311
vt 0.552203 0.443311
vt 0.392389 0.489121
vt 0.461298 0.443311
vt 0.392389 0.443311
vt 0.461298 0.489121
vt 0.621111 0.443311
vt 0.461298 0.443311
vt 0.621111 0.489121
vt 0.552203 0.443311
vt 0.621111 0.443311
vt 0.809597 0.578025
vt 0.211969 0.364727
vt 0.809597 0.417836
vt 0.172402 0.242468
vt 0.770030 0.360851
vt 0.172402 0.413960
vt 0.144907 0.592834
vt 0.120532 0.419150
vt 0.144907 0.419276
vt 0.144449 0.226452
vt 0.160977 0.412790
vt 0.144449 0.412692
vt 0.165288 0.242468
vt 0.816711 0.364727
vt 0.165288 0.360851
vt 0.824432 0.600320
vt 0.143297 0.418631
vt 0.824432 0.360205
vt 0.143297 0.594465
vt 0.824432 0.356152
vt 0.143297 0.414578
vt 0.800873 0.600304
vt 0.118123 0.365246
vt 0.800873 0.361184
vt 0.800873 0.361184
vt 0.118123 0.365246
vt 0.800873 0.016182
vt 0.777924 0.007923
vt 0.914505 0.422267
vt 0.204075 0.007923
vt 0.143297 0.011966
vt 0.143297 0.227502
vt 0.824432 0.011966
vt 0.143297 0.227502
vt 0.143297 0.414578
vt 0.824432 0.011966
vt 0.824432 0.360205
vt 0.143297 0.418631
vt 0.824432 0.019619
vt 0.143297 0.418631
vt 0.143297 0.227502
vt 0.824432 0.019619
vt 0.204075 0.027872
vt 0.777924 0.027872
vt 0.137922 0.762824
vt 0.893570 0.172567
vt 0.893570 0.265427
vt 0.088429 0.172567
vt 0.893570 0.265427
vt 0.591642 0.265427
vt 0.088429 0.172567
vt 0.591642 0.265427
vt 0.390357 0.265427
vt 0.088429 0.172567
vt 0.137922 0.762824
vt 0.137922 0.659912
vt 0.848577 0.762824
vt 0.165288 0.578025
vt 0.165288 0.360851
vt 0.816711 0.578025
vt -0.002250 0.654511
vt 0.022125 0.630136
vt 0.997750 0.654511
vt 0.144449 0.412692
vt 0.160977 0.412790
vt 0.144449 0.591775
vt 0.777924 0.189509
vt 0.763937 0.203497
vt 0.204075 0.189509
vt 0.144907 0.419276
vt 0.120532 0.419150
vt 0.144907 0.230621
vt 0.218062 0.561823
vt 0.218062 0.061028
vt 0.763937 0.561823
vt 0.172402 0.413960
vt 0.770030 0.360851
vt 0.172402 0.578025
vt 0.763937 0.027872
vt 0.763937 0.528667
vt 0.218062 0.027872
vt 0.809597 0.417836
vt 0.211969 0.364727
vt 0.809597 0.242468
vt 0.093853 0.429506
vt 0.064177 0.420193
vt 0.093853 0.159383
vt 0.064177 0.420193
vt 0.064177 0.327333
vt 0.093853 0.159383
vt 0.064177 0.327333
vt 0.064177 0.265427
vt 0.093853 0.159383
vt 0.064177 0.189059
vt 0.088429 0.159383
vt 0.917822 0.189059
vt 0.888146 0.159383
vt 0.917822 0.172567
vt 0.888146 0.429506
vt 0.917822 0.172567
vt 0.917822 0.265427
vt 0.888146 0.429506
vt 0.917822 0.265427
vt 0.917822 0.327333
vt 0.888146 0.429506
vt 0.914505 0.422267
vt 0.890253 0.451943
vt 0.060860 0.422267
vt 0.162627 0.762824
vt 0.162627 0.659912
vt 0.848577 0.762824
vt 0.137922 0.762824
vt 0.137922 0.660698
vt 0.848577 0.762824
vt 0.137922 0.762824
vt 0.137922 0.660164
vt 0.823872 0.762824
vt 0.088429 0.420193
vt 0.088429 0.327333
vt 0.893570 0.420193
vt 0.088429 0.327333
vt 0.390357 0.327333
vt 0.893570 0.420193
vt 0.390357 0.327333
vt 0.591642 0.327333
vt 0.893570 0.420193
vt 0.390357 0.327333
vt 0.390357 0.265427
vt 0.591642 0.327333
vt 0.390357 0.265427
vt 0.390357 0.327333
vt 0.088429 0.265427
vt 0.591642 0.327333
vt 0.591642 0.265427
vt 0.893570 0.327333
vt 0.392389 0.489121
vt 0.392389 0.443311
vt 0.552203 0.489121
vt 0.461298 0.489121
vt 0.461298 0.443311
vt 0.392389 0.489121
vt 0.621111 0.489121
vt 0.621111 0.443311
vt 0.461298 0.489121
vt 0.552203 0.489121
vt 0.552203 0.443311
vt 0.621111 0.489121
vt 0.211969 0.578025
vt 0.211969 0.364727
vt 0.809597 0.578025
vt 0.770030 0.242468
vt 0.770030 0.360851
vt 0.172402 0.242468
vt 0.120532 0.575811
vt 0.120532 0.419150
vt 0.144907 0.592834
vt 0.160977 0.242980
vt 0.160977 0.412790
vt 0.144449 0.226452
vt 0.816711 0.242468
vt 0.816711 0.364727
vt 0.165288 0.242468
vt 0.143297 0.599567
vt 0.143297 0.418631
vt 0.824432 0.600320
vt 0.824432 0.594707
vt 0.824432 0.356152
vt 0.143297 0.594465
vt 0.118123 0.600816
vt 0.118123 0.365246
vt 0.800873 0.600304
# num_uvs: 264

g Default_Layer
s 1

usemtl WoodPlanks_ornaments1
f 1/1/1 45/2/45 2/3/2 
f 1/4/1 22/5/22 5/6/5 
f 1/7/1 44/8/44 46/9/46 
f 2/10/2 10/11/10 22/12/22 
f 3/13/3 8/14/8 4/15/4 
f 21/16/21 31/17/31 28/18/28 
f 8/19/8 11/20/11 13/21/13 
f 9/22/9 42/23/42 40/24/40 
f 13/25/13 15/26/15 17/27/17 
f 11/28/11 41/29/41 15/30/15 
f 12/31/12 14/32/14 16/33/16 
f 10/34/10 39/35/39 14/36/14 
f 17/37/17 19/38/19 9/39/9 
f 15/40/15 42/41/42 19/42/19 
f 16/43/16 18/44/18 20/45/20 
f 14/46/14 40/47/40 18/48/18 
f 22/49/22 27/50/27 6/51/6 
f 10/52/10 24/53/24 23/54/23 
f 12/55/12 32/56/32 24/57/24 
f 5/58/5 6/59/6 21/60/21 
f 4/61/4 13/62/13 25/63/25 
f 3/64/3 25/65/25 26/66/26 
f 7/67/7 26/68/26 11/69/11 
f 23/70/23 35/71/35 30/72/30 
f 29/73/29 36/74/36 38/75/38 
f 28/76/28 33/77/33 32/78/32 
f 30/79/30 34/80/34 27/81/27 
f 35/82/35 37/83/37 29/84/29 
f 33/85/33 36/86/36 37/87/37 
f 31/88/31 38/89/38 36/90/36 
f 34/91/34 29/92/29 38/93/38 
f 17/94/17 40/95/40 39/96/39 
f 16/97/16 42/98/42 41/99/41 
f 13/100/13 39/101/39 43/102/43 
f 12/103/12 41/104/41 44/105/44 
f 20/106/20 40/107/40 42/108/42 
f 25/109/25 43/110/43 45/111/45 
f 11/112/11 46/113/46 44/114/44 
f 26/115/26 45/116/45 46/117/46 
f 46/118/46 45/119/45 1/120/1 
f 2/121/2 22/122/22 1/123/1 
f 5/124/5 12/125/12 1/126/1 
f 12/127/12 44/128/44 1/129/1 
f 45/130/45 43/131/43 2/132/2 
f 43/133/43 10/134/10 2/135/2 
f 7/136/7 8/137/8 3/138/3 
f 6/139/6 27/140/27 21/141/21 
f 27/142/27 34/143/34 21/144/21 
f 34/145/34 31/146/31 21/147/21 
f 7/148/7 11/149/11 8/150/8 
f 19/151/19 42/152/42 9/153/9 
f 11/154/11 15/155/15 13/156/13 
f 44/157/44 41/158/41 11/159/11 
f 10/160/10 14/161/14 12/162/12 
f 43/163/43 39/164/39 10/165/10 
f 15/166/15 19/167/19 17/168/17 
f 41/169/41 42/170/42 15/171/15 
f 14/172/14 18/173/18 16/174/16 
f 39/175/39 40/176/40 14/177/14 
f 10/178/10 23/179/23 22/180/22 
f 23/181/23 30/182/30 22/183/22 
f 30/184/30 27/185/27 22/186/22 
f 12/187/12 24/188/24 10/189/10 
f 5/190/5 21/191/21 12/192/12 
f 21/193/21 28/194/28 12/195/12 
f 28/196/28 32/197/32 12/198/12 
f 22/199/22 6/200/6 5/201/5 
f 8/202/8 13/203/13 4/204/4 
f 4/205/4 25/206/25 3/207/3 
f 3/208/3 26/209/26 7/210/7 
f 24/211/24 32/212/32 23/213/23 
f 32/214/32 33/215/33 23/216/23 
f 33/217/33 35/218/35 23/219/23 
f 37/220/37 36/221/36 29/222/29 
f 31/223/31 33/224/33 28/225/28 
f 35/226/35 34/227/34 30/228/30 
f 33/229/33 37/230/37 35/231/35 
f 31/232/31 36/233/36 33/234/33 
f 34/235/34 38/236/38 31/237/31 
f 35/238/35 29/239/29 34/240/34 
f 9/241/9 40/242/40 17/243/17 
f 20/244/20 42/245/42 16/246/16 
f 17/247/17 39/248/39 13/249/13 
f 16/250/16 41/251/41 12/252/12 
f 18/253/18 40/254/40 20/255/20 
f 13/256/13 43/257/43 25/258/25 
f 26/259/26 46/260/46 11/261/11 
f 25/262/25 45/263/45 26/264/26 
# num_faces: 88

