# Wavefront OBJ file
# Creator: Ultimate Unwrap3D Pro v3.27
# Website: http://www.unwrap3d.com
# Time: Thu May 05 10:17:49 2011
# num_vertices: 61
# num_vertex_normals: 61
# num_uvs: 354
# num_faces: 118
# num_groups: 1

mtllib tavern_candle_LOD.mtl

v -0.343451 -0.700030 -0.343451
v 0.000007 -0.700093 0.000007
v -0.485705 -0.700030 0.000007
v -0.095614 0.232567 0.000007
v 0.005807 0.900120 0.015383
v -0.067614 0.232567 -0.067614
v 0.000007 0.232567 0.095614
v -0.067614 0.232567 0.067614
v 0.033811 0.232567 -0.081614
v 0.000007 0.234002 0.310959
v -0.219874 0.234002 0.219874
v -0.164555 -0.457223 -0.164555
v -0.232710 -0.457223 0.000007
v 0.000007 -0.457223 -0.075870
v -0.064761 -0.457223 0.026829
v 0.000007 -0.067340 -0.092220
v -0.088381 -0.061992 -0.036605
v -0.343451 -0.700030 0.343451
v 0.000007 0.117640 0.192073
v 0.071424 -0.039211 -0.071424
v 0.086298 -0.067340 0.014308
v -0.164555 -0.457223 0.164555
v -0.135814 0.117640 0.135814
v 0.000007 -0.011389 0.169313
v 0.018310 -0.039211 0.093428
v -0.073217 -0.061992 0.073217
v 0.164555 -0.457223 -0.164555
v 0.064761 -0.457223 -0.026822
v 0.232710 -0.457223 0.000007
v 0.343451 -0.700030 -0.343451
v 0.485705 -0.700030 0.000007
v -0.119716 -0.011389 0.119716
v 0.133894 -0.013909 0.000007
v 0.119716 -0.011389 -0.119716
v 0.192073 0.117640 0.000007
v 0.000007 0.211253 -0.310959
v -0.219874 0.234002 -0.219874
v 0.094673 -0.013909 0.094673
v 0.135814 0.117640 -0.135814
v 0.219874 0.234002 -0.219874
v 0.310959 0.234002 0.000007
v -0.116129 0.175837 -0.116129
v 0.135814 0.117640 0.135814
v 0.000007 0.117640 -0.192073
v -0.123288 0.120193 -0.123288
v 0.095614 0.232567 0.000007
v 0.000007 -0.011389 -0.169313
v -0.119716 -0.011389 -0.119716
v 0.343451 -0.700030 0.343451
v 0.164555 -0.457223 0.164555
v 0.026829 -0.457223 0.064761
v 0.000007 -0.457223 0.232710
v 0.000007 -0.700030 0.485705
v -0.133894 -0.013909 0.000007
v 0.000007 -0.457223 -0.232710
v -0.192073 0.117640 0.000007
v 0.000007 -0.700030 -0.485705
v 0.067614 0.232567 0.067614
v 0.219874 0.234002 0.219874
v -0.164244 0.175837 0.000007
v -0.310960 0.234002 0.000007
# num_vertices: 61

vn -0.642309 -0.418184 -0.642309
vn 0.000000 -1.000000 0.000000
vn -0.989818 0.039938 -0.136625
vn -0.483347 0.875429 -0.000473
vn -0.230609 0.785259 0.574620
vn -0.209792 0.921862 -0.325819
vn -0.000653 0.871007 0.491269
vn -0.345449 0.872828 0.344727
vn 0.152650 0.870008 -0.468811
vn 0.126396 0.422974 0.897283
vn -0.545117 0.422968 0.723841
vn -0.344394 0.873376 -0.344394
vn -0.365322 0.929514 0.050443
vn 0.119039 0.891809 -0.436471
vn -0.405495 0.908266 -0.103083
vn -0.014173 -0.737542 -0.675152
vn -0.821614 -0.568294 -0.044631
vn -0.796529 0.039935 0.603281
vn 0.058045 -0.513426 0.856169
vn 0.489855 -0.842360 -0.224659
vn 0.711540 -0.702505 0.014068
vn -0.267385 0.896578 0.353064
vn -0.693752 -0.425050 0.581413
vn 0.002392 -0.566996 0.823717
vn 0.112879 -0.864090 0.490517
vn -0.221774 -0.729525 0.647000
vn 0.267395 0.896577 -0.353057
vn 0.403385 0.908209 0.111523
vn 0.365324 0.929513 -0.050433
vn 0.796542 0.039935 -0.603263
vn 0.989814 0.039938 0.136647
vn -0.602768 -0.612439 0.511457
vn 0.800280 -0.593002 0.088879
vn 0.636798 -0.644446 -0.423294
vn 0.842183 -0.538614 0.024940
vn -0.289327 0.381191 -0.878057
vn -0.684452 0.201371 -0.700696
vn 0.568588 -0.578584 0.584763
vn 0.610354 -0.471646 -0.636410
vn 0.543948 0.400993 -0.737106
vn 0.897287 0.422974 -0.126369
vn -0.700825 -0.490889 -0.517564
vn 0.589615 -0.571848 0.570390
vn -0.123546 -0.443297 -0.887820
vn -0.734026 -0.042495 -0.677790
vn 0.462448 0.884687 -0.058914
vn -0.021372 -0.401332 -0.915683
vn -0.645772 -0.566866 -0.511509
vn 0.603276 0.039936 0.796532
vn 0.353061 0.896577 0.267392
vn -0.100585 0.939925 0.326227
vn 0.050443 0.929514 0.365322
vn -0.136625 0.039938 0.989818
vn -0.858271 -0.508886 -0.066374
vn 0.000005 0.956916 -0.290364
vn -0.996292 0.011302 -0.085292
vn 0.000012 0.279167 -0.960243
vn 0.346670 0.871103 0.347850
vn 0.723830 0.422966 0.545133
vn -0.910046 -0.376762 -0.172821
vn -0.957160 -0.226380 -0.180548
# num_vertex_normals: 61

vt 0.060004 0.406380
vt 2.400189 0.406355
vt 0.645291 0.406380
vt 0.502464 0.355487
vt 0.508057 0.049805
vt 0.471214 0.355487
vt 0.549339 0.355487
vt 0.508057 0.049805
vt 0.533714 0.355487
vt 0.471214 0.355487
vt 0.508057 0.049805
vt 0.463401 0.355487
vt -0.238573 0.991209
vt 0.254863 0.392114
vt 0.693091 0.392141
vt -0.238573 0.991209
vt 0.693091 0.392141
vt 1.186479 0.991188
vt 2.668853 0.863937
vt 3.408397 0.410641
vt 3.147983 0.863940
vt 2.668853 0.863937
vt 2.408397 0.410643
vt 3.408397 0.410641
vt 1.835514 0.843954
vt 2.444956 0.943309
vt 2.034224 0.943309
vt 1.835514 0.843954
vt 2.266471 0.727830
vt 2.444956 0.943309
vt -0.998174 0.913430
vt -0.333703 0.519134
vt -0.729872 0.911865
vt -0.998174 0.913430
vt -1.004431 0.519134
vt -0.333703 0.519134
vt 1.230555 0.406380
vt 0.645291 0.406380
vt 2.400189 0.406355
vt 0.571048 0.658809
vt 0.806942 0.952884
vt -0.193058 0.952859
vt 4.546543 0.410634
vt 3.806981 0.863948
vt 3.546543 0.410634
vt 1.425318 0.758050
vt 0.783299 0.712780
vt 1.948749 0.712780
vt 4.546543 0.410634
vt 4.286091 0.863947
vt 3.806981 0.863948
vt 2.266471 0.723785
vt 2.005129 0.904123
vt 2.444956 0.939244
vt 0.571048 0.658809
vt -0.193058 0.952859
vt 0.042862 0.658786
vt 1.560729 0.591875
vt 1.560722 0.921557
vt 1.001210 0.921557
vt 0.783299 0.712780
vt 0.130382 0.758050
vt -0.646619 0.758050
vt 2.262343 0.727830
vt 2.001001 0.908179
vt 2.440828 0.943309
vt 0.075257 0.400473
vt -0.185199 0.853768
vt -0.664329 0.853770
vt 0.075257 0.400473
vt -0.664329 0.853770
vt -0.924743 0.400472
vt 1.560729 0.591875
vt 1.001210 0.921557
vt 1.001210 0.591875
vt 0.718405 0.600736
vt 0.927603 0.853992
vt -0.072397 0.853983
vt 0.718405 0.600736
vt -0.072397 0.853983
vt 0.136762 0.600741
vt 3.571656 0.406380
vt 2.986370 0.406380
vt 2.400189 0.406355
vt 1.940345 0.926840
vt 1.430324 0.985833
vt 1.430327 0.867848
vt 0.497232 0.504162
vt 0.706391 0.757404
vt -0.189010 0.630785
vt 3.239159 0.591875
vt 2.679646 0.921557
vt 2.679640 0.591875
vt 1.173443 0.984085
vt -0.192028 0.984065
vt 0.280732 0.410064
vt 1.173443 0.984085
vt 0.280732 0.410064
vt 0.700638 0.410038
vt 0.810962 0.644869
vt -0.084463 0.771508
vt 0.124788 0.518231
vt 3.239159 0.591875
vt 3.239159 0.921557
vt 2.679646 0.921557
vt -0.205669 0.966557
vt 0.464746 0.402901
vt 1.135046 0.966543
vt 0.579066 0.652749
vt -0.185014 0.946848
vt 0.050880 0.652772
vt -0.056309 0.946848
vt 0.707772 0.652749
vt 0.943691 0.946823
vt 2.120185 0.591875
vt 1.560722 0.921557
vt 1.560729 0.591875
vt 2.120185 0.591875
vt 2.120185 0.921557
vt 1.560722 0.921557
vt 0.179585 0.652772
vt 0.707772 0.652749
vt -0.056309 0.946848
vt -1.635915 0.720483
vt -1.125916 0.720483
vt -1.125916 0.829665
vt 0.579066 0.652749
vt 0.814986 0.946823
vt -0.185014 0.946848
vt 0.579063 0.660816
vt 0.814986 0.954906
vt -0.185014 0.954882
vt 0.579063 0.660816
vt -0.185014 0.954882
vt 0.050904 0.660789
vt -0.303417 0.974402
vt 0.596378 0.395790
vt 1.072959 0.974421
vt -0.303417 0.974402
vt 0.173118 0.395816
vt 0.596378 0.395790
vt 3.796316 0.596281
vt 3.796322 0.925962
vt 3.236859 0.925962
vt -0.677283 0.591875
vt -0.117765 0.921557
vt -0.677277 0.921557
vt -0.677283 0.591875
vt -0.117765 0.591875
vt -0.117765 0.921557
vt 0.463401 0.355487
vt 0.508057 0.049805
vt 0.502464 0.355487
vt 3.796316 0.596281
vt 3.236859 0.925962
vt 3.236859 0.596281
vt 0.156912 0.556470
vt 0.947713 0.809717
vt -0.052287 0.809727
vt -1.629503 0.867848
vt -0.864476 0.867848
vt -1.119485 0.985833
vt 0.662044 0.524267
vt 0.871295 0.777544
vt -0.128705 0.777542
vt 0.662044 0.524267
vt -0.128705 0.777542
vt 0.080446 0.524268
vt 2.986370 0.406380
vt 2.401106 0.406380
vt 2.400189 0.406355
vt 2.262343 0.723785
vt 1.901666 0.854456
vt 1.831425 0.634542
vt 2.341386 0.400464
vt 2.080934 0.853777
vt 1.601823 0.853778
vt 2.341386 0.400464
vt 1.601823 0.853778
vt 1.341386 0.400465
vt -0.099542 0.867848
vt -0.609464 0.985833
vt -0.864476 0.867848
vt 0.658122 0.578594
vt 0.867273 0.831868
vt -0.028102 0.705231
vt 2.401106 0.406380
vt 1.815842 0.406380
vt 2.400189 0.406355
vt 1.835514 0.638588
vt 2.266471 0.727830
vt 1.835514 0.843954
vt 1.001210 0.591875
vt 0.441748 0.921557
vt 0.441754 0.591875
vt 1.341386 0.405556
vt 2.341386 0.405558
vt 2.080930 0.858853
vt -1.119485 0.985833
vt -0.864476 0.867848
vt -0.609464 0.985833
vt 1.001210 0.591875
vt 1.001210 0.921557
vt 0.441748 0.921557
vt 1.050810 0.405549
vt 0.311262 0.858862
vt 0.050810 0.405549
vt 1.050810 0.405549
vt 0.790373 0.858863
vt 0.311262 0.858862
vt -0.117765 0.921557
vt 0.441754 0.591875
vt 0.441748 0.921557
vt -0.117765 0.921557
vt -0.117765 0.591875
vt 0.441754 0.591875
vt 0.502464 0.355487
vt 0.508057 0.049805
vt 0.533714 0.355487
vt -0.194145 0.968633
vt 0.273405 0.401018
vt 0.688535 0.401033
vt -0.194145 0.968633
vt 0.688535 0.401033
vt 1.155969 0.968619
vt 2.440828 0.939244
vt 1.901666 0.854456
vt 2.262343 0.723785
vt -0.105973 0.720483
vt -0.615915 0.829665
vt -0.615917 0.720483
vt 0.659509 0.646704
vt -0.104573 0.940821
vt 0.131350 0.646731
vt -1.125916 0.829665
vt -0.615917 0.720483
vt -0.615915 0.829665
vt -1.125916 0.829665
vt -1.125916 0.720483
vt -0.615917 0.720483
vt 0.203743 0.654761
vt 0.731930 0.654784
vt 0.967824 0.948860
vt 0.659509 0.646704
vt 0.895427 0.940797
vt -0.104573 0.940821
vt 0.603196 0.656792
vt 0.839118 0.950881
vt -0.160882 0.950858
vt -0.032176 0.948835
vt 0.203743 0.654761
vt 0.967824 0.948860
vt 2.440828 0.939244
vt 2.030096 0.939244
vt 1.901666 0.854456
vt 0.739347 0.519134
vt 0.074972 0.911865
vt 0.202839 0.519134
vt 0.603196 0.656792
vt -0.160882 0.950858
vt 0.075036 0.656764
vt 0.739347 0.519134
vt 0.477332 0.911865
vt 0.074972 0.911865
vt 0.702879 0.383403
vt -0.245732 0.993368
vt 0.256680 0.383376
vt 0.702879 0.383403
vt 1.205241 0.993347
vt -0.245732 0.993368
vt -0.226858 0.982875
vt 0.696244 0.389202
vt 1.185269 0.982890
vt -0.226858 0.982875
vt 0.262046 0.389218
vt 0.696244 0.389202
vt 0.202839 0.519134
vt 0.074972 0.911865
vt -0.729872 0.911865
vt 2.679640 0.591875
vt 2.679646 0.921557
vt 2.120185 0.921557
vt 2.679640 0.591875
vt 2.120185 0.921557
vt 2.120185 0.591875
vt 0.533714 0.355487
vt 0.508057 0.049805
vt 0.502464 0.355487
vt 0.202839 0.519134
vt -0.729872 0.911865
vt -0.333703 0.519134
vt 1.430327 0.867848
vt 1.430324 0.985833
vt 0.920402 0.985833
vt 1.430327 0.867848
vt 0.920402 0.985833
vt 0.537959 0.926840
vt 1.835514 0.634542
vt 1.835514 0.839909
vt 2.005129 0.904123
vt 1.835514 0.634542
vt 2.005129 0.904123
vt 2.266471 0.723785
vt 3.408397 0.405556
vt 3.147983 0.858855
vt 2.668853 0.858853
vt 3.408397 0.405556
vt 2.668853 0.858853
vt 2.408397 0.405558
vt 2.394814 0.406683
vt 0.060004 0.406380
vt 4.156921 0.406380
vt 4.156921 0.406380
vt 3.571656 0.406380
vt 2.400189 0.406355
vt 0.671575 0.650728
vt -0.092507 0.944845
vt 0.143416 0.650756
vt 0.671575 0.650728
vt 0.907493 0.944822
vt -0.092507 0.944845
vt 1.815842 0.406380
vt 1.230555 0.406380
vt 2.400189 0.406355
vt 1.341386 0.405556
vt 2.080930 0.858853
vt 1.601800 0.858855
vt 1.243888 0.405549
vt 0.504340 0.858862
vt 0.243888 0.405549
vt 1.243888 0.405549
vt 0.983451 0.858863
vt 0.504340 0.858862
vt 1.831425 0.638588
vt 2.001001 0.908179
vt 2.262343 0.727830
vt 1.831425 0.638588
vt 1.831425 0.843954
vt 2.001001 0.908179
vt 1.141737 0.519134
vt 0.477332 0.911865
vt 0.739347 0.519134
vt 1.141737 0.519134
vt 1.147994 0.911865
vt 0.477332 0.911865
vt 0.533714 0.355487
vt 0.508057 0.049805
vt 0.549339 0.355487
vt -0.213011 0.971354
vt 0.265018 0.390904
vt 0.689556 0.390888
vt -0.213011 0.971354
vt 0.689556 0.390888
vt 1.167703 0.971369
# num_uvs: 354

g Default_Layer
s 1

usemtl mat_candle_stick_1
f 1/1/1 2/2/2 3/3/3 
f 4/4/4 5/5/5 6/6/6 
f 7/7/7 5/8/5 8/9/8 
f 6/10/6 5/11/5 9/12/9 
f 10/13/10 7/14/7 8/15/8 
f 10/16/10 8/17/8 11/18/11 
f 12/19/12 3/20/3 13/21/13 
f 12/22/12 1/23/1 3/24/3 
f 14/25/14 13/26/13 15/27/15 
f 14/28/14 12/29/12 13/30/13 
f 16/31/16 15/32/15 17/33/17 
f 16/34/16 14/35/14 15/36/15 
f 18/37/18 3/38/3 2/39/2 
f 19/40/19 10/41/10 11/42/11 
f 18/43/18 13/44/13 3/45/3 
f 20/46/20 21/47/21 16/48/16 
f 18/49/18 22/50/22 13/51/13 
f 22/52/22 15/53/15 13/54/13 
f 19/55/19 11/56/11 23/57/23 
f 24/58/24 19/59/19 23/60/23 
f 21/61/21 25/62/25 26/63/26 
f 27/64/27 28/65/28 29/66/29 
f 30/67/30 27/68/27 29/69/29 
f 30/70/30 29/71/29 31/72/31 
f 24/73/24 23/74/23 32/75/32 
f 25/76/25 24/77/24 32/78/32 
f 25/79/25 32/80/32 26/81/26 
f 30/82/30 31/83/31 2/84/2 
f 20/85/20 33/86/33 21/87/21 
f 20/88/20 34/89/34 33/90/33 
f 34/91/34 35/92/35 33/93/33 
f 36/94/36 37/95/37 6/96/6 
f 36/97/36 6/98/6 9/99/9 
f 38/100/38 24/101/24 25/102/25 
f 34/103/34 39/104/39 35/105/35 
f 36/106/36 9/107/9 40/108/40 
f 39/109/39 41/110/41 35/111/35 
f 36/112/36 42/113/42 37/114/37 
f 38/115/38 19/116/19 24/117/24 
f 38/118/38 43/119/43 19/120/19 
f 44/121/44 42/122/42 36/123/36 
f 44/124/44 45/125/45 42/126/42 
f 39/127/39 40/128/40 41/129/41 
f 44/130/44 36/131/36 40/132/40 
f 44/133/44 40/134/40 39/135/39 
f 40/136/40 46/137/46 41/138/41 
f 40/139/40 9/140/9 46/141/46 
f 47/142/47 44/143/44 39/144/39 
f 47/145/47 45/146/45 44/147/44 
f 47/148/47 48/149/48 45/150/45 
f 9/151/9 5/152/5 46/153/46 
f 47/154/47 39/155/39 34/156/34 
f 16/157/16 48/158/48 47/159/47 
f 16/160/16 17/161/17 48/162/48 
f 16/163/16 47/164/47 34/165/34 
f 16/166/16 34/167/34 20/168/20 
f 31/169/31 49/170/49 2/171/2 
f 50/172/50 51/173/51 52/174/52 
f 49/175/49 50/176/50 52/177/52 
f 49/178/49 52/179/52 53/180/53 
f 26/181/26 54/182/54 17/183/17 
f 26/184/26 32/185/32 54/186/54 
f 49/187/49 53/188/53 2/189/2 
f 55/190/55 12/191/12 14/192/14 
f 32/193/32 56/194/56 54/195/54 
f 57/196/57 1/197/1 12/198/12 
f 48/199/48 17/200/17 54/201/54 
f 32/202/32 23/203/23 56/204/56 
f 31/205/31 50/206/50 49/207/49 
f 31/208/31 29/209/29 50/210/50 
f 45/211/45 54/212/54 56/213/56 
f 45/214/45 48/215/48 54/216/54 
f 46/217/46 5/218/5 58/219/58 
f 41/220/41 46/221/46 58/222/58 
f 41/223/41 58/224/58 59/225/59 
f 29/226/29 51/227/51 50/228/50 
f 23/229/23 60/230/60 56/231/56 
f 23/232/23 61/233/61 60/234/60 
f 42/235/42 56/236/56 60/237/60 
f 42/238/42 45/239/45 56/240/56 
f 42/241/42 60/242/60 61/243/61 
f 23/244/23 11/245/11 61/246/61 
f 35/247/35 41/248/41 59/249/59 
f 37/250/37 42/251/42 61/252/61 
f 29/253/29 28/254/28 51/255/51 
f 28/256/28 26/257/26 51/258/51 
f 35/259/35 59/260/59 43/261/43 
f 28/262/28 21/263/21 26/264/26 
f 6/265/6 61/266/61 4/267/4 
f 6/268/6 37/269/37 61/270/61 
f 11/271/11 4/272/4 61/273/61 
f 11/274/11 8/275/8 4/276/4 
f 51/277/51 26/278/26 17/279/17 
f 33/280/33 35/281/35 43/282/43 
f 33/283/33 43/284/43 38/285/38 
f 8/286/8 5/287/5 4/288/4 
f 51/289/51 17/290/17 15/291/15 
f 21/292/21 33/293/33 38/294/38 
f 21/295/21 38/296/38 25/297/25 
f 52/298/52 51/299/51 15/300/15 
f 52/301/52 15/302/15 22/303/22 
f 53/304/53 52/305/52 22/306/22 
f 53/307/53 22/308/22 18/309/18 
f 2/310/2 1/311/1 57/312/57 
f 57/313/57 30/314/30 2/315/2 
f 43/316/43 10/317/10 19/318/19 
f 43/319/43 59/320/59 10/321/10 
f 53/322/53 18/323/18 2/324/2 
f 57/325/57 12/326/12 55/327/55 
f 57/328/57 27/329/27 30/330/30 
f 57/331/57 55/332/55 27/333/27 
f 55/334/55 28/335/28 27/336/27 
f 55/337/55 14/338/14 28/339/28 
f 14/340/14 21/341/21 28/342/28 
f 14/343/14 16/344/16 21/345/21 
f 58/346/58 5/347/5 7/348/7 
f 59/349/59 58/350/58 7/351/7 
f 59/352/59 7/353/7 10/354/10 
# num_faces: 118

