# Wavefront OBJ file
# Creator: Ultimate Unwrap3D Pro v3.27
# Website: http://www.unwrap3d.com
# Time: Thu May 05 10:17:05 2011
# num_vertices: 38
# num_vertex_normals: 38
# num_uvs: 198
# num_faces: 66
# num_groups: 1

mtllib tavern_bigplate_LOD.mtl

v 0.448983 0.350590 -0.450863
v 0.452820 -0.141283 0.000000
v -0.595523 0.350590 0.000000
v -0.452743 0.350590 -0.450863
v -0.001880 -0.207346 0.000584
v -0.452743 0.263186 -0.450863
v -0.389247 -0.076363 -0.387367
v 0.319642 -0.141283 -0.321522
v -0.363460 -0.206201 0.000000
v -0.549700 -0.076363 0.000000
v 0.448983 0.263186 -0.450863
v -0.639496 0.263186 0.000000
v -0.639496 0.350590 0.000000
v 0.417889 0.350590 -0.419769
v -0.001880 -0.206201 -0.361580
v -0.257556 -0.206201 -0.255676
v 0.448983 0.263186 0.450863
v 0.591763 0.350590 0.000000
v -0.421649 0.350590 -0.419769
v 0.635736 0.350590 0.000000
v -0.257556 -0.206201 0.255676
v -0.389247 -0.076363 0.387367
v -0.452743 0.263186 0.450863
v 0.635736 0.263186 0.000000
v -0.452743 0.350590 0.450863
v -0.421649 0.350590 0.419769
v 0.448983 0.350590 0.450863
v -0.001880 0.350590 -0.593643
v -0.001880 0.350590 -0.637616
v 0.319642 -0.141283 0.321522
v -0.001880 0.263186 -0.637616
v -0.001880 -0.076363 -0.547820
v -0.001880 -0.206201 0.361580
v -0.001880 -0.076363 0.547820
v -0.001880 0.263186 0.637616
v 0.417889 0.350590 0.419769
v -0.001880 0.350590 0.637616
v -0.001880 0.350590 0.593643
# num_vertices: 38

vn 0.543712 0.731307 -0.411785
vn 0.669947 -0.737737 -0.083151
vn 0.000000 1.000000 0.000000
vn -0.411785 0.731307 -0.543712
vn 0.084709 -0.996406 0.000011
vn -0.702580 -0.129219 -0.699774
vn -0.594396 -0.579933 -0.557110
vn 0.449504 -0.730393 -0.514269
vn -0.355874 -0.933251 0.048951
vn -0.814237 -0.579933 0.026365
vn 0.687174 -0.212088 -0.694846
vn -0.991614 -0.129219 0.001984
vn -0.675639 0.731307 -0.093286
vn 0.000000 1.000000 0.000000
vn -0.007157 -0.933813 -0.357689
vn -0.286253 -0.933252 -0.217027
vn 0.712787 -0.186029 0.676260
vn 0.000000 1.000000 0.000000
vn 0.000000 1.000000 0.000000
vn 0.805885 0.581522 0.111269
vn -0.217029 -0.933251 0.286255
vn -0.557110 -0.579933 0.594396
vn -0.699774 -0.129219 0.702580
vn 0.977236 -0.212087 -0.005424
vn -0.456923 0.819431 0.346055
vn 0.000000 1.000000 0.000000
vn 0.346055 0.819431 0.456923
vn 0.000000 1.000000 0.000000
vn 0.093286 0.731307 -0.675639
vn 0.523925 -0.750802 0.402242
vn 0.024226 -0.155220 -0.987583
vn -0.048240 -0.522568 -0.851232
vn 0.052487 -0.953045 0.298247
vn 0.044879 -0.609371 0.791614
vn 0.001984 -0.129219 0.991614
vn 0.000000 1.000000 0.000000
vn -0.111269 0.581522 0.805885
vn 0.000000 1.000000 0.000000
# num_vertex_normals: 38

vt 0.651759 0.200919
vt 0.741027 0.351337
vt 0.305137 0.200919
vt 0.386869 0.036146
vt 0.632955 0.216827
vt 0.206303 0.298840
vt 0.741027 0.351337
vt 0.784068 0.685961
vt 0.215869 0.351337
vt 0.610904 0.234400
vt 0.694669 0.375547
vt 0.285647 0.234400
vt 0.712181 0.208545
vt 0.832660 0.817888
vt 0.705364 0.754896
vt 0.808651 0.770195
vt 0.941356 0.770195
vt 0.808651 1.036085
vt 0.498176 0.055729
vt 0.623405 0.227281
vt 0.264525 0.227281
vt 0.264525 0.227281
vt 0.715829 0.383018
vt 0.172101 0.383018
vt 0.172101 0.383018
vt 0.760392 0.729475
vt 0.127538 0.729475
vt 0.808651 0.238417
vt 0.941356 0.238417
vt 0.808651 0.504306
vt 0.808651 1.036085
vt 0.941356 0.770195
vt 0.941356 1.036085
vt 0.709216 0.759109
vt 0.837739 0.845539
vt 0.709821 0.739236
vt 0.632955 0.216827
vt 0.730298 0.380853
vt 0.206303 0.298840
vt 0.370689 0.044140
vt 0.659968 0.301953
vt 0.193479 0.301953
vt 0.808651 -0.293360
vt 0.941356 -0.559249
vt 0.941356 -0.293360
vt 0.808651 1.301973
vt 0.941356 1.301973
vt 0.808651 1.567862
vt 0.808651 1.567862
vt 0.941356 1.301973
vt 0.941356 1.567862
vt 0.728912 0.363622
vt 0.777032 0.737737
vt 0.141777 0.363622
vt 0.629109 0.195451
vt 0.728912 0.363622
vt 0.241579 0.195451
vt 0.530807 0.035226
vt 0.651759 0.200919
vt 0.305137 0.200919
vt 0.305137 0.200919
vt 0.741027 0.351337
vt 0.215869 0.351337
vt 0.215869 0.351337
vt 0.784068 0.685961
vt 0.172828 0.685961
vt 0.141777 0.363622
vt 0.777032 0.737737
vt 0.093656 0.737737
vt 0.808651 0.770195
vt 0.941356 0.504306
vt 0.941356 0.770195
vt 0.808651 1.301973
vt 0.941356 1.036085
vt 0.941356 1.301973
vt 0.206303 0.298840
vt 0.777232 0.745749
vt 0.110698 0.745749
vt 0.193479 0.301953
vt 0.753797 0.740556
vt 0.099650 0.740556
vt 0.808651 -0.027471
vt 0.941356 -0.027471
vt 0.808651 0.238417
vt 0.808651 1.036085
vt 0.941356 1.036085
vt 0.808651 1.301973
vt 0.694669 0.375547
vt 0.735057 0.689544
vt 0.201882 0.375547
vt 0.241579 0.195451
vt 0.728912 0.363622
vt 0.141777 0.363622
vt 0.677362 0.271700
vt 0.771252 0.710589
vt 0.162770 0.352241
vt 0.387894 0.013719
vt 0.677362 0.271700
vt 0.258366 0.191158
vt 0.258366 0.191158
vt 0.677362 0.271700
vt 0.162770 0.352241
vt 0.162770 0.352241
vt 0.771252 0.710589
vt 0.116678 0.710589
vt 0.493883 0.010205
vt 0.629109 0.195451
vt 0.241579 0.195451
vt 0.808651 0.504306
vt 0.941356 0.238417
vt 0.941356 0.504306
vt 0.808651 0.504306
vt 0.941356 0.504306
vt 0.808651 0.770195
vt 0.497407 0.078921
vt 0.610904 0.234400
vt 0.285647 0.234400
vt 0.808651 -0.027471
vt 0.941356 -0.293360
vt 0.941356 -0.027471
vt 0.808651 -0.293360
vt 0.941356 -0.293360
vt 0.808651 -0.027471
vt 0.808651 -0.559249
vt 0.941356 -0.559249
vt 0.808651 -0.293360
vt 0.623405 0.227281
vt 0.715829 0.383018
vt 0.264525 0.227281
vt 0.730298 0.380853
vt 0.777232 0.745749
vt 0.206303 0.298840
vt 0.715829 0.383018
vt 0.760392 0.729475
vt 0.172101 0.383018
vt 0.416713 0.061840
vt 0.690914 0.306213
vt 0.248741 0.306213
vt 0.659968 0.301953
vt 0.753797 0.740556
vt 0.193479 0.301953
vt 0.248741 0.306213
vt 0.779852 0.721953
vt 0.159803 0.721953
vt 0.201882 0.375547
vt 0.735057 0.689544
vt 0.161494 0.689544
vt 0.808651 0.238417
vt 0.941356 -0.027471
vt 0.941356 0.238417
vt 0.690914 0.306213
vt 0.779852 0.721953
vt 0.248741 0.306213
vt 0.285647 0.234400
vt 0.694669 0.375547
vt 0.201882 0.375547
vt 0.840079 0.198439
vt 0.832660 0.817888
vt 0.712181 0.208545
vt 0.705364 0.754896
vt 0.832660 0.817888
vt 0.703551 0.735413
vt 0.832660 0.817888
vt 0.832117 0.840925
vt 0.703551 0.735413
vt 0.832117 0.840925
vt 0.829761 0.188523
vt 0.703551 0.735413
vt 0.840079 0.198439
vt 0.712181 0.208545
vt 0.834734 0.193927
vt 0.712181 0.208545
vt 0.706519 0.164774
vt 0.834734 0.193927
vt 0.706519 0.164774
vt 0.709821 0.739236
vt 0.834734 0.193927
vt 0.703551 0.735413
vt 0.829761 0.188523
vt 0.701546 0.159370
vt 0.829761 0.188523
vt 0.839372 0.193977
vt 0.701546 0.159370
vt 0.834734 0.193927
vt 0.709821 0.739236
vt 0.837739 0.845539
vt 0.711474 0.204084
vt 0.836512 0.822101
vt 0.709216 0.759109
vt 0.701546 0.159370
vt 0.839372 0.193977
vt 0.711474 0.204084
vt 0.839372 0.193977
vt 0.836512 0.822101
vt 0.711474 0.204084
vt 0.837739 0.845539
vt 0.709216 0.759109
vt 0.836512 0.822101
# num_uvs: 198

g Default_Layer
s 1

usemtl metal_lamp
f 33/1/33 34/2/34 21/3/21 
f 5/4/5 15/5/15 8/6/8 
f 34/7/34 35/8/35 22/9/22 
f 9/10/9 10/11/10 16/12/16 
f 38/13/38 27/14/27 36/15/36 
f 23/16/23 25/17/25 12/18/12 
f 5/19/5 21/20/21 9/21/9 
f 9/22/9 22/23/22 10/24/10 
f 10/25/10 23/26/23 12/27/12 
f 17/28/17 27/29/27 35/30/35 
f 12/31/12 25/32/25 13/33/13 
f 19/34/19 13/35/13 3/36/3 
f 15/37/15 32/38/32 8/39/8 
f 5/40/5 8/41/8 2/42/2 
f 11/43/11 29/44/29 1/45/1 
f 6/46/6 4/47/4 31/48/31 
f 31/49/31 4/50/4 29/51/29 
f 7/52/7 6/53/6 32/54/32 
f 16/55/16 7/56/7 15/57/15 
f 5/58/5 33/59/33 21/60/21 
f 21/61/21 34/62/34 22/63/22 
f 22/64/22 35/65/35 23/66/23 
f 32/67/32 6/68/6 31/69/31 
f 23/70/23 37/71/37 25/72/25 
f 6/73/6 13/74/13 4/75/4 
f 8/76/8 31/77/31 11/78/11 
f 2/79/2 11/80/11 24/81/24 
f 24/82/24 20/83/20 17/84/17 
f 12/85/12 13/86/13 6/87/6 
f 10/88/10 12/89/12 7/90/7 
f 15/91/15 7/92/7 32/93/32 
f 30/94/30 17/95/17 34/96/34 
f 5/97/5 30/98/30 33/99/33 
f 33/100/33 30/101/30 34/102/34 
f 34/103/34 17/104/17 35/105/35 
f 5/106/5 16/107/16 15/108/15 
f 35/109/35 27/110/27 37/111/37 
f 35/112/35 37/113/37 23/114/23 
f 5/115/5 9/116/9 16/117/16 
f 24/118/24 1/119/1 20/120/20 
f 11/121/11 1/122/1 24/123/24 
f 31/124/31 29/125/29 11/126/11 
f 21/127/21 22/128/22 9/129/9 
f 32/130/32 31/131/31 8/132/8 
f 22/133/22 23/134/23 10/135/10 
f 5/136/5 2/137/2 30/138/30 
f 8/139/8 11/140/11 2/141/2 
f 30/142/30 24/143/24 17/144/17 
f 7/145/7 12/146/12 6/147/6 
f 17/148/17 20/149/20 27/150/27 
f 2/151/2 24/152/24 30/153/30 
f 16/154/16 10/155/10 7/156/7 
f 37/157/37 27/158/27 38/159/38 
f 36/160/36 27/161/27 18/162/18 
f 27/163/27 20/164/20 18/165/18 
f 20/166/20 1/167/1 18/168/18 
f 37/169/37 38/170/38 25/171/25 
f 38/172/38 26/173/26 25/174/25 
f 26/175/26 3/176/3 25/177/25 
f 18/178/18 1/179/1 14/180/14 
f 1/181/1 29/182/29 14/183/14 
f 25/184/25 3/185/3 13/186/13 
f 28/187/28 4/188/4 19/189/19 
f 14/190/14 29/191/29 28/192/28 
f 29/193/29 4/194/4 28/195/28 
f 13/196/13 19/197/19 4/198/4 
# num_faces: 66

