# Wavefront OBJ file
# Creator: Ultimate Unwrap3D Pro v3.27
# Website: http://www.unwrap3d.com
# Time: Thu May 05 10:19:49 2011
# num_vertices: 74
# num_vertex_normals: 74
# num_uvs: 396
# num_faces: 132
# num_groups: 1

mtllib tavern_cup2_LOD.mtl

v 0.113672 0.153986 0.047084
v 0.202391 0.376209 0.083833
v -0.047084 0.153986 0.113672
v 0.000000 0.376209 -0.237115
v 0.091775 0.598430 -0.091775
v -0.702915 -0.304130 0.000000
v -0.094169 -0.081908 0.094169
v -0.133175 -0.081908 0.000000
v -0.133175 0.153986 0.000000
v -0.083833 0.376209 0.202391
v -0.202391 0.376209 -0.083833
v -0.091775 0.598430 0.091775
v -0.129789 0.598430 0.000000
v -0.460243 0.915455 0.460243
v -0.650882 0.915455 0.000000
v -0.702915 -0.474244 0.000000
v -0.497036 -0.304130 0.497036
v -0.535684 1.318883 0.535684
v -0.757571 1.318883 0.000000
v -0.497036 -0.474244 0.497036
v 0.000000 -0.304130 0.702915
v -0.535684 1.422730 0.535684
v -0.757571 1.422730 0.000000
v -0.472910 1.422730 0.472910
v -0.668795 1.422730 0.000000
v 0.094169 0.153986 -0.094169
v 0.460243 0.915455 -0.460243
v 0.535684 1.318883 -0.535684
v 0.650882 0.915455 0.000000
v 0.129789 0.598430 0.000000
v 0.091775 0.598430 0.091775
v 0.000000 -0.081908 0.133175
v 0.000000 -0.474244 0.702915
v 0.497036 -0.304130 0.497036
v 0.497036 -0.474244 0.497036
v 0.702915 -0.304130 0.000000
v 0.000000 0.598430 0.129789
v 0.000000 0.915455 0.650882
v 0.702915 -0.474244 0.000000
v 0.497036 -0.304130 -0.497036
v 0.000000 1.318883 0.757571
v 0.497036 -0.474244 -0.497036
v 0.000000 -0.304130 -0.702915
v 0.000000 1.422730 0.757571
v 0.000000 1.422730 0.668795
v 0.094169 -0.081908 -0.094169
v 0.133175 -0.081908 0.000000
v 0.757571 1.318883 0.000000
v 0.460243 0.915455 0.460243
v -0.535684 1.318883 -0.535684
v 0.094169 -0.081908 0.094169
v 0.000000 -0.474244 -0.702915
v -0.497036 -0.304130 -0.497036
v 0.535684 1.318883 0.535684
v -0.497036 -0.474244 -0.497036
v 0.535684 1.422730 0.535684
v 0.472910 1.422730 0.472910
v -0.094169 0.153986 -0.094169
v -0.094169 -0.081908 -0.094169
v -0.091775 0.598430 -0.091775
v 0.757571 1.422730 0.000000
v 0.668795 1.422730 0.000000
v -0.535684 1.422730 -0.535684
v -0.472910 1.422730 -0.472910
v 0.000000 1.422730 -0.757571
v 0.000000 1.318883 -0.757571
v 0.535684 1.422730 -0.535684
v 0.472910 1.422730 -0.472910
v 0.000000 -0.081908 -0.133175
v 0.000000 0.153986 -0.133175
v -0.460243 0.915455 -0.460243
v 0.000000 0.915455 -0.650882
v 0.000000 0.598430 -0.129789
v 0.000000 1.422730 -0.668795
# num_vertices: 74

vn 0.900260 0.035921 0.433868
vn 0.942724 -0.022541 0.332810
vn -0.316167 -0.115473 0.941650
vn 0.326012 0.072741 -0.942563
vn 0.649121 -0.415285 -0.637323
vn -0.811341 0.582492 -0.049285
vn -0.524485 0.706631 0.474961
vn -0.782968 0.614762 0.095019
vn -0.982145 -0.169198 0.082239
vn -0.346579 0.017433 0.937859
vn -0.948159 -0.007770 -0.317703
vn -0.680298 -0.391670 0.619508
vn -0.858789 -0.508495 0.062569
vn -0.540396 -0.606335 0.583378
vn -0.794628 -0.606335 0.030393
vn -0.990602 0.000000 0.136774
vn -0.608554 0.582491 0.538856
vn -0.699774 -0.129219 0.702580
vn -0.991614 -0.129219 0.001984
vn -0.603748 0.000000 0.797175
vn -0.049285 0.582492 0.811341
vn -0.543712 0.731307 0.411786
vn -0.675639 0.731307 -0.093286
vn 0.000000 1.000000 0.000000
vn 0.000000 1.000000 0.000000
vn 0.828614 0.006197 -0.559786
vn 0.540396 -0.606335 -0.583378
vn 0.699774 -0.129219 -0.702580
vn 0.794628 -0.606335 -0.030393
vn 0.858789 -0.508495 -0.062569
vn 0.619508 -0.391670 0.680298
vn 0.045839 0.624420 0.779743
vn 0.136774 0.000000 0.990602
vn 0.538856 0.582491 0.608554
vn 0.797175 0.000000 0.603748
vn 0.811341 0.582492 0.049285
vn 0.062569 -0.508495 0.858789
vn 0.030393 -0.606335 0.794628
vn 0.990602 0.000000 -0.136774
vn 0.608554 0.582491 -0.538856
vn 0.001984 -0.129219 0.991614
vn 0.603748 0.000000 -0.797175
vn 0.049285 0.582492 -0.811341
vn -0.093286 0.731307 0.675639
vn 0.000000 1.000000 0.000000
vn 0.538855 0.582492 -0.608554
vn 0.805945 0.591984 0.002654
vn 0.991614 -0.129219 -0.001984
vn 0.583378 -0.606335 0.540396
vn -0.702580 -0.129219 -0.699774
vn 0.474961 0.706631 0.524485
vn -0.136774 0.000000 -0.990602
vn -0.538856 0.582491 -0.608554
vn 0.702580 -0.129219 0.699774
vn -0.797175 0.000000 -0.603748
vn 0.411786 0.731307 0.543712
vn 0.000000 1.000000 0.000000
vn -0.636084 -0.117486 -0.762623
vn -0.608554 0.582492 -0.538855
vn -0.681414 -0.324109 -0.656223
vn 0.675639 0.731307 0.093286
vn 0.000000 1.000000 0.000000
vn -0.411786 0.731307 -0.543712
vn 0.000000 1.000000 0.000000
vn 0.093286 0.731307 -0.675639
vn -0.001984 -0.129219 -0.991614
vn 0.543712 0.731307 -0.411786
vn 0.000000 1.000000 0.000000
vn -0.049284 0.582491 -0.811341
vn -0.039284 -0.165685 -0.985396
vn -0.583378 -0.606335 -0.540396
vn -0.030393 -0.606335 -0.794628
vn -0.057891 -0.465007 -0.883412
vn 0.000000 1.000000 0.000000
# num_vertex_normals: 74

vt 0.838772 0.514638
vt 0.707454 0.514638
vt 0.838772 0.432155
vt 0.716026 0.351541
vt 0.830199 0.390418
vt 0.716026 0.448733
vt 0.326352 0.675644
vt 0.827854 0.577615
vt 0.827854 0.675644
vt 0.341618 0.673666
vt 0.821209 0.591256
vt 0.821209 0.673666
vt 0.838772 0.370293
vt 0.707454 0.432155
vt 0.707454 0.349673
vt 0.716026 0.604240
vt 0.830199 0.545925
vt 0.830199 0.584802
vt 0.389754 0.055729
vt 0.715829 0.383018
vt 0.172101 0.383018
vt 0.949987 0.968119
vt 0.812510 0.968119
vt 0.949987 0.732470
vt 0.172101 0.383018
vt 0.760392 0.729475
vt 0.127538 0.729475
vt 0.949987 0.732470
vt 0.812510 0.732470
vt 0.949987 0.496821
vt 0.808651 1.036085
vt 0.941356 0.770195
vt 0.941356 1.036085
vt 0.837739 0.845539
vt 0.706519 0.164774
vt 0.709172 0.740027
vt 0.838772 0.576500
vt 0.707454 0.617742
vt 0.838772 0.514638
vt 0.707735 0.382441
vt 0.753797 0.740556
vt 0.145712 0.382441
vt 0.522941 0.061840
vt 0.736191 0.382506
vt 0.416713 0.061840
vt 0.326352 0.577615
vt 0.827854 0.479586
vt 0.827854 0.577615
vt 0.949987 0.496821
vt 0.812511 0.496821
vt 0.949987 0.261172
vt 0.949987 0.261172
vt 0.812511 0.261172
vt 0.949987 0.025523
vt 0.716026 0.526487
vt 0.830199 0.507048
vt 0.830199 0.545925
vt 0.426089 0.035226
vt 0.741027 0.351337
vt 0.215869 0.351337
vt 0.949987 0.025523
vt 0.812511 0.025523
vt 0.949987 -0.210126
vt 0.215869 0.351337
vt 0.784068 0.685961
vt 0.172828 0.685961
vt 0.949987 -0.210126
vt 0.812511 -0.210126
vt 0.949987 -0.445776
vt 0.808651 0.770195
vt 0.941356 0.504306
vt 0.941356 0.770195
vt 0.834939 0.822225
vt 0.712181 0.208545
vt 0.707643 0.759233
vt 0.341618 0.398968
vt 0.821209 0.398968
vt 0.341618 0.453908
vt 0.736191 0.382506
vt 0.779852 0.721953
vt 0.203464 0.382506
vt 0.808651 1.036085
vt 0.941356 1.036085
vt 0.808651 1.301973
vt 0.326352 0.479586
vt 0.827854 0.381556
vt 0.827854 0.479586
vt 0.341618 0.563787
vt 0.821209 0.481377
vt 0.821209 0.591256
vt 0.838772 0.432155
vt 0.707454 0.514638
vt 0.707454 0.432155
vt 0.716026 0.526487
vt 0.830199 0.468171
vt 0.830199 0.507048
vt 0.387894 0.013719
vt 0.725160 0.352241
vt 0.162770 0.352241
vt 0.949987 1.439417
vt 0.812510 1.439417
vt 0.949987 1.203768
vt 0.162770 0.352241
vt 0.771252 0.710589
vt 0.116678 0.710589
vt 0.949987 1.203768
vt 0.812510 1.203768
vt 0.949987 0.968119
vt 0.808651 0.504306
vt 0.941356 0.238417
vt 0.941356 0.504306
vt 0.837799 0.194102
vt 0.705364 0.754896
vt 0.709901 0.204208
vt 0.500036 0.013719
vt 0.725160 0.352241
vt 0.387894 0.013719
vt 0.716026 0.448733
vt 0.830199 0.468171
vt 0.716026 0.526487
vt 0.326352 0.185498
vt 0.827854 0.185498
vt 0.326352 0.283527
vt 0.326352 0.381556
vt 0.827854 0.283527
vt 0.827854 0.381556
vt 0.838772 0.370293
vt 0.707454 0.349673
vt 0.838772 0.329052
vt 0.341618 0.673666
vt 0.821209 0.673666
vt 0.341618 0.728605
vt 0.716026 0.448733
vt 0.830199 0.429295
vt 0.830199 0.468171
vt 0.416713 0.061840
vt 0.736191 0.382506
vt 0.203464 0.382506
vt 0.326352 0.675644
vt 0.827854 0.675644
vt 0.326352 0.773673
vt 0.203464 0.382506
vt 0.779852 0.721953
vt 0.159803 0.721953
vt 0.497407 0.078921
vt 0.694669 0.375547
vt 0.399143 0.078921
vt 0.808651 0.238417
vt 0.941356 -0.027471
vt 0.941356 0.238417
vt 0.829112 0.189313
vt 0.703551 0.735413
vt 0.700897 0.160160
vt 0.832660 0.817888
vt 0.705364 0.754896
vt 0.837799 0.194102
vt 0.832117 0.840925
vt 0.703551 0.735413
vt 0.829112 0.189313
vt 0.808651 -0.027471
vt 0.941356 -0.027471
vt 0.808651 0.238417
vt 0.326352 0.283527
vt 0.827854 0.185498
vt 0.827854 0.283527
vt 0.341618 0.453908
vt 0.821209 0.398968
vt 0.821209 0.481377
vt 0.838772 0.514638
vt 0.707454 0.617742
vt 0.707454 0.514638
vt 0.716026 0.448733
vt 0.830199 0.390418
vt 0.830199 0.429295
vt 0.370689 0.044140
vt 0.707735 0.382441
vt 0.145712 0.382441
vt 0.836512 0.822101
vt 0.709216 0.759109
vt 0.841652 0.198314
vt 0.145712 0.382441
vt 0.753797 0.740556
vt 0.099650 0.740556
vt 0.808651 1.301973
vt 0.941356 1.301973
vt 0.808651 1.567862
vt 0.808651 -0.027471
vt 0.941356 -0.293360
vt 0.941356 -0.027471
vt 0.832766 0.840135
vt 0.701546 0.159370
vt 0.704200 0.734623
vt 0.808651 0.238417
vt 0.941356 0.238417
vt 0.808651 0.504306
vt 0.835383 0.193136
vt 0.709821 0.739236
vt 0.707168 0.163983
vt 0.808651 1.301973
vt 0.941356 1.036085
vt 0.941356 1.301973
vt 0.326352 0.185498
vt 0.827854 0.087469
vt 0.827854 0.185498
vt 0.341618 0.398968
vt 0.821209 0.344029
vt 0.821209 0.398968
vt 0.728912 0.363622
vt 0.777032 0.737737
vt 0.141777 0.363622
vt 0.716026 0.351541
vt 0.830199 0.351541
vt 0.830199 0.390418
vt 0.386869 0.036146
vt 0.730298 0.380853
vt 0.157632 0.380853
vt 0.493883 0.010205
vt 0.728912 0.363622
vt 0.376806 0.010205
vt 0.157632 0.380853
vt 0.777232 0.745749
vt 0.110698 0.745749
vt 0.716026 0.604240
vt 0.830199 0.623679
vt 0.716026 0.662555
vt 0.808651 -0.293360
vt 0.941356 -0.559249
vt 0.941356 -0.293360
vt 0.834233 0.817764
vt 0.711474 0.204084
vt 0.706937 0.754772
vt 0.808651 -0.293360
vt 0.941356 -0.293360
vt 0.808651 -0.027471
vt 0.838772 0.329052
vt 0.707454 0.349673
vt 0.838772 0.287811
vt 0.201882 0.375547
vt 0.735057 0.689544
vt 0.161494 0.689544
vt 0.326352 0.871702
vt 0.827854 0.773673
vt 0.827854 0.871702
vt 0.341618 0.783544
vt 0.821209 0.728605
vt 0.821209 0.783544
vt 0.838772 0.287811
vt 0.707454 0.349673
vt 0.707454 0.287811
vt 0.716026 0.662555
vt 0.830199 0.623679
vt 0.830199 0.662555
vt 0.376806 0.010205
vt 0.728912 0.363622
vt 0.141777 0.363622
vt 0.341618 0.728605
vt 0.821209 0.728605
vt 0.341618 0.783544
vt 0.141777 0.363622
vt 0.777032 0.737737
vt 0.093656 0.737737
vt 0.326352 0.773673
vt 0.827854 0.773673
vt 0.326352 0.871702
vt 0.808651 1.567862
vt 0.941356 1.301973
vt 0.941356 1.567862
vt 0.841652 0.198314
vt 0.709216 0.759109
vt 0.713754 0.208421
vt 0.829761 0.188523
vt 0.701546 0.159370
vt 0.832766 0.840135
vt 0.694669 0.375547
vt 0.735057 0.689544
vt 0.201882 0.375547
vt 0.399143 0.078921
vt 0.694669 0.375547
vt 0.201882 0.375547
vt 0.326352 0.773673
vt 0.827854 0.675644
vt 0.827854 0.773673
vt 0.341618 0.728605
vt 0.821209 0.673666
vt 0.821209 0.728605
vt 0.839372 0.193977
vt 0.711474 0.204084
vt 0.834233 0.817764
vt 0.716026 0.604240
vt 0.830199 0.584802
vt 0.830199 0.623679
vt 0.949987 0.968119
vt 0.812510 1.203768
vt 0.812510 0.968119
vt 0.949987 1.203768
vt 0.812510 1.439417
vt 0.812510 1.203768
vt 0.949987 -0.445776
vt 0.812511 -0.210126
vt 0.812511 -0.445776
vt 0.949987 -0.210126
vt 0.812511 0.025523
vt 0.812511 -0.210126
vt 0.949987 0.025523
vt 0.812511 0.261172
vt 0.812511 0.025523
vt 0.949987 0.261172
vt 0.812511 0.496821
vt 0.812511 0.261172
vt 0.949987 0.496821
vt 0.812510 0.732470
vt 0.812511 0.496821
vt 0.949987 0.732470
vt 0.812510 0.968119
vt 0.812510 0.732470
vt 0.341618 0.508847
vt 0.821209 0.481377
vt 0.341618 0.563787
vt 0.326352 0.381556
vt 0.827854 0.381556
vt 0.326352 0.479586
vt 0.725160 0.352241
vt 0.771252 0.710589
vt 0.162770 0.352241
vt 0.838388 0.844748
vt 0.709821 0.739236
vt 0.835383 0.193136
vt 0.840079 0.198439
vt 0.712181 0.208545
vt 0.834939 0.822225
vt 0.482758 0.044140
vt 0.707735 0.382441
vt 0.370689 0.044140
vt 0.326352 0.577615
vt 0.827854 0.577615
vt 0.326352 0.675644
vt 0.341618 0.618726
vt 0.821209 0.591256
vt 0.341618 0.673666
vt 0.838772 0.432155
vt 0.707454 0.432155
vt 0.838772 0.370293
vt 0.716026 0.526487
vt 0.830199 0.545925
vt 0.716026 0.604240
vt 0.498176 0.055729
vt 0.715829 0.383018
vt 0.389754 0.055729
vt 0.808651 -0.559249
vt 0.941356 -0.559249
vt 0.808651 -0.293360
vt 0.715829 0.383018
vt 0.760392 0.729475
vt 0.172101 0.383018
vt 0.730298 0.380853
vt 0.777232 0.745749
vt 0.157632 0.380853
vt 0.808651 0.770195
vt 0.941356 0.770195
vt 0.808651 1.036085
vt 0.834734 0.193927
vt 0.706519 0.164774
vt 0.837739 0.845539
vt 0.341618 0.453908
vt 0.821209 0.481377
vt 0.341618 0.508847
vt 0.326352 0.283527
vt 0.827854 0.283527
vt 0.326352 0.381556
vt 0.326352 0.479586
vt 0.827854 0.479586
vt 0.326352 0.577615
vt 0.341618 0.563787
vt 0.821209 0.591256
vt 0.341618 0.618726
vt 0.501061 0.036146
vt 0.730298 0.380853
vt 0.386869 0.036146
vt 0.838772 0.617742
vt 0.707454 0.617742
vt 0.838772 0.576500
vt 0.530807 0.035226
vt 0.741027 0.351337
vt 0.426089 0.035226
vt 0.341618 0.344029
vt 0.821209 0.344029
vt 0.341618 0.398968
vt 0.741027 0.351337
vt 0.784068 0.685961
vt 0.215869 0.351337
vt 0.326352 0.087469
vt 0.827854 0.087469
vt 0.326352 0.185498
vt 0.808651 0.504306
vt 0.941356 0.504306
vt 0.808651 0.770195
# num_uvs: 396

g Default_Layer
s 1

usemtl metal_lamp
f 1/1/1 2/2/2 3/3/3 
f 4/4/4 5/5/5 2/6/2 
f 6/7/6 7/8/7 8/9/8 
f 8/10/8 3/11/3 9/12/9 
f 9/13/9 10/14/10 11/15/11 
f 11/16/11 12/17/12 13/18/13 
f 13/19/13 14/20/14 15/21/15 
f 6/22/6 16/23/16 17/24/17 
f 15/25/15 18/26/18 19/27/19 
f 17/28/17 20/29/20 21/30/21 
f 19/31/19 22/32/22 23/33/23 
f 23/34/23 24/35/24 25/36/25 
f 26/37/26 4/38/4 1/39/1 
f 27/40/27 28/41/28 29/42/29 
f 30/43/30 29/44/29 31/45/31 
f 17/46/17 32/47/32 7/48/7 
f 21/49/21 33/50/33 34/51/34 
f 34/52/34 35/53/35 36/54/36 
f 10/55/10 37/56/37 12/57/12 
f 12/58/12 38/59/38 14/60/14 
f 36/61/36 39/62/39 40/63/40 
f 14/64/14 41/65/41 18/66/18 
f 40/67/40 42/68/42 43/69/43 
f 18/70/18 44/71/44 22/72/22 
f 22/73/22 45/74/45 24/75/24 
f 46/76/46 26/77/26 47/78/47 
f 29/79/29 48/80/48 49/81/49 
f 19/82/19 23/83/23 50/84/50 
f 21/85/21 51/86/51 32/87/32 
f 32/88/32 1/89/1 3/90/3 
f 3/91/3 2/92/2 10/93/10 
f 10/94/10 31/95/31 37/96/37 
f 37/97/37 49/98/49 38/99/38 
f 43/100/43 52/101/52 53/102/53 
f 38/103/38 54/104/54 41/105/41 
f 53/106/53 55/107/55 6/108/6 
f 41/109/41 56/110/56 44/111/44 
f 44/112/44 57/113/57 45/114/45 
f 31/115/31 49/116/49 37/117/37 
f 2/118/2 31/119/31 10/120/10 
f 40/121/40 46/122/46 36/123/36 
f 34/124/34 47/125/47 51/126/51 
f 9/127/9 11/128/11 58/129/58 
f 8/130/8 9/131/9 59/132/59 
f 2/133/2 30/134/30 31/135/31 
f 31/136/31 29/137/29 49/138/49 
f 6/139/6 8/140/8 53/141/53 
f 49/142/49 48/143/48 54/144/54 
f 13/145/13 15/146/15 60/147/60 
f 54/148/54 61/149/61 56/150/56 
f 56/151/56 62/152/62 57/153/57 
f 56/154/56 57/155/57 44/156/44 
f 61/157/61 62/158/62 56/159/56 
f 48/160/48 61/161/61 54/162/54 
f 36/163/36 46/164/46 47/165/47 
f 47/166/47 26/167/26 1/168/1 
f 1/169/1 4/170/4 2/171/2 
f 2/172/2 5/173/5 30/174/30 
f 30/175/30 27/176/27 29/177/29 
f 63/178/63 64/179/64 65/180/65 
f 29/181/29 28/182/28 48/183/48 
f 50/184/50 63/185/63 66/186/66 
f 48/187/48 67/188/67 61/189/61 
f 61/190/61 68/191/68 62/192/62 
f 54/193/54 56/194/56 41/195/41 
f 63/196/63 25/197/25 64/198/64 
f 50/199/50 23/200/23 63/201/63 
f 40/202/40 69/203/69 46/204/46 
f 46/205/46 70/206/70 26/207/26 
f 71/208/71 50/209/50 72/210/72 
f 4/211/4 73/212/73 5/213/5 
f 5/214/5 72/215/72 27/216/27 
f 60/217/60 71/218/71 73/219/73 
f 27/220/27 66/221/66 28/222/28 
f 11/223/11 60/224/60 4/225/4 
f 28/226/28 65/227/65 67/228/67 
f 67/229/67 74/230/74 68/231/68 
f 28/232/28 67/233/67 48/234/48 
f 58/235/58 11/236/11 70/237/70 
f 71/238/71 19/239/19 50/240/50 
f 43/241/43 59/242/59 69/243/69 
f 69/244/69 58/245/58 70/246/70 
f 70/247/70 11/248/11 4/249/4 
f 4/250/4 60/251/60 73/252/73 
f 73/253/73 71/254/71 72/255/72 
f 59/256/59 58/257/58 69/258/69 
f 72/259/72 50/260/50 66/261/66 
f 53/262/53 59/263/59 43/264/43 
f 66/265/66 63/266/63 65/267/65 
f 65/268/65 64/269/64 74/270/74 
f 67/271/67 68/272/68 61/273/61 
f 15/274/15 19/275/19 71/276/71 
f 60/277/60 15/278/15 71/279/71 
f 53/280/53 8/281/8 59/282/59 
f 59/283/59 9/284/9 58/285/58 
f 65/286/65 74/287/74 67/288/67 
f 11/289/11 13/290/13 60/291/60 
f 6/292/6 55/293/55 16/294/16 
f 53/295/53 52/296/52 55/297/55 
f 43/298/43 42/299/42 52/300/52 
f 40/301/40 39/302/39 42/303/42 
f 36/304/36 35/305/35 39/306/39 
f 34/307/34 33/308/33 35/309/35 
f 21/310/21 20/311/20 33/312/33 
f 17/313/17 16/314/16 20/315/20 
f 51/316/51 1/317/1 32/318/32 
f 34/319/34 51/320/51 21/321/21 
f 49/322/49 54/323/54 38/324/38 
f 23/325/23 25/326/25 63/327/63 
f 44/328/44 45/329/45 22/330/22 
f 5/331/5 27/332/27 30/333/30 
f 17/334/17 7/335/7 6/336/6 
f 7/337/7 3/338/3 8/339/8 
f 3/340/3 10/341/10 9/342/9 
f 10/343/10 12/344/12 11/345/11 
f 12/346/12 14/347/14 13/348/13 
f 66/349/66 65/350/65 28/351/28 
f 14/352/14 18/353/18 15/354/15 
f 72/355/72 66/356/66 27/357/27 
f 18/358/18 22/359/22 19/360/19 
f 22/361/22 24/362/24 23/363/23 
f 47/364/47 1/365/1 51/366/51 
f 36/367/36 47/368/47 34/369/34 
f 21/370/21 32/371/32 17/372/17 
f 32/373/32 3/374/3 7/375/7 
f 73/376/73 72/377/72 5/378/5 
f 70/379/70 4/380/4 26/381/26 
f 37/382/37 38/383/38 12/384/12 
f 69/385/69 70/386/70 46/387/46 
f 38/388/38 41/389/41 14/390/14 
f 43/391/43 69/392/69 40/393/40 
f 41/394/41 44/395/44 18/396/18 
# num_faces: 132

