# Wavefront OBJ file
# Creator: Ultimate Unwrap3D Pro v3.27
# Website: http://www.unwrap3d.com
# Time: Thu May 05 10:16:58 2011
# num_vertices: 58
# num_vertex_normals: 58
# num_uvs: 336
# num_faces: 112
# num_groups: 1

mtllib tavern_bigplate.mtl

v -0.419769 0.016977 -0.419769
v 0.000000 -0.189932 0.000000
v 0.000000 0.016977 -0.593643
v -0.450863 0.348710 -0.450863
v -0.450863 0.261306 -0.450863
v -0.450863 0.108792 -0.450863
v -0.387367 -0.078243 -0.387367
v 0.255676 -0.208081 -0.255676
v -0.361580 -0.208081 0.000000
v -0.547820 -0.078243 0.000000
v -0.637616 0.108792 0.000000
v -0.637616 0.261306 0.000000
v -0.637616 0.348710 0.000000
v -0.593643 0.016977 0.000000
v 0.419769 0.016977 -0.419769
v -0.255676 -0.208081 -0.255676
v -0.419769 0.016977 0.419769
v 0.593643 0.348710 0.000000
v -0.419769 0.348710 -0.419769
v 0.637616 0.348710 0.000000
v -0.255676 -0.208081 0.255676
v -0.387367 -0.078243 0.387367
v -0.450863 0.108792 0.450863
v -0.450863 0.261306 0.450863
v -0.450863 0.348710 0.450863
v -0.419769 0.348710 0.419769
v 0.593643 0.016977 0.000000
v 0.000000 0.348710 -0.593643
v 0.000000 0.348710 -0.637616
v 0.000000 0.261306 -0.637616
v 0.000000 0.108792 -0.637616
v 0.000000 -0.078243 -0.547820
v 0.000000 -0.208081 0.361580
v 0.000000 -0.078243 0.547820
v 0.000000 0.108792 0.637616
v 0.000000 0.261306 0.637616
v 0.000000 0.348710 0.637616
v 0.000000 0.348710 0.593643
v 0.419769 0.016977 0.419769
v 0.000000 -0.208081 -0.361580
v -0.593643 0.348710 0.000000
v 0.419769 0.348710 -0.419769
v 0.450863 0.348710 -0.450863
v 0.637616 0.261306 0.000000
v 0.255676 -0.208081 0.255676
v 0.387367 -0.078243 0.387367
v 0.450863 0.108792 0.450863
v 0.450863 0.261306 0.450863
v 0.450863 0.348710 0.450863
v 0.419769 0.348710 0.419769
v 0.000000 0.016977 0.593643
v 0.637616 0.108792 0.000000
v 0.450863 0.261306 -0.450863
v 0.450863 0.108792 -0.450863
v 0.387367 -0.078243 -0.387367
v 0.000000 -0.209226 0.000584
v 0.361580 -0.208081 0.000000
v 0.547820 -0.078243 0.000000
# num_vertices: 58

vn 0.548500 0.477295 0.686540
vn 0.000000 1.000000 0.000000
vn -0.097609 0.477294 0.873306
vn -0.411785 0.731307 -0.543712
vn -0.707107 0.000000 -0.707107
vn -0.693480 -0.223477 -0.684940
vn -0.551439 -0.651519 -0.520997
vn 0.217027 -0.933252 -0.286253
vn -0.355874 -0.933251 0.048951
vn -0.758327 -0.651519 0.021526
vn -0.974690 -0.223477 0.006038
vn -1.000000 0.000000 -0.000000
vn -0.675639 0.731307 -0.093286
vn 0.873306 0.477294 0.097609
vn -0.686540 0.477295 0.548500
vn -0.286253 -0.933252 -0.217027
vn 0.686540 0.477295 -0.548500
vn -0.675639 0.731307 0.093286
vn 0.543712 0.731307 0.411785
vn 0.675639 0.731307 0.093286
vn -0.217029 -0.933251 0.286255
vn -0.520997 -0.651519 0.551439
vn -0.684940 -0.223477 0.693480
vn -0.707107 0.000000 0.707107
vn -0.543712 0.731307 0.411785
vn 0.411785 0.731307 -0.543712
vn -0.873306 0.477294 -0.097609
vn 0.093286 0.731307 0.675639
vn 0.093286 0.731307 -0.675639
vn 0.000000 0.000000 -1.000000
vn -0.006038 -0.223477 -0.974691
vn -0.021526 -0.651519 -0.758327
vn 0.048950 -0.933250 0.355876
vn 0.021526 -0.651519 0.758327
vn 0.006038 -0.223477 0.974691
vn -0.000000 0.000000 1.000000
vn -0.093286 0.731307 0.675639
vn -0.093286 0.731307 -0.675639
vn -0.548500 0.477295 -0.686540
vn -0.048950 -0.933252 -0.355872
vn 0.675639 0.731307 -0.093286
vn -0.411785 0.731307 0.543712
vn 0.543712 0.731307 -0.411785
vn 1.000000 0.000000 0.000000
vn 0.286255 -0.933250 0.217029
vn 0.551439 -0.651519 0.520997
vn 0.693480 -0.223477 0.684940
vn 0.707107 0.000000 0.707107
vn 0.411785 0.731307 0.543712
vn -0.543712 0.731307 -0.411785
vn 0.097609 0.477294 -0.873306
vn 0.974690 -0.223477 -0.006038
vn 0.707107 0.000000 -0.707107
vn 0.684940 -0.223477 -0.693480
vn 0.520997 -0.651519 -0.551439
vn -0.000000 -1.000000 0.000003
vn 0.355874 -0.933251 -0.048950
vn 0.758327 -0.651519 -0.021526
# num_vertex_normals: 58

vt 0.651759 0.200919
vt 0.741027 0.351337
vt 0.305137 0.200919
vt 0.218144 1.124601
vt 0.035456 0.912634
vt 0.035456 1.124601
vt 0.741027 0.351337
vt 0.784068 0.479472
vt 0.215869 0.351337
vt 0.610904 0.234400
vt 0.694669 0.375547
vt 0.285647 0.234400
vt 0.836512 0.822101
vt 0.709216 0.759109
vt 0.841652 0.198314
vt 0.218144 -0.359167
vt 0.035456 -0.359167
vt 0.218144 -0.147200
vt 0.498176 0.055729
vt 0.623405 0.227281
vt 0.264525 0.227281
vt 0.264525 0.227281
vt 0.715829 0.383018
vt 0.172101 0.383018
vt 0.172101 0.383018
vt 0.760392 0.515684
vt 0.127538 0.515684
vt 0.127538 0.515684
vt 0.760392 0.729475
vt 0.127538 0.729475
vt 0.808651 1.036085
vt 0.941356 0.770195
vt 0.941356 1.036085
vt 0.837739 0.845539
vt 0.706519 0.164774
vt 0.709172 0.740027
vt 0.010001 0.515066
vt 0.124812 0.376478
vt 0.401988 0.515066
vt 0.218144 1.336568
vt 0.035456 1.124601
vt 0.035456 1.336568
vt 0.218144 -0.147200
vt 0.035456 -0.359167
vt 0.035456 -0.147200
vt 0.808651 1.301973
vt 0.941356 1.301973
vt 0.808651 1.567862
vt 0.777032 0.506878
vt 0.777032 0.737737
vt 0.093656 0.506878
vt 0.728912 0.363622
vt 0.777032 0.506878
vt 0.141777 0.363622
vt 0.629109 0.195451
vt 0.728912 0.363622
vt 0.241579 0.195451
vt 0.530807 0.035226
vt 0.651759 0.200919
vt 0.305137 0.200919
vt 0.305137 0.200919
vt 0.741027 0.351337
vt 0.215869 0.351337
vt 0.215869 0.351337
vt 0.784068 0.479472
vt 0.172828 0.479472
vt 0.172828 0.479472
vt 0.784068 0.685961
vt 0.172828 0.685961
vt 0.808651 0.770195
vt 0.941356 0.504306
vt 0.941356 0.770195
vt 0.834939 0.822225
vt 0.712181 0.208545
vt 0.707643 0.759233
vt 0.124812 0.376478
vt 0.401988 0.319073
vt 0.401988 0.515066
vt 0.218144 0.064767
vt 0.035456 -0.147200
vt 0.035456 0.064767
vt 0.218144 0.276734
vt 0.035456 0.064767
vt 0.035456 0.276734
vt 0.218144 1.124601
vt 0.035456 1.124601
vt 0.218144 1.336568
vt 0.694669 0.375547
vt 0.735057 0.495783
vt 0.201882 0.375547
vt 0.735057 0.495783
vt 0.735057 0.689544
vt 0.161494 0.495783
vt 0.839372 0.193977
vt 0.711474 0.204084
vt 0.834233 0.817764
vt 0.387894 0.013719
vt 0.629564 0.191158
vt 0.258366 0.191158
vt 0.258366 0.191158
vt 0.725160 0.352241
vt 0.162770 0.352241
vt 0.162770 0.352241
vt 0.771252 0.489460
vt 0.116678 0.489460
vt 0.116678 0.489460
vt 0.771252 0.710589
vt 0.116678 0.710589
vt 0.808651 0.504306
vt 0.941356 0.238417
vt 0.941356 0.504306
vt 0.837799 0.194102
vt 0.705364 0.754896
vt 0.709901 0.204208
vt 0.401988 0.319073
vt 0.679164 0.376478
vt 0.401988 0.515066
vt 0.218144 0.488701
vt 0.035456 0.276734
vt 0.035456 0.488701
vt 0.218144 0.700668
vt 0.035456 0.488701
vt 0.035456 0.700668
vt 0.808651 -0.559249
vt 0.941356 -0.559249
vt 0.808651 -0.293360
vt 0.777232 0.520580
vt 0.777232 0.745749
vt 0.110698 0.520580
vt 0.730298 0.380853
vt 0.777232 0.520580
vt 0.157632 0.380853
vt 0.834734 0.193927
vt 0.706519 0.164774
vt 0.837739 0.845539
vt 0.416713 0.061840
vt 0.645636 0.229920
vt 0.294018 0.229920
vt 0.294018 0.229920
vt 0.736191 0.382506
vt 0.203464 0.382506
vt 0.203464 0.382506
vt 0.779852 0.512488
vt 0.159803 0.512488
vt 0.159803 0.512488
vt 0.779852 0.721953
vt 0.159803 0.721953
vt 0.808651 0.238417
vt 0.941356 -0.027471
vt 0.941356 0.238417
vt 0.829112 0.189313
vt 0.703551 0.735413
vt 0.700897 0.160160
vt 0.679164 0.376478
vt 0.793974 0.515066
vt 0.401988 0.515066
vt 0.218144 0.912634
vt 0.035456 0.700668
vt 0.035456 0.912634
vt 0.124812 0.653654
vt 0.010001 0.515066
vt 0.401988 0.515066
vt 0.632955 0.216827
vt 0.730298 0.380853
vt 0.254975 0.216827
vt 0.808651 0.770195
vt 0.941356 0.770195
vt 0.808651 1.036085
vt 0.808651 1.036085
vt 0.941356 1.036085
vt 0.808651 1.301973
vt 0.760392 0.515684
vt 0.760392 0.729475
vt 0.127538 0.515684
vt 0.370689 0.044140
vt 0.612201 0.221464
vt 0.241246 0.221464
vt 0.241246 0.221464
vt 0.707735 0.382441
vt 0.145712 0.382441
vt 0.145712 0.382441
vt 0.753797 0.519571
vt 0.099650 0.519571
vt 0.099650 0.519571
vt 0.753797 0.740556
vt 0.099650 0.740556
vt 0.808651 -0.027471
vt 0.941356 -0.293360
vt 0.941356 -0.027471
vt 0.832766 0.840135
vt 0.701546 0.159370
vt 0.704200 0.734623
vt 0.793974 0.515066
vt 0.679164 0.653654
vt 0.401988 0.515066
vt 0.835383 0.193136
vt 0.709821 0.739236
vt 0.707168 0.163983
vt 0.808651 1.301973
vt 0.941356 1.036085
vt 0.941356 1.301973
vt 0.838388 0.844748
vt 0.709821 0.739236
vt 0.835383 0.193136
vt 0.829761 0.188523
vt 0.701546 0.159370
vt 0.832766 0.840135
vt 0.808651 -0.293360
vt 0.941356 -0.293360
vt 0.808651 -0.027471
vt 0.753797 0.519571
vt 0.753797 0.740556
vt 0.099650 0.519571
vt 0.386869 0.036146
vt 0.632955 0.216827
vt 0.254975 0.216827
vt 0.254975 0.216827
vt 0.730298 0.380853
vt 0.157632 0.380853
vt 0.157632 0.380853
vt 0.777232 0.520580
vt 0.110698 0.520580
vt 0.110698 0.520580
vt 0.777232 0.745749
vt 0.110698 0.745749
vt 0.808651 -0.293360
vt 0.941356 -0.559249
vt 0.941356 -0.293360
vt 0.834233 0.817764
vt 0.711474 0.204084
vt 0.706937 0.754772
vt 0.679164 0.653654
vt 0.401988 0.711059
vt 0.401988 0.515066
vt 0.161494 0.495783
vt 0.735057 0.689544
vt 0.161494 0.689544
vt 0.201882 0.375547
vt 0.735057 0.495783
vt 0.161494 0.495783
vt 0.707735 0.382441
vt 0.753797 0.519571
vt 0.145712 0.382441
vt 0.612201 0.221464
vt 0.707735 0.382441
vt 0.241246 0.221464
vt 0.715829 0.383018
vt 0.760392 0.515684
vt 0.172101 0.383018
vt 0.623405 0.227281
vt 0.715829 0.383018
vt 0.264525 0.227281
vt 0.493883 0.010205
vt 0.629109 0.195451
vt 0.241579 0.195451
vt 0.241579 0.195451
vt 0.728912 0.363622
vt 0.141777 0.363622
vt 0.141777 0.363622
vt 0.777032 0.506878
vt 0.093656 0.506878
vt 0.093656 0.506878
vt 0.777032 0.737737
vt 0.093656 0.737737
vt 0.808651 1.567862
vt 0.941356 1.301973
vt 0.941356 1.567862
vt 0.841652 0.198314
vt 0.709216 0.759109
vt 0.713754 0.208421
vt 0.401988 0.711059
vt 0.124812 0.653654
vt 0.401988 0.515066
vt 0.285647 0.234400
vt 0.694669 0.375547
vt 0.201882 0.375547
vt 0.497407 0.078921
vt 0.610904 0.234400
vt 0.285647 0.234400
vt 0.218144 0.700668
vt 0.035456 0.700668
vt 0.218144 0.912634
vt 0.832117 0.840925
vt 0.703551 0.735413
vt 0.829112 0.189313
vt 0.808651 -0.027471
vt 0.941356 -0.027471
vt 0.808651 0.238417
vt 0.784068 0.479472
vt 0.784068 0.685961
vt 0.172828 0.479472
vt 0.779852 0.512488
vt 0.779852 0.721953
vt 0.159803 0.512488
vt 0.736191 0.382506
vt 0.779852 0.512488
vt 0.203464 0.382506
vt 0.645636 0.229920
vt 0.736191 0.382506
vt 0.294018 0.229920
vt 0.808651 0.504306
vt 0.941356 0.504306
vt 0.808651 0.770195
vt 0.218144 0.488701
vt 0.035456 0.488701
vt 0.218144 0.700668
vt 0.218144 0.276734
vt 0.035456 0.276734
vt 0.218144 0.488701
vt 0.832660 0.817888
vt 0.705364 0.754896
vt 0.837799 0.194102
vt 0.808651 0.238417
vt 0.941356 0.238417
vt 0.808651 0.504306
vt 0.771252 0.489460
vt 0.771252 0.710589
vt 0.116678 0.489460
vt 0.725160 0.352241
vt 0.771252 0.489460
vt 0.162770 0.352241
vt 0.629564 0.191158
vt 0.725160 0.352241
vt 0.258366 0.191158
vt 0.840079 0.198439
vt 0.712181 0.208545
vt 0.834939 0.822225
vt 0.218144 0.064767
vt 0.035456 0.064767
vt 0.218144 0.276734
vt 0.218144 0.912634
vt 0.035456 0.912634
vt 0.218144 1.124601
vt 0.218144 -0.147200
vt 0.035456 -0.147200
vt 0.218144 0.064767
# num_uvs: 336

g Default_Layer
s 1

usemtl metal_cup
f 33/1/33 34/2/34 21/3/21 
f 19/4/19 14/5/14 1/6/1 
f 34/7/34 35/8/35 22/9/22 
f 9/10/9 10/11/10 16/12/16 
f 4/13/4 19/14/19 29/15/29 
f 28/16/28 3/17/3 42/18/42 
f 56/19/56 21/20/21 9/21/9 
f 9/22/9 22/23/22 10/24/10 
f 10/25/10 23/26/23 11/27/11 
f 11/28/11 24/29/24 12/30/12 
f 12/31/12 25/32/25 13/33/13 
f 13/34/13 26/35/26 41/36/41 
f 14/37/14 17/38/17 2/39/2 
f 28/40/28 1/41/1 3/42/3 
f 42/43/42 3/44/3 15/45/15 
f 5/46/5 4/47/4 30/48/30 
f 6/49/6 5/50/5 31/51/31 
f 7/52/7 6/53/6 32/54/32 
f 16/55/16 7/56/7 40/57/40 
f 56/58/56 33/59/33 21/60/21 
f 21/61/21 34/62/34 22/63/22 
f 22/64/22 35/65/35 23/66/23 
f 23/67/23 36/68/36 24/69/24 
f 24/70/24 37/71/37 25/72/25 
f 25/73/25 38/74/38 26/75/26 
f 17/76/17 51/77/51 2/78/2 
f 18/79/18 15/80/15 27/81/27 
f 50/82/50 27/83/27 39/84/39 
f 19/85/19 1/86/1 28/87/28 
f 10/88/10 11/89/11 7/90/7 
f 11/91/11 12/92/12 6/93/6 
f 29/94/29 28/95/28 43/96/43 
f 56/97/56 45/98/45 33/99/33 
f 33/100/33 46/101/46 34/102/34 
f 34/103/34 47/104/47 35/105/35 
f 35/106/35 48/107/48 36/108/36 
f 36/109/36 49/110/49 37/111/37 
f 37/112/37 50/113/50 38/114/38 
f 51/115/51 39/116/39 2/117/2 
f 38/118/38 39/119/39 51/120/51 
f 26/121/26 51/122/51 17/123/17 
f 30/124/30 29/125/29 53/126/53 
f 31/127/31 30/128/30 54/129/54 
f 32/130/32 31/131/31 55/132/55 
f 25/133/25 26/134/26 13/135/13 
f 56/136/56 57/137/57 45/138/45 
f 45/139/45 58/140/58 46/141/46 
f 46/142/46 52/143/52 47/144/47 
f 47/145/47 44/146/44 48/147/48 
f 48/148/48 20/149/20 49/150/49 
f 49/151/49 18/152/18 50/153/50 
f 39/154/39 27/155/27 2/156/2 
f 41/157/41 17/158/17 14/159/14 
f 1/160/1 14/161/14 2/162/2 
f 40/163/40 32/164/32 8/165/8 
f 24/166/24 25/167/25 12/168/12 
f 12/169/12 13/170/13 5/171/5 
f 23/172/23 24/173/24 11/174/11 
f 56/175/56 8/176/8 57/177/57 
f 57/178/57 55/179/55 58/180/58 
f 58/181/58 54/182/54 52/183/52 
f 52/184/52 53/185/53 44/186/44 
f 44/187/44 43/188/43 20/189/20 
f 20/190/20 42/191/42 18/192/18 
f 27/193/27 15/194/15 2/195/2 
f 4/196/4 41/197/41 19/198/19 
f 5/199/5 13/200/13 4/201/4 
f 13/202/13 41/203/41 4/204/4 
f 43/205/43 42/206/42 20/207/20 
f 53/208/53 43/209/43 44/210/44 
f 54/211/54 53/212/53 52/213/52 
f 56/214/56 40/215/40 8/216/8 
f 8/217/8 32/218/32 55/219/55 
f 55/220/55 31/221/31 54/222/54 
f 54/223/54 30/224/30 53/225/53 
f 53/226/53 29/227/29 43/228/43 
f 43/229/43 28/230/28 42/231/42 
f 15/232/15 3/233/3 2/234/2 
f 6/235/6 12/236/12 5/237/5 
f 7/238/7 11/239/11 6/240/6 
f 55/241/55 54/242/54 58/243/58 
f 8/244/8 55/245/55 57/246/57 
f 22/247/22 23/248/23 10/249/10 
f 21/250/21 22/251/22 9/252/9 
f 56/253/56 16/254/16 40/255/40 
f 40/256/40 7/257/7 32/258/32 
f 32/259/32 6/260/6 31/261/31 
f 31/262/31 5/263/5 30/264/30 
f 30/265/30 4/266/4 29/267/29 
f 29/268/29 19/269/19 28/270/28 
f 3/271/3 1/272/1 2/273/2 
f 16/274/16 10/275/10 7/276/7 
f 56/277/56 9/278/9 16/279/16 
f 26/280/26 17/281/17 41/282/41 
f 20/283/20 18/284/18 49/285/49 
f 44/286/44 20/287/20 48/288/48 
f 35/289/35 36/290/36 23/291/23 
f 52/292/52 44/293/44 47/294/47 
f 58/295/58 52/296/52 46/297/46 
f 57/298/57 58/299/58 45/300/45 
f 36/301/36 37/302/37 24/303/24 
f 38/304/38 51/305/51 26/306/26 
f 50/307/50 39/308/39 38/309/38 
f 49/310/49 50/311/50 37/312/37 
f 48/313/48 49/314/49 36/315/36 
f 47/316/47 48/317/48 35/318/35 
f 46/319/46 47/320/47 34/321/34 
f 45/322/45 46/323/46 33/324/33 
f 37/325/37 38/326/38 25/327/25 
f 18/328/18 27/329/27 50/330/50 
f 41/331/41 14/332/14 19/333/19 
f 42/334/42 15/335/15 18/336/18 
# num_faces: 112

