# Wavefront OBJ file
# Creator: Ultimate Unwrap3D Pro v3.27
# Website: http://www.unwrap3d.com
# Time: Thu May 05 10:18:19 2011
# num_vertices: 118
# num_vertex_normals: 118
# num_uvs: 519
# num_faces: 173
# num_groups: 1

mtllib tavern_chair3_LOD.mtl

v -0.600398 1.363930 0.640645
v -0.676811 1.348685 -0.587183
v -0.648324 1.148680 -0.613680
v 0.307547 1.350782 0.479092
v -0.675338 2.390421 0.591847
v 0.675338 2.412428 0.401865
v -0.631756 1.377134 -0.552051
v 0.675338 2.443967 0.578167
v -0.654283 1.364471 0.590669
v 0.621254 1.377134 -0.558410
v -0.620180 1.348543 -0.640645
v -0.391906 0.008346 -0.564400
v -0.675338 2.849305 0.554991
v -0.643869 0.000851 -0.572320
v 0.675338 2.872481 0.423907
v 0.675338 2.901150 0.550561
v 0.676811 1.352280 0.597455
v -0.045947 1.897887 0.465010
v 0.334639 1.207507 -0.362529
v 0.631208 1.148680 0.640645
v -0.624051 1.148680 0.640645
v 0.651674 1.348614 -0.617008
v 0.334639 0.998584 -0.464908
v 0.611585 1.370627 0.619031
v 0.626270 1.148680 -0.640645
v 0.334639 0.998584 -0.368978
v -0.060138 2.410585 0.447544
v -0.326240 2.410585 0.522512
v 0.315627 1.196079 -0.388079
v 0.334639 1.214613 -0.464908
v 0.315627 0.980440 -0.388079
v 0.020882 1.348328 0.434547
v -0.063434 1.348798 0.441342
v -0.420772 1.896033 0.431207
v 0.411256 0.980440 -0.388079
v 0.496271 1.224128 -0.551554
v -0.384677 0.980440 -0.464908
v -0.409732 0.011376 -0.360792
v 0.334639 0.998584 0.314298
v -0.384677 1.196079 -0.368978
v 0.334639 1.207507 0.416678
v -0.675338 2.818013 0.412921
v -0.384677 1.196079 -0.464908
v -0.675338 2.336697 0.421284
v -0.406383 1.350782 0.489662
v -0.461311 0.980440 -0.388079
v 0.411256 1.196079 -0.388079
v -0.675338 2.336485 0.533197
v -0.384677 0.980440 -0.368978
v -0.348903 1.350782 0.406666
v -0.461311 1.196079 -0.388079
v 0.635119 0.000851 -0.596164
v -0.424828 0.007690 0.522849
v -0.380566 0.011376 0.311286
v -0.659072 0.002339 0.311215
v -0.659037 -0.000000 0.506902
v -0.402042 0.009001 0.506938
v 0.361359 0.007690 0.570761
v 0.595532 -0.000000 0.554779
v 0.338573 0.011376 0.311286
v 0.595603 0.002339 0.311215
v 0.572710 0.000851 0.570726
v 0.338537 0.009001 0.554849
v -0.636215 0.000851 0.522814
v 0.329536 0.529051 0.325213
v 0.496271 1.224128 0.502047
v -0.038344 1.348798 0.492904
v 0.574553 0.535146 0.318267
v -0.365665 1.196079 -0.388079
v -0.461311 0.998584 0.333363
v -0.384677 0.980440 0.314298
v -0.365665 0.998584 0.333363
v -0.365665 0.980440 -0.388079
v 0.654632 -0.000000 -0.582560
v 0.326754 1.207082 0.286284
v -0.384677 0.980440 0.410210
v 0.420725 0.009001 -0.582590
v 0.519075 1.222285 0.286107
v 0.440238 0.007690 -0.596195
v 0.361395 0.010525 0.295374
v 0.315627 0.998584 0.333363
v -0.368712 1.207082 0.286284
v 0.572781 0.003686 0.295339
v -0.346015 1.207330 -0.535855
v -0.403353 0.010525 0.295374
v -0.561033 1.222285 0.286107
v 0.334639 0.998584 0.410210
v 0.411256 0.998584 0.333363
v 0.326754 1.207082 -0.335808
v 0.529901 1.230790 -0.343392
v -0.384677 1.203184 0.403743
v -0.636285 0.003686 0.295339
v 0.574553 0.535146 -0.367773
v 0.304056 1.207330 0.486348
v -0.461311 1.214613 0.333363
v -0.538229 1.224128 0.502047
v -0.561033 1.222285 -0.335614
v -0.538229 1.224128 -0.551554
v 0.574553 0.536493 -0.532134
v -0.384677 1.196079 0.314298
v 0.675338 2.398961 0.529228
v 0.329536 0.529051 -0.367809
v 0.304056 1.207330 -0.535855
v -0.365665 1.214613 0.333363
v 0.420755 0.011376 -0.395526
v -0.368712 1.207082 -0.335808
v 0.635150 0.003686 -0.381891
v -0.397089 2.410585 0.496563
v 0.315627 1.214613 0.333363
v 0.359612 2.410585 0.489203
v 0.334639 1.214613 0.314298
v -0.371494 0.529051 0.318302
v 0.654662 0.002339 -0.395495
v 0.411256 1.214613 0.333363
v 0.440268 0.010525 -0.381922
v 0.400075 1.350782 0.451079
v -0.346015 1.207330 0.486348
v -0.666727 0.002339 -0.360757
# num_vertices: 118

vn -0.308529 0.497442 0.810778
vn -0.797995 0.505319 -0.328416
vn -0.675085 -0.605424 -0.421571
vn 0.000000 0.000000 0.000000
vn -1.000000 0.000000 0.000000
vn 0.436348 -0.782128 -0.444832
vn -0.175045 0.959147 -0.222253
vn 1.000000 0.000000 0.000000
vn -0.651309 0.740997 0.163463
vn 0.197766 0.975994 -0.091234
vn -0.251576 0.463924 -0.849402
vn 0.469564 -0.414349 -0.779631
vn -0.458464 0.397218 0.795002
vn -0.657420 -0.630713 -0.412310
vn 0.625741 0.321828 -0.710545
vn 0.423175 0.868944 0.256631
vn 0.774761 0.550930 0.310196
vn -0.785937 -0.010143 -0.618223
vn -0.022359 0.878392 0.477418
vn 0.628600 -0.579889 0.518257
vn -0.493323 -0.288387 0.820649
vn 0.668297 0.594404 -0.447284
vn 0.017830 -0.706882 -0.707107
vn 0.142074 0.724717 0.674241
vn 0.396307 -0.457080 -0.796253
vn 0.014724 -0.712401 0.701618
vn -0.759196 -0.041999 -0.649506
vn 0.957274 0.089398 -0.275016
vn -0.894427 0.447066 -0.011485
vn -0.011824 0.458879 -0.888420
vn -0.447214 -0.894144 0.022487
vn -0.067100 0.046037 -0.996684
vn -0.867691 0.048957 -0.494688
vn -0.441610 0.050189 -0.895802
vn 0.894427 -0.447072 0.011244
vn 0.813724 0.115841 -0.569592
vn 0.017830 -0.706882 -0.707107
vn 0.645507 -0.658952 0.386138
vn 0.022554 -0.894143 -0.447214
vn -0.010961 0.436092 0.899835
vn -0.016917 0.707578 0.706433
vn -0.651343 0.609211 -0.452343
vn -0.018868 0.906234 -0.422355
vn -0.393865 -0.400358 -0.827396
vn -0.722070 -0.088187 0.686176
vn -0.447214 -0.894145 0.022487
vn 0.447214 0.894132 -0.022971
vn 0.047887 -0.914752 0.401167
vn 0.017830 -0.706882 0.707107
vn 0.386286 -0.070023 -0.919717
vn -0.894427 0.447066 -0.011485
vn 0.177220 0.060462 -0.982312
vn 0.092844 0.905235 0.414645
vn 0.910265 -0.011324 -0.413871
vn -0.530962 -0.830505 -0.168346
vn -0.746768 0.544515 0.381891
vn 0.875297 -0.364550 0.317739
vn -0.239538 -0.697016 0.675863
vn 0.441597 -0.863998 0.241867
vn -0.605483 -0.734453 -0.306545
vn 0.897000 0.402930 -0.181766
vn 0.167353 0.383145 0.908401
vn -0.428515 0.890296 0.154101
vn -0.150599 -0.303544 0.940841
vn -0.774236 -0.010297 -0.632813
vn 0.839697 0.081184 0.536953
vn -0.883734 0.010560 0.467871
vn 0.486809 0.029029 -0.873026
vn 0.447214 0.894132 -0.022971
vn -0.894427 -0.447072 0.011244
vn 0.011277 -0.447071 -0.894427
vn 0.447214 -0.894145 0.022487
vn 0.894427 -0.447072 0.011244
vn 0.967678 0.135445 -0.212729
vn -0.433969 -0.048821 -0.899604
vn 0.011689 -0.707475 0.706642
vn -0.523806 -0.831304 -0.185906
vn 0.742749 0.028659 -0.668956
vn -0.243175 0.478106 -0.843967
vn -0.207068 0.038422 -0.977572
vn -0.894427 -0.447072 0.011244
vn 0.664894 -0.037954 -0.745973
vn 0.298102 0.040434 -0.953677
vn 0.933161 -0.025257 -0.358569
vn 0.281888 0.007033 -0.959421
vn -0.334216 0.021207 -0.942258
vn 0.018104 -0.717739 0.696077
vn 0.447214 -0.894144 0.022487
vn -0.410740 -0.038377 0.910945
vn 0.921937 0.063339 0.382126
vn -0.016479 0.744292 0.667651
vn -0.281834 0.467623 -0.837794
vn 0.475139 0.022467 0.879624
vn -0.703552 0.029329 0.710038
vn -0.447214 0.894132 -0.022971
vn -0.787849 0.079556 0.610709
vn -0.926744 0.072387 0.368655
vn -0.384716 0.053609 -0.921477
vn 0.992738 0.118055 0.023099
vn -0.013537 0.892024 -0.451785
vn 0.025442 -0.494778 0.868647
vn -0.786852 -0.109036 0.607433
vn -0.670210 -0.010974 -0.742091
vn 0.894427 0.447066 -0.011485
vn -0.820589 0.364740 0.439998
vn 0.425300 -0.033353 0.904438
vn 0.169563 0.899973 0.401618
vn -0.948823 0.105318 0.297730
vn -0.447214 0.894132 -0.022971
vn 0.000000 0.000000 0.000000
vn -0.011824 0.458879 -0.888420
vn 0.810882 -0.019936 -0.584870
vn 0.920455 -0.240557 0.308050
vn 0.894427 0.447066 -0.011485
vn -0.197973 -0.380006 0.903550
vn 0.000000 0.000000 0.000000
vn 0.694975 -0.007190 0.718998
vn -0.409399 -0.408495 0.815797
# num_vertex_normals: 118

vt 0.642927 -0.001351
vt 0.675434 0.466529
vt 0.197297 -0.001438
vt 0.675347 0.041229
vt 0.675434 0.466529
vt 0.642927 -0.001351
vt 0.639620 -0.001351
vt 0.675434 0.427910
vt 0.200593 -0.001438
vt 0.675337 0.040473
vt 0.675434 0.427910
vt 0.639620 -0.001351
vt 0.197409 0.509007
vt 0.675434 0.466529
vt 0.643039 0.509094
vt 0.164989 0.466427
vt 0.675434 0.466529
vt 0.197409 0.509007
vt 0.164902 0.041122
vt 0.675434 0.466529
vt 0.164989 0.466427
vt 0.197297 -0.001438
vt 0.675434 0.466529
vt 0.164902 0.041122
vt 0.200716 0.509094
vt 0.675434 0.427910
vt 0.639748 0.469718
vt 0.164999 0.467270
vt 0.675434 0.427910
vt 0.200716 0.509094
vt 0.164902 0.040370
vt 0.675434 0.427910
vt 0.164999 0.467270
vt 0.200593 -0.001438
vt 0.675434 0.427910
vt 0.164902 0.040370
vt 0.675358 0.463678
vt 0.645952 -0.001438
vt 0.675434 0.043866
vt 0.645850 0.509002
vt 0.645952 -0.001438
vt 0.675358 0.463678
vt 0.194384 0.509094
vt 0.645952 -0.001438
vt 0.645850 0.509002
vt 0.164902 0.463790
vt 0.645952 -0.001438
vt 0.194384 0.509094
vt 0.164978 0.043973
vt 0.645952 -0.001438
vt 0.164902 0.463790
vt 0.194486 -0.001346
vt 0.645952 -0.001438
vt 0.164978 0.043973
vt 0.164989 0.466427
vt 0.197297 -0.001438
vt 0.164902 0.041122
vt 0.197409 0.509007
vt 0.197297 -0.001438
vt 0.164989 0.466427
vt 0.643039 0.509094
vt 0.197297 -0.001438
vt 0.197409 0.509007
vt 0.675434 0.466529
vt 0.197297 -0.001438
vt 0.643039 0.509094
vt 0.675347 0.041229
vt 0.197297 -0.001438
vt 0.675434 0.466529
vt 0.642927 -0.001351
vt 0.197297 -0.001438
vt 0.675347 0.041229
vt 0.164999 0.467270
vt 0.200593 -0.001438
vt 0.164902 0.040370
vt 0.200716 0.509094
vt 0.200593 -0.001438
vt 0.164999 0.467270
vt 0.639748 0.469718
vt 0.200593 -0.001438
vt 0.200716 0.509094
vt 0.675434 0.427910
vt 0.200593 -0.001438
vt 0.639748 0.469718
vt 0.675337 0.040473
vt 0.200593 -0.001438
vt 0.675434 0.427910
vt 0.639620 -0.001351
vt 0.200593 -0.001438
vt 0.675337 0.040473
vt 0.315869 0.903414
vt 0.361379 0.903839
vt 0.315869 0.824027
vt 0.411551 0.325721
vt 0.623431 0.312342
vt 0.411551 0.477368
vt 0.639620 0.456958
vt 0.164999 0.039348
vt 0.182745 0.488752
vt 0.738313 0.510358
vt 0.736091 0.288590
vt 0.666761 0.298832
vt 0.639743 -0.001438
vt 0.164999 0.039348
vt 0.639620 0.456958
vt 0.654534 0.530419
vt 0.738313 0.510358
vt 0.666761 0.298832
vt 0.707412 0.611027
vt 0.726733 0.611159
vt 0.711362 0.637537
vt 0.824182 0.902612
vt 0.871069 0.902556
vt 0.847534 0.824027
vt 0.675497 0.298918
vt 0.735165 0.510054
vt 0.649375 0.519260
vt 0.737330 0.289416
vt 0.735165 0.510054
vt 0.675497 0.298918
vt 0.456411 0.278041
vt 0.315803 0.278041
vt 0.456411 0.263257
vt 0.280509 0.637537
vt 0.280496 0.614493
vt 0.697093 0.637537
vt 0.645850 0.509002
vt 0.164902 0.463790
vt 0.194384 0.509094
vt 0.230964 0.326950
vt 0.742008 0.326950
vt 0.230964 0.410480
vt 0.296860 0.637537
vt 0.284198 0.611159
vt 0.708720 0.625796
vt 0.283883 0.637537
vt 0.273504 0.611093
vt 0.711362 0.637537
vt 0.723961 0.905209
vt 0.288074 0.905140
vt 0.279499 0.827104
vt 0.223355 0.418223
vt 0.652566 0.510145
vt 0.223355 0.510145
vt 0.734581 0.827103
vt 0.723961 0.905209
vt 0.279499 0.827104
vt 0.670709 0.073231
vt 0.668232 0.557634
vt 0.223176 0.557634
vt 0.212123 0.082625
vt 0.670709 0.073231
vt 0.223176 0.557634
vt 0.230964 0.326950
vt 0.742008 0.326950
vt 0.230964 0.410480
vt 0.203705 0.536377
vt 0.212123 0.082625
vt 0.223176 0.557634
vt 0.358719 0.904025
vt 0.315869 0.824027
vt 0.848841 0.902584
vt 0.315869 0.824027
vt 0.361379 0.903839
vt 0.847534 0.824027
vt 0.702737 0.069382
vt 0.702737 0.554655
vt 0.214208 0.564038
vt 0.203705 0.071291
vt 0.702737 0.069382
vt 0.214208 0.564038
vt 0.732242 0.899134
vt 0.732145 0.826676
vt 0.280257 0.899135
vt 0.696825 0.497769
vt 0.313049 0.466847
vt 0.696032 0.456849
vt 0.696032 0.456849
vt 0.313049 0.466847
vt 0.697128 0.426464
vt 0.230964 0.326950
vt 0.742008 0.326950
vt 0.230964 0.410480
vt -0.030764 0.239628
vt 0.583918 0.216675
vt 0.586563 0.252501
vt 0.164646 -0.001694
vt 0.675690 -0.001694
vt 0.164646 0.509350
vt 0.848192 0.432416
vt 0.984256 0.445929
vt 0.983496 0.455274
vt 0.652566 0.510145
vt 0.223355 0.510145
vt 0.652566 0.418223
vt 0.742008 0.410480
vt 0.230964 0.410480
vt 0.742008 0.326950
vt 0.713155 0.459370
vt 0.850284 0.450310
vt 0.578403 0.439070
vt 0.578433 0.507747
vt 0.713155 0.459370
vt 0.578403 0.439070
vt 0.713155 0.507747
vt 0.713155 0.459370
vt 0.578403 0.507747
vt 0.850284 0.507747
vt 0.713155 0.459370
vt 0.713155 0.507747
vt 0.850284 0.450310
vt 0.713155 0.459370
vt 0.850284 0.507747
vt 0.164646 -0.001694
vt 0.675690 -0.001694
vt 0.164646 0.509350
vt 0.652566 0.418223
vt 0.223355 0.510145
vt 0.223355 0.418223
vt 0.159066 0.294538
vt 0.437835 0.309322
vt 0.437835 0.294538
vt 0.652566 0.418223
vt 0.652566 0.510145
vt 0.223355 0.418223
vt 0.983496 0.455274
vt 0.718840 0.461844
vt 0.848192 0.432416
vt 0.164978 0.043973
vt 0.164902 0.463790
vt 0.645850 0.509002
vt 0.325508 0.255268
vt 0.187347 0.255268
vt 0.187347 0.164931
vt 0.194486 -0.001346
vt 0.164978 0.043973
vt 0.645850 0.509002
vt 0.983049 0.480438
vt 0.718840 0.461844
vt 0.983496 0.455274
vt 0.466116 0.255268
vt 0.325508 0.255268
vt 0.187347 0.164931
vt 0.466116 0.179715
vt 0.466116 0.255268
vt 0.187347 0.164931
vt 0.456411 0.155222
vt 0.456411 0.170007
vt 0.315803 0.155222
vt 0.675434 0.043866
vt 0.194486 -0.001346
vt 0.645850 0.509002
vt 0.675358 0.463678
vt 0.675434 0.043866
vt 0.645850 0.509002
vt 0.177642 0.245559
vt 0.177642 0.155222
vt 0.456411 0.155222
vt 0.456411 0.245559
vt 0.177642 0.245559
vt 0.456411 0.155222
vt 0.315869 0.903563
vt 0.315869 0.824027
vt 0.358719 0.904025
vt 0.697093 0.637537
vt 0.280496 0.614493
vt 0.709694 0.611159
vt 0.711362 0.637537
vt 0.273504 0.611093
vt 0.707412 0.611027
vt 0.451771 0.101604
vt 0.172997 0.011266
vt 0.172997 0.101604
vt 0.451771 0.026051
vt 0.172997 0.011266
vt 0.451771 0.101604
vt 0.451771 0.011266
vt 0.172997 0.011266
vt 0.451771 0.026051
vt 0.984256 0.445929
vt 0.848192 0.432416
vt 0.985339 0.431595
vt 0.848841 0.902584
vt 0.315869 0.824027
vt 0.871069 0.824027
vt 0.871821 0.426055
vt 0.871821 0.486760
vt 0.599935 0.483493
vt 0.599935 0.426055
vt 0.871821 0.426055
vt 0.599935 0.483493
vt 0.182760 0.410988
vt 0.461534 0.349178
vt 0.461534 0.410988
vt 0.182760 0.344880
vt 0.461534 0.349178
vt 0.182760 0.410988
vt 0.459917 0.352970
vt 0.319308 0.277418
vt 0.459917 0.277418
vt 0.181143 0.352970
vt 0.319308 0.277418
vt 0.459917 0.352970
vt 0.847534 0.824027
vt 0.361379 0.903839
vt 0.824182 0.902612
vt 0.280257 0.899135
vt 0.732145 0.826676
vt 0.280382 0.826676
vt 0.181143 0.277418
vt 0.319308 0.277418
vt 0.181143 0.352970
vt 0.181143 0.352970
vt 0.459917 0.361566
vt 0.459917 0.419079
vt 0.181143 0.419079
vt 0.181143 0.352970
vt 0.459917 0.419079
vt 0.983049 0.480438
vt 0.845601 0.489740
vt 0.718840 0.461844
vt -0.029488 0.201678
vt 0.583918 0.216675
vt -0.030764 0.239628
vt 0.586563 0.252501
vt 0.270363 0.257562
vt -0.030764 0.239628
vt -0.030764 0.239628
vt 0.270363 0.257562
vt -0.028035 0.262338
vt -0.029488 0.201678
vt 0.270363 0.187026
vt 0.583918 0.216675
vt 0.459917 0.352970
vt 0.459917 0.361566
vt 0.181143 0.352970
vt 0.230964 0.410480
vt 0.742008 0.326950
vt 0.742008 0.410480
vt 0.441340 0.500882
vt 0.441340 0.492286
vt 0.162571 0.492286
vt 0.583918 0.216675
vt 0.270363 0.187026
vt 0.586563 0.181965
vt 0.230964 0.410480
vt 0.742008 0.326950
vt 0.742008 0.410480
vt 0.164646 0.509350
vt 0.675690 -0.001694
vt 0.675690 0.509350
vt 0.412225 0.585898
vt 0.412225 0.528390
vt 0.133456 0.519794
vt 0.133456 0.585898
vt 0.412225 0.585898
vt 0.133456 0.519794
vt 0.300732 0.416733
vt 0.162571 0.492286
vt 0.441340 0.492286
vt 0.441340 0.416733
vt 0.300732 0.416733
vt 0.441340 0.492286
vt 0.162571 0.492286
vt 0.300732 0.416733
vt 0.162571 0.416733
vt 0.176502 0.209015
vt 0.176502 0.275118
vt 0.455271 0.275118
vt 0.455271 0.217605
vt 0.455271 0.209015
vt 0.176502 0.209015
vt 0.455271 0.275118
vt 0.455271 0.217605
vt 0.176502 0.209015
vt 0.314663 0.178769
vt 0.176502 0.254322
vt 0.455271 0.254322
vt 0.455271 0.178769
vt 0.314663 0.178769
vt 0.455271 0.254322
vt 0.176502 0.254322
vt 0.314663 0.178769
vt 0.176502 0.178769
vt 0.164646 0.509350
vt 0.675690 -0.001694
vt 0.675690 0.509350
vt 0.230964 0.410480
vt 0.230964 0.326950
vt 0.742008 0.410480
vt 0.411551 0.477368
vt 0.623431 0.312342
vt 0.623431 0.482485
vt 0.411551 0.518504
vt 0.623431 0.300918
vt 0.623431 0.523322
vt 0.411551 0.481486
vt 0.623431 0.358051
vt 0.623431 0.492171
vt 0.411551 0.526170
vt 0.623431 0.288427
vt 0.623431 0.531967
vt 0.742008 0.326950
vt 0.742008 0.410480
vt 0.230964 0.326950
vt 0.411551 0.294271
vt 0.623431 0.288427
vt 0.411551 0.526170
vt 0.230964 0.326950
vt 0.742008 0.326950
vt 0.230964 0.410480
vt 0.742008 0.326950
vt 0.742008 0.410480
vt 0.230964 0.410480
vt 0.223355 0.418223
vt 0.652566 0.418223
vt 0.223355 0.510145
vt 0.652566 0.418223
vt 0.652566 0.510145
vt 0.223355 0.510145
vt 0.675690 0.509350
vt 0.164646 0.509350
vt 0.675690 -0.001694
vt 0.164646 0.509350
vt 0.164646 -0.001694
vt 0.675690 -0.001694
vt 0.230964 0.326950
vt 0.742008 0.326950
vt 0.230964 0.410480
vt 0.742008 0.326950
vt 0.742008 0.410480
vt 0.230964 0.410480
vt 0.177642 0.270649
vt 0.177642 0.201449
vt 0.456411 0.197153
vt 0.411551 0.363060
vt 0.623431 0.358051
vt 0.411551 0.481486
vt 0.229959 0.432281
vt 0.229959 0.489794
vt 0.089350 0.423691
vt 0.456411 0.278041
vt 0.177642 0.270649
vt 0.456411 0.197153
vt 0.456411 0.197153
vt 0.456411 0.205744
vt 0.315803 0.197153
vt 0.230964 0.326950
vt 0.742008 0.326950
vt 0.230964 0.410480
vt 0.742008 0.326950
vt 0.742008 0.410480
vt 0.230964 0.410480
vt 0.411551 0.329400
vt 0.623431 0.300918
vt 0.411551 0.518504
vt 0.229959 0.489794
vt 0.089350 0.504578
vt 0.089350 0.423691
vt 0.089350 0.504578
vt -0.048810 0.489794
vt 0.089350 0.423691
vt -0.048810 0.489794
vt -0.048810 0.427986
vt 0.089350 0.423691
vt 0.223355 0.418223
vt 0.652566 0.418223
vt 0.223355 0.510145
vt 0.451771 0.134086
vt 0.451771 0.119301
vt 0.311162 0.134086
vt 0.159066 0.409965
vt 0.297231 0.336469
vt 0.159066 0.336469
vt 0.297231 0.417357
vt 0.297231 0.336469
vt 0.159066 0.409965
vt 0.437835 0.402572
vt 0.297231 0.336469
vt 0.297231 0.417357
vt 0.652566 0.418223
vt 0.652566 0.510145
vt 0.223355 0.510145
vt 0.675690 0.509350
vt 0.164646 0.509350
vt 0.675690 -0.001694
vt 0.437835 0.345060
vt 0.297231 0.336469
vt 0.437835 0.402572
vt 0.437835 0.336469
vt 0.297231 0.336469
vt 0.437835 0.345060
vt 0.451771 0.053192
vt 0.311162 0.053192
vt 0.451771 0.061788
vt 0.742008 0.326950
vt 0.742008 0.410480
vt 0.230964 0.410480
vt 0.231789 0.433956
vt -0.046986 0.433956
vt 0.231789 0.491469
vt 0.437835 0.417357
vt 0.437835 0.402572
vt 0.297231 0.417357
vt 0.231789 0.491469
vt -0.046986 0.433956
vt 0.091180 0.506254
vt 0.230964 0.326950
vt 0.742008 0.326950
vt 0.230964 0.410480
vt 0.091180 0.506254
vt -0.046986 0.433956
vt -0.046986 0.491469
vt 0.164646 0.509350
vt 0.164646 -0.001694
vt 0.675690 -0.001694
vt 0.645952 -0.001438
vt 0.194486 -0.001346
vt 0.675434 0.043866
# num_uvs: 519

g Default_Layer
s 1

usemtl WoodPlanks_ornaments1
f 105/1/105 107/2/107 77/3/77 
f 115/4/115 107/5/107 105/6/105 
f 56/7/56 53/8/53 55/9/55 
f 64/10/64 53/11/53 56/12/56 
f 74/13/74 107/14/107 113/15/113 
f 52/16/52 107/17/107 74/18/74 
f 79/19/79 107/20/107 52/21/52 
f 77/22/77 107/23/107 79/24/79 
f 54/25/54 53/26/53 57/27/57 
f 85/28/85 53/29/53 54/30/54 
f 92/31/92 53/32/53 85/33/85 
f 55/34/55 53/35/53 92/36/92 
f 62/37/62 63/38/63 58/39/58 
f 59/40/59 63/41/63 62/42/62 
f 61/43/61 63/44/63 59/45/59 
f 83/46/83 63/47/63 61/48/61 
f 80/49/80 63/50/63 83/51/83 
f 60/52/60 63/53/63 80/54/80 
f 52/55/52 77/56/77 79/57/79 
f 74/58/74 77/59/77 52/60/52 
f 113/61/113 77/62/77 74/63/74 
f 107/64/107 77/65/77 113/66/113 
f 115/67/115 77/68/77 107/69/107 
f 105/70/105 77/71/77 115/72/115 
f 85/73/85 55/74/55 92/75/92 
f 54/76/54 55/77/55 85/78/85 
f 57/79/57 55/80/55 54/81/54 
f 53/82/53 55/83/55 57/84/57 
f 64/85/64 55/86/55 53/87/53 
f 56/88/56 55/89/55 64/90/64 
f 1/91/1 9/92/9 21/93/21 
f 15/94/15 42/95/42 16/96/16 
f 38/97/38 14/98/14 12/99/12 
f 5/100/5 13/101/13 42/102/42 
f 118/103/118 14/104/14 38/105/38 
f 44/106/44 5/107/5 42/108/42 
f 11/109/11 2/110/2 7/111/7 
f 2/112/2 11/113/11 3/114/3 
f 15/115/15 8/116/8 6/117/6 
f 16/118/16 8/119/8 15/120/15 
f 60/121/60 65/122/65 80/123/80 
f 24/124/24 17/125/17 10/126/10 
f 59/127/59 83/128/83 61/129/61 
f 23/130/23 37/131/37 30/132/30 
f 7/133/7 2/134/2 9/135/9 
f 10/136/10 22/137/22 7/138/7 
f 24/139/24 1/140/1 21/141/21 
f 26/142/26 37/143/37 23/144/23 
f 20/145/20 24/146/24 21/147/21 
f 10/148/10 7/149/7 9/150/9 
f 24/151/24 10/152/10 9/153/9 
f 39/154/39 71/155/71 111/156/111 
f 1/157/1 24/158/24 9/159/9 
f 17/160/17 20/161/20 22/162/22 
f 21/163/21 9/164/9 3/165/3 
f 20/166/20 21/167/21 3/168/3 
f 25/169/25 20/170/20 3/171/3 
f 22/172/22 25/173/25 11/174/11 
f 116/175/116 110/176/110 4/177/4 
f 4/178/4 110/179/110 116/180/116 
f 49/181/49 26/182/26 40/183/40 
f 28/184/28 45/185/45 50/186/50 
f 111/187/111 100/188/100 41/189/41 
f 18/190/18 33/191/33 67/192/67 
f 71/193/71 39/194/39 76/195/76 
f 19/196/19 40/197/40 26/198/26 
f 99/199/99 74/200/74 36/201/36 
f 90/202/90 99/203/99 36/204/36 
f 93/205/93 99/206/99 90/207/90 
f 113/208/113 99/209/99 93/210/93 
f 74/211/74 99/212/99 113/213/113 
f 30/214/30 43/215/43 19/216/19 
f 76/217/76 39/218/39 87/219/87 
f 36/220/36 74/221/74 52/222/52 
f 49/223/49 37/224/37 26/225/26 
f 67/226/67 27/227/27 18/228/18 
f 80/229/80 83/230/83 59/231/59 
f 68/232/68 78/233/78 66/234/66 
f 60/235/60 80/236/80 59/237/59 
f 32/238/32 27/239/27 67/240/67 
f 61/241/61 68/242/68 66/243/66 
f 59/244/59 61/245/61 66/246/66 
f 62/247/62 59/248/59 66/249/66 
f 58/250/58 60/251/60 59/252/59 
f 62/253/62 58/254/58 59/255/59 
f 97/256/97 98/257/98 14/258/14 
f 118/259/118 97/260/97 14/261/14 
f 24/262/24 20/263/20 17/264/17 
f 10/265/10 17/266/17 22/267/22 
f 7/268/7 22/269/22 11/270/11 
f 55/271/55 96/272/96 86/273/86 
f 56/274/56 96/275/96 55/276/55 
f 64/277/64 96/278/96 56/279/56 
f 33/280/33 18/281/18 32/282/32 
f 22/283/22 20/284/20 25/285/25 
f 38/286/38 12/287/12 84/288/84 
f 106/289/106 38/290/38 84/291/84 
f 98/292/98 12/293/12 14/294/14 
f 84/295/84 12/296/12 98/297/98 
f 63/298/63 65/299/65 60/300/60 
f 94/301/94 65/302/65 63/303/63 
f 3/304/3 9/305/9 2/306/2 
f 11/307/11 25/308/25 3/309/3 
f 75/310/75 65/311/65 94/312/94 
f 94/313/94 58/314/58 62/315/62 
f 66/316/66 94/317/94 62/318/62 
f 32/319/32 18/320/18 27/321/27 
f 108/322/108 45/323/45 28/324/28 
f 50/325/50 34/326/34 28/327/28 
f 28/328/28 34/329/34 108/330/108 
f 108/331/108 34/332/34 45/333/45 
f 63/334/63 58/335/58 94/336/94 
f 30/337/30 37/338/37 43/339/43 
f 79/340/79 77/341/77 103/342/103 
f 45/343/45 34/344/34 50/345/50 
f 111/346/111 71/347/71 100/348/100 
f 19/349/19 43/350/43 40/351/40 
f 52/352/52 79/353/79 103/354/103 
f 36/355/36 52/356/52 103/357/103 
f 102/358/102 103/359/103 77/360/77 
f 105/361/105 102/362/102 77/363/77 
f 103/364/103 102/365/102 89/366/89 
f 117/367/117 96/368/96 64/369/64 
f 53/370/53 57/371/57 117/372/117 
f 64/373/64 53/374/53 117/375/117 
f 112/376/112 117/377/117 57/378/57 
f 54/379/54 112/380/112 57/381/57 
f 117/382/117 112/383/112 82/384/82 
f 41/385/41 100/386/100 91/387/91 
f 91/388/91 76/389/76 41/390/41 
f 16/391/16 42/392/42 13/393/13 
f 15/394/15 44/395/44 42/396/42 
f 6/397/6 48/398/48 44/399/44 
f 101/400/101 13/401/13 48/402/48 
f 87/403/87 41/404/41 76/405/76 
f 16/406/16 13/407/13 101/408/101 
f 72/409/72 73/410/73 104/411/104 
f 73/412/73 69/413/69 104/414/104 
f 70/415/70 46/416/46 72/417/72 
f 46/418/46 73/419/73 72/420/72 
f 51/421/51 95/422/95 69/423/69 
f 95/424/95 104/425/104 69/426/69 
f 46/427/46 70/428/70 51/429/51 
f 70/430/70 95/431/95 51/432/51 
f 106/433/106 97/434/97 118/435/118 
f 101/436/101 48/437/48 6/438/6 
f 83/439/83 80/440/80 68/441/68 
f 38/442/38 106/443/106 118/444/118 
f 61/445/61 83/446/83 68/447/68 
f 88/448/88 35/449/35 114/450/114 
f 35/451/35 47/452/47 114/453/114 
f 6/454/6 44/455/44 15/456/15 
f 80/457/80 65/458/65 68/459/68 
f 65/460/65 75/461/75 68/462/68 
f 75/463/75 78/464/78 68/465/68 
f 81/466/81 31/467/31 88/468/88 
f 54/469/54 85/470/85 112/471/112 
f 89/472/89 93/473/93 90/474/90 
f 102/475/102 93/476/93 89/477/89 
f 115/478/115 93/479/93 102/480/102 
f 31/481/31 35/482/35 88/483/88 
f 29/484/29 109/485/109 47/486/47 
f 107/487/107 93/488/93 115/489/115 
f 113/490/113 93/491/93 107/492/107 
f 55/493/55 86/494/86 92/495/92 
f 81/496/81 109/497/109 29/498/29 
f 92/499/92 86/500/86 85/501/85 
f 105/502/105 115/503/115 102/504/102 
f 85/505/85 86/506/86 112/507/112 
f 31/508/31 81/509/81 29/510/29 
f 112/511/112 86/512/86 82/513/82 
f 109/514/109 114/515/114 47/516/47 
f 63/517/63 60/518/60 58/519/58 
# num_faces: 173

