# Wavefront OBJ file
# Creator: Ultimate Unwrap3D Pro v3.27
# Website: http://www.unwrap3d.com
# Time: Thu May 05 10:17:35 2011
# num_vertices: 40
# num_vertex_normals: 40
# num_uvs: 210
# num_faces: 67
# num_groups: 1

mtllib tavern_box_LOD.mtl

v -1.456220 0.301143 -1.092165
v 1.330257 0.301143 -1.092165
v -1.092165 2.362245 -1.092165
v 1.456220 2.409144 -1.456220
v -1.113586 0.291899 1.339905
v 1.456220 0.000000 1.456220
v -1.456220 2.409144 1.456220
v 1.456220 2.409144 1.456220
v -1.092165 0.301143 -1.330257
v -1.204294 2.108001 -1.092165
v -1.330257 0.301143 1.092165
v -1.456220 2.107882 -1.456220
v 1.456220 0.000000 -1.456220
v 1.330257 2.108001 -1.092165
v 1.330257 0.301143 1.092165
v 1.329921 2.106882 1.092165
v -1.456220 2.107653 1.456220
v 1.092165 2.108932 -1.330257
v 1.092165 2.419161 1.092165
v 1.092165 0.301143 -1.330257
v -1.456220 0.000000 1.456220
v 1.092165 0.301143 1.302933
v -1.092165 2.108001 1.330257
v 1.092165 2.108001 1.330257
v -1.330257 2.108001 1.092165
v -1.092165 2.108001 -1.330257
v -1.456220 0.000000 -1.456220
v 1.092165 2.366504 -0.000000
v -1.456220 2.409144 -1.456220
v 1.092165 2.419161 -1.092165
v -1.092165 2.419161 1.092165
v 0.000000 2.362007 -1.092165
v 1.092165 2.362245 1.092165
v -1.092165 2.362245 1.092165
v 1.092165 2.362245 -1.092165
v -1.092165 2.366504 -0.000000
v 0.000000 2.362007 1.092165
v 1.456220 2.107939 -1.456220
v 1.456220 2.108133 1.456220
v -1.092165 2.419161 -1.092165
# num_vertices: 40

vn -0.984375 0.011488 0.175712
vn 0.976405 0.198822 0.084276
vn 0.894427 0.000000 0.447214
vn 0.714981 0.528313 -0.457916
vn 0.120255 0.116961 0.985829
vn 0.818911 0.057593 0.571023
vn -0.722722 0.504023 0.472899
vn 0.457982 0.528616 0.714715
vn 0.084236 0.198823 -0.976409
vn -0.950329 -0.187201 0.248658
vn -0.995171 0.081548 -0.054625
vn -0.933241 0.053545 -0.355238
vn 0.559922 -0.218492 -0.799217
vn 0.976318 -0.079200 0.201321
vn 0.984802 0.132582 -0.112195
vn 0.976668 -0.132630 -0.168906
vn -0.707107 0.000000 0.707107
vn -0.168651 -0.132857 -0.976681
vn -0.483157 0.734563 -0.476420
vn -0.112293 0.132523 -0.984798
vn -0.561773 -0.209853 0.800233
vn -0.095488 0.203177 0.974475
vn 0.170287 -0.134961 0.976109
vn -0.212967 -0.085377 0.973322
vn -0.977465 -0.067260 -0.200094
vn 0.201331 -0.079152 -0.976320
vn -0.632763 -0.083173 -0.769866
vn -1.000000 0.000000 0.000000
vn -0.431908 0.519597 -0.737207
vn -0.476420 0.734564 0.483157
vn 0.476420 0.734564 -0.483157
vn 0.316228 0.000000 0.948683
vn 0.000000 0.000000 -1.000000
vn 0.894427 0.000000 -0.447214
vn 0.000000 0.000000 1.000000
vn 1.000000 0.000000 0.000000
vn 0.316228 0.000000 -0.948683
vn 0.707107 0.000000 -0.707107
vn 0.707398 0.000000 0.706816
vn 0.483157 0.734563 0.476420
# num_vertex_normals: 40

vt 0.728921 0.586340
vt 0.295632 0.586340
vt 0.295632 0.153050
vt 0.728921 0.153050
vt 0.719629 0.067765
vt 0.268922 0.518472
vt 0.268922 0.067765
vt 0.931594 0.024536
vt 0.931594 0.516655
vt 0.439475 0.516655
vt 0.439475 0.024536
vt 0.553803 0.591749
vt 0.050178 0.591125
vt 0.050178 0.088124
vt 0.553803 0.088124
vt 0.262730 0.306306
vt 0.262730 0.054830
vt 0.470749 0.054830
vt 0.678767 0.054830
vt 0.678767 0.306306
vt 0.678767 0.557783
vt 0.470749 0.557783
vt 0.262730 0.557783
vt 0.728921 0.153050
vt 0.728921 0.586340
vt 0.295632 0.586340
vt 0.295632 0.153050
vt 0.248168 0.092096
vt 0.753673 0.164311
vt 0.320383 0.164311
vt 0.431276 0.332702
vt 0.936781 0.404917
vt 0.503491 0.404917
vt 0.855017 0.758980
vt 0.255221 0.673295
vt 0.769332 0.673295
vt 0.169536 0.758980
vt 0.169536 0.673261
vt 0.255221 0.673295
vt 0.231231 0.022230
vt 0.702418 0.089542
vt 0.298543 0.089542
vt 0.928027 0.760106
vt 0.201776 0.669064
vt 0.824284 0.669418
vt 0.098017 0.760075
vt 0.098017 0.675545
vt 0.201776 0.669064
vt 0.248168 0.092096
vt 0.753673 0.164311
vt 0.320383 0.164311
vt 0.883185 0.028468
vt 1.307466 0.089080
vt 0.943797 0.089080
vt 0.855017 0.758980
vt 0.255221 0.673295
vt 0.769332 0.673295
vt 0.169536 0.758980
vt 0.169536 0.673277
vt 0.255221 0.673295
vt 0.248168 0.092096
vt 0.753673 0.164311
vt 0.320383 0.164311
vt 0.248168 0.092096
vt 0.753673 0.164311
vt 0.320383 0.164311
vt 0.883185 0.028468
vt 1.307466 0.089080
vt 0.943797 0.089080
vt 0.855017 0.758980
vt 0.255221 0.673295
vt 0.769332 0.673295
vt 0.169536 0.758980
vt 0.169536 0.673196
vt 0.255221 0.673295
vt 0.855017 0.758980
vt 0.769332 0.673295
vt 0.855017 0.673261
vt 0.873776 0.584379
vt 1.315617 0.521259
vt 1.315604 0.584379
vt 0.928027 0.760106
vt 0.824284 0.669418
vt 0.928027 0.675522
vt 0.009000 0.650951
vt 0.509000 0.619319
vt 1.009000 0.650951
vt 0.977116 0.764967
vt 0.194239 0.672454
vt 0.865277 0.672454
vt 0.196861 0.663529
vt 0.777054 0.763729
vt 0.279746 0.763729
vt 0.939604 0.757078
vt 0.193036 0.670206
vt 0.832952 0.670206
vt 0.828192 0.765226
vt 0.247742 0.664981
vt 0.745270 0.664981
vt 0.986393 0.648212
vt 0.486393 0.619069
vt -0.013607 0.648212
vt 0.264210 0.403884
vt 0.328601 0.339492
vt 0.714925 0.403884
vt 1.009000 0.650951
vt 0.509000 0.619319
vt 0.009000 0.650951
vt -0.013607 0.648212
vt 0.486393 0.619069
vt 0.986393 0.648212
vt 0.873776 0.584379
vt 1.315617 0.521259
vt 1.315544 0.584379
vt 0.265577 0.586514
vt 0.736765 0.519202
vt 0.736794 0.586514
vt 0.855017 0.758980
vt 0.769332 0.673295
vt 0.855017 0.673333
vt 0.855017 0.758980
vt 0.769332 0.673295
vt 0.855017 0.673196
vt 0.332890 0.519202
vt 0.736765 0.519202
vt 0.265577 0.586514
vt 0.936896 0.521259
vt 1.315617 0.521259
vt 0.873776 0.584379
vt 0.164821 0.765226
vt 0.247742 0.664981
vt 0.828192 0.765226
vt 0.086384 0.757078
vt 0.193036 0.670206
vt 0.939604 0.757078
vt 0.859939 0.663529
vt 0.777054 0.763729
vt 0.196861 0.663529
vt 0.082400 0.764967
vt 0.194239 0.672454
vt 0.977116 0.764967
vt 0.936896 0.521259
vt 1.315617 0.521259
vt 0.873776 0.584379
vt 0.169536 0.758980
vt 0.255221 0.673295
vt 0.855017 0.758980
vt 1.307492 0.028468
vt 1.307466 0.089080
vt 0.883185 0.028468
vt 0.825888 0.092096
vt 0.753673 0.164311
vt 0.248168 0.092096
vt 0.825888 0.092096
vt 0.753673 0.164311
vt 0.248168 0.092096
vt 0.169536 0.758980
vt 0.255221 0.673295
vt 0.855017 0.758980
vt 1.307442 0.028468
vt 1.307466 0.089080
vt 0.883185 0.028468
vt 0.825888 0.092096
vt 0.753673 0.164311
vt 0.248168 0.092096
vt 0.098017 0.760075
vt 0.201776 0.669064
vt 0.928027 0.760106
vt 0.986393 0.648212
vt 0.486393 0.619069
vt 0.986393 0.616712
vt -0.013607 0.648212
vt -0.013607 0.616712
vt 0.486393 0.619069
vt 0.009000 0.650951
vt 0.509000 0.619319
vt 0.009000 0.619451
vt 1.009000 0.650951
vt 1.009000 0.619451
vt 0.509000 0.619319
vt -0.013607 0.648212
vt 0.486393 0.619069
vt -0.013607 0.616712
vt 0.986393 0.648212
vt 0.986393 0.616712
vt 0.486393 0.619069
vt 1.009000 0.650951
vt 0.509000 0.619319
vt 1.009000 0.619451
vt 0.009000 0.650951
vt 0.009000 0.619451
vt 0.509000 0.619319
vt 0.702404 0.022230
vt 0.702418 0.089542
vt 0.231231 0.022230
vt 0.169536 0.758980
vt 0.255221 0.673295
vt 0.855017 0.758980
vt 0.936697 0.332702
vt 0.936781 0.404917
vt 0.431276 0.332702
vt 0.825888 0.092096
vt 0.753673 0.164311
vt 0.248168 0.092096
vt 0.719629 0.518472
vt 0.268922 0.518472
vt 0.719629 0.067765
vt 0.714950 0.339492
vt 0.714925 0.403884
vt 0.328601 0.339492
# num_uvs: 210

g Default_Layer
s 1

usemtl WoodPlanks_ornaments1
f 26/1/26 18/2/18 20/3/20 9/4/9 
f 13/5/13 21/6/21 27/7/27 
f 11/8/11 25/9/25 10/10/10 1/11/1 
f 14/12/14 16/13/16 15/14/15 2/15/2 
f 36/16/36 34/17/34 37/18/37 33/19/33 28/20/28 35/21/35 32/22/32 3/23/3 
f 22/24/22 24/25/24 23/26/23 5/27/5 
f 27/28/27 11/29/11 1/30/1 
f 21/31/21 25/32/25 11/33/11 
f 7/34/7 10/35/10 25/36/25 
f 29/37/29 12/38/12 10/39/10 
f 13/40/13 14/41/14 2/42/2 
f 4/43/4 16/44/16 14/45/14 
f 8/46/8 39/47/39 16/48/16 
f 6/49/6 2/50/2 15/51/15 
f 27/52/27 26/53/26 9/54/9 
f 29/55/29 18/56/18 26/57/26 
f 4/58/4 38/59/38 18/60/18 
f 13/61/13 9/62/9 20/63/20 
f 21/64/21 22/65/22 5/66/5 
f 6/67/6 24/68/24 22/69/22 
f 8/70/8 23/71/23 24/72/24 
f 7/73/7 17/74/17 23/75/23 
f 29/76/29 26/77/26 12/78/12 
f 13/79/13 18/80/18 38/81/38 
f 4/82/4 14/83/14 38/84/38 
f 40/85/40 32/86/32 30/87/30 
f 29/88/29 31/89/31 40/90/40 
f 7/91/7 19/92/19 31/93/31 
f 8/94/8 30/95/30 19/96/19 
f 4/97/4 40/98/40 30/99/30 
f 30/100/30 28/101/28 19/102/19 
f 27/103/27 1/104/1 12/105/12 
f 19/106/19 37/107/37 31/108/31 
f 31/109/31 36/110/36 40/111/40 
f 21/112/21 23/113/23 17/114/17 
f 6/115/6 16/116/16 39/117/39 
f 8/118/8 24/119/24 39/120/39 
f 7/121/7 25/122/25 17/123/17 
f 15/124/15 16/125/16 6/126/6 
f 5/127/5 23/128/23 21/129/21 
f 29/130/29 40/131/40 4/132/4 
f 4/133/4 30/134/30 8/135/8 
f 8/136/8 19/137/19 7/138/7 
f 7/139/7 31/140/31 29/141/29 
f 20/142/20 18/143/18 13/144/13 
f 7/145/7 23/146/23 8/147/8 
f 39/148/39 24/149/24 6/150/6 
f 6/151/6 22/152/22 21/153/21 
f 27/154/27 9/155/9 13/156/13 
f 4/157/4 18/158/18 29/159/29 
f 12/160/12 26/161/26 27/162/27 
f 13/163/13 2/164/2 6/165/6 
f 8/166/8 16/167/16 4/168/4 
f 40/169/40 36/170/36 3/171/3 
f 31/172/31 34/173/34 36/174/36 
f 31/175/31 37/176/37 34/177/34 
f 19/178/19 33/179/33 37/180/37 
f 19/181/19 28/182/28 33/183/33 
f 30/184/30 35/185/35 28/186/28 
f 30/187/30 32/188/32 35/189/35 
f 40/190/40 3/191/3 32/192/32 
f 38/193/38 14/194/14 13/195/13 
f 29/196/29 10/197/10 7/198/7 
f 17/199/17 25/200/25 21/201/21 
f 21/202/21 11/203/11 27/204/27 
f 6/205/6 21/206/21 13/207/13 
f 10/208/10 12/209/12 1/210/1 
# num_faces: 67

