# Wavefront OBJ exported by MilkShape 3D

mtllib signpost3.mtl

v 2.743121 -29.295212 1.479462
v 3.370125 82.439728 1.135679
v 2.743121 -29.295212 -3.248971
v 3.370125 82.439728 -2.186740
v -1.985536 -29.295212 1.479462
v -1.985536 -29.295212 -3.248971
v 0.047367 82.439728 -2.186740
v 0.047367 82.439728 1.135679
v -1.985536 -0.196560 -3.248971
v -1.985536 -0.196560 1.479462
v 2.743121 -0.196560 1.479462
v 2.743121 -0.196560 -3.248971
v -2.542063 13.219816 -4.438801
v -2.542063 13.219816 1.403878
v 3.300255 13.219816 1.403878
v 3.300255 13.219816 -4.438801
v -2.683017 20.757471 -3.237593
v -2.683017 20.757471 2.006108
v 2.560244 20.757471 2.006108
v 2.560244 20.757471 -3.237593
v -3.108310 65.746407 -18.617599
v -3.108918 68.830688 25.373573
v 25.617834 62.714973 4.645025
v 4.034190 65.736176 -2.669499
v -3.108310 74.097328 -18.708624
v -3.108918 70.759003 25.283361
v 4.034190 74.088799 1.890701
v 4.034190 74.088799 -2.760524
v -0.616698 74.097328 -18.708624
v -0.616698 65.746407 -18.617599
v -0.617306 68.830688 25.373573
v -0.617306 70.759003 25.283361
v -0.616698 74.088799 1.890701
v -3.108310 74.088799 1.890701
v -3.108310 65.736176 1.980913
v -13.939928 64.818901 4.559689
v -0.616698 74.080276 19.556089
v -3.108310 74.080276 19.556089
v -3.108310 65.729355 19.646301
v -0.616698 65.729355 19.646301
v -0.616698 65.736176 -2.669499
v -3.108310 65.736176 -2.669499
v -3.108310 74.088799 -2.760524
v -0.616698 74.088799 -2.760524
v -14.198750 58.660564 4.562940
v 25.574091 61.061157 4.648276
v 25.574091 61.509563 1.904517
v 25.617834 63.163380 1.900453
v -13.939928 65.193993 2.259678
v -14.198750 59.035660 2.262929
v 4.034190 65.736176 1.980913
v 4.034190 65.289474 4.725485
v 3.814253 58.041664 4.728736
v 3.814253 58.488365 1.984977
v 21.168051 65.151367 1.941090
v 21.168051 64.702965 4.684849
v 20.947504 57.456860 4.688912
v 20.947504 57.903561 1.944340
v -0.925340 58.490070 1.984977
v -0.925340 58.041664 4.728736
v -0.616698 65.289474 4.725485
v -0.616698 65.736176 1.980913
v -3.069426 56.704971 15.402251
v -3.046339 54.720390 -27.811142
v -3.328855 51.378658 -27.888351
v -3.349513 49.255974 15.405502
v -1.325115 48.954197 15.405502
v -1.045029 56.403191 15.402251
v -1.021334 54.418610 -27.811142
v -1.303851 51.076878 -27.888351
v -1.331799 48.807568 -2.866178
v -3.356803 49.109348 -2.866178
v -3.074287 56.611198 -2.788969
v -1.049890 56.309418 -2.788969
v -1.317825 48.903046 -23.245255
v -3.342829 49.204826 -23.245255
v -3.060313 56.706676 -23.168045
v -1.035916 56.404896 -23.168045
v -1.045637 56.398075 1.986602
v -3.070034 56.699856 1.986602
v -3.350120 49.250858 1.989853
v -1.325723 48.949081 1.989853
# 82 vertices

vt 0.085938 0.013672
vt 0.015625 0.087891
vt 0.097656 0.087891
vt 0.031250 0.013672
vt 0.023438 0.992188
vt 0.093750 0.013672
vt 0.023438 0.087891
vt 0.105469 0.087891
vt 0.035156 0.013672
vt 0.023438 0.013672
vt 0.117188 0.062500
vt 0.117188 0.013672
vt 0.023438 0.062500
vt 0.460938 0.986328
vt 0.507813 0.931641
vt 0.460938 0.931641
vt 0.507813 0.986328
vt 0.113281 0.013672
vt 0.042969 0.087891
vt 0.125000 0.087891
vt 0.054688 0.013672
vt 0.105469 0.992188
vt 0.023438 0.738281
vt 0.105469 0.738281
vt 0.019531 0.992188
vt 0.101563 0.738281
vt 0.019531 0.738281
vt 0.101563 0.992188
vt 0.046875 0.992188
vt 0.128906 0.738281
vt 0.046875 0.738281
vt 0.128906 0.992188
vt 0.023438 0.619141
vt 0.128906 0.619141
vt 0.109375 0.619141
vt 0.007813 0.619141
vt 0.136719 0.619141
vt 0.035156 0.619141
vt 0.015625 0.554688
vt 0.105469 0.554688
vt 0.097656 0.554688
vt 0.003906 0.554688
vt 0.140625 0.554688
vt 0.046875 0.554688
vt 0.453125 0.990234
vt 0.500000 0.933594
vt 0.453125 0.933594
vt 0.500000 0.990234
vt 0.308594 0.451172
vt 0.437500 0.402344
vt 0.183594 0.398438
vt 0.367188 0.451172
vt 0.453125 0.494141
vt 0.523438 0.494141
vt 0.406250 0.503906
vt 0.531250 0.457031
vt 0.394531 0.462891
vt 0.546875 0.498047
vt 0.621094 0.453125
vt 0.781250 0.394531
vt 0.527344 0.394531
vt 0.679688 0.453125
vt 0.339844 0.468750
vt 0.296875 0.466797
vt 0.015625 0.160156
vt 0.097656 0.160156
vt 0.210938 0.988281
vt 0.441406 0.953125
vt 0.210938 0.953125
vt 0.441406 0.988281
vt 0.214844 0.986328
vt 0.433594 0.779297
vt 0.214844 0.777344
vt 0.433594 0.986328
vt 0.214844 0.990234
vt 0.437500 0.951172
vt 0.226563 0.951172
vt 0.425781 0.990234
vt 0.347656 0.472656
vt 0.214844 0.546875
vt 0.433594 0.546875
vt 0.296875 0.472656
vt 0.507813 0.560547
vt 0.460938 0.714844
vt 0.507813 0.714844
vt 0.460938 0.560547
vt 0.785156 0.003906
vt 0.527344 0.166016
vt 0.781250 0.166016
vt 0.527344 0.003906
vt 0.500000 0.566406
vt 0.453125 0.720703
vt 0.500000 0.720703
vt 0.453125 0.566406
vt 0.515625 0.486328
vt 0.445313 0.542969
vt 0.515625 0.542969
vt 0.445313 0.486328
vt 0.507813 0.759766
vt 0.460938 0.759766
vt 0.781250 0.212891
vt 0.527344 0.214844
vt 0.500000 0.765625
vt 0.453125 0.765625
vt 0.433594 0.777344
vt 0.105469 0.160156
vt 0.023438 0.160156
vt 0.453125 0.552734
vt 0.523438 0.552734
vt 0.347656 0.470703
vt 0.210938 0.533203
vt 0.398438 0.529297
vt 0.304688 0.472656
vt 0.042969 0.160156
vt 0.125000 0.160156
vt 0.242188 0.990234
vt 0.414063 0.812500
vt 0.226563 0.816406
vt 0.402344 0.986328
vt 0.218750 0.982422
vt 0.437500 0.957031
vt 0.230469 0.953125
vt 0.429688 0.986328
vt 0.453125 0.994141
vt 0.515625 0.822266
vt 0.445313 0.822266
vt 0.511719 0.994141
vt 0.441406 0.003906
vt 0.203125 0.152344
vt 0.457031 0.156250
vt 0.226563 0.001953
vt 0.457031 0.992188
vt 0.523438 0.826172
vt 0.453125 0.826172
vt 0.515625 0.992188
vt 0.445313 0.763672
vt 0.515625 0.763672
vt 0.457031 0.207031
vt 0.203125 0.205078
vt 0.453125 0.767578
vt 0.523438 0.767578
vt 0.226563 0.755859
vt 0.414063 0.751953
vt 0.703125 0.464844
vt 0.539063 0.519531
vt 0.757813 0.521484
vt 0.601563 0.464844
vt 0.500000 0.472656
vt 0.460938 0.517578
vt 0.500000 0.517578
vt 0.460938 0.472656
vt 0.503906 0.478516
vt 0.464844 0.523438
vt 0.503906 0.523438
vt 0.464844 0.478516
vt 0.414063 0.988281
vt 0.218750 0.812500
vt 0.218750 0.988281
vt 0.015625 0.224609
vt 0.097656 0.242188
vt 0.015625 0.242188
vt 0.273438 0.486328
vt 0.414063 0.548828
vt 0.359375 0.488281
vt 0.015625 0.306641
vt 0.097656 0.308594
vt 0.464844 0.894531
vt 0.503906 0.765625
vt 0.464844 0.765625
vt 0.503906 0.894531
vt 0.539063 0.988281
vt 0.757813 0.826172
vt 0.539063 0.826172
vt 0.757813 0.988281
vt 0.460938 0.890625
vt 0.500000 0.761719
vt 0.460938 0.761719
vt 0.500000 0.890625
vt 0.464844 0.718750
vt 0.503906 0.718750
vt 0.535156 0.767578
vt 0.757813 0.767578
vt 0.500000 0.714844
vt 0.410156 0.814453
vt 0.214844 0.812500
vt 0.121094 0.224609
vt 0.035156 0.224609
# 187 texture coordinates

vn 0.632681 0.706742 -0.316593
vn 0.705423 0.063665 0.705921
vn 0.599605 0.038929 -0.799348
vn 0.389584 0.492175 0.778453
vn -0.666667 -0.666667 -0.333333
vn 0.666667 -0.666667 0.333333
vn -0.408248 -0.408248 0.816497
vn 0.408248 -0.408248 -0.816497
vn -0.392375 0.478777 -0.785375
vn 0.001662 0.849545 -0.527514
vn -0.629745 0.710252 0.314583
vn -0.273879 0.499444 0.821916
vn 0.717928 0.653347 0.240243
vn -0.717938 0.685645 0.120232
vn 0.751449 0.342587 0.563878
vn 0.000710 0.737700 0.675128
vn -0.706991 -0.007114 0.707186
vn -0.706789 -0.040364 -0.706272
vn 0.706788 -0.018233 0.707190
vn 0.706991 -0.051429 -0.705350
vn -0.706354 -0.060134 0.705300
vn -0.709168 -0.023209 -0.704658
vn 0.706109 0.020205 0.707815
vn 0.708591 0.057079 -0.703307
vn -0.706449 -0.016086 0.707581
vn -0.846533 0.105076 -0.521863
vn 0.831864 -0.035307 0.553855
vn 0.705055 0.081424 -0.704462
vn 0.283103 -0.471433 0.835227
vn -0.716800 -0.659147 0.227429
vn 0.716792 -0.687964 0.113638
vn -0.763131 -0.317702 0.562758
vn 0.624453 -0.309928 0.716940
vn 0.108810 0.634671 0.765084
vn 0.313099 -0.667223 0.675856
vn 0.791642 0.492692 0.361328
vn 0.842164 -0.425222 -0.331582
vn 0.560312 0.352634 -0.749467
vn -0.359466 -0.476534 -0.802309
vn 0.363242 0.508272 -0.780842
vn 0.736014 -0.393591 -0.550790
vn -0.731283 0.415739 -0.540727
vn 0.716799 0.686693 -0.121044
vn 0.831846 -0.017689 -0.554724
vn -0.331637 -0.670502 -0.663659
vn 0.335040 0.662777 -0.669682
vn 0.814931 -0.411906 -0.407702
vn -0.818057 0.404570 -0.408785
vn -0.196204 -0.577312 -0.792600
vn -0.722219 -0.649408 0.238051
vn -0.695553 0.683666 -0.220923
vn -0.418975 -0.364322 -0.831703
vn -0.404293 0.392656 0.826056
vn -0.707107 0.707107 0.000252
vn -0.707107 -0.707107 -0.000151
vn 0.214498 0.721805 -0.658019
vn 0.886098 0.024218 0.462864
vn 0.117506 -0.620331 -0.775488
vn -0.733353 -0.668444 0.124001
vn -0.240722 0.689267 0.683347
vn 0.240822 -0.688704 0.683880
vn 0.845622 0.360282 0.393853
vn -0.845594 -0.359951 0.394215
vn -0.018831 0.647771 0.761602
vn -0.017826 -0.761443 0.647987
vn -0.011750 -0.894095 -0.447724
vn 0.008504 0.647907 0.761672
vn -0.779783 -0.618916 -0.094243
vn -0.648092 0.734945 -0.199582
vn 0.779512 0.621175 -0.080644
vn 0.649836 -0.728681 -0.216189
vn -0.145436 -0.942367 -0.301317
vn 0.148930 0.988827 -0.006481
vn 0.221744 0.925995 -0.305554
vn -0.144622 -0.989458 0.007543
vn -0.769606 -0.638483 0.006775
vn -0.638574 0.769505 -0.009273
vn -0.769617 -0.638398 0.011753
vn -0.638563 0.769566 -0.002263
# 79 normals

g 
usemtl mat_signpost3_1
s 1
f 4/1/1 27/2/2 28/3/3
f 4/1/1 2/4/4 27/2/2
f 6/5/5 1/5/6 5/5/7
f 6/5/5 3/5/8 1/5/6
f 7/6/9 28/7/3 44/8/10
f 7/6/9 4/9/1 28/7/3
f 8/10/11 4/11/1 7/12/9
f 8/10/11 2/13/4 4/11/1
f 26/14/12 37/15/13 38/16/14
f 26/14/12 32/17/15 37/15/13
f 2/18/4 33/19/16 27/20/2
f 2/18/4 8/21/11 33/19/16
f 6/22/5 10/23/17 9/24/18
f 6/22/5 5/5/7 10/23/17
f 5/25/7 11/26/19 10/27/17
f 5/25/7 1/28/6 11/26/19
f 1/5/6 12/24/20 11/23/19
f 1/5/6 3/22/8 12/24/20
f 3/29/8 9/30/18 12/31/20
f 3/29/8 6/32/5 9/30/18
f 9/24/18 14/33/21 13/34/22
f 9/24/18 10/23/17 14/33/21
f 10/27/17 15/35/23 14/36/21
f 10/27/17 11/26/19 15/35/23
f 11/23/19 16/34/24 15/33/23
f 11/23/19 12/24/20 16/34/24
f 12/31/20 13/37/22 16/38/24
f 12/31/20 9/30/18 13/37/22
f 13/34/22 18/39/25 17/40/26
f 13/34/22 14/33/21 18/39/25
f 14/36/21 19/41/27 18/42/25
f 14/36/21 15/35/23 19/41/27
f 15/33/23 20/40/28 19/39/27
f 15/33/23 16/34/24 20/40/28
f 16/38/24 17/43/26 20/44/28
f 16/38/24 13/37/22 17/43/26
f 31/45/29 39/46/30 40/47/31
f 31/45/29 22/48/32 39/46/30
f 46/49/33 56/50/34 57/51/35
f 46/49/33 23/52/36 56/50/34
f 23/53/36 47/54/37 48/54/38
f 23/53/36 46/53/33 47/54/37
f 65/55/39 69/56/40 70/57/41
f 65/55/39 64/58/42 69/56/40
f 22/59/32 38/60/14 39/61/30
f 22/59/32 26/62/12 38/60/14
f 26/63/12 31/64/29 32/63/15
f 26/63/12 22/64/32 31/64/29
f 51/65/43 28/3/3 27/2/2
f 51/65/43 24/66/44 28/3/3
f 21/67/45 29/68/46 30/69/47
f 21/67/45 25/70/48 29/68/46
f 30/71/47 44/72/10 41/73/49
f 30/71/47 29/74/46 44/72/10
f 45/75/50 49/76/51 50/77/52
f 45/75/50 36/78/53 49/76/51
f 32/79/15 40/80/31 37/81/13
f 32/79/15 31/82/29 40/80/31
f 8/4/11 44/3/10 33/2/16
f 8/4/11 7/1/9 44/3/10
f 29/83/46 43/84/54 44/85/10
f 29/83/46 25/86/48 43/84/54
f 25/87/48 42/88/55 43/89/54
f 25/87/48 21/90/45 42/88/55
f 21/91/45 41/92/49 42/93/55
f 21/91/45 30/94/47 41/92/49
f 23/95/36 55/96/56 56/97/34
f 23/95/36 48/98/38 55/96/56
f 33/99/16 38/16/14 37/15/13
f 33/99/16 34/100/54 38/16/14
f 34/101/54 39/61/30 38/60/14
f 34/101/54 35/102/55 39/61/30
f 35/103/55 40/47/31 39/46/30
f 35/103/55 62/104/57 40/47/31
f 62/73/57 37/81/13 40/80/31
f 62/73/57 33/105/16 37/81/13
f 62/104/57 42/93/55 41/92/49
f 62/104/57 35/103/55 42/93/55
f 35/102/55 43/89/54 42/88/55
f 35/102/55 34/101/54 43/89/54
f 34/100/54 44/85/10 43/84/54
f 34/100/54 33/99/16 44/85/10
f 28/7/3 41/106/49 44/8/10
f 28/7/3 24/107/44 41/106/49
f 47/54/37 57/108/35 58/109/58
f 47/54/37 46/53/33 57/108/35
f 48/110/38 58/111/58 55/112/56
f 48/110/38 47/113/37 58/111/58
f 27/20/2 62/114/57 51/115/43
f 27/20/2 33/19/16 62/114/57
f 50/116/52 62/117/57 59/118/59
f 50/116/52 49/119/51 62/117/57
f 63/120/60 67/121/61 68/122/62
f 63/120/60 66/123/63 67/121/61
f 49/124/51 61/125/64 62/126/57
f 49/124/51 36/127/53 61/125/64
f 36/128/53 60/129/65 61/130/64
f 36/128/53 45/131/50 60/129/65
f 45/132/50 59/133/59 60/134/65
f 45/132/50 50/135/52 59/133/59
f 19/5/27 51/5/43 54/5/66
f 19/39/27 24/66/44 51/65/43
f 19/39/27 20/40/28 24/66/44
f 51/136/43 56/97/34 55/96/56
f 51/136/43 52/137/67 56/97/34
f 52/138/67 57/51/35 56/50/34
f 52/138/67 53/139/65 57/51/35
f 53/140/65 58/109/58 57/108/35
f 53/140/65 54/141/66 58/109/58
f 54/142/66 55/112/56 58/111/58
f 54/142/66 51/143/43 55/112/56
f 54/141/66 60/134/65 59/133/59
f 54/141/66 53/140/65 60/134/65
f 53/139/65 61/130/64 60/129/65
f 53/139/65 52/138/67 61/130/64
f 52/137/67 62/126/57 61/125/64
f 52/137/67 51/136/43 62/126/57
f 64/144/42 76/145/68 77/146/69
f 64/144/42 65/147/39 76/145/68
f 69/148/40 77/149/69 78/150/70
f 69/148/40 64/151/42 77/149/69
f 65/152/39 75/153/71 76/154/68
f 65/152/39 70/155/41 75/153/71
f 68/156/62 82/157/72 79/117/73
f 68/156/62 67/158/61 82/157/72
f 59/159/59 74/160/74 79/161/73
f 59/159/59 41/66/49 74/160/74
f 59/159/59 62/65/57 41/66/49
f 70/162/41 78/163/70 75/80/71
f 70/162/41 69/164/40 78/163/70
f 17/40/26 82/165/72 71/166/75
f 17/40/26 18/39/25 82/165/72
f 67/167/61 81/168/76 82/169/72
f 67/167/61 66/170/63 81/168/76
f 66/171/63 80/172/77 81/173/76
f 66/171/63 63/174/60 80/172/77
f 63/175/60 79/176/73 80/177/77
f 63/175/60 68/178/62 79/176/73
f 41/5/49 71/5/75 74/5/74
f 41/5/49 17/5/26 71/5/75
f 41/106/49 20/44/28 17/43/26
f 41/106/49 24/107/44 20/44/28
f 71/179/75 76/154/68 75/153/71
f 71/179/75 72/180/78 76/154/68
f 72/181/78 77/146/69 76/145/68
f 72/181/78 73/182/79 77/146/69
f 73/84/79 78/150/70 77/149/69
f 73/84/79 74/183/74 78/150/70
f 74/184/74 75/80/71 78/163/70
f 74/184/74 71/185/75 75/80/71
f 74/183/74 80/177/77 79/176/73
f 74/183/74 73/84/79 80/177/77
f 73/182/79 81/173/76 80/172/77
f 73/182/79 72/181/78 81/173/76
f 72/180/78 82/169/72 81/168/76
f 72/180/78 71/179/75 82/169/72
f 18/5/25 79/5/73 82/5/72
f 18/5/25 59/5/59 79/5/73
f 18/42/25 54/186/66 59/187/59
f 18/42/25 19/41/27 54/186/66
# 160 triangles in group

# 160 triangles total

