# Wavefront OBJ exported by MilkShape 3D

mtllib signpost4.mtl

v 5.930618 -60.033440 49.670826
v 20.059074 84.441460 82.550606
v 5.930618 -60.033440 42.397972
v 20.057968 84.441460 -0.426270
v -1.341008 -60.033440 49.670826
v -1.341008 -60.033440 42.397972
v -16.185677 84.583931 -0.426270
v -16.184570 84.583931 82.550606
v -0.440074 13.958039 41.081161
v -0.440074 13.958039 46.550995
v 9.089693 13.843596 46.550995
v 9.077526 13.820239 -0.428802
v -0.557876 19.829712 40.635471
v -0.557876 19.829712 46.340813
v 9.207495 19.715267 46.340813
v 9.195328 19.691912 -0.428802
v -3.737414 52.728828 -0.428802
v -3.737414 52.782547 71.798332
v 4.852705 52.782547 46.105305
v 4.852705 52.782547 40.989998
v -3.737414 76.136108 -0.428802
v -3.737414 76.189827 71.798332
v 4.852705 76.189827 46.105305
v 4.852705 76.189827 40.989998
v -14.361134 81.089890 -0.426270
v -14.360027 81.089890 82.550606
v 18.104563 80.685837 82.550606
v 18.103456 80.685837 -0.426270
v -0.263095 88.035934 82.550606
v -0.263095 93.029427 82.550606
v -0.264201 93.029427 -0.426270
v -0.264201 88.035934 -0.426270
v 4.852152 88.035934 -0.426270
v 4.852152 93.029427 -0.426270
v 4.852705 93.029427 82.550606
v 4.852705 88.035934 82.550606
v -16.184570 84.583931 46.105305
v -14.360580 81.089890 46.105305
v -0.263095 88.035934 46.105305
v 4.852705 88.035934 46.105305
v 18.104010 80.685837 46.105305
v 20.059074 84.441460 46.105305
v 4.852705 93.029427 46.105305
v -0.263095 93.029427 46.105305
v -14.360580 81.089890 40.989998
v -16.184570 84.583931 40.989998
v -0.263095 93.029427 40.989998
v 4.852705 93.029427 40.989998
v 20.059074 84.441460 40.989998
v 18.104010 80.685837 40.989998
v 4.852705 88.035934 40.989998
v -0.263095 88.035934 40.989998
v -0.263095 76.136108 -0.426270
v -0.263095 52.728828 -0.428802
v -0.263095 52.782547 71.798332
v -0.263095 76.189827 71.798332
v -0.263095 76.189827 46.105305
v -3.737414 76.189827 46.105305
v -3.737414 52.782547 46.105305
v -0.263095 52.782547 46.105305
v -0.263095 52.782547 40.989998
v -3.737414 52.782547 40.989998
v -3.737414 76.189827 40.989998
v -0.263095 76.189827 40.989998
v 5.147486 19.829712 46.340813
v 5.029684 13.958039 46.550995
v 5.017517 13.934684 -0.428802
v 5.135318 19.806356 -0.428802
v 5.147486 19.829712 40.635471
v 9.207495 19.715267 40.635471
v 9.089693 13.843596 41.081161
v 5.029684 13.958039 41.081161
v -0.440074 -20.505920 47.265114
v -0.440074 -20.505920 41.795277
v 5.029684 -20.505920 41.795277
v 5.029684 -20.505920 47.265114
v -0.744810 -34.323269 48.252720
v -0.744810 -34.323269 42.175129
v 5.334420 -34.323269 42.175129
v 5.334420 -34.323269 48.252720
v 5.930618 -60.033440 -50.525898
v 20.059074 84.441460 -83.405678
v 5.930618 -60.033440 -43.253044
v -1.341008 -60.033440 -50.525898
v -1.341008 -60.033440 -43.253044
v -16.184570 84.583931 -83.405678
v -0.440074 13.958039 -41.936234
v -0.440074 13.958039 -47.406067
v 9.089693 13.843596 -47.406067
v -0.557876 19.829712 -41.490543
v -0.557876 19.829712 -47.195885
v 9.207495 19.715267 -47.195885
v -3.737414 52.782547 -72.653404
v 4.852705 52.782547 -46.960377
v 4.852705 52.782547 -41.845070
v -3.737414 76.189827 -72.653404
v 4.852705 76.189827 -46.960377
v 4.852705 76.189827 -41.845070
v -14.360027 81.089890 -83.405678
v 18.104563 80.685837 -83.405678
v -0.263095 88.035934 -83.405678
v -0.263095 93.029427 -83.405678
v 4.853258 93.029427 -83.405678
v 4.853258 88.035934 -83.405678
v -16.184570 84.583931 -46.960377
v -14.360580 81.089890 -46.960377
v -0.263095 88.035934 -46.960377
v 4.852705 88.035934 -46.960377
v 18.104010 80.685837 -46.960377
v 20.059074 84.441460 -46.960377
v 4.852705 93.029427 -46.960377
v -0.263095 93.029427 -46.960377
v -14.360580 81.089890 -41.845070
v -16.184570 84.583931 -41.845070
v -0.263095 93.029427 -41.845070
v 4.852705 93.029427 -41.845070
v 20.059074 84.441460 -41.845070
v 18.104010 80.685837 -41.845070
v 4.852705 88.035934 -41.845070
v -0.263095 88.035934 -41.845070
v -0.263095 52.782547 -72.653404
v -0.263095 76.189827 -72.653404
v -0.263095 76.189827 -46.960377
v -3.737414 76.189827 -46.960377
v -3.737414 52.782547 -46.960377
v -0.263095 52.782547 -46.960377
v -0.263095 52.782547 -41.845070
v -3.737414 52.782547 -41.845070
v -3.737414 76.189827 -41.845070
v -0.263095 76.189827 -41.845070
v 5.147486 19.829712 -47.195885
v 5.029684 13.958039 -47.406067
v 5.147486 19.829712 -41.490543
v 9.207495 19.715267 -41.490543
v 9.089693 13.843596 -41.936234
v 5.029684 13.958039 -41.936234
v -0.440074 -20.505920 -48.120182
v -0.440074 -20.505920 -42.650349
v 5.029684 -20.505920 -42.650349
v 5.029684 -20.505920 -48.120182
v -0.744810 -34.323269 -49.107792
v -0.744810 -34.323269 -43.030201
v 5.334420 -34.323269 -43.030201
v 5.334420 -34.323269 -49.107792
# 144 vertices

vt 0.859375 0.992188
vt 0.835938 0.878906
vt 0.859375 0.878906
vt 0.835938 0.992188
vt 0.429688 0.226563
vt 0.304688 0.992188
vt 0.601563 0.878906
vt 0.304688 0.878906
vt 0.601563 0.992188
vt 0.429688 0.992188
vt 0.406250 0.878906
vt 0.429688 0.878906
vt 0.406250 0.992188
vt 0.078125 0.980469
vt 0.226563 0.812500
vt 0.070313 0.812500
vt 0.265625 0.980469
vt 0.031250 0.980469
vt 0.203125 0.812500
vt 0.046875 0.812500
vt 0.218750 0.980469
vt 0.179688 0.496094
vt 0.015625 0.917969
vt 0.179688 0.917969
vt 0.015625 0.496094
vt 0.046875 0.980469
vt 0.218750 0.812500
vt 0.062500 0.812500
vt 0.234375 0.980469
vt 0.039063 0.496094
vt 0.179688 0.457031
vt 0.031250 0.457031
vt 0.187500 0.496094
vt 0.257813 0.927734
vt 0.039063 0.962891
vt 0.250000 0.962891
vt 0.046875 0.925781
vt 0.257813 0.912109
vt 0.257813 0.496094
vt 0.046875 0.457031
vt 0.195313 0.242188
vt 0.054688 0.242188
vt 0.203125 0.457031
vt 0.203125 0.496094
vt 0.015625 0.972656
vt 0.203125 0.972656
vt 0.070313 0.457031
vt 0.210938 0.242188
vt 0.078125 0.242188
vt 0.218750 0.457031
vt 0.429688 0.451172
vt 0.898438 0.371094
vt 0.429688 0.371094
vt 0.898438 0.451172
vt 0.187500 0.242188
vt 0.054688 0.087891
vt 0.187500 0.087891
vt 0.609375 0.992188
vt 0.609375 0.878906
vt 0.671875 0.992188
vt 0.671875 0.878906
vt 0.609375 0.732422
vt 0.671875 0.861328
vt 0.609375 0.861328
vt 0.671875 0.732422
vt 0.695313 0.992188
vt 0.984375 0.878906
vt 0.695313 0.878906
vt 0.984375 0.992188
vt 0.054688 0.011719
vt 0.187500 0.011719
vt 0.406250 0.732422
vt 0.429688 0.861328
vt 0.406250 0.861328
vt 0.429688 0.732422
vt 0.195313 0.011719
vt 0.195313 0.087891
vt 0.835938 0.861328
vt 0.835938 0.732422
vt 0.859375 0.861328
vt 0.859375 0.732422
vt 0.984375 0.732422
vt 0.695313 0.861328
vt 0.984375 0.861328
vt 0.695313 0.732422
vt 0.601563 0.861328
vt 0.601563 0.732422
vt 0.304688 0.861328
vt 0.304688 0.732422
vt 0.078125 0.087891
vt 0.210938 0.011719
vt 0.078125 0.011719
vt 0.210938 0.087891
vt 0.453125 0.728516
vt 0.796875 0.878906
vt 0.453125 0.878906
vt 0.796875 0.728516
vt 0.171875 0.242188
vt 0.039063 0.242188
vt 0.796875 0.992188
vt 0.453125 0.898438
vt 0.796875 0.898438
vt 0.453125 0.992188
vt 0.171875 0.011719
vt 0.039063 0.087891
vt 0.171875 0.087891
vt 0.039063 0.011719
vt 0.898438 0.226563
vt 0.429688 0.355469
vt 0.898438 0.355469
vt 0.195313 0.496094
vt 0.054688 0.496094
vt 0.281250 0.980469
vt 0.085938 0.812500
vt 0.242188 0.812500
vt 0.093750 0.980469
vt 0.023438 0.917969
vt 0.023438 0.496094
vt 0.195313 0.457031
vt 0.054688 0.972656
vt 0.218750 0.914063
vt 0.054688 0.914063
vt 0.218750 0.972656
vt 0.257813 0.970703
vt 0.179688 0.972656
vt 0.210938 0.496094
vt 0.070313 0.496094
vt 0.062500 0.722656
vt 0.203125 0.722656
vt 0.070313 0.722656
vt 0.210938 0.722656
vt 0.218750 0.722656
vt 0.078125 0.722656
vt 0.054688 0.722656
vt 0.195313 0.722656
vt 0.859375 0.585938
vt 0.835938 0.470703
vt 0.859375 0.470703
vt 0.835938 0.585938
vt 0.304688 0.585938
vt 0.601563 0.470703
vt 0.304688 0.470703
vt 0.601563 0.585938
vt 0.429688 0.585938
vt 0.406250 0.470703
vt 0.429688 0.470703
vt 0.406250 0.585938
vt 0.210938 0.816406
vt 0.015625 0.984375
vt 0.203125 0.984375
vt 0.046875 0.816406
vt 0.218750 0.816406
vt 0.046875 0.984375
vt 0.234375 0.984375
vt 0.062500 0.816406
vt 0.179688 0.074219
vt 0.015625 0.074219
vt 0.250000 0.460938
vt 0.093750 0.500000
vt 0.234375 0.500000
vt 0.101563 0.460938
vt 0.031250 0.054688
vt 0.226563 0.019531
vt 0.023438 0.019531
vt 0.226563 0.052734
vt 0.257813 0.078125
vt 0.210938 0.246094
vt 0.070313 0.460938
vt 0.218750 0.460938
vt 0.078125 0.246094
vt 0.203125 0.017578
vt 0.015625 0.017578
vt 0.429688 0.082031
vt 0.898438 0.001953
vt 0.429688 0.001953
vt 0.898438 0.082031
vt 0.109375 0.087891
vt 0.242188 0.242188
vt 0.109375 0.242188
vt 0.242188 0.087891
vt 0.609375 0.585938
vt 0.609375 0.470703
vt 0.671875 0.585938
vt 0.671875 0.470703
vt 0.609375 0.601563
vt 0.671875 0.601563
vt 0.695313 0.585938
vt 0.984375 0.470703
vt 0.695313 0.470703
vt 0.984375 0.585938
vt 0.109375 0.011719
vt 0.242188 0.011719
vt 0.406250 0.601563
vt 0.429688 0.601563
vt 0.210938 0.015625
vt 0.078125 0.093750
vt 0.210938 0.093750
vt 0.078125 0.015625
vt 0.835938 0.601563
vt 0.859375 0.601563
vt 0.984375 0.601563
vt 0.695313 0.601563
vt 0.601563 0.601563
vt 0.304688 0.601563
vt 0.453125 0.576172
vt 0.796875 0.576172
vt 0.242188 0.246094
vt 0.109375 0.246094
vt 0.796875 0.558594
vt 0.453125 0.464844
vt 0.796875 0.464844
vt 0.453125 0.558594
vt 0.109375 0.093750
vt 0.242188 0.015625
vt 0.109375 0.015625
vt 0.242188 0.093750
vt 0.898438 0.097656
vt 0.429688 0.097656
vt 0.210938 0.500000
vt 0.070313 0.500000
vt 0.203125 0.980469
vt 0.015625 0.980469
vt 0.210938 0.812500
vt 0.023438 0.074219
vt 0.250000 0.457031
vt 0.101563 0.457031
vt 0.054688 0.076172
vt 0.218750 0.017578
vt 0.054688 0.017578
vt 0.218750 0.076172
vt 0.257813 0.021484
vt 0.179688 0.017578
vt 0.078125 0.726563
vt 0.218750 0.726563
vt 0.093750 0.496094
vt 0.234375 0.496094
vt 0.070313 0.726563
vt 0.210938 0.726563
# 238 texture coordinates

vn 0.914658 -0.021260 0.403669
vn 0.288082 -0.957606 -0.000001
vn 0.958711 0.284382 0.000000
vn -0.027839 -0.741265 0.670635
vn -0.672173 -0.659680 -0.336164
vn 0.681837 -0.647428 0.340493
vn -0.417336 -0.361790 0.833630
vn 0.408564 -0.406284 -0.817318
vn -0.607003 0.434024 0.665711
vn -0.241444 0.970415 0.000000
vn -0.955050 0.296443 0.000003
vn -0.111910 0.688605 0.716449
vn -0.539159 -0.738373 0.405109
vn -0.310707 -0.950506 0.000002
vn 0.210780 -0.666230 0.715338
vn -0.706403 0.062669 0.705030
vn -0.707061 0.005296 -0.707133
vn 0.706460 0.058586 0.705324
vn -0.723958 -0.689844 0.000067
vn 0.689844 -0.723958 0.000203
vn -0.023048 -0.836969 -0.546765
vn 0.707108 0.001129 -0.707105
vn -0.599889 -0.046583 -0.798726
vn -0.600035 0.010936 0.799899
vn -0.832257 -0.018616 -0.554078
vn -0.832100 0.010105 0.554533
vn 0.320863 -0.661016 0.678311
vn 0.413612 0.428328 0.803406
vn 0.188458 -0.164832 0.968150
vn 0.821082 0.402789 0.404457
vn 0.723958 0.689844 -0.000268
vn 0.333333 -0.666667 0.666667
vn -0.707107 -0.707107 0.000000
vn 0.000022 -0.829898 0.557915
vn -0.816497 -0.408248 0.408248
vn 0.599993 0.004648 0.799992
vn 0.017158 0.587092 -0.809338
vn -0.689844 0.723958 0.000203
vn 0.000008 -0.596340 -0.802732
vn 0.832025 0.007946 -0.554682
vn -0.707107 0.707107 0.000000
vn -0.333333 0.666667 0.666667
vn 0.816497 0.408248 0.408248
vn 0.600000 0.000000 -0.800000
vn 0.832050 0.000000 0.554700
vn -0.139166 -0.968508 0.206458
vn -0.115952 -0.687175 0.717179
vn -0.109310 -0.870244 0.480340
vn 0.226913 -0.973915 0.000001
vn 0.114424 -0.970980 -0.210010
vn 0.077409 -0.876585 -0.474980
vn -0.250514 -0.968113 0.000001
vn 0.235219 0.655656 0.717487
vn 0.254231 0.967143 0.000000
vn 0.000000 0.600000 0.800000
vn 0.000000 0.831884 -0.554949
vn 0.707107 -0.707106 -0.000306
vn 0.707107 0.707106 -0.000306
vn -0.707136 -0.012642 -0.706965
vn -0.706917 0.036960 0.706330
vn 0.707132 -0.005850 -0.707057
vn 0.707028 0.043687 0.705835
vn 0.530954 -0.740557 -0.411902
vn 0.618838 0.423393 -0.661648
vn -0.681837 -0.647428 -0.340493
vn 0.672173 -0.659680 0.336164
vn -0.408564 -0.406284 0.817318
vn 0.417336 -0.361790 -0.833630
vn -0.223819 0.660761 -0.716449
vn -0.913102 -0.017205 -0.407367
vn -0.000813 -0.748420 -0.663224
vn 0.105391 -0.690784 -0.715339
vn -0.707108 0.001129 0.707105
vn -0.706460 0.058586 -0.705324
vn 0.706403 0.062669 -0.705030
vn -0.016537 -0.621928 0.782899
vn 0.707061 0.005296 0.707133
vn -0.600194 -0.032221 0.799205
vn -0.600049 0.014575 -0.799831
vn -0.831993 -0.032301 0.553844
vn -0.832058 0.011304 -0.554573
vn 0.403338 -0.387905 -0.828763
vn 0.346619 0.671722 -0.654710
vn 0.812232 -0.413427 -0.411530
vn 0.196908 0.216231 -0.956280
vn -0.333333 -0.666667 -0.666667
vn 0.816497 -0.408248 -0.408248
vn 0.832027 0.006944 -0.554692
vn 0.023582 0.831501 0.555023
vn 0.599995 0.006092 0.799981
vn -0.816497 0.408248 -0.408248
vn 0.333333 0.666667 -0.666667
vn -0.231912 -0.657167 -0.717181
vn 0.117613 0.686571 -0.717487
vn -0.707028 0.043687 -0.705835
vn -0.707132 -0.005850 0.707057
vn 0.707136 -0.012642 0.706965
vn 0.706917 0.036960 -0.706330
# 98 normals

g 
usemtl mat_signpost4_1
s 1
f 2/1/1 41/2/2 42/3/3
f 2/1/1 27/4/4 41/2/2
f 6/5/5 1/5/6 5/5/7
f 6/5/5 3/5/8 1/5/6
f 8/6/9 44/7/10 37/8/11
f 8/6/9 30/9/12 44/7/10
f 26/10/13 37/11/11 38/12/14
f 26/10/13 8/13/9 37/11/11
f 8/5/9 29/5/15 30/5/12
f 8/5/9 26/5/13 29/5/15
f 6/14/5 77/15/16 78/16/17
f 6/14/5 5/17/7 77/15/16
f 5/18/7 80/19/18 77/20/16
f 5/18/7 1/21/6 80/19/18
f 67/22/19 71/23/20 72/24/21
f 67/22/19 12/25/20 71/23/20
f 3/26/8 78/27/17 79/28/22
f 3/26/8 6/29/5 78/27/17
f 9/30/23 14/31/24 13/32/25
f 9/30/23 10/33/26 14/31/24
f 11/34/27 65/35/28 66/36/29
f 11/34/27 15/37/30 65/35/28
f 12/25/20 70/38/31 71/23/20
f 12/25/20 16/39/31 70/38/31
f 55/5/32 59/5/33 60/5/34
f 55/5/32 18/5/35 59/5/33
f 14/40/24 19/41/36 60/42/34
f 14/40/24 65/43/28 19/41/36
f 16/44/31 69/45/37 70/46/31
f 16/44/31 68/25/38 69/45/37
f 69/47/37 61/48/39 20/49/40
f 69/47/37 13/50/25 61/48/39
f 18/51/35 58/52/41 59/53/33
f 18/51/35 22/54/42 58/52/41
f 22/5/42 55/5/32 56/5/43
f 22/5/42 18/5/35 55/5/32
f 19/55/36 24/56/44 23/57/45
f 19/55/36 20/42/40 24/56/44
f 29/58/15 38/12/14 39/59/46
f 29/58/15 26/10/13 38/12/14
f 36/60/47 39/59/46 40/61/48
f 36/60/47 29/58/15 39/59/46
f 27/4/4 40/61/48 41/2/2
f 27/4/4 36/60/47 40/61/48
f 32/62/49 51/63/50 52/64/51
f 32/62/49 33/65/52 51/63/50
f 27/5/4 35/5/53 36/5/47
f 27/5/4 2/5/1 35/5/53
f 35/66/53 42/67/3 43/68/54
f 35/66/53 2/69/1 42/67/3
f 22/5/42 57/5/55 58/5/41
f 22/5/42 56/5/43 57/5/55
f 30/9/12 43/68/54 44/7/10
f 30/9/12 35/66/53 43/68/54
f 30/5/12 36/5/47 35/5/53
f 30/5/12 29/5/15 36/5/47
f 23/57/45 51/70/50 40/71/48
f 23/57/45 24/56/44 51/70/50
f 7/72/11 45/73/14 46/74/11
f 7/72/11 25/75/14 45/73/14
f 25/75/14 52/64/51 45/73/14
f 25/75/14 32/62/49 52/64/51
f 57/56/55 40/76/48 39/70/46
f 57/56/55 23/77/45 40/76/48
f 33/65/52 50/78/2 51/63/50
f 33/65/52 28/79/2 50/78/2
f 28/79/2 49/80/3 50/78/2
f 28/79/2 4/81/3 49/80/3
f 4/82/3 48/83/54 49/84/3
f 4/82/3 34/85/54 48/83/54
f 34/85/54 47/86/10 48/83/54
f 34/85/54 31/87/10 47/86/10
f 31/87/10 46/88/11 47/86/10
f 31/87/10 7/89/11 46/88/11
f 38/12/14 46/74/11 45/73/14
f 38/12/14 37/11/11 46/74/11
f 37/8/11 47/86/10 46/88/11
f 37/8/11 44/7/10 47/86/10
f 44/7/10 48/83/54 47/86/10
f 44/7/10 43/68/54 48/83/54
f 43/68/54 49/84/3 48/83/54
f 43/68/54 42/67/3 49/84/3
f 42/3/3 50/78/2 49/80/3
f 42/3/3 41/2/2 50/78/2
f 41/2/2 51/63/50 50/78/2
f 41/2/2 40/61/48 51/63/50
f 24/90/44 52/91/51 51/92/50
f 24/90/44 64/93/56 52/91/51
f 39/59/46 45/73/14 52/64/51
f 39/59/46 38/12/14 45/73/14
f 54/94/57 64/95/56 61/96/39
f 54/94/57 53/97/58 64/95/56
f 13/32/25 60/98/34 61/99/39
f 13/32/25 14/31/24 60/98/34
f 56/100/43 60/101/34 57/102/55
f 56/100/43 55/103/32 60/101/34
f 39/104/46 64/105/56 57/106/55
f 39/104/46 52/107/51 64/105/56
f 53/5/58 63/5/41 64/5/56
f 53/5/58 21/5/41 63/5/41
f 21/108/41 62/109/33 63/110/41
f 21/108/41 17/5/33 62/109/33
f 17/5/33 61/5/39 62/5/33
f 17/5/33 54/5/57 61/5/39
f 19/41/36 57/56/55 60/42/34
f 19/41/36 23/77/45 57/56/55
f 60/5/34 62/5/33 61/5/39
f 60/5/34 59/5/33 62/5/33
f 59/53/33 63/110/41 62/109/33
f 59/53/33 58/52/41 63/110/41
f 58/5/41 64/5/56 63/5/41
f 58/5/41 57/5/55 64/5/56
f 24/90/44 61/48/39 64/93/56
f 24/90/44 20/49/40 61/48/39
f 14/40/24 66/111/29 65/43/28
f 14/40/24 10/112/26 66/111/29
f 1/113/6 79/114/22 80/115/18
f 1/113/6 3/116/8 79/114/22
f 68/39/38 72/117/21 69/38/37
f 68/39/38 67/118/19 72/117/21
f 20/42/40 65/119/28 69/40/37
f 20/42/40 19/55/36 65/119/28
f 65/120/28 70/121/31 69/122/37
f 65/120/28 15/123/30 70/121/31
f 15/124/30 71/23/20 70/38/31
f 15/124/30 11/45/27 71/23/20
f 11/45/27 72/24/21 71/23/20
f 11/45/27 66/125/29 72/24/21
f 9/126/23 69/47/37 72/127/21
f 9/126/23 13/50/25 69/47/37
f 10/33/26 74/128/59 73/129/60
f 10/33/26 9/30/23 74/128/59
f 9/126/23 75/130/61 74/131/59
f 9/126/23 72/127/21 75/130/61
f 72/112/21 76/132/62 75/133/61
f 72/112/21 66/44/29 76/132/62
f 66/111/29 73/134/60 76/135/62
f 66/111/29 10/112/26 73/134/60
f 73/129/60 78/16/17 77/15/16
f 73/129/60 74/128/59 78/16/17
f 74/131/59 79/28/22 78/27/17
f 74/131/59 75/130/61 79/28/22
f 75/133/61 80/115/18 79/114/22
f 75/133/61 76/132/62 80/115/18
f 76/135/62 77/20/16 80/19/18
f 76/135/62 73/134/60 77/20/16
f 110/136/3 100/137/63 82/138/64
f 110/136/3 109/139/2 100/137/63
f 84/5/65 83/5/66 85/5/67
f 84/5/65 81/5/68 83/5/66
f 105/140/11 102/141/69 86/142/70
f 105/140/11 112/143/10 102/141/69
f 106/144/14 86/145/70 99/146/71
f 106/144/14 105/147/11 86/145/70
f 102/5/69 99/5/71 86/5/70
f 102/5/69 101/5/72 99/5/71
f 142/148/73 84/149/65 85/150/67
f 142/148/73 141/151/74 84/149/65
f 141/152/74 81/153/68 84/154/65
f 141/152/74 144/155/75 81/153/68
f 136/156/76 12/25/20 67/22/19
f 136/156/76 135/157/20 12/25/20
f 143/27/77 85/26/67 83/29/66
f 143/27/77 142/28/73 85/26/67
f 90/158/78 88/159/79 87/160/80
f 90/158/78 91/161/81 88/159/79
f 132/162/82 92/163/83 89/164/84
f 132/162/82 131/165/85 92/163/83
f 135/157/20 16/39/31 12/25/20
f 135/157/20 134/166/31 16/39/31
f 126/5/39 93/5/86 121/5/87
f 126/5/39 125/5/33 93/5/86
f 126/167/39 131/168/85 91/169/81
f 126/167/39 94/170/88 131/168/85
f 134/171/31 68/25/38 16/44/31
f 134/171/31 133/172/89 68/25/38
f 95/48/90 90/47/78 133/50/89
f 95/48/90 127/49/34 90/47/78
f 125/173/33 96/174/91 93/175/86
f 125/173/33 124/176/41 96/174/91
f 122/5/92 93/5/86 96/5/91
f 122/5/92 121/5/87 93/5/86
f 97/177/44 95/178/90 94/179/88
f 97/177/44 98/180/45 95/178/90
f 107/181/51 99/146/71 101/182/72
f 107/181/51 106/144/14 99/146/71
f 108/183/50 101/182/72 104/184/93
f 108/183/50 107/181/51 101/182/72
f 109/139/2 104/184/93 100/137/63
f 109/139/2 108/183/50 104/184/93
f 120/185/46 33/65/52 32/62/49
f 120/185/46 119/186/48 33/65/52
f 104/5/93 82/5/64 100/5/63
f 104/5/93 103/5/94 82/5/64
f 111/187/54 82/188/64 103/189/94
f 111/187/54 110/190/3 82/188/64
f 124/5/41 122/5/92 96/5/91
f 124/5/41 123/5/56 122/5/92
f 112/143/10 103/189/94 102/141/69
f 112/143/10 111/187/54 103/189/94
f 103/5/94 101/5/72 102/5/69
f 103/5/94 104/5/93 101/5/72
f 108/191/50 98/180/45 97/177/44
f 108/191/50 119/192/48 98/180/45
f 114/193/11 25/75/14 7/72/11
f 114/193/11 113/194/14 25/75/14
f 113/194/14 32/62/49 25/75/14
f 113/194/14 120/185/46 32/62/49
f 107/195/51 97/196/44 123/197/56
f 107/195/51 108/198/50 97/196/44
f 119/186/48 28/79/2 33/65/52
f 119/186/48 118/199/2 28/79/2
f 118/199/2 4/81/3 28/79/2
f 118/199/2 117/200/3 4/81/3
f 117/201/3 34/85/54 4/82/3
f 117/201/3 116/202/54 34/85/54
f 116/202/54 31/87/10 34/85/54
f 116/202/54 115/203/10 31/87/10
f 115/203/10 7/89/11 31/87/10
f 115/203/10 114/204/11 7/89/11
f 113/194/14 105/147/11 106/144/14
f 113/194/14 114/193/11 105/147/11
f 114/204/11 112/143/10 105/140/11
f 114/204/11 115/203/10 112/143/10
f 115/203/10 111/187/54 112/143/10
f 115/203/10 116/202/54 111/187/54
f 116/202/54 110/190/3 111/187/54
f 116/202/54 117/201/3 110/190/3
f 117/200/3 109/139/2 110/136/3
f 117/200/3 118/199/2 109/139/2
f 118/199/2 108/183/50 109/139/2
f 118/199/2 119/186/48 108/183/50
f 119/91/48 130/90/55 98/93/45
f 119/91/48 120/92/46 130/90/55
f 120/185/46 106/144/14 107/181/51
f 120/185/46 113/194/14 106/144/14
f 127/205/34 53/97/58 54/94/57
f 127/205/34 130/206/55 53/97/58
f 127/207/34 91/161/81 90/158/78
f 127/207/34 126/208/39 91/161/81
f 123/209/56 121/210/87 122/211/92
f 123/209/56 126/212/39 121/210/87
f 123/213/56 120/214/46 107/215/51
f 123/213/56 130/216/55 120/214/46
f 130/5/55 21/5/41 53/5/58
f 130/5/55 129/5/41 21/5/41
f 129/217/41 17/5/33 21/108/41
f 129/217/41 128/218/33 17/5/33
f 128/5/33 54/5/57 17/5/33
f 128/5/33 127/5/34 54/5/57
f 126/167/39 97/196/44 94/170/88
f 126/167/39 123/197/56 97/196/44
f 127/5/34 125/5/33 126/5/39
f 127/5/34 128/5/33 125/5/33
f 128/218/33 124/176/41 125/173/33
f 128/218/33 129/217/41 124/176/41
f 129/5/41 123/5/56 124/5/41
f 129/5/41 130/5/55 123/5/56
f 130/90/55 95/48/90 98/93/45
f 130/90/55 127/49/34 95/48/90
f 131/168/85 88/219/79 91/169/81
f 131/168/85 132/220/82 88/219/79
f 144/20/75 83/221/66 81/222/68
f 144/20/75 143/223/77 83/221/66
f 133/166/89 67/118/19 68/39/38
f 133/166/89 136/224/76 67/118/19
f 133/225/89 94/179/88 95/178/90
f 133/225/89 131/226/85 94/179/88
f 133/227/89 92/228/83 131/229/85
f 133/227/89 134/230/31 92/228/83
f 134/166/31 89/172/84 92/231/83
f 134/166/31 135/157/20 89/172/84
f 135/157/20 132/232/82 89/172/84
f 135/157/20 136/156/76 132/232/82
f 136/126/76 90/47/78 87/127/80
f 136/126/76 133/50/89 90/47/78
f 137/233/95 87/160/80 88/159/79
f 137/233/95 138/234/96 87/160/80
f 138/130/96 136/126/76 87/127/80
f 138/130/96 139/131/97 136/126/76
f 139/132/97 132/235/82 136/236/76
f 139/132/97 140/133/98 132/235/82
f 140/237/98 88/219/79 132/220/82
f 140/237/98 137/238/95 88/219/79
f 141/151/74 138/234/96 137/233/95
f 141/151/74 142/148/73 138/234/96
f 142/28/73 139/131/97 138/130/96
f 142/28/73 143/27/77 139/131/97
f 143/223/77 140/133/98 139/132/97
f 143/223/77 144/20/75 140/133/98
f 144/155/75 137/238/95 140/237/98
f 144/155/75 141/152/74 137/238/95
# 292 triangles in group

# 292 triangles total

