# Wavefront OBJ exported by MilkShape 3D

mtllib logs_sharp.mtl

v 9.726806 -5.627258 33.405098
v 42.757427 -5.627258 14.336613
v 42.757427 -5.627258 -23.800362
v 9.726806 -5.627258 -42.868847
v -23.303816 -5.627258 -23.800362
v -23.303816 -5.627258 14.336613
v -23.303816 193.229187 9.306839
v 9.726806 193.229187 28.375326
v 42.757427 193.229187 9.306839
v 42.757427 193.229187 -28.830133
v 9.726806 193.229187 -47.911755
v -23.303816 193.229187 -28.830133
v -23.303816 375.197449 12.104076
v 9.726806 375.197449 31.172564
v 42.757427 375.197449 12.104076
v 42.757427 375.197449 -26.032898
v 9.726806 375.197449 -45.101383
v -23.303816 375.197449 -26.032898
v -23.303816 572.640259 7.061171
v 9.726806 572.640259 26.129658
v 42.757427 572.640259 7.061171
v 42.757427 572.640259 -31.075804
v 9.726806 572.640259 -50.144291
v -23.303816 572.640259 -31.075804
v 9.726806 671.195740 -11.442616
v -10.360994 695.665894 -114.546394
v 29.011889 595.857483 -95.438515
v -5.038025 594.069092 -75.752792
v 29.011889 595.857483 -134.809952
v -5.038025 594.069092 -154.482529
v -39.085953 592.291382 -134.809952
v -39.085953 592.291382 -95.438515
v 26.204365 -2.029016 -68.240967
v 60.252293 -0.251313 -87.926682
v -7.845549 -3.817428 -87.926682
v 60.252293 -0.251313 -127.298119
v 26.204365 -2.029016 -146.970703
v -7.845549 -3.817428 -127.298119
v -18.588846 201.175293 -93.127182
v 15.461068 202.963715 -73.441460
v 49.508995 204.741409 -93.127182
v 49.508995 204.741409 -132.498611
v 15.461068 202.963715 -152.171204
v -18.588846 201.175293 -132.498611
v -28.420145 388.755096 -90.238014
v 5.629769 390.532806 -70.552299
v 39.677696 392.321228 -90.238014
v 39.677696 392.321228 -129.609451
v 5.629769 390.532806 -149.282028
v -28.420145 388.755096 -129.609451
v 49.848759 694.091675 -214.537766
v 73.123589 589.346436 -195.429871
v 39.214745 592.912537 -175.744156
v 73.123589 589.346436 -234.801315
v 39.214745 592.912537 -254.487030
v 5.305900 596.478638 -234.801315
v 5.305900 596.478638 -195.429871
v -23.180628 -0.743929 -168.232330
v 10.728215 -4.310045 -187.918045
v -57.089470 2.822186 -187.918045
v 10.728215 -4.310045 -227.289474
v -23.180628 -0.743929 -246.975204
v -57.089470 2.822186 -227.289474
v -35.632679 206.968903 -193.118546
v -1.723837 203.413498 -173.432831
v 32.185005 199.847382 -193.118546
v 32.185005 199.847382 -232.489975
v -1.723837 203.413498 -252.175690
v -35.632679 206.968903 -232.489975
v -15.997897 393.777649 -190.229370
v 17.910946 390.211548 -170.543655
v 51.819786 386.656128 -190.229370
v 51.819786 386.656128 -229.600815
v 17.910946 390.211548 -249.286530
v -15.997897 393.777649 -229.600815
v 11.687900 695.783691 -294.738342
v 25.524837 592.280701 -263.561615
v -13.247995 592.644775 -270.377441
v 50.832287 593.865601 -293.674591
v 37.366905 595.793274 -330.616516
v -1.405929 596.157349 -337.445435
v -26.713377 594.572449 -307.332458
v -18.076220 -3.763883 -295.880890
v 20.696611 -4.127991 -289.051941
v -31.541603 -1.836253 -332.822784
v 46.002075 -2.543051 -319.164917
v 32.536690 -0.615421 -356.119965
v -6.234154 -0.251313 -362.935760
v -28.197611 203.370651 -326.059509
v -14.732227 201.432312 -289.117615
v 24.038618 201.078918 -282.288666
v 49.346069 202.653152 -312.401642
v 35.880684 204.591492 -349.343567
v -2.892148 204.944885 -356.172485
v -30.055384 390.832672 -314.016937
v -16.590000 388.894318 -277.075043
v 22.182831 388.540924 -270.246094
v 47.488293 390.115143 -300.359070
v 34.022911 392.053497 -337.314117
v -4.747935 392.406891 -344.129913
v 6.726551 696.190674 -410.541321
v 40.822163 594.454651 -391.433441
v 6.726551 594.454651 -371.747711
v 40.822163 594.454651 -430.804871
v 6.726551 594.454651 -450.490570
v -27.369062 594.454651 -430.804871
v -27.369062 594.454651 -391.433441
v 6.726551 -2.468087 -364.235870
v 40.822163 -2.468087 -383.921600
v -27.369062 -2.468087 -383.921600
v 40.822163 -2.468087 -423.293030
v 6.726551 -2.468087 -442.978760
v -27.369062 -2.468087 -423.293030
v -27.369062 202.813782 -389.122101
v 6.726551 202.813782 -369.436371
v 40.822163 202.813782 -389.122101
v 40.822163 202.813782 -428.493530
v 6.726551 202.813782 -448.179260
v -27.369062 202.813782 -428.493530
v -27.369062 390.650604 -386.232941
v 6.726551 390.650604 -366.547211
v 40.822163 390.650604 -386.232941
v 40.822163 390.650604 -425.604370
v 6.726551 390.650604 -445.290100
v -27.369062 390.650604 -425.604370
v 24.726093 696.190674 -504.544220
v 58.821709 594.454651 -485.436340
v 24.726093 594.454651 -465.750610
v 58.821709 594.454651 -524.807800
v 24.726093 594.454651 -544.493469
v -9.367533 594.454651 -524.807800
v -9.367533 594.454651 -485.436340
v 24.726093 -2.468087 -458.238800
v 58.821709 -2.468087 -477.924500
v -9.367533 -2.468087 -477.924500
v 58.821709 -2.468087 -517.295959
v 24.726093 -2.468087 -536.981689
v -9.367533 -2.468087 -517.295959
v -9.367533 202.813782 -483.125000
v 24.726093 202.813782 -463.439301
v 58.821709 202.813782 -483.125000
v 58.821709 202.813782 -522.496460
v 24.726093 202.813782 -542.182190
v -9.367533 202.813782 -522.496460
v -9.367533 390.650604 -480.235840
v 24.726093 390.650604 -460.550140
v 58.821709 390.650604 -480.235840
v 58.821709 390.650604 -519.607300
v 24.726093 390.650604 -539.292969
v -9.367533 390.650604 -519.607300
v -8.272738 666.708618 -592.493042
v 24.489651 568.956360 -574.133667
v -8.272738 568.956360 -555.209656
v 24.489651 568.956360 -611.968628
v -8.272738 568.956360 -630.879517
v -41.037113 568.956360 -611.968628
v -41.037113 568.956360 -574.133667
v -8.272738 -2.468087 -546.240112
v 24.489651 -4.652734 -566.910767
v -41.037113 -4.652734 -566.910767
v 24.489651 -4.652734 -604.745728
v -8.272738 -4.652734 -623.656616
v -41.037113 -4.652734 -604.745728
v -41.037113 192.597351 -571.914307
v -8.272738 192.597351 -552.990234
v 24.489651 192.597351 -571.914307
v 24.489651 192.597351 -609.736084
v -8.272738 192.597351 -628.660095
v -41.037113 192.597351 -609.736084
v -41.037113 373.098450 -569.130188
v -8.272738 373.098450 -550.219299
v 24.489651 373.098450 -569.130188
v 24.489651 373.098450 -606.965088
v -8.272738 373.098450 -625.876038
v -41.037113 373.098450 -606.965088
v 32.477085 696.040710 111.412544
v 49.447399 593.148132 143.048904
v 10.227510 593.265930 139.621292
v 72.028793 594.272583 110.808449
v 55.390289 595.514832 75.153526
v 16.170401 595.632629 71.725929
v -6.410990 594.508179 103.953247
v 5.917872 -3.506866 124.925957
v 45.137764 -3.624665 128.366684
v -10.720628 -2.264615 89.271034
v 67.719154 -2.500214 96.126236
v 51.080650 -1.257964 60.471317
v 11.860762 -1.140164 57.043720
v -7.738255 203.038681 92.173332
v 8.900246 201.785721 127.841385
v 48.122124 201.667908 131.268982
v 70.703514 202.792358 99.041664
v 54.065010 204.034622 63.373615
v 14.843135 204.163132 59.946014
v -9.395350 390.672028 101.103477
v 7.243151 389.429779 136.758392
v 46.463039 389.311981 140.186005
v 69.046417 390.436432 107.958679
v 52.407917 391.678680 72.303764
v 13.186040 391.796478 68.863029
v -9.272161 696.190674 183.457809
v 24.823454 594.454651 202.565689
v -9.272161 594.454651 222.251404
v 24.823454 594.454651 163.194260
v -9.272161 594.454651 143.508530
v -43.367775 594.454651 163.194260
v -43.367775 594.454651 202.565689
v -9.272161 -2.468087 229.763229
v 24.823454 -2.468087 210.077515
v -43.367775 -2.468087 210.077515
v 24.823454 -2.468087 170.706085
v -9.272161 -2.468087 151.020370
v -43.367775 -2.468087 170.706085
v -43.367775 202.813782 204.877014
v -9.272161 202.813782 224.562744
v 24.823454 202.813782 204.877014
v 24.823454 202.813782 165.505585
v -9.272161 202.813782 145.819870
v -43.367775 202.813782 165.505585
v -43.367775 390.650604 207.766190
v -9.272161 390.650604 227.451904
v 24.823454 390.650604 207.766190
v 24.823454 390.650604 168.394745
v -9.272161 390.650604 148.709030
v -43.367775 390.650604 168.394745
# 225 vertices

vt 0.976563 0.320313
vt 0.621094 0.320313
vt 0.476563 0.015625
vt 0.328125 0.320313
vt 0.023438 0.324219
vt 0.007813 0.328125
vt 0.320313 0.324219
vt 0.476563 0.000000
vt 0.992188 0.324219
vt 0.628906 0.324219
vt 0.660156 0.988281
vt 0.992188 0.992188
vt 0.359375 0.988281
vt 0.007813 0.988281
vt 0.988281 0.324219
vt 0.621094 0.324219
vt 0.007813 0.324219
vt 0.660156 0.992188
vt 0.996094 0.320313
vt 0.628906 0.320313
vt 0.992188 0.996094
vt 0.617188 0.320313
vt 0.984375 0.320313
vt 0.312500 0.320313
vt 0.359375 0.992188
vt 0.003906 0.320313
vt 0.007813 0.992188
vt 0.015625 0.320313
vt 0.656250 0.988281
vt 0.984375 0.328125
vt 0.617188 0.328125
vt 0.988281 0.992188
vt 0.316406 0.328125
vt 0.355469 0.988281
vt 0.003906 0.328125
vt 0.003906 0.988281
# 36 texture coordinates

vn -0.115503 0.160225 0.980299
vn 0.791606 0.156239 0.590719
vn 0.000000 0.999997 0.002576
vn 0.909235 0.143210 -0.390874
vn 0.116090 0.134151 -0.984137
vn -0.793914 0.138196 -0.592117
vn -0.907982 0.151240 0.390762
vn -0.420183 -0.831293 0.363867
vn 0.756773 -0.598826 0.262113
vn 0.178178 -0.333045 0.925923
vn 0.598259 -0.611392 -0.517963
vn -0.149010 -0.615524 -0.773903
vn -0.881453 -0.360325 -0.305297
vn 0.000015 0.004959 0.999988
vn -0.866035 -0.000909 0.499982
vn 0.866028 0.005868 0.499961
vn 0.866085 0.000921 -0.499896
vn -0.000015 -0.004957 -0.999988
vn -0.866078 -0.005878 -0.499875
vn -0.866028 0.005950 0.499960
vn 0.866035 -0.000868 0.499982
vn 0.866028 -0.005951 -0.499960
vn -0.866060 0.000879 -0.499939
vn -0.123750 0.153977 0.980294
vn 0.782358 0.197456 0.590700
vn -0.052340 0.998626 0.002395
vn 0.900455 0.190594 -0.390965
vn 0.108843 0.140007 -0.984150
vn -0.799965 0.096470 -0.592241
vn -0.914658 0.103528 0.390745
vn -0.376130 -0.852124 0.363883
vn 0.787063 -0.558384 0.262181
vn 0.195371 -0.323210 0.925940
vn 0.629236 -0.579299 -0.518146
vn -0.116427 -0.622393 -0.773997
vn -0.861342 -0.406005 -0.305368
vn -0.864811 -0.046231 0.499965
vn 0.864551 0.051199 0.499930
vn 0.864745 0.046228 -0.500078
vn -0.864470 -0.051196 -0.500070
vn -0.865165 -0.039394 0.499938
vn 0.864910 0.044451 0.499954
vn 0.865094 0.039388 -0.500062
vn -0.864833 -0.044446 -0.500088
vn -0.098127 0.171435 0.980296
vn 0.803625 0.072633 0.590688
vn 0.104561 0.994515 0.002553
vn 0.919232 0.047379 -0.390855
vn 0.129501 0.121289 -0.984133
vn -0.775136 0.220428 -0.592094
vn -0.887205 0.245325 0.390746
vn -0.504840 -0.782784 0.363848
vn 0.690030 -0.674653 0.262113
vn 0.142392 -0.349822 0.925932
vn 0.531004 -0.670595 -0.518012
vn -0.212507 -0.596570 -0.773916
vn -0.914296 -0.266213 -0.305277
vn -0.861400 0.089628 0.499956
vn 0.861911 -0.084678 0.499939
vn 0.861399 -0.089625 -0.499959
vn -0.861913 0.084679 -0.499935
vn -0.860675 0.096433 0.499939
vn 0.861214 -0.091399 0.499956
vn 0.860678 -0.096435 -0.499934
vn -0.861214 0.091396 -0.499958
vn -0.718563 0.124623 0.684205
vn 0.226800 0.105716 0.968187
vn -0.001504 0.998527 0.054233
vn 0.947746 0.128112 0.292174
vn 0.721538 0.169530 -0.671299
vn -0.227598 0.188450 -0.955346
vn -0.946699 0.165924 -0.276098
vn -0.555786 -0.830594 -0.034870
vn 0.411170 -0.633940 0.655026
vn -0.458712 -0.375624 0.805289
vn 0.791246 -0.609898 -0.044210
vn 0.383308 -0.578629 -0.719905
vn -0.479011 -0.317883 -0.818229
vn -0.642773 -0.035124 0.765251
vn -0.984796 0.008185 -0.173519
vn 0.342004 -0.043307 0.938700
vn 0.984792 -0.008191 0.173544
vn 0.642745 0.035123 -0.765275
vn -0.342063 0.043319 -0.938678
vn -0.984772 0.015021 -0.173199
vn 0.342007 -0.050051 0.938364
vn 0.984770 -0.015027 0.173212
vn -0.342096 0.050035 -0.938332
vn -0.424415 -0.822495 0.378647
vn 0.756684 -0.589055 0.283626
vn 0.174924 -0.319899 0.931164
vn -0.006752 0.007962 0.999946
vn 0.869448 0.007291 0.493970
vn -0.656914 0.134432 0.741884
vn 0.309726 0.123400 0.942784
vn -0.001464 0.999321 0.036825
vn 0.969009 0.136101 0.206151
vn 0.659539 0.159899 -0.734466
vn -0.310681 0.170959 -0.935013
vn -0.967897 0.158169 -0.195340
vn -0.552879 -0.832790 0.028032
vn 0.469551 -0.621103 0.627497
vn -0.385162 -0.362849 0.848523
vn 0.787157 -0.608180 -0.102474
vn 0.321894 -0.590056 -0.740417
vn -0.546924 -0.333759 -0.767775
vn -0.573557 -0.023618 0.818825
vn -0.996187 0.002138 -0.087215
vn 0.422607 -0.025746 0.905947
vn 0.996190 -0.002138 0.087183
vn 0.573603 0.023621 -0.818793
vn -0.422690 0.025741 -0.905909
vn -0.996176 0.008978 -0.086903
vn 0.422674 -0.032501 0.905699
vn 0.996172 -0.008977 0.086957
vn -0.422614 0.032518 -0.905726
# 116 normals

g 
usemtl mat_logs_sharp_1
s 1
f 20/1/1 21/2/2 25/3/3
f 21/2/2 22/4/4 25/3/3
f 22/4/4 23/5/5 25/3/3
f 23/6/5 24/7/6 25/8/3
f 20/9/1 25/8/3 19/10/7
f 24/7/6 19/10/7 25/8/3
f 6/11/8 2/11/9 1/12/10
f 6/11/8 3/13/11 2/11/9
f 6/11/8 4/14/12 3/13/11
f 6/11/8 5/13/13 4/14/12
f 6/11/8 8/15/14 7/16/15
f 6/11/8 1/12/10 8/15/14
f 1/12/10 9/16/16 8/15/14
f 1/12/10 2/11/9 9/16/16
f 2/11/9 10/7/17 9/16/16
f 2/11/9 3/13/11 10/7/17
f 3/13/11 11/17/18 10/7/17
f 3/13/11 4/14/12 11/17/18
f 4/14/12 12/7/19 11/17/18
f 4/14/12 5/13/13 12/7/19
f 5/13/13 7/16/15 12/7/19
f 5/13/13 6/11/8 7/16/15
f 7/18/15 14/19/14 13/20/20
f 7/18/15 8/21/14 14/19/14
f 8/21/14 15/22/21 14/23/14
f 8/21/14 9/18/16 15/22/21
f 9/18/16 16/24/22 15/22/21
f 9/18/16 10/25/17 16/24/22
f 10/25/17 17/26/18 16/24/22
f 10/25/17 11/27/18 17/26/18
f 11/27/18 18/4/23 17/28/18
f 11/27/18 12/25/19 18/4/23
f 12/25/19 13/20/20 18/4/23
f 12/25/19 7/18/15 13/20/20
f 13/29/20 20/30/1 19/31/7
f 13/29/20 14/32/14 20/30/1
f 14/32/14 21/31/2 20/30/1
f 14/32/14 15/29/21 21/31/2
f 15/29/21 22/33/4 21/31/2
f 15/29/21 16/34/22 22/33/4
f 16/34/22 23/35/5 22/33/4
f 16/34/22 17/36/18 23/35/5
f 17/36/18 24/33/6 23/35/5
f 17/36/18 18/34/23 24/33/6
f 18/34/23 19/31/7 24/33/6
f 18/34/23 13/29/20 19/31/7
f 28/1/24 27/2/25 26/3/26
f 27/2/25 29/4/27 26/3/26
f 29/4/27 30/5/28 26/3/26
f 30/6/28 31/7/29 26/8/26
f 28/9/24 26/8/26 32/10/30
f 31/7/29 32/10/30 26/8/26
f 35/11/31 34/11/32 33/12/33
f 35/11/31 36/13/34 34/11/32
f 35/11/31 37/14/35 36/13/34
f 35/11/31 38/13/36 37/14/35
f 35/11/31 40/15/14 39/16/37
f 35/11/31 33/12/33 40/15/14
f 33/12/33 41/16/38 40/15/14
f 33/12/33 34/11/32 41/16/38
f 34/11/32 42/7/39 41/16/38
f 34/11/32 36/13/34 42/7/39
f 36/13/34 43/17/18 42/7/39
f 36/13/34 37/14/35 43/17/18
f 37/14/35 44/7/40 43/17/18
f 37/14/35 38/13/36 44/7/40
f 38/13/36 39/16/37 44/7/40
f 38/13/36 35/11/31 39/16/37
f 39/18/37 46/19/14 45/20/41
f 39/18/37 40/21/14 46/19/14
f 40/21/14 47/22/42 46/23/14
f 40/21/14 41/18/38 47/22/42
f 41/18/38 48/24/43 47/22/42
f 41/18/38 42/25/39 48/24/43
f 42/25/39 49/26/18 48/24/43
f 42/25/39 43/27/18 49/26/18
f 43/27/18 50/4/44 49/28/18
f 43/27/18 44/25/40 50/4/44
f 44/25/40 45/20/41 50/4/44
f 44/25/40 39/18/37 45/20/41
f 45/29/41 28/30/24 32/31/30
f 45/29/41 46/32/14 28/30/24
f 46/32/14 27/31/25 28/30/24
f 46/32/14 47/29/42 27/31/25
f 47/29/42 29/33/27 27/31/25
f 47/29/42 48/34/43 29/33/27
f 48/34/43 30/35/28 29/33/27
f 48/34/43 49/36/18 30/35/28
f 49/36/18 31/33/29 30/35/28
f 49/36/18 50/34/44 31/33/29
f 50/34/44 32/31/30 31/33/29
f 50/34/44 45/29/41 32/31/30
f 53/1/45 52/2/46 51/3/47
f 52/2/46 54/4/48 51/3/47
f 54/4/48 55/5/49 51/3/47
f 55/6/49 56/7/50 51/8/47
f 53/9/45 51/8/47 57/10/51
f 56/7/50 57/10/51 51/8/47
f 60/11/52 59/11/53 58/12/54
f 60/11/52 61/13/55 59/11/53
f 60/11/52 62/14/56 61/13/55
f 60/11/52 63/13/57 62/14/56
f 60/11/52 65/15/14 64/16/58
f 60/11/52 58/12/54 65/15/14
f 58/12/54 66/16/59 65/15/14
f 58/12/54 59/11/53 66/16/59
f 59/11/53 67/7/60 66/16/59
f 59/11/53 61/13/55 67/7/60
f 61/13/55 68/17/18 67/7/60
f 61/13/55 62/14/56 68/17/18
f 62/14/56 69/7/61 68/17/18
f 62/14/56 63/13/57 69/7/61
f 63/13/57 64/16/58 69/7/61
f 63/13/57 60/11/52 64/16/58
f 64/18/58 71/19/14 70/20/62
f 64/18/58 65/21/14 71/19/14
f 65/21/14 72/22/63 71/23/14
f 65/21/14 66/18/59 72/22/63
f 66/18/59 73/24/64 72/22/63
f 66/18/59 67/25/60 73/24/64
f 67/25/60 74/26/18 73/24/64
f 67/25/60 68/27/18 74/26/18
f 68/27/18 75/4/65 74/28/18
f 68/27/18 69/25/61 75/4/65
f 69/25/61 70/20/62 75/4/65
f 69/25/61 64/18/58 70/20/62
f 70/29/62 53/30/45 57/31/51
f 70/29/62 71/32/14 53/30/45
f 71/32/14 52/31/46 53/30/45
f 71/32/14 72/29/63 52/31/46
f 72/29/63 54/33/48 52/31/46
f 72/29/63 73/34/64 54/33/48
f 73/34/64 55/35/49 54/33/48
f 73/34/64 74/36/18 55/35/49
f 74/36/18 56/33/50 55/35/49
f 74/36/18 75/34/65 56/33/50
f 75/34/65 57/31/51 56/33/50
f 75/34/65 70/29/62 57/31/51
f 78/1/66 77/2/67 76/3/68
f 77/2/67 79/4/69 76/3/68
f 79/4/69 80/5/70 76/3/68
f 80/6/70 81/7/71 76/8/68
f 78/9/66 76/8/68 82/10/72
f 81/7/71 82/10/72 76/8/68
f 85/11/73 84/11/74 83/12/75
f 85/11/73 86/13/76 84/11/74
f 85/11/73 87/14/77 86/13/76
f 85/11/73 88/13/78 87/14/77
f 85/11/73 90/15/79 89/16/80
f 85/11/73 83/12/75 90/15/79
f 83/12/75 91/16/81 90/15/79
f 83/12/75 84/11/74 91/16/81
f 84/11/74 92/7/82 91/16/81
f 84/11/74 86/13/76 92/7/82
f 86/13/76 93/17/83 92/7/82
f 86/13/76 87/14/77 93/17/83
f 87/14/77 94/7/84 93/17/83
f 87/14/77 88/13/78 94/7/84
f 88/13/78 89/16/80 94/7/84
f 88/13/78 85/11/73 89/16/80
f 89/18/80 96/19/79 95/20/85
f 89/18/80 90/21/79 96/19/79
f 90/21/79 97/22/86 96/23/79
f 90/21/79 91/18/81 97/22/86
f 91/18/81 98/24/87 97/22/86
f 91/18/81 92/25/82 98/24/87
f 92/25/82 99/26/83 98/24/87
f 92/25/82 93/27/83 99/26/83
f 93/27/83 100/4/88 99/28/83
f 93/27/83 94/25/84 100/4/88
f 94/25/84 95/20/85 100/4/88
f 94/25/84 89/18/80 95/20/85
f 95/29/85 78/30/66 82/31/72
f 95/29/85 96/32/79 78/30/66
f 96/32/79 77/31/67 78/30/66
f 96/32/79 97/29/86 77/31/67
f 97/29/86 79/33/69 77/31/67
f 97/29/86 98/34/87 79/33/69
f 98/34/87 80/35/70 79/33/69
f 98/34/87 99/36/83 80/35/70
f 99/36/83 81/33/71 80/35/70
f 99/36/83 100/34/88 81/33/71
f 100/34/88 82/31/72 81/33/71
f 100/34/88 95/29/85 82/31/72
f 103/1/1 102/2/2 101/3/3
f 102/2/2 104/4/4 101/3/3
f 104/4/4 105/5/5 101/3/3
f 105/6/5 106/7/6 101/8/3
f 103/9/1 101/8/3 107/10/7
f 106/7/6 107/10/7 101/8/3
f 110/11/8 109/11/9 108/12/10
f 110/11/8 111/13/11 109/11/9
f 110/11/8 112/14/12 111/13/11
f 110/11/8 113/13/13 112/14/12
f 110/11/8 115/15/14 114/16/15
f 110/11/8 108/12/10 115/15/14
f 108/12/10 116/16/16 115/15/14
f 108/12/10 109/11/9 116/16/16
f 109/11/9 117/7/17 116/16/16
f 109/11/9 111/13/11 117/7/17
f 111/13/11 118/17/18 117/7/17
f 111/13/11 112/14/12 118/17/18
f 112/14/12 119/7/19 118/17/18
f 112/14/12 113/13/13 119/7/19
f 113/13/13 114/16/15 119/7/19
f 113/13/13 110/11/8 114/16/15
f 114/18/15 121/19/14 120/20/20
f 114/18/15 115/21/14 121/19/14
f 115/21/14 122/22/21 121/23/14
f 115/21/14 116/18/16 122/22/21
f 116/18/16 123/24/22 122/22/21
f 116/18/16 117/25/17 123/24/22
f 117/25/17 124/26/18 123/24/22
f 117/25/17 118/27/18 124/26/18
f 118/27/18 125/4/23 124/28/18
f 118/27/18 119/25/19 125/4/23
f 119/25/19 120/20/20 125/4/23
f 119/25/19 114/18/15 120/20/20
f 120/29/20 103/30/1 107/31/7
f 120/29/20 121/32/14 103/30/1
f 121/32/14 102/31/2 103/30/1
f 121/32/14 122/29/21 102/31/2
f 122/29/21 104/33/4 102/31/2
f 122/29/21 123/34/22 104/33/4
f 123/34/22 105/35/5 104/33/4
f 123/34/22 124/36/18 105/35/5
f 124/36/18 106/33/6 105/35/5
f 124/36/18 125/34/23 106/33/6
f 125/34/23 107/31/7 106/33/6
f 125/34/23 120/29/20 107/31/7
f 128/1/1 127/2/2 126/3/3
f 127/2/2 129/4/4 126/3/3
f 129/4/4 130/5/5 126/3/3
f 130/6/5 131/7/6 126/8/3
f 128/9/1 126/8/3 132/10/7
f 131/7/6 132/10/7 126/8/3
f 135/11/8 134/11/9 133/12/10
f 135/11/8 136/13/11 134/11/9
f 135/11/8 137/14/12 136/13/11
f 135/11/8 138/13/13 137/14/12
f 135/11/8 140/15/14 139/16/15
f 135/11/8 133/12/10 140/15/14
f 133/12/10 141/16/16 140/15/14
f 133/12/10 134/11/9 141/16/16
f 134/11/9 142/7/17 141/16/16
f 134/11/9 136/13/11 142/7/17
f 136/13/11 143/17/18 142/7/17
f 136/13/11 137/14/12 143/17/18
f 137/14/12 144/7/19 143/17/18
f 137/14/12 138/13/13 144/7/19
f 138/13/13 139/16/15 144/7/19
f 138/13/13 135/11/8 139/16/15
f 139/18/15 146/19/14 145/20/20
f 139/18/15 140/21/14 146/19/14
f 140/21/14 147/22/21 146/23/14
f 140/21/14 141/18/16 147/22/21
f 141/18/16 148/24/22 147/22/21
f 141/18/16 142/25/17 148/24/22
f 142/25/17 149/26/18 148/24/22
f 142/25/17 143/27/18 149/26/18
f 143/27/18 150/4/23 149/28/18
f 143/27/18 144/25/19 150/4/23
f 144/25/19 145/20/20 150/4/23
f 144/25/19 139/18/15 145/20/20
f 145/29/20 128/30/1 132/31/7
f 145/29/20 146/32/14 128/30/1
f 146/32/14 127/31/2 128/30/1
f 146/32/14 147/29/21 127/31/2
f 147/29/21 129/33/4 127/31/2
f 147/29/21 148/34/22 129/33/4
f 148/34/22 130/35/5 129/33/4
f 148/34/22 149/36/18 130/35/5
f 149/36/18 131/33/6 130/35/5
f 149/36/18 150/34/23 131/33/6
f 150/34/23 132/31/7 131/33/6
f 150/34/23 145/29/20 132/31/7
f 153/1/1 152/2/2 151/3/3
f 152/2/2 154/4/4 151/3/3
f 154/4/4 155/5/5 151/3/3
f 155/6/5 156/7/6 151/8/3
f 153/9/1 151/8/3 157/10/7
f 156/7/6 157/10/7 151/8/3
f 160/11/89 159/11/90 158/12/91
f 160/11/89 161/13/11 159/11/90
f 160/11/89 162/14/12 161/13/11
f 160/11/89 163/13/13 162/14/12
f 160/11/89 165/15/92 164/16/15
f 160/11/89 158/12/91 165/15/92
f 158/12/91 166/16/93 165/15/92
f 158/12/91 159/11/90 166/16/93
f 159/11/90 167/7/17 166/16/93
f 159/11/90 161/13/11 167/7/17
f 161/13/11 168/17/18 167/7/17
f 161/13/11 162/14/12 168/17/18
f 162/14/12 169/7/19 168/17/18
f 162/14/12 163/13/13 169/7/19
f 163/13/13 164/16/15 169/7/19
f 163/13/13 160/11/89 164/16/15
f 164/18/15 171/19/14 170/20/20
f 164/18/15 165/21/92 171/19/14
f 165/21/92 172/22/21 171/23/14
f 165/21/92 166/18/93 172/22/21
f 166/18/93 173/24/22 172/22/21
f 166/18/93 167/25/17 173/24/22
f 167/25/17 174/26/18 173/24/22
f 167/25/17 168/27/18 174/26/18
f 168/27/18 175/4/23 174/28/18
f 168/27/18 169/25/19 175/4/23
f 169/25/19 170/20/20 175/4/23
f 169/25/19 164/18/15 170/20/20
f 170/29/20 153/30/1 157/31/7
f 170/29/20 171/32/14 153/30/1
f 171/32/14 152/31/2 153/30/1
f 171/32/14 172/29/21 152/31/2
f 172/29/21 154/33/4 152/31/2
f 172/29/21 173/34/22 154/33/4
f 173/34/22 155/35/5 154/33/4
f 173/34/22 174/36/18 155/35/5
f 174/36/18 156/33/6 155/35/5
f 174/36/18 175/34/23 156/33/6
f 175/34/23 157/31/7 156/33/6
f 175/34/23 170/29/20 157/31/7
f 178/1/94 177/2/95 176/3/96
f 177/2/95 179/4/97 176/3/96
f 179/4/97 180/5/98 176/3/96
f 180/6/98 181/7/99 176/8/96
f 178/9/94 176/8/96 182/10/100
f 181/7/99 182/10/100 176/8/96
f 185/11/101 184/11/102 183/12/103
f 185/11/101 186/13/104 184/11/102
f 185/11/101 187/14/105 186/13/104
f 185/11/101 188/13/106 187/14/105
f 185/11/101 190/15/107 189/16/108
f 185/11/101 183/12/103 190/15/107
f 183/12/103 191/16/109 190/15/107
f 183/12/103 184/11/102 191/16/109
f 184/11/102 192/7/110 191/16/109
f 184/11/102 186/13/104 192/7/110
f 186/13/104 193/17/111 192/7/110
f 186/13/104 187/14/105 193/17/111
f 187/14/105 194/7/112 193/17/111
f 187/14/105 188/13/106 194/7/112
f 188/13/106 189/16/108 194/7/112
f 188/13/106 185/11/101 189/16/108
f 189/18/108 196/19/107 195/20/113
f 189/18/108 190/21/107 196/19/107
f 190/21/107 197/22/114 196/23/107
f 190/21/107 191/18/109 197/22/114
f 191/18/109 198/24/115 197/22/114
f 191/18/109 192/25/110 198/24/115
f 192/25/110 199/26/111 198/24/115
f 192/25/110 193/27/111 199/26/111
f 193/27/111 200/4/116 199/28/111
f 193/27/111 194/25/112 200/4/116
f 194/25/112 195/20/113 200/4/116
f 194/25/112 189/18/108 195/20/113
f 195/29/113 178/30/94 182/31/100
f 195/29/113 196/32/107 178/30/94
f 196/32/107 177/31/95 178/30/94
f 196/32/107 197/29/114 177/31/95
f 197/29/114 179/33/97 177/31/95
f 197/29/114 198/34/115 179/33/97
f 198/34/115 180/35/98 179/33/97
f 198/34/115 199/36/111 180/35/98
f 199/36/111 181/33/99 180/35/98
f 199/36/111 200/34/116 181/33/99
f 200/34/116 182/31/100 181/33/99
f 200/34/116 195/29/113 182/31/100
f 203/1/1 202/2/2 201/3/3
f 202/2/2 204/4/4 201/3/3
f 204/4/4 205/5/5 201/3/3
f 205/6/5 206/7/6 201/8/3
f 203/9/1 201/8/3 207/10/7
f 206/7/6 207/10/7 201/8/3
f 210/11/8 209/11/9 208/12/10
f 210/11/8 211/13/11 209/11/9
f 210/11/8 212/14/12 211/13/11
f 210/11/8 213/13/13 212/14/12
f 210/11/8 215/15/14 214/16/15
f 210/11/8 208/12/10 215/15/14
f 208/12/10 216/16/16 215/15/14
f 208/12/10 209/11/9 216/16/16
f 209/11/9 217/7/17 216/16/16
f 209/11/9 211/13/11 217/7/17
f 211/13/11 218/17/18 217/7/17
f 211/13/11 212/14/12 218/17/18
f 212/14/12 219/7/19 218/17/18
f 212/14/12 213/13/13 219/7/19
f 213/13/13 214/16/15 219/7/19
f 213/13/13 210/11/8 214/16/15
f 214/18/15 221/19/14 220/20/20
f 214/18/15 215/21/14 221/19/14
f 215/21/14 222/22/21 221/23/14
f 215/21/14 216/18/16 222/22/21
f 216/18/16 223/24/22 222/22/21
f 216/18/16 217/25/17 223/24/22
f 217/25/17 224/26/18 223/24/22
f 217/25/17 218/27/18 224/26/18
f 218/27/18 225/4/23 224/28/18
f 218/27/18 219/25/19 225/4/23
f 219/25/19 220/20/20 225/4/23
f 219/25/19 214/18/15 220/20/20
f 220/29/20 203/30/1 207/31/7
f 220/29/20 221/32/14 203/30/1
f 221/32/14 202/31/2 203/30/1
f 221/32/14 222/29/21 202/31/2
f 222/29/21 204/33/4 202/31/2
f 222/29/21 223/34/22 204/33/4
f 223/34/22 205/35/5 204/33/4
f 223/34/22 224/36/18 205/35/5
f 224/36/18 206/33/6 205/35/5
f 224/36/18 225/34/23 206/33/6
f 225/34/23 207/31/7 206/33/6
f 225/34/23 220/29/20 207/31/7
# 414 triangles in group

# 414 triangles total

