# Wavefront OBJ exported by MilkShape 3D

mtllib wall.mtl

v -24.999758 223.001007 184.002197
v -24.999758 223.001007 -178.000000
v -60.000298 223.001007 -178.000000
v -60.000298 223.001007 184.002197
v -24.999758 -76.000000 184.002197
v -24.999758 -76.000000 -178.000000
v -60.000298 -76.000000 -178.000000
v -60.000298 -76.000000 184.002197
v -25.852781 223.001007 292.916992
v -60.852161 223.001007 292.916992
v -25.852781 -76.000000 292.916992
v -60.852161 -76.000000 292.916992
v -24.999758 277.000000 184.002197
v -60.000298 277.000000 184.002197
v -25.852781 277.000000 292.916992
v -60.852161 277.000000 292.916992
v -79.999451 223.001007 184.023758
v -79.999451 -76.000000 184.023758
v -80.852470 223.001007 292.945740
v -80.852470 -76.000000 292.945740
v -79.999451 277.000000 184.023758
v -80.852470 277.000000 292.945740
v -5.000608 223.001007 184.153152
v -5.000608 -76.000000 184.153152
v -5.853631 223.001007 293.075104
v -5.853631 -76.000000 293.075104
v -5.000608 277.000000 184.153152
v -5.853631 277.000000 293.075104
# 28 vertices

vt 0.230469 0.228516
vt 0.994141 0.228516
vt 0.994141 0.994141
vt 0.230469 0.994141
vt 0.845703 0.228516
vt 0.755859 0.228516
vt 0.755859 0.994141
vt 0.845703 0.994141
vt 0.990234 0.228516
vt 0.224609 0.228516
vt 0.224609 0.994141
vt 0.990234 0.994141
vt 0.158203 0.154297
vt 0.060547 0.154297
vt 0.060547 0.994141
vt 0.158203 0.994141
vt 0.224609 0.380859
vt 0.994141 0.380859
vt 0.998047 0.326172
vt 0.228516 0.326172
vt 0.218750 0.154297
vt 0.000000 0.154297
vt 0.000000 0.994141
vt 0.218750 0.994141
vt 0.000000 0.042969
vt 0.000000 0.113281
vt 0.216797 0.044922
vt 0.216797 0.115234
vt 0.060547 0.001953
vt 0.158203 0.001953
vt 0.218750 0.001953
vt 0.000000 0.001953
vt 0.214844 0.154297
vt 0.214844 0.994141
vt 0.003906 0.994141
vt 0.003906 0.154297
vt 0.214844 0.001953
vt 0.003906 0.001953
vt 0.216797 0.154297
vt 0.000000 0.152344
vt 0.000000 0.003906
vt 0.216797 0.005859
# 42 texture coordinates

vn 0.816497 0.408248 -0.408248
vn 0.222920 0.435968 -0.871917
vn 0.313411 -0.936698 -0.156112
vn 0.408248 -0.408248 -0.816497
vn -0.333333 0.666667 -0.666667
vn -0.666667 -0.666667 -0.333333
vn -0.365660 0.182535 -0.912674
vn -0.267796 -0.801660 -0.534440
vn -0.003388 0.000000 0.999994
vn 0.000862 0.000000 1.000000
vn 0.000287 -0.800000 0.600000
vn -0.004385 -0.554703 0.832037
vn -0.802692 0.000000 0.596394
vn -0.553310 0.000000 -0.832976
vn -0.665689 -0.665351 -0.337886
vn -0.408326 -0.409515 0.815823
vn 0.003376 0.447216 -0.894420
vn -0.000241 0.894427 -0.447213
vn -0.001768 0.894429 0.447207
vn 0.000643 0.447214 0.894427
vn 0.664022 -0.666678 0.338549
vn 0.414438 -0.408287 -0.813353
vn 0.804614 0.000000 -0.593799
vn 0.548124 0.000000 0.836397
vn 0.661398 0.333344 0.671889
vn 0.411337 0.816535 -0.405059
vn -0.664738 0.332021 -0.669242
vn -0.408280 0.817761 0.405678
# 28 normals

g Frame 1
usemtl mat_wall_1
s 1
f 2/1/1 1/2/2 5/3/3
f 5/3/3 6/4/4 2/1/1
f 3/5/5 2/6/1 6/7/4
f 6/7/4 7/8/6 3/5/5
f 4/9/7 3/10/5 7/11/6
f 7/11/6 8/12/8 4/9/7
f 9/13/9 10/14/10 12/15/11
f 12/15/11 11/16/12 9/13/9
f 3/17/5 4/18/7 1/19/2
f 1/19/2 2/20/1 3/17/5
f 7/11/6 6/4/4 5/3/3
f 5/3/3 8/12/8 7/11/6
f 19/21/13 17/22/14 18/23/15
f 18/23/15 20/24/16 19/21/13
f 13/25/17 14/26/18 15/27/19
f 16/28/20 15/27/19 14/26/18
f 26/24/21 24/23/22 23/22/23
f 23/22/23 25/21/24 26/24/21
f 8/2/8 5/2/3 12/2/11
f 11/2/12 12/2/11 5/2/3
f 1/14/2 4/13/7 13/29/17
f 14/30/18 13/29/17 4/13/7
f 23/22/23 28/31/25 25/21/24
f 28/31/25 23/22/23 27/32/26
f 10/14/10 9/13/9 16/29/20
f 15/30/19 16/29/20 9/13/9
f 19/21/13 21/32/27 17/22/14
f 21/32/27 19/21/13 22/31/28
f 17/33/14 4/13/7 8/16/8
f 8/16/8 18/34/15 17/33/14
f 20/35/16 12/15/11 10/14/10
f 10/14/10 19/36/13 20/35/16
f 8/2/8 12/2/11 18/2/15
f 20/2/16 18/2/15 12/2/11
f 21/37/27 14/30/18 4/13/7
f 4/13/7 17/33/14 21/37/27
f 19/36/13 10/14/10 16/29/20
f 16/29/20 22/38/28 19/36/13
f 14/26/18 22/39/28 16/28/20
f 22/39/28 14/26/18 21/40/27
f 24/35/22 5/15/3 1/14/2
f 1/14/2 23/36/23 24/35/22
f 11/2/12 5/2/3 26/2/21
f 24/2/22 26/2/21 5/2/3
f 25/33/24 9/13/9 11/16/12
f 11/16/12 26/34/21 25/33/24
f 28/37/25 15/30/19 9/13/9
f 9/13/9 25/33/24 28/37/25
f 23/36/23 1/14/2 13/29/17
f 13/29/17 27/38/26 23/36/23
f 15/27/19 27/41/26 13/25/17
f 27/41/26 15/27/19 28/42/25
# 52 triangles in group

# 52 triangles total

