# Wavefront OBJ exported by MilkShape 3D

mtllib shield3.mtl

v -0.000438 10.687500 -0.000438
v 21.125025 7.687500 21.125025
v 28.857288 7.687500 7.732707
v 28.857288 7.687500 -7.732703
v 21.125025 7.687500 -21.125021
v 7.732707 7.687500 -28.857285
v -7.732703 7.687500 -28.857285
v -21.125021 7.687500 -21.125021
v -28.857285 7.687500 -7.732703
v -28.857285 7.687500 7.732707
v -21.125021 7.687500 21.125025
v -7.732703 7.687500 28.857288
v 7.732707 7.687500 28.857288
v -0.000438 6.312500 -0.000438
v 21.125025 4.312500 21.125025
v 28.857288 4.312500 7.732707
v 28.857288 4.312500 -7.732703
v 21.125025 4.312500 -21.125021
v 7.732707 4.312500 -28.857285
v -7.732703 4.312500 -28.857285
v -21.125021 4.312500 -21.125021
v -28.857285 4.312500 -7.732703
v -28.857285 4.312500 7.732707
v -21.125021 4.312500 21.125025
v -7.732703 4.312500 28.857288
v 7.732707 4.312500 28.857288
# 26 vertices

vt 0.496094 0.500000
vt 0.835938 0.152344
vt 0.621094 0.023438
vt 0.832031 0.023438
vt 0.832031 0.074219
vt 0.621094 0.074219
vt 0.371094 0.023438
vt 0.156250 0.152344
vt 0.375000 0.023438
vt 0.375000 0.074219
vt 0.160156 0.023438
vt 0.160156 0.074219
vt 0.035156 0.371094
vt 0.960938 0.371094
vt 0.035156 0.628906
vt 0.960938 0.628906
vt 0.156250 0.847656
vt 0.835938 0.847656
vt 0.371094 0.976563
vt 0.621094 0.976563
# 20 texture coordinates

vn -0.000001 1.000000 -0.000001
vn 0.543923 0.539043 0.643102
vn 0.792598 0.539045 0.284990
vn 0.625234 -0.583586 0.518179
vn 0.800557 -0.583588 0.136138
vn 0.000001 -1.000000 0.000001
vn 0.828903 0.539045 -0.149500
vn 0.761369 -0.583588 -0.282388
vn 0.643102 0.539043 -0.543923
vn 0.518179 -0.583587 -0.625234
vn 0.284990 0.539044 -0.792598
vn 0.136138 -0.583588 -0.800557
vn -0.149500 0.539044 -0.828904
vn -0.282388 -0.583588 -0.761368
vn -0.543923 0.539042 -0.643103
vn -0.625234 -0.583587 -0.518178
vn -0.792599 0.539044 -0.284990
vn -0.800557 -0.583588 -0.136138
vn -0.828904 0.539044 0.149500
vn -0.761368 -0.583588 0.282388
vn -0.643102 0.539043 0.543923
vn -0.518179 -0.583587 0.625234
vn -0.284990 0.539045 0.792598
vn -0.136138 -0.583588 0.800557
vn 0.149500 0.539045 0.828903
vn 0.282388 -0.583588 0.761369
# 26 normals

g Frame 1
usemtl mat_shield3_1
s 1
f 1/1/1 2/2/2 3/3/3
f 3/3/3 2/4/2 15/5/4
f 15/5/4 16/6/5 3/3/3
f 14/1/6 16/7/5 15/8/4
f 1/1/1 3/3/3 4/7/7
f 4/9/7 3/3/3 16/6/5
f 16/6/5 17/10/8 4/9/7
f 14/1/6 17/3/8 16/7/5
f 1/1/1 4/7/7 5/8/9
f 5/11/9 4/9/7 17/10/8
f 17/10/8 18/12/10 5/11/9
f 14/1/6 18/2/10 17/3/8
f 1/1/1 5/8/9 6/13/11
f 6/9/11 5/11/9 18/12/10
f 18/12/10 19/10/12 6/9/11
f 14/1/6 19/14/12 18/2/10
f 1/1/1 6/13/11 7/15/13
f 7/3/13 6/9/11 19/10/12
f 19/10/12 20/6/14 7/3/13
f 14/1/6 20/16/14 19/14/12
f 1/1/1 7/15/13 8/17/15
f 8/4/15 7/3/13 20/6/14
f 20/6/14 21/5/16 8/4/15
f 14/1/6 21/18/16 20/16/14
f 1/1/1 8/17/15 9/19/17
f 9/9/17 8/11/15 21/12/16
f 21/12/16 22/10/18 9/9/17
f 14/1/6 22/20/18 21/18/16
f 1/1/1 9/19/17 10/20/19
f 10/3/19 9/9/17 22/10/18
f 22/10/18 23/6/20 10/3/19
f 14/1/6 23/19/20 22/20/18
f 1/1/1 10/20/19 11/18/21
f 11/4/21 10/3/19 23/6/20
f 23/6/20 24/5/22 11/4/21
f 14/1/6 24/17/22 23/19/20
f 1/1/1 11/18/21 12/16/23
f 12/9/23 11/11/21 24/12/22
f 24/12/22 25/10/24 12/9/23
f 14/1/6 25/15/24 24/17/22
f 1/1/1 12/16/23 13/14/25
f 13/3/25 12/9/23 25/10/24
f 25/10/24 26/6/26 13/3/25
f 14/1/6 26/13/26 25/15/24
f 1/1/1 13/14/25 2/2/2
f 2/4/2 13/3/25 26/6/26
f 26/6/26 15/5/4 2/4/2
f 14/1/6 15/8/4 26/13/26
# 48 triangles in group

# 48 triangles total

