# Wavefront OBJ exported by MilkShape 3D

mtllib sword.mtl

v 0.313722 85.325394 3.554673
v 2.867019 85.325394 1.722029
v 2.867019 85.325394 -1.941560
v 0.313626 85.325394 -3.774204
v -2.239670 85.325394 -1.941560
v -2.239670 85.325394 1.722029
v -2.836962 83.917511 2.151289
v 0.313722 83.917511 4.411494
v 3.464310 83.917511 2.151289
v 3.464310 83.917511 -2.370820
v 0.313626 83.917511 -4.631025
v -2.836962 83.917511 -2.370820
v 0.313722 74.874954 4.411494
v -2.836962 74.874954 2.151289
v -2.836962 74.874954 -2.370820
v 0.313626 74.874954 -4.631025
v 3.464310 74.874954 -2.370820
v 3.464310 74.874954 2.151289
v 0.313722 73.241913 4.065536
v -2.595718 73.241913 1.977885
v -2.595718 73.241913 -2.197416
v 0.313626 73.241913 -4.285066
v 3.223067 73.241913 -2.197416
v 3.223067 73.241913 1.977885
v 0.313722 49.041309 26.898788
v -2.595718 47.995750 26.029217
v -2.595526 47.708477 -25.501579
v 0.313819 48.521118 -26.545404
v 3.223259 47.708477 -25.501579
v 3.223067 47.995750 26.029217
v 0.299780 42.302097 26.455076
v -2.609564 43.231197 26.049618
v -2.609371 43.290722 -25.481178
v 0.299973 42.535019 -26.292948
v 3.209317 43.290722 -25.481178
v 3.209125 43.231197 26.049618
v 0.285839 36.225422 5.563272
v -1.209121 36.225422 4.044285
v -1.209121 36.225422 -3.813305
v 0.285839 36.225422 -5.331442
v 1.889353 36.225422 -3.813305
v 1.889353 36.225422 4.044285
v 0.285839 -106.982468 1.164415
v -0.013192 -106.982468 0.547301
v -0.013192 -106.982468 -0.686929
v 0.285839 -106.982468 -1.304044
v 0.584965 -106.982468 -0.686929
v 0.584965 -106.982468 0.547301
v 0.285839 -114.280693 -0.069814
v 0.299780 43.396832 -4.264666
v -2.609564 44.672726 -2.177015
v -2.595718 46.595627 -2.197416
v 0.313626 47.812000 -4.285066
v 3.223067 46.595627 -2.197416
v 3.209125 44.672726 -2.177015
v 0.299780 43.316605 -21.624636
v -2.609564 44.592499 -19.536985
v -2.595622 46.515400 -19.556536
v 0.313722 47.734360 -21.644186
v 3.223067 46.515400 -19.556536
v 3.209125 44.592499 -19.536985
v 0.307473 45.441372 -27.579880
v 3.209125 44.786602 1.997436
v 3.223067 46.652565 1.977885
v 0.313722 47.812000 4.065536
v -2.595718 46.652565 1.977885
v -2.609564 44.786602 1.997436
v 0.299780 43.396832 4.085086
v 3.209125 44.706371 21.650761
v 3.223067 46.569748 21.631210
v 0.313722 47.731770 23.718861
v -2.595718 46.569748 21.631210
v -2.609564 44.706371 21.650761
v 0.299780 43.314014 23.738411
v 0.307376 45.648411 28.126217
# 75 vertices

vt 0.535156 0.001953
vt 0.582031 0.011719
vt 0.542969 0.011719
vt 0.566406 0.001953
vt 0.472656 0.001953
vt 0.464844 0.011719
vt 0.441406 0.001953
vt 0.429688 0.011719
vt 0.527344 0.927734
vt 0.515625 0.927734
vt 0.503906 0.968750
vt 0.496094 0.927734
vt 0.484375 0.927734
vt 0.542969 0.062500
vt 0.582031 0.062500
vt 0.464844 0.062500
vt 0.429688 0.062500
vt 0.539063 0.072266
vt 0.574219 0.072266
vt 0.468750 0.072266
vt 0.433594 0.072266
vt 0.949219 0.214844
vt 0.910156 0.218750
vt 0.875000 0.222656
vt 0.964844 0.208984
vt 0.468750 0.222656
vt 0.539063 0.222656
vt 0.054688 0.212891
vt 0.175781 0.224609
vt 0.140625 0.218750
vt 0.074219 0.216797
vt 0.949219 0.242188
vt 0.984375 0.228516
vt 0.175781 0.234375
vt 0.074219 0.242188
vt 0.058594 0.246094
vt 0.039063 0.230469
vt 0.957031 0.248047
vt 0.875000 0.234375
vt 0.910156 0.240234
vt 0.539063 0.234375
vt 0.480469 0.283203
vt 0.531250 0.283203
vt 0.468750 0.234375
vt 0.140625 0.240234
vt 0.558594 0.283203
vt 0.453125 0.283203
vt 0.433594 0.238281
vt 0.433594 0.218750
vt 0.574219 0.218750
vt 0.578125 0.238281
# 51 texture coordinates

vn 0.588103 0.681366 0.435746
vn -0.012531 0.276512 0.960929
vn 0.862884 0.233327 0.448318
vn -0.090308 0.921513 0.377702
vn 0.581616 0.793491 -0.179149
vn 0.867854 0.243746 -0.432917
vn 0.130038 0.829033 -0.543869
vn 0.012531 0.276512 -0.960929
vn -0.480630 0.801359 -0.356115
vn -0.862884 0.233327 -0.448318
vn -0.710529 0.668768 0.218856
vn -0.867854 0.243746 0.432917
vn 0.267487 -0.078469 0.960361
vn -0.943723 -0.033342 0.329053
vn -0.000300 -1.000000 -0.000000
vn 0.983428 -0.031080 0.178613
vn 0.941501 -0.033177 -0.335374
vn -0.279077 -0.076831 -0.957190
vn -0.983458 -0.030391 -0.178569
vn -0.886006 -0.086777 0.455481
vn 0.001729 -0.104623 0.994510
vn -0.886653 -0.091211 -0.453351
vn -0.001729 -0.104623 -0.994510
vn 0.886006 -0.086777 -0.455481
vn 0.886653 -0.091211 0.453351
vn -0.886658 -0.091207 0.453341
vn -0.001753 -0.104630 0.994510
vn -0.886036 -0.086776 -0.455423
vn 0.001753 -0.104630 -0.994510
vn 0.886658 -0.091207 -0.453341
vn 0.886036 -0.086776 0.455423
vn -0.697682 0.649703 0.301869
vn 0.017390 0.982589 -0.184978
vn -0.809692 0.583648 -0.061277
vn 0.035986 0.978909 0.201103
vn -0.952331 0.279189 -0.122959
vn -0.946634 0.162415 0.278397
vn -0.074085 0.938423 -0.337451
vn -0.803639 0.590883 0.070863
vn -0.035692 0.995677 0.085756
vn -0.851905 0.338602 -0.399509
vn 0.690128 0.617698 -0.377058
vn 0.823851 0.565580 0.037271
vn 0.953144 0.276133 0.123562
vn 0.948190 0.153604 -0.278104
vn 0.795219 0.588974 -0.144001
vn 0.865278 0.332472 0.375175
vn -0.850397 -0.366873 0.377134
vn 0.000022 -0.044153 0.999025
vn -0.826591 -0.561094 0.043827
vn -0.672556 -0.642600 -0.367060
vn 0.074356 -0.947433 -0.311195
vn 0.000031 -0.036164 -0.999346
vn 0.842079 -0.366982 -0.395256
vn 0.805314 -0.587783 0.077339
vn 0.679419 -0.668390 0.302728
vn -0.054516 -0.978181 0.200475
vn -0.810972 -0.568974 -0.136358
vn -0.028788 -0.983168 -0.180422
vn -0.946892 -0.297088 0.123025
vn -0.943078 -0.062867 -0.326575
vn -0.911878 0.009770 0.410345
vn -0.953677 -0.155099 -0.257768
vn 0.040501 -0.994596 0.095594
vn 0.942723 -0.310913 -0.120859
vn 0.939607 -0.051653 0.338335
vn 0.907763 -0.003013 -0.419472
vn 0.953705 -0.142176 0.265015
vn 0.827490 -0.557801 -0.064166
vn -0.102321 0.078170 0.991675
vn 0.073579 0.047037 -0.996180
vn 0.088704 -0.716213 -0.692221
vn -0.052450 0.747352 -0.662355
vn 0.056470 0.749617 0.659459
vn -0.091461 -0.693757 0.714378
# 75 normals

g 
usemtl mat_sword_1
s 1
f 2/1/1 8/2/2 9/3/3
f 2/1/1 1/4/4 8/2/2
f 3/5/5 9/3/3 10/6/6
f 3/5/5 2/1/1 9/3/3
f 4/7/7 10/6/6 11/8/8
f 4/7/7 3/5/5 10/6/6
f 5/5/9 11/8/8 12/6/10
f 5/5/9 4/7/7 11/8/8
f 6/1/11 12/6/10 7/3/12
f 6/1/11 5/5/9 12/6/10
f 1/4/4 7/3/12 8/2/2
f 1/4/4 6/1/11 7/3/12
f 1/4/4 5/5/9 6/1/11
f 1/4/4 4/7/7 5/5/9
f 1/4/4 3/5/5 4/7/7
f 1/4/4 2/1/1 3/5/5
f 43/9/13 44/10/14 49/11/15
f 48/10/16 43/9/13 49/11/15
f 47/12/17 48/10/16 49/11/15
f 46/13/18 47/12/17 49/11/15
f 45/12/19 46/13/18 49/11/15
f 45/12/19 49/11/15 44/10/14
f 8/2/2 14/14/20 13/15/21
f 8/2/2 7/3/12 14/14/20
f 7/3/12 15/16/22 14/14/20
f 7/3/12 12/6/10 15/16/22
f 12/6/10 16/17/23 15/16/22
f 12/6/10 11/8/8 16/17/23
f 11/8/8 17/16/24 16/17/23
f 11/8/8 10/6/6 17/16/24
f 10/6/6 18/14/25 17/16/24
f 10/6/6 9/3/3 18/14/25
f 9/3/3 13/15/21 18/14/25
f 9/3/3 8/2/2 13/15/21
f 13/15/21 20/18/26 19/19/27
f 13/15/21 14/14/20 20/18/26
f 14/14/20 21/20/28 20/18/26
f 14/14/20 15/16/22 21/20/28
f 15/16/22 22/21/29 21/20/28
f 15/16/22 16/17/23 22/21/29
f 16/17/23 23/20/30 22/21/29
f 16/17/23 17/16/24 23/20/30
f 17/16/24 24/18/31 23/20/30
f 17/16/24 18/14/25 24/18/31
f 18/14/25 19/19/27 24/18/31
f 18/14/25 13/15/21 19/19/27
f 26/22/32 71/23/33 72/24/34
f 26/22/32 25/25/35 71/23/33
f 20/18/26 52/26/36 66/27/37
f 20/18/26 21/20/28 52/26/36
f 28/28/38 58/29/39 59/30/40
f 28/28/38 27/31/41 58/29/39
f 29/31/42 59/30/40 60/29/43
f 29/31/42 28/28/38 59/30/40
f 23/20/30 64/27/44 54/26/45
f 23/20/30 24/18/31 64/27/44
f 25/25/35 70/24/46 71/23/33
f 25/25/35 30/22/47 70/24/46
f 26/22/32 32/32/48 75/33/49
f 27/31/41 57/34/50 58/29/39
f 27/31/41 33/35/51 57/34/50
f 34/36/52 33/35/51 62/37/53
f 34/36/52 62/37/53 35/35/54
f 35/35/54 60/29/43 61/34/55
f 35/35/54 29/31/42 60/29/43
f 30/22/47 75/33/49 36/32/56
f 31/38/57 73/39/58 74/40/59
f 31/38/57 32/32/48 73/39/58
f 67/41/60 39/42/61 38/43/62
f 67/41/60 51/44/63 39/42/61
f 33/35/51 56/45/64 57/34/50
f 33/35/51 34/36/52 56/45/64
f 34/36/52 61/34/55 56/45/64
f 34/36/52 35/35/54 61/34/55
f 55/44/65 42/43/66 41/42/67
f 55/44/65 63/41/68 42/43/66
f 36/32/56 74/40/59 69/39/69
f 36/32/56 31/38/57 74/40/59
f 37/46/70 44/10/14 43/9/13
f 37/46/70 38/43/62 44/10/14
f 38/43/62 45/12/19 44/10/14
f 38/43/62 39/42/61 45/12/19
f 39/42/61 46/13/18 45/12/19
f 39/42/61 40/47/71 46/13/18
f 40/47/71 47/12/17 46/13/18
f 40/47/71 41/42/67 47/12/17
f 41/42/67 48/10/16 47/12/17
f 41/42/67 42/43/66 48/10/16
f 42/43/66 43/9/13 48/10/16
f 42/43/66 37/46/70 43/9/13
f 40/47/71 51/44/63 50/48/72
f 40/47/71 39/42/61 51/44/63
f 32/32/48 72/24/34 73/39/58
f 32/32/48 26/22/32 72/24/34
f 21/20/28 53/49/73 52/26/36
f 21/20/28 22/21/29 53/49/73
f 22/21/29 54/26/45 53/49/73
f 22/21/29 23/20/30 54/26/45
f 30/22/47 69/39/69 70/24/46
f 30/22/47 36/32/56 69/39/69
f 41/42/67 50/48/72 55/44/65
f 41/42/67 40/47/71 50/48/72
f 50/48/72 57/34/50 56/45/64
f 50/48/72 51/44/63 57/34/50
f 51/44/63 58/29/39 57/34/50
f 51/44/63 52/26/36 58/29/39
f 52/26/36 59/30/40 58/29/39
f 52/26/36 53/49/73 59/30/40
f 53/49/73 60/29/43 59/30/40
f 53/49/73 54/26/45 60/29/43
f 54/26/45 61/34/55 60/29/43
f 54/26/45 55/44/65 61/34/55
f 55/44/65 56/45/64 61/34/55
f 55/44/65 50/48/72 56/45/64
f 28/28/38 62/37/53 27/31/41
f 28/28/38 29/31/42 62/37/53
f 27/31/41 62/37/53 33/35/51
f 29/31/42 35/35/54 62/37/53
f 55/44/65 64/27/44 63/41/68
f 55/44/65 54/26/45 64/27/44
f 24/18/31 65/50/74 64/27/44
f 24/18/31 19/19/27 65/50/74
f 19/19/27 66/27/37 65/50/74
f 19/19/27 20/18/26 66/27/37
f 52/26/36 67/41/60 66/27/37
f 52/26/36 51/44/63 67/41/60
f 38/43/62 68/51/75 67/41/60
f 38/43/62 37/46/70 68/51/75
f 37/46/70 63/41/68 68/51/75
f 37/46/70 42/43/66 63/41/68
f 63/41/68 70/24/46 69/39/69
f 63/41/68 64/27/44 70/24/46
f 64/27/44 71/23/33 70/24/46
f 64/27/44 65/50/74 71/23/33
f 65/50/74 72/24/34 71/23/33
f 65/50/74 66/27/37 72/24/34
f 66/27/37 73/39/58 72/24/34
f 66/27/37 67/41/60 73/39/58
f 67/41/60 74/40/59 73/39/58
f 67/41/60 68/51/75 74/40/59
f 68/51/75 69/39/69 74/40/59
f 68/51/75 63/41/68 69/39/69
f 25/25/35 75/33/49 30/22/47
f 25/25/35 26/22/32 75/33/49
f 31/38/57 75/33/49 32/32/48
f 31/38/57 36/32/56 75/33/49
# 146 triangles in group

# 146 triangles total

